ISO-10303-21;
HEADER;
FILE_DESCRIPTION(('CATIA V5 STEP Exchange'),'2;1');

FILE_NAME('C:\\Users\\Modul\\Google Drive\\openTX\\3D print\\Ender upgrade\\x-carriage.stp','2020-08-18T12:16:14+00:00',('none'),('none'),'CATIA Version 5 Release 19 SP 2 (IN-10)','CATIA V5 STEP AP203','none');

FILE_SCHEMA(('CONFIG_CONTROL_DESIGN'));

ENDSEC;
/* file written by CATIA V5R19 */
DATA;
#5=PRODUCT('x-carriage','','',(#2)) ;
#1=APPLICATION_CONTEXT('configuration controlled 3D design of mechanical parts and assemblies') ;
#14=PRODUCT_DEFINITION('',' ',#6,#3) ;
#16=SECURITY_CLASSIFICATION(' ',' ',#15) ;
#15=SECURITY_CLASSIFICATION_LEVEL('unclassified') ;
#47=CARTESIAN_POINT(' ',(0.,0.,0.)) ;
#52=CARTESIAN_POINT('Axis2P3D Location',(21.5,-15.5,-10.5)) ;
#57=CARTESIAN_POINT('Line Origine',(21.5,-13.,-15.5)) ;
#61=CARTESIAN_POINT('Vertex',(21.5,-13.,-20.5)) ;
#63=CARTESIAN_POINT('Vertex',(21.5,-13.,-10.5)) ;
#66=CARTESIAN_POINT('Line Origine',(21.5,-14.25,-20.5)) ;
#70=CARTESIAN_POINT('Vertex',(21.5,-15.5,-20.5)) ;
#73=CARTESIAN_POINT('Line Origine',(21.5,-15.5,-15.5)) ;
#77=CARTESIAN_POINT('Vertex',(21.5,-15.5,-10.5)) ;
#80=CARTESIAN_POINT('Line Origine',(21.5,-14.25,-10.5)) ;
#92=CARTESIAN_POINT('Axis2P3D Location',(-20.,-15.5,-10.5)) ;
#97=CARTESIAN_POINT('Line Origine',(20.75,-15.5,-10.5)) ;
#101=CARTESIAN_POINT('Vertex',(20.,-15.5,-10.5)) ;
#104=CARTESIAN_POINT('Line Origine',(20.,-14.25,-10.5)) ;
#108=CARTESIAN_POINT('Vertex',(20.,-13.,-10.5)) ;
#111=CARTESIAN_POINT('Line Origine',(20.75,-13.,-10.5)) ;
#123=CARTESIAN_POINT('Axis2P3D Location',(20.,-15.5,-20.5)) ;
#128=CARTESIAN_POINT('Line Origine',(20.,-13.,-15.5)) ;
#132=CARTESIAN_POINT('Vertex',(20.,-13.,-20.5)) ;
#135=CARTESIAN_POINT('Line Origine',(20.,-15.5,-15.5)) ;
#139=CARTESIAN_POINT('Vertex',(20.,-15.5,-20.5)) ;
#142=CARTESIAN_POINT('Line Origine',(20.,-14.25,-20.5)) ;
#154=CARTESIAN_POINT('Axis2P3D Location',(32.,-13.,-20.5)) ;
#159=CARTESIAN_POINT('Line Origine',(18.75,-15.5,-20.5)) ;
#163=CARTESIAN_POINT('Vertex',(17.5,-15.5,-20.5)) ;
#166=CARTESIAN_POINT('Line Origine',(17.5,-14.25,-20.5)) ;
#170=CARTESIAN_POINT('Vertex',(17.5,-13.,-20.5)) ;
#173=CARTESIAN_POINT('Line Origine',(18.75,-13.,-20.5)) ;
#185=CARTESIAN_POINT('Axis2P3D Location',(32.,32.,0.)) ;
#190=CARTESIAN_POINT('Line Origine',(32.,-14.25,-18.)) ;
#194=CARTESIAN_POINT('Vertex',(32.,-13.,-18.)) ;
#196=CARTESIAN_POINT('Vertex',(32.,-15.5,-18.)) ;
#199=CARTESIAN_POINT('Line Origine',(32.,-13.,-9.)) ;
#203=CARTESIAN_POINT('Vertex',(32.,-13.,0.)) ;
#206=CARTESIAN_POINT('Line Origine',(32.,5.5,0.)) ;
#210=CARTESIAN_POINT('Vertex',(32.,24.,0.)) ;
#213=CARTESIAN_POINT('Line Origine',(32.,24.,1.25)) ;
#217=CARTESIAN_POINT('Vertex',(32.,24.,2.5)) ;
#220=CARTESIAN_POINT('Line Origine',(32.,5.5,2.5)) ;
#224=CARTESIAN_POINT('Vertex',(32.,-13.,2.5)) ;
#227=CARTESIAN_POINT('Axis2P3D Location',(32.,-13.,0.)) ;
#231=CARTESIAN_POINT('Vertex',(32.,-15.5,1.7763568394E-015)) ;
#234=CARTESIAN_POINT('Line Origine',(32.,-15.5,-9.)) ;
#249=CARTESIAN_POINT('Axis2P3D Location',(3.5527136788E-015,-13.,0.)) ;
#254=CARTESIAN_POINT('Axis2P3D Location',(15.,-13.,0.)) ;
#258=CARTESIAN_POINT('Vertex',(15.,-13.,2.5)) ;
#260=CARTESIAN_POINT('Vertex',(15.,-15.5,0.)) ;
#263=CARTESIAN_POINT('Line Origine',(0.,-15.5,1.53075794228E-016)) ;
#268=CARTESIAN_POINT('Line Origine',(0.,-13.,2.5)) ;
#280=CARTESIAN_POINT('Axis2P3D Location',(15.,-13.,2.5)) ;
#285=CARTESIAN_POINT('Line Origine',(15.,-15.5,-9.)) ;
#289=CARTESIAN_POINT('Vertex',(15.,-15.5,-18.)) ;
#292=CARTESIAN_POINT('Line Origine',(15.,-13.,1.25)) ;
#296=CARTESIAN_POINT('Vertex',(15.,-13.,0.)) ;
#299=CARTESIAN_POINT('Line Origine',(15.,-13.,-9.)) ;
#303=CARTESIAN_POINT('Vertex',(15.,-13.,-18.)) ;
#306=CARTESIAN_POINT('Line Origine',(15.,-14.25,-18.)) ;
#319=CARTESIAN_POINT('Axis2P3D Location',(24.,24.,1.25)) ;
#324=CARTESIAN_POINT('Axis2P3D Location',(24.,24.,2.5)) ;
#328=CARTESIAN_POINT('Vertex',(24.,32.,2.5)) ;
#331=CARTESIAN_POINT('Axis2P3D Location',(24.,24.,0.)) ;
#335=CARTESIAN_POINT('Vertex',(24.,32.,0.)) ;
#338=CARTESIAN_POINT('Line Origine',(24.,32.,1.25)) ;
#350=CARTESIAN_POINT('Axis2P3D Location',(0.,0.,0.)) ;
#355=CARTESIAN_POINT('Axis2P3D Location',(-24.,24.,0.)) ;
#359=CARTESIAN_POINT('Vertex',(-24.,32.,0.)) ;
#361=CARTESIAN_POINT('Vertex',(-32.,24.,0.)) ;
#364=CARTESIAN_POINT('Line Origine',(3.5527136788E-015,32.,0.)) ;
#369=CARTESIAN_POINT('Line Origine',(23.5,-13.,0.)) ;
#374=CARTESIAN_POINT('Line Origine',(13.5,-13.,0.)) ;
#378=CARTESIAN_POINT('Vertex',(12.,-13.,0.)) ;
#381=CARTESIAN_POINT('Line Origine',(12.,-16.5,0.)) ;
#385=CARTESIAN_POINT('Vertex',(12.,-20.,0.)) ;
#388=CARTESIAN_POINT('Axis2P3D Location',(3.5527136788E-015,-20.,0.)) ;
#392=CARTESIAN_POINT('Vertex',(-12.,-20.,0.)) ;
#395=CARTESIAN_POINT('Line Origine',(-12.,-16.5,0.)) ;
#399=CARTESIAN_POINT('Vertex',(-12.,-13.,0.)) ;
#402=CARTESIAN_POINT('Line Origine',(-13.5,-13.,0.)) ;
#406=CARTESIAN_POINT('Vertex',(-15.,-13.,-3.10862446895E-015)) ;
#409=CARTESIAN_POINT('Line Origine',(-23.5,-13.,0.)) ;
#413=CARTESIAN_POINT('Vertex',(-32.,-13.,0.)) ;
#416=CARTESIAN_POINT('Line Origine',(-32.,5.5,0.)) ;
#435=CARTESIAN_POINT('Axis2P3D Location',(23.5,7.5,0.)) ;
#439=CARTESIAN_POINT('Vertex',(24.5789877598,6.91054630029,0.)) ;
#441=CARTESIAN_POINT('Vertex',(22.4210122402,8.08945369971,0.)) ;
#444=CARTESIAN_POINT('Axis2P3D Location',(23.5,7.5,0.)) ;
#453=CARTESIAN_POINT('Axis2P3D Location',(9.5,7.5,0.)) ;
#457=CARTESIAN_POINT('Vertex',(10.5789877598,6.91054630029,0.)) ;
#459=CARTESIAN_POINT('Vertex',(8.42101224016,8.08945369971,0.)) ;
#462=CARTESIAN_POINT('Axis2P3D Location',(9.5,7.5,0.)) ;
#471=CARTESIAN_POINT('Line Origine',(24.3,-2.3,0.)) ;
#475=CARTESIAN_POINT('Vertex',(24.3,3.2,0.)) ;
#477=CARTESIAN_POINT('Vertex',(24.3,-7.8,0.)) ;
#480=CARTESIAN_POINT('Line Origine',(16.5,3.2,0.)) ;
#484=CARTESIAN_POINT('Vertex',(8.7,3.2,0.)) ;
#487=CARTESIAN_POINT('Line Origine',(8.7,-2.3,0.)) ;
#491=CARTESIAN_POINT('Vertex',(8.7,-7.8,0.)) ;
#494=CARTESIAN_POINT('Line Origine',(16.5,-7.8,0.)) ;
#505=CARTESIAN_POINT('Line Origine',(-9.,-7.5,0.)) ;
#509=CARTESIAN_POINT('Vertex',(-9.,-4.65,0.)) ;
#511=CARTESIAN_POINT('Vertex',(-9.,-10.35,0.)) ;
#514=CARTESIAN_POINT('Line Origine',(-10.5,-4.65,0.)) ;
#518=CARTESIAN_POINT('Vertex',(-12.,-4.65,0.)) ;
#521=CARTESIAN_POINT('Line Origine',(-12.,-7.5,0.)) ;
#525=CARTESIAN_POINT('Vertex',(-12.,-10.35,0.)) ;
#528=CARTESIAN_POINT('Line Origine',(-10.5,-10.35,0.)) ;
#539=CARTESIAN_POINT('Axis2P3D Location',(-4.5,21.5,0.)) ;
#543=CARTESIAN_POINT('Vertex',(-6.125,21.5,0.)) ;
#545=CARTESIAN_POINT('Vertex',(-2.875,21.5,0.)) ;
#548=CARTESIAN_POINT('Axis2P3D Location',(-4.5,21.5,0.)) ;
#557=CARTESIAN_POINT('Axis2P3D Location',(27.5,2.22044604925E-016,0.)) ;
#561=CARTESIAN_POINT('Vertex',(25.75,2.14306111919E-016,0.)) ;
#563=CARTESIAN_POINT('Vertex',(29.25,0.,0.)) ;
#566=CARTESIAN_POINT('Axis2P3D Location',(27.5,0.,0.)) ;
#575=CARTESIAN_POINT('Axis2P3D Location',(-19.,-1.5,0.)) ;
#579=CARTESIAN_POINT('Vertex',(-20.25,-1.5,0.)) ;
#581=CARTESIAN_POINT('Vertex',(-17.75,-1.5,0.)) ;
#584=CARTESIAN_POINT('Axis2P3D Location',(-19.,-1.5,0.)) ;
#593=CARTESIAN_POINT('Axis2P3D Location',(-28.5,16.5,0.)) ;
#597=CARTESIAN_POINT('Vertex',(-29.75,16.5,0.)) ;
#599=CARTESIAN_POINT('Vertex',(-27.25,16.5,0.)) ;
#602=CARTESIAN_POINT('Axis2P3D Location',(-28.5,16.5,0.)) ;
#611=CARTESIAN_POINT('Axis2P3D Location',(-20.,20.,0.)) ;
#615=CARTESIAN_POINT('Vertex',(-22.5,20.,0.)) ;
#617=CARTESIAN_POINT('Vertex',(-17.5,20.,0.)) ;
#620=CARTESIAN_POINT('Axis2P3D Location',(-20.,20.,0.)) ;
#629=CARTESIAN_POINT('Axis2P3D Location',(20.,20.,0.)) ;
#633=CARTESIAN_POINT('Vertex',(17.5,20.,0.)) ;
#635=CARTESIAN_POINT('Vertex',(22.5,20.,0.)) ;
#638=CARTESIAN_POINT('Axis2P3D Location',(20.,20.,0.)) ;
#647=CARTESIAN_POINT('Axis2P3D Location',(3.5527136788E-015,-20.,0.)) ;
#651=CARTESIAN_POINT('Vertex',(-3.6,-20.,0.)) ;
#653=CARTESIAN_POINT('Vertex',(3.6,-20.,0.)) ;
#656=CARTESIAN_POINT('Axis2P3D Location',(1.7763568394E-015,-20.,0.)) ;
#666=CARTESIAN_POINT('Axis2P3D Location',(-36.1046481133,-13.,2.5)) ;
#671=CARTESIAN_POINT('Line Origine',(13.5,-13.,2.5)) ;
#675=CARTESIAN_POINT('Vertex',(12.,-13.,2.5)) ;
#678=CARTESIAN_POINT('Line Origine',(12.,-13.,1.25)) ;
#690=CARTESIAN_POINT('Axis2P3D Location',(-32.,32.,0.)) ;
#695=CARTESIAN_POINT('Line Origine',(-24.,32.,1.25)) ;
#699=CARTESIAN_POINT('Vertex',(-24.,32.,2.5)) ;
#702=CARTESIAN_POINT('Line Origine',(3.5527136788E-015,32.,2.5)) ;
#714=CARTESIAN_POINT('Line Origine',(-20.,-13.,-15.5)) ;
#718=CARTESIAN_POINT('Vertex',(-20.,-13.,-20.5)) ;
#720=CARTESIAN_POINT('Vertex',(-20.,-13.,-10.5)) ;
#723=CARTESIAN_POINT('Line Origine',(-20.75,-13.,-10.5)) ;
#727=CARTESIAN_POINT('Vertex',(-21.5,-13.,-10.5)) ;
#730=CARTESIAN_POINT('Line Origine',(-21.5,-13.,-15.5)) ;
#734=CARTESIAN_POINT('Vertex',(-21.5,-13.,-20.5)) ;
#737=CARTESIAN_POINT('Line Origine',(-25.5,-13.,-20.5)) ;
#741=CARTESIAN_POINT('Vertex',(-29.5,-13.,-20.5)) ;
#744=CARTESIAN_POINT('Axis2P3D Location',(-29.5,-13.,-18.)) ;
#748=CARTESIAN_POINT('Vertex',(-32.,-13.,-18.)) ;
#751=CARTESIAN_POINT('Line Origine',(-32.,-13.,-9.)) ;
#756=CARTESIAN_POINT('Line Origine',(-15.,-13.,-9.)) ;
#760=CARTESIAN_POINT('Vertex',(-15.,-13.,-18.)) ;
#763=CARTESIAN_POINT('Axis2P3D Location',(-17.5,-13.,-18.)) ;
#767=CARTESIAN_POINT('Vertex',(-17.5,-13.,-20.5)) ;
#770=CARTESIAN_POINT('Line Origine',(-18.75,-13.,-20.5)) ;
#788=CARTESIAN_POINT('Line Origine',(-12.,-13.,1.25)) ;
#792=CARTESIAN_POINT('Vertex',(-12.,-13.,2.5)) ;
#795=CARTESIAN_POINT('Line Origine',(-13.5,-13.,2.5)) ;
#799=CARTESIAN_POINT('Vertex',(-15.,-13.,2.5)) ;
#802=CARTESIAN_POINT('Line Origine',(-15.,-13.,1.25)) ;
#814=CARTESIAN_POINT('Axis2P3D Location',(12.,-13.,2.5)) ;
#819=CARTESIAN_POINT('Line Origine',(12.,-16.5,2.5)) ;
#823=CARTESIAN_POINT('Vertex',(12.,-20.,2.5)) ;
#826=CARTESIAN_POINT('Line Origine',(12.,-20.,1.25)) ;
#838=CARTESIAN_POINT('Axis2P3D Location',(23.5,7.5,6.9)) ;
#843=CARTESIAN_POINT('Line Origine',(24.5789877598,6.91054630029,3.49999999929)) ;
#847=CARTESIAN_POINT('Vertex',(24.5789877598,6.91054630029,7.)) ;
#850=CARTESIAN_POINT('Line Origine',(22.4210122402,8.08945369971,3.49999999929)) ;
#854=CARTESIAN_POINT('Vertex',(22.4210122402,8.08945369971,7.)) ;
#857=CARTESIAN_POINT('Axis2P3D Location',(23.5,7.5,7.)) ;
#869=CARTESIAN_POINT('Axis2P3D Location',(23.5,7.5,7.)) ;
#881=CARTESIAN_POINT('Axis2P3D Location',(9.5,7.5,6.9)) ;
#886=CARTESIAN_POINT('Line Origine',(10.5789877598,6.91054630029,3.49999999929)) ;
#890=CARTESIAN_POINT('Vertex',(10.5789877598,6.91054630029,7.)) ;
#893=CARTESIAN_POINT('Line Origine',(8.42101224016,8.08945369971,3.49999999929)) ;
#897=CARTESIAN_POINT('Vertex',(8.42101224016,8.08945369971,7.)) ;
#900=CARTESIAN_POINT('Axis2P3D Location',(9.5,7.5,7.)) ;
#912=CARTESIAN_POINT('Axis2P3D Location',(9.5,7.5,7.)) ;
#924=CARTESIAN_POINT('Axis2P3D Location',(-12.,-13.,2.5)) ;
#929=CARTESIAN_POINT('Line Origine',(-12.,-4.65,1.25)) ;
#933=CARTESIAN_POINT('Vertex',(-12.,-4.65,2.5)) ;
#936=CARTESIAN_POINT('Line Origine',(-12.,-7.5,2.5)) ;
#940=CARTESIAN_POINT('Vertex',(-12.,-10.35,2.5)) ;
#943=CARTESIAN_POINT('Line Origine',(-12.,-10.35,1.25)) ;
#955=CARTESIAN_POINT('Axis2P3D Location',(-4.5,21.5,0.58999999922)) ;
#960=CARTESIAN_POINT('Line Origine',(-2.875,21.5,0.58999999922)) ;
#964=CARTESIAN_POINT('Vertex',(-2.875,21.5,2.5)) ;
#967=CARTESIAN_POINT('Axis2P3D Location',(-4.5,21.5,2.5)) ;
#971=CARTESIAN_POINT('Vertex',(-6.125,21.5,2.5)) ;
#974=CARTESIAN_POINT('Line Origine',(-6.125,21.5,0.58999999922)) ;
#986=CARTESIAN_POINT('Axis2P3D Location',(-4.5,21.5,2.5)) ;
#998=CARTESIAN_POINT('Axis2P3D Location',(27.5,0.,0.58999999922)) ;
#1003=CARTESIAN_POINT('Line Origine',(29.25,0.,0.58999999922)) ;
#1007=CARTESIAN_POINT('Vertex',(29.25,0.,2.5)) ;
#1010=CARTESIAN_POINT('Axis2P3D Location',(27.5,0.,2.5)) ;
#1014=CARTESIAN_POINT('Vertex',(25.75,2.14306111919E-016,2.5)) ;
#1017=CARTESIAN_POINT('Line Origine',(25.75,2.14306111919E-016,0.58999999922)) ;
#1029=CARTESIAN_POINT('Axis2P3D Location',(27.5,0.,2.5)) ;
#1041=CARTESIAN_POINT('Axis2P3D Location',(-19.,-1.5,0.58999999922)) ;
#1046=CARTESIAN_POINT('Line Origine',(-17.75,-1.5,0.58999999922)) ;
#1050=CARTESIAN_POINT('Vertex',(-17.75,-1.5,2.5)) ;
#1053=CARTESIAN_POINT('Axis2P3D Location',(-19.,-1.5,2.5)) ;
#1057=CARTESIAN_POINT('Vertex',(-20.25,-1.5,2.5)) ;
#1060=CARTESIAN_POINT('Line Origine',(-20.25,-1.5,0.58999999922)) ;
#1072=CARTESIAN_POINT('Axis2P3D Location',(-19.,-1.5,2.5)) ;
#1084=CARTESIAN_POINT('Axis2P3D Location',(-28.5,16.5,0.58999999922)) ;
#1089=CARTESIAN_POINT('Line Origine',(-27.25,16.5,0.58999999922)) ;
#1093=CARTESIAN_POINT('Vertex',(-27.25,16.5,2.5)) ;
#1096=CARTESIAN_POINT('Axis2P3D Location',(-28.5,16.5,2.5)) ;
#1100=CARTESIAN_POINT('Vertex',(-29.75,16.5,2.5)) ;
#1103=CARTESIAN_POINT('Line Origine',(-29.75,16.5,0.58999999922)) ;
#1115=CARTESIAN_POINT('Axis2P3D Location',(-28.5,16.5,2.5)) ;
#1127=CARTESIAN_POINT('Axis2P3D Location',(-20.,20.,0.589999999948)) ;
#1132=CARTESIAN_POINT('Line Origine',(-17.5,20.,0.589999999948)) ;
#1136=CARTESIAN_POINT('Vertex',(-17.5,20.,2.5)) ;
#1139=CARTESIAN_POINT('Axis2P3D Location',(-20.,20.,2.5)) ;
#1143=CARTESIAN_POINT('Vertex',(-22.5,20.,2.5)) ;
#1146=CARTESIAN_POINT('Line Origine',(-22.5,20.,0.589999999948)) ;
#1158=CARTESIAN_POINT('Axis2P3D Location',(-20.,20.,2.5)) ;
#1170=CARTESIAN_POINT('Axis2P3D Location',(20.,20.,0.589999999948)) ;
#1175=CARTESIAN_POINT('Line Origine',(22.5,20.,0.589999999948)) ;
#1179=CARTESIAN_POINT('Vertex',(22.5,20.,2.5)) ;
#1182=CARTESIAN_POINT('Axis2P3D Location',(20.,20.,2.5)) ;
#1186=CARTESIAN_POINT('Vertex',(17.5,20.,2.5)) ;
#1189=CARTESIAN_POINT('Line Origine',(17.5,20.,0.589999999948)) ;
#1201=CARTESIAN_POINT('Axis2P3D Location',(20.,20.,2.5)) ;
#1213=CARTESIAN_POINT('Axis2P3D Location',(2.44929359829E-015,-20.,0.589999999948)) ;
#1218=CARTESIAN_POINT('Line Origine',(3.6,-20.,0.589999999948)) ;
#1222=CARTESIAN_POINT('Vertex',(3.6,-20.,2.5)) ;
#1225=CARTESIAN_POINT('Axis2P3D Location',(2.44929359829E-015,-20.,2.5)) ;
#1229=CARTESIAN_POINT('Vertex',(-3.6,-20.,2.5)) ;
#1232=CARTESIAN_POINT('Line Origine',(-3.6,-20.,0.589999999948)) ;
#1244=CARTESIAN_POINT('Axis2P3D Location',(2.44929359829E-015,-20.,2.5)) ;
#1256=CARTESIAN_POINT('Line Origine',(-20.,-14.25,-10.5)) ;
#1260=CARTESIAN_POINT('Vertex',(-20.,-15.5,-10.5)) ;
#1263=CARTESIAN_POINT('Line Origine',(-20.75,-15.5,-10.5)) ;
#1267=CARTESIAN_POINT('Vertex',(-21.5,-15.5,-10.5)) ;
#1270=CARTESIAN_POINT('Line Origine',(-21.5,-14.25,-10.5)) ;
#1282=CARTESIAN_POINT('Axis2P3D Location',(-20.,-15.5,-20.5)) ;
#1287=CARTESIAN_POINT('Line Origine',(-20.,-14.25,-20.5)) ;
#1291=CARTESIAN_POINT('Vertex',(-20.,-15.5,-20.5)) ;
#1294=CARTESIAN_POINT('Line Origine',(-20.,-15.5,-15.5)) ;
#1306=CARTESIAN_POINT('Axis2P3D Location',(0.,0.,7.)) ;
#1311=CARTESIAN_POINT('Axis2P3D Location',(23.5,7.5,7.)) ;
#1315=CARTESIAN_POINT('Vertex',(26.17,7.5,7.)) ;
#1317=CARTESIAN_POINT('Vertex',(20.83,7.5,7.)) ;
#1320=CARTESIAN_POINT('Axis2P3D Location',(23.5,7.5,7.)) ;
#1334=CARTESIAN_POINT('Axis2P3D Location',(9.5,7.5,7.)) ;
#1338=CARTESIAN_POINT('Vertex',(12.17,7.5,7.)) ;
#1340=CARTESIAN_POINT('Vertex',(6.83,7.5,7.)) ;
#1343=CARTESIAN_POINT('Axis2P3D Location',(9.5,7.5,7.)) ;
#1357=CARTESIAN_POINT('Axis2P3D Location',(0.,-15.5,0.)) ;
#1362=CARTESIAN_POINT('Line Origine',(-18.75,-15.5,-20.5)) ;
#1366=CARTESIAN_POINT('Vertex',(-17.5,-15.5,-20.5)) ;
#1369=CARTESIAN_POINT('Axis2P3D Location',(-17.5,-15.5,-18.)) ;
#1373=CARTESIAN_POINT('Vertex',(-15.,-15.5,-18.)) ;
#1376=CARTESIAN_POINT('Line Origine',(-15.,-15.5,-9.)) ;
#1380=CARTESIAN_POINT('Vertex',(-15.,-15.5,-3.10862446895E-015)) ;
#1383=CARTESIAN_POINT('Line Origine',(-23.5,-15.5,0.)) ;
#1387=CARTESIAN_POINT('Vertex',(-32.,-15.5,0.)) ;
#1390=CARTESIAN_POINT('Line Origine',(-32.,-15.5,-9.)) ;
#1394=CARTESIAN_POINT('Vertex',(-32.,-15.5,-18.)) ;
#1397=CARTESIAN_POINT('Axis2P3D Location',(-29.5,-15.5,-18.)) ;
#1401=CARTESIAN_POINT('Vertex',(-29.5,-15.5,-20.5)) ;
#1404=CARTESIAN_POINT('Line Origine',(-25.5,-15.5,-20.5)) ;
#1408=CARTESIAN_POINT('Vertex',(-21.5,-15.5,-20.5)) ;
#1411=CARTESIAN_POINT('Line Origine',(-21.5,-15.5,-15.5)) ;
#1429=CARTESIAN_POINT('Axis2P3D Location',(23.5,7.5,4.75)) ;
#1434=CARTESIAN_POINT('Line Origine',(26.17,7.5,4.75)) ;
#1438=CARTESIAN_POINT('Vertex',(26.17,7.5,2.5)) ;
#1441=CARTESIAN_POINT('Axis2P3D Location',(23.5,7.5,2.5)) ;
#1445=CARTESIAN_POINT('Vertex',(20.83,7.5,2.5)) ;
#1448=CARTESIAN_POINT('Line Origine',(20.83,7.5,4.75)) ;
#1460=CARTESIAN_POINT('Axis2P3D Location',(23.5,7.5,2.5)) ;
#1472=CARTESIAN_POINT('Axis2P3D Location',(9.5,7.5,4.75)) ;
#1477=CARTESIAN_POINT('Line Origine',(12.17,7.5,4.75)) ;
#1481=CARTESIAN_POINT('Vertex',(12.17,7.5,2.5)) ;
#1484=CARTESIAN_POINT('Axis2P3D Location',(9.5,7.5,2.5)) ;
#1488=CARTESIAN_POINT('Vertex',(6.83,7.5,2.5)) ;
#1491=CARTESIAN_POINT('Line Origine',(6.83,7.5,4.75)) ;
#1503=CARTESIAN_POINT('Axis2P3D Location',(9.5,7.5,2.5)) ;
#1515=CARTESIAN_POINT('Axis2P3D Location',(3.5527136788E-015,-13.,0.)) ;
#1520=CARTESIAN_POINT('Axis2P3D Location',(-32.,-13.,0.)) ;
#1524=CARTESIAN_POINT('Vertex',(-32.,-13.,2.5)) ;
#1527=CARTESIAN_POINT('Axis2P3D Location',(-15.,-13.,0.)) ;
#1532=CARTESIAN_POINT('Line Origine',(0.,-13.,2.5)) ;
#1544=CARTESIAN_POINT('Axis2P3D Location',(-21.5,-15.5,-10.5)) ;
#1549=CARTESIAN_POINT('Line Origine',(-21.5,-14.25,-20.5)) ;
#1561=CARTESIAN_POINT('Line Origine',(-29.5,-14.25,-20.5)) ;
#1573=CARTESIAN_POINT('Axis2P3D Location',(-29.5,4.25,-18.)) ;
#1578=CARTESIAN_POINT('Line Origine',(-32.,4.25,-18.)) ;
#1590=CARTESIAN_POINT('Axis2P3D Location',(-15.,-13.,-20.5)) ;
#1595=CARTESIAN_POINT('Line Origine',(-15.,-14.25,-18.)) ;
#1608=CARTESIAN_POINT('Axis2P3D Location',(-17.5,-14.25,-18.)) ;
#1613=CARTESIAN_POINT('Line Origine',(-17.5,-14.25,-20.5)) ;
#1632=CARTESIAN_POINT('Axis2P3D Location',(-9.,-4.65,2.5)) ;
#1637=CARTESIAN_POINT('Line Origine',(-9.,-10.35,1.25)) ;
#1641=CARTESIAN_POINT('Vertex',(-9.,-10.35,2.5)) ;
#1644=CARTESIAN_POINT('Line Origine',(-9.,-7.5,2.5)) ;
#1648=CARTESIAN_POINT('Vertex',(-9.,-4.65,2.5)) ;
#1651=CARTESIAN_POINT('Line Origine',(-9.,-4.65,1.25)) ;
#1663=CARTESIAN_POINT('Axis2P3D Location',(-12.,-4.65,2.5)) ;
#1668=CARTESIAN_POINT('Line Origine',(-10.5,-4.65,2.5)) ;
#1680=CARTESIAN_POINT('Axis2P3D Location',(-9.,-10.35,2.5)) ;
#1685=CARTESIAN_POINT('Line Origine',(-10.5,-10.35,2.5)) ;
#1697=CARTESIAN_POINT('Axis2P3D Location',(24.3,3.2,2.5)) ;
#1702=CARTESIAN_POINT('Line Origine',(24.3,-7.8,1.25)) ;
#1706=CARTESIAN_POINT('Vertex',(24.3,-7.8,2.5)) ;
#1709=CARTESIAN_POINT('Line Origine',(24.3,-2.3,2.5)) ;
#1713=CARTESIAN_POINT('Vertex',(24.3,3.2,2.5)) ;
#1716=CARTESIAN_POINT('Line Origine',(24.3,3.2,1.25)) ;
#1728=CARTESIAN_POINT('Axis2P3D Location',(8.7,3.2,2.5)) ;
#1733=CARTESIAN_POINT('Line Origine',(16.5,3.2,2.5)) ;
#1737=CARTESIAN_POINT('Vertex',(8.7,3.2,2.5)) ;
#1740=CARTESIAN_POINT('Line Origine',(8.7,3.2,1.25)) ;
#1752=CARTESIAN_POINT('Axis2P3D Location',(8.7,-7.8,2.5)) ;
#1757=CARTESIAN_POINT('Line Origine',(8.7,-2.3,2.5)) ;
#1761=CARTESIAN_POINT('Vertex',(8.7,-7.8,2.5)) ;
#1764=CARTESIAN_POINT('Line Origine',(8.7,-7.8,1.25)) ;
#1776=CARTESIAN_POINT('Axis2P3D Location',(24.3,-7.8,2.5)) ;
#1781=CARTESIAN_POINT('Line Origine',(16.5,-7.8,2.5)) ;
#1793=CARTESIAN_POINT('Axis2P3D Location',(-24.,24.,1.25)) ;
#1798=CARTESIAN_POINT('Axis2P3D Location',(-24.,24.,2.5)) ;
#1802=CARTESIAN_POINT('Vertex',(-32.,24.,2.5)) ;
#1805=CARTESIAN_POINT('Line Origine',(-32.,24.,1.25)) ;
#1817=CARTESIAN_POINT('Axis2P3D Location',(0.,-20.,0.589999999948)) ;
#1822=CARTESIAN_POINT('Line Origine',(-12.,-20.,0.589999999948)) ;
#1826=CARTESIAN_POINT('Vertex',(-12.,-20.,2.5)) ;
#1829=CARTESIAN_POINT('Axis2P3D Location',(0.,-20.,2.5)) ;
#1841=CARTESIAN_POINT('Line Origine',(-12.,-16.5,2.5)) ;
#1853=CARTESIAN_POINT('Axis2P3D Location',(-32.,-32.,0.)) ;
#1858=CARTESIAN_POINT('Line Origine',(-32.,5.5,2.5)) ;
#1873=CARTESIAN_POINT('Axis2P3D Location',(0.,0.,2.5)) ;
#1941=CARTESIAN_POINT('Axis2P3D Location',(29.5,4.25,-18.)) ;
#1946=CARTESIAN_POINT('Axis2P3D Location',(29.5,-15.5,-18.)) ;
#1950=CARTESIAN_POINT('Vertex',(29.5,-15.5,-20.5)) ;
#1953=CARTESIAN_POINT('Line Origine',(29.5,4.25,-20.5)) ;
#1957=CARTESIAN_POINT('Vertex',(29.5,-13.,-20.5)) ;
#1960=CARTESIAN_POINT('Axis2P3D Location',(29.5,-13.,-18.)) ;
#1972=CARTESIAN_POINT('Axis2P3D Location',(17.5,-14.25,-18.)) ;
#1977=CARTESIAN_POINT('Axis2P3D Location',(17.5,-15.5,-18.)) ;
#1982=CARTESIAN_POINT('Axis2P3D Location',(17.5,-13.,-18.)) ;
#1994=CARTESIAN_POINT('Line Origine',(25.5,-13.,-20.5)) ;
#2012=CARTESIAN_POINT('Line Origine',(25.5,-15.5,-20.5)) ;
#53=DIRECTION('Axis2P3D Direction',(1.,-0.,0.)) ;
#54=DIRECTION('Axis2P3D XDirection',(0.,0.,-1.)) ;
#58=DIRECTION('Vector Direction',(0.,-7.1054273576E-016,1.)) ;
#67=DIRECTION('Vector Direction',(0.,1.,0.)) ;
#74=DIRECTION('Vector Direction',(0.,0.,-1.)) ;
#81=DIRECTION('Vector Direction',(0.,1.,0.)) ;
#93=DIRECTION('Axis2P3D Direction',(0.,0.,-1.)) ;
#94=DIRECTION('Axis2P3D XDirection',(-1.,0.,0.)) ;
#98=DIRECTION('Vector Direction',(1.,0.,0.)) ;
#105=DIRECTION('Vector Direction',(0.,1.,0.)) ;
#112=DIRECTION('Vector Direction',(-1.,0.,0.)) ;
#124=DIRECTION('Axis2P3D Direction',(-1.,0.,0.)) ;
#125=DIRECTION('Axis2P3D XDirection',(0.,0.,1.)) ;
#129=DIRECTION('Vector Direction',(0.,0.,1.)) ;
#136=DIRECTION('Vector Direction',(0.,0.,1.)) ;
#143=DIRECTION('Vector Direction',(0.,1.,0.)) ;
#155=DIRECTION('Axis2P3D Direction',(0.,0.,1.)) ;
#156=DIRECTION('Axis2P3D XDirection',(-1.,0.,0.)) ;
#160=DIRECTION('Vector Direction',(-1.,0.,0.)) ;
#167=DIRECTION('Vector Direction',(0.,-1.,0.)) ;
#174=DIRECTION('Vector Direction',(-1.,0.,0.)) ;
#186=DIRECTION('Axis2P3D Direction',(-1.,0.,0.)) ;
#187=DIRECTION('Axis2P3D XDirection',(0.,-1.,0.)) ;
#191=DIRECTION('Vector Direction',(0.,-1.,0.)) ;
#200=DIRECTION('Vector Direction',(0.,0.,1.)) ;
#207=DIRECTION('Vector Direction',(0.,-1.,0.)) ;
#214=DIRECTION('Vector Direction',(0.,0.,1.)) ;
#221=DIRECTION('Vector Direction',(0.,-1.,0.)) ;
#228=DIRECTION('Axis2P3D Direction',(-1.,0.,0.)) ;
#235=DIRECTION('Vector Direction',(0.,0.,1.)) ;
#250=DIRECTION('Axis2P3D Direction',(1.,0.,-0.)) ;
#251=DIRECTION('Axis2P3D XDirection',(0.,0.,1.)) ;
#255=DIRECTION('Axis2P3D Direction',(1.,0.,-0.)) ;
#264=DIRECTION('Vector Direction',(1.,0.,0.)) ;
#269=DIRECTION('Vector Direction',(1.,0.,0.)) ;
#281=DIRECTION('Axis2P3D Direction',(-1.,-0.,-0.)) ;
#282=DIRECTION('Axis2P3D XDirection',(0.,0.,-1.)) ;
#286=DIRECTION('Vector Direction',(0.,0.,-1.)) ;
#293=DIRECTION('Vector Direction',(0.,0.,-1.)) ;
#300=DIRECTION('Vector Direction',(0.,0.,-1.)) ;
#307=DIRECTION('Vector Direction',(0.,-1.,0.)) ;
#320=DIRECTION('Axis2P3D Direction',(0.,-0.,1.)) ;
#321=DIRECTION('Axis2P3D XDirection',(1.,-1.83697019872E-016,-0.)) ;
#325=DIRECTION('Axis2P3D Direction',(0.,-0.,1.)) ;
#332=DIRECTION('Axis2P3D Direction',(0.,-0.,1.)) ;
#339=DIRECTION('Vector Direction',(0.,0.,1.)) ;
#351=DIRECTION('Axis2P3D Direction',(0.,0.,1.)) ;
#352=DIRECTION('Axis2P3D XDirection',(1.,0.,0.)) ;
#356=DIRECTION('Axis2P3D Direction',(0.,0.,1.)) ;
#365=DIRECTION('Vector Direction',(1.,0.,0.)) ;
#370=DIRECTION('Vector Direction',(1.,0.,0.)) ;
#375=DIRECTION('Vector Direction',(1.,0.,0.)) ;
#382=DIRECTION('Vector Direction',(0.,-1.,0.)) ;
#389=DIRECTION('Axis2P3D Direction',(0.,0.,1.)) ;
#396=DIRECTION('Vector Direction',(0.,-1.,0.)) ;
#403=DIRECTION('Vector Direction',(-1.,0.,0.)) ;
#410=DIRECTION('Vector Direction',(-1.,0.,0.)) ;
#417=DIRECTION('Vector Direction',(0.,1.,0.)) ;
#436=DIRECTION('Axis2P3D Direction',(0.,0.,1.)) ;
#445=DIRECTION('Axis2P3D Direction',(0.,0.,1.)) ;
#454=DIRECTION('Axis2P3D Direction',(0.,0.,1.)) ;
#463=DIRECTION('Axis2P3D Direction',(0.,0.,1.)) ;
#472=DIRECTION('Vector Direction',(0.,-1.,0.)) ;
#481=DIRECTION('Vector Direction',(1.,0.,0.)) ;
#488=DIRECTION('Vector Direction',(0.,1.,0.)) ;
#495=DIRECTION('Vector Direction',(-1.,0.,0.)) ;
#506=DIRECTION('Vector Direction',(0.,-1.,0.)) ;
#515=DIRECTION('Vector Direction',(1.,0.,0.)) ;
#522=DIRECTION('Vector Direction',(0.,-1.,0.)) ;
#529=DIRECTION('Vector Direction',(-1.,0.,0.)) ;
#540=DIRECTION('Axis2P3D Direction',(0.,0.,1.)) ;
#549=DIRECTION('Axis2P3D Direction',(0.,0.,1.)) ;
#558=DIRECTION('Axis2P3D Direction',(0.,0.,1.)) ;
#567=DIRECTION('Axis2P3D Direction',(0.,0.,1.)) ;
#576=DIRECTION('Axis2P3D Direction',(0.,0.,1.)) ;
#585=DIRECTION('Axis2P3D Direction',(0.,0.,1.)) ;
#594=DIRECTION('Axis2P3D Direction',(0.,0.,1.)) ;
#603=DIRECTION('Axis2P3D Direction',(0.,0.,1.)) ;
#612=DIRECTION('Axis2P3D Direction',(0.,0.,1.)) ;
#621=DIRECTION('Axis2P3D Direction',(0.,0.,1.)) ;
#630=DIRECTION('Axis2P3D Direction',(0.,0.,1.)) ;
#639=DIRECTION('Axis2P3D Direction',(0.,0.,1.)) ;
#648=DIRECTION('Axis2P3D Direction',(0.,0.,1.)) ;
#657=DIRECTION('Axis2P3D Direction',(0.,0.,1.)) ;
#667=DIRECTION('Axis2P3D Direction',(-0.,-1.,-0.)) ;
#668=DIRECTION('Axis2P3D XDirection',(-1.,0.,0.)) ;
#672=DIRECTION('Vector Direction',(1.,0.,0.)) ;
#679=DIRECTION('Vector Direction',(0.,0.,-1.)) ;
#691=DIRECTION('Axis2P3D Direction',(0.,-1.,0.)) ;
#692=DIRECTION('Axis2P3D XDirection',(1.,0.,0.)) ;
#696=DIRECTION('Vector Direction',(0.,0.,1.)) ;
#703=DIRECTION('Vector Direction',(1.,0.,0.)) ;
#715=DIRECTION('Vector Direction',(0.,0.,1.)) ;
#724=DIRECTION('Vector Direction',(-1.,0.,0.)) ;
#731=DIRECTION('Vector Direction',(0.,0.,1.)) ;
#738=DIRECTION('Vector Direction',(-1.,0.,0.)) ;
#745=DIRECTION('Axis2P3D Direction',(-0.,-1.,-0.)) ;
#752=DIRECTION('Vector Direction',(0.,0.,-1.)) ;
#757=DIRECTION('Vector Direction',(0.,0.,1.)) ;
#764=DIRECTION('Axis2P3D Direction',(-0.,-1.,-0.)) ;
#771=DIRECTION('Vector Direction',(-1.,0.,0.)) ;
#789=DIRECTION('Vector Direction',(0.,0.,-1.)) ;
#796=DIRECTION('Vector Direction',(1.,0.,0.)) ;
#803=DIRECTION('Vector Direction',(0.,0.,1.)) ;
#815=DIRECTION('Axis2P3D Direction',(1.,0.,0.)) ;
#816=DIRECTION('Axis2P3D XDirection',(0.,-1.,0.)) ;
#820=DIRECTION('Vector Direction',(0.,-1.,0.)) ;
#827=DIRECTION('Vector Direction',(0.,0.,-1.)) ;
#839=DIRECTION('Axis2P3D Direction',(0.,-0.,-1.)) ;
#840=DIRECTION('Axis2P3D XDirection',(0.87758256189,-0.479425538604,0.)) ;
#844=DIRECTION('Vector Direction',(0.,0.,-1.)) ;
#851=DIRECTION('Vector Direction',(0.,0.,-1.)) ;
#858=DIRECTION('Axis2P3D Direction',(0.,-0.,-1.)) ;
#870=DIRECTION('Axis2P3D Direction',(0.,-0.,-1.)) ;
#882=DIRECTION('Axis2P3D Direction',(0.,-0.,-1.)) ;
#883=DIRECTION('Axis2P3D XDirection',(0.87758256189,-0.479425538604,0.)) ;
#887=DIRECTION('Vector Direction',(0.,0.,-1.)) ;
#894=DIRECTION('Vector Direction',(0.,0.,-1.)) ;
#901=DIRECTION('Axis2P3D Direction',(0.,-0.,-1.)) ;
#913=DIRECTION('Axis2P3D Direction',(0.,-0.,-1.)) ;
#925=DIRECTION('Axis2P3D Direction',(1.,0.,0.)) ;
#926=DIRECTION('Axis2P3D XDirection',(0.,-1.,0.)) ;
#930=DIRECTION('Vector Direction',(0.,0.,-1.)) ;
#937=DIRECTION('Vector Direction',(0.,1.,0.)) ;
#944=DIRECTION('Vector Direction',(0.,0.,-1.)) ;
#956=DIRECTION('Axis2P3D Direction',(0.,0.,1.)) ;
#957=DIRECTION('Axis2P3D XDirection',(1.,0.,0.)) ;
#961=DIRECTION('Vector Direction',(0.,0.,1.)) ;
#968=DIRECTION('Axis2P3D Direction',(0.,0.,1.)) ;
#975=DIRECTION('Vector Direction',(0.,0.,1.)) ;
#987=DIRECTION('Axis2P3D Direction',(0.,0.,1.)) ;
#999=DIRECTION('Axis2P3D Direction',(0.,0.,1.)) ;
#1000=DIRECTION('Axis2P3D XDirection',(1.,0.,0.)) ;
#1004=DIRECTION('Vector Direction',(0.,0.,1.)) ;
#1011=DIRECTION('Axis2P3D Direction',(0.,0.,1.)) ;
#1018=DIRECTION('Vector Direction',(0.,0.,1.)) ;
#1030=DIRECTION('Axis2P3D Direction',(0.,0.,1.)) ;
#1042=DIRECTION('Axis2P3D Direction',(0.,0.,1.)) ;
#1043=DIRECTION('Axis2P3D XDirection',(1.,0.,0.)) ;
#1047=DIRECTION('Vector Direction',(0.,0.,1.)) ;
#1054=DIRECTION('Axis2P3D Direction',(0.,0.,1.)) ;
#1061=DIRECTION('Vector Direction',(0.,0.,1.)) ;
#1073=DIRECTION('Axis2P3D Direction',(0.,0.,1.)) ;
#1085=DIRECTION('Axis2P3D Direction',(0.,0.,1.)) ;
#1086=DIRECTION('Axis2P3D XDirection',(1.,0.,0.)) ;
#1090=DIRECTION('Vector Direction',(0.,0.,1.)) ;
#1097=DIRECTION('Axis2P3D Direction',(0.,0.,1.)) ;
#1104=DIRECTION('Vector Direction',(0.,0.,1.)) ;
#1116=DIRECTION('Axis2P3D Direction',(0.,0.,1.)) ;
#1128=DIRECTION('Axis2P3D Direction',(0.,0.,1.)) ;
#1129=DIRECTION('Axis2P3D XDirection',(1.,0.,0.)) ;
#1133=DIRECTION('Vector Direction',(0.,0.,1.)) ;
#1140=DIRECTION('Axis2P3D Direction',(0.,0.,1.)) ;
#1147=DIRECTION('Vector Direction',(0.,0.,1.)) ;
#1159=DIRECTION('Axis2P3D Direction',(0.,0.,1.)) ;
#1171=DIRECTION('Axis2P3D Direction',(0.,0.,1.)) ;
#1172=DIRECTION('Axis2P3D XDirection',(1.,0.,0.)) ;
#1176=DIRECTION('Vector Direction',(0.,0.,1.)) ;
#1183=DIRECTION('Axis2P3D Direction',(0.,0.,1.)) ;
#1190=DIRECTION('Vector Direction',(0.,0.,1.)) ;
#1202=DIRECTION('Axis2P3D Direction',(0.,0.,1.)) ;
#1214=DIRECTION('Axis2P3D Direction',(0.,0.,1.)) ;
#1215=DIRECTION('Axis2P3D XDirection',(1.,0.,0.)) ;
#1219=DIRECTION('Vector Direction',(0.,0.,1.)) ;
#1226=DIRECTION('Axis2P3D Direction',(0.,0.,1.)) ;
#1233=DIRECTION('Vector Direction',(0.,0.,1.)) ;
#1245=DIRECTION('Axis2P3D Direction',(0.,0.,1.)) ;
#1257=DIRECTION('Vector Direction',(0.,1.,0.)) ;
#1264=DIRECTION('Vector Direction',(-1.,0.,0.)) ;
#1271=DIRECTION('Vector Direction',(0.,1.,0.)) ;
#1283=DIRECTION('Axis2P3D Direction',(-1.,0.,0.)) ;
#1284=DIRECTION('Axis2P3D XDirection',(0.,0.,1.)) ;
#1288=DIRECTION('Vector Direction',(0.,1.,0.)) ;
#1295=DIRECTION('Vector Direction',(0.,0.,1.)) ;
#1307=DIRECTION('Axis2P3D Direction',(0.,0.,1.)) ;
#1308=DIRECTION('Axis2P3D XDirection',(1.,0.,0.)) ;
#1312=DIRECTION('Axis2P3D Direction',(0.,0.,1.)) ;
#1321=DIRECTION('Axis2P3D Direction',(0.,0.,1.)) ;
#1335=DIRECTION('Axis2P3D Direction',(0.,0.,1.)) ;
#1344=DIRECTION('Axis2P3D Direction',(0.,0.,1.)) ;
#1358=DIRECTION('Axis2P3D Direction',(0.,-1.,0.)) ;
#1359=DIRECTION('Axis2P3D XDirection',(1.,0.,0.)) ;
#1363=DIRECTION('Vector Direction',(-1.,0.,0.)) ;
#1370=DIRECTION('Axis2P3D Direction',(0.,-1.,0.)) ;
#1377=DIRECTION('Vector Direction',(0.,0.,1.)) ;
#1384=DIRECTION('Vector Direction',(1.,0.,0.)) ;
#1391=DIRECTION('Vector Direction',(0.,0.,-1.)) ;
#1398=DIRECTION('Axis2P3D Direction',(0.,-1.,0.)) ;
#1405=DIRECTION('Vector Direction',(-1.,0.,0.)) ;
#1412=DIRECTION('Vector Direction',(0.,0.,-1.)) ;
#1430=DIRECTION('Axis2P3D Direction',(0.,0.,1.)) ;
#1431=DIRECTION('Axis2P3D XDirection',(1.,0.,0.)) ;
#1435=DIRECTION('Vector Direction',(0.,0.,1.)) ;
#1442=DIRECTION('Axis2P3D Direction',(0.,0.,1.)) ;
#1449=DIRECTION('Vector Direction',(0.,0.,1.)) ;
#1461=DIRECTION('Axis2P3D Direction',(0.,0.,1.)) ;
#1473=DIRECTION('Axis2P3D Direction',(0.,0.,1.)) ;
#1474=DIRECTION('Axis2P3D XDirection',(1.,0.,0.)) ;
#1478=DIRECTION('Vector Direction',(0.,0.,1.)) ;
#1485=DIRECTION('Axis2P3D Direction',(0.,0.,1.)) ;
#1492=DIRECTION('Vector Direction',(0.,0.,1.)) ;
#1504=DIRECTION('Axis2P3D Direction',(0.,0.,1.)) ;
#1516=DIRECTION('Axis2P3D Direction',(1.,0.,-0.)) ;
#1517=DIRECTION('Axis2P3D XDirection',(0.,0.,1.)) ;
#1521=DIRECTION('Axis2P3D Direction',(1.,0.,-0.)) ;
#1528=DIRECTION('Axis2P3D Direction',(1.,0.,-0.)) ;
#1533=DIRECTION('Vector Direction',(1.,0.,0.)) ;
#1545=DIRECTION('Axis2P3D Direction',(1.,-0.,0.)) ;
#1546=DIRECTION('Axis2P3D XDirection',(0.,0.,-1.)) ;
#1550=DIRECTION('Vector Direction',(0.,1.,0.)) ;
#1562=DIRECTION('Vector Direction',(0.,-1.,0.)) ;
#1574=DIRECTION('Axis2P3D Direction',(0.,-1.,0.)) ;
#1575=DIRECTION('Axis2P3D XDirection',(-1.,-0.,1.83697019872E-016)) ;
#1579=DIRECTION('Vector Direction',(0.,-1.,0.)) ;
#1591=DIRECTION('Axis2P3D Direction',(1.,0.,-0.)) ;
#1592=DIRECTION('Axis2P3D XDirection',(0.,0.,1.)) ;
#1596=DIRECTION('Vector Direction',(0.,-1.,0.)) ;
#1609=DIRECTION('Axis2P3D Direction',(0.,-1.,0.)) ;
#1610=DIRECTION('Axis2P3D XDirection',(1.59265981953E-015,0.,-1.)) ;
#1614=DIRECTION('Vector Direction',(0.,-1.,0.)) ;
#1633=DIRECTION('Axis2P3D Direction',(1.,0.,0.)) ;
#1634=DIRECTION('Axis2P3D XDirection',(0.,-1.,0.)) ;
#1638=DIRECTION('Vector Direction',(0.,0.,-1.)) ;
#1645=DIRECTION('Vector Direction',(0.,-1.,0.)) ;
#1652=DIRECTION('Vector Direction',(0.,0.,-1.)) ;
#1664=DIRECTION('Axis2P3D Direction',(-0.,1.,0.)) ;
#1665=DIRECTION('Axis2P3D XDirection',(1.,0.,0.)) ;
#1669=DIRECTION('Vector Direction',(1.,0.,0.)) ;
#1681=DIRECTION('Axis2P3D Direction',(-0.,-1.,-0.)) ;
#1682=DIRECTION('Axis2P3D XDirection',(-1.,0.,0.)) ;
#1686=DIRECTION('Vector Direction',(-1.,0.,0.)) ;
#1698=DIRECTION('Axis2P3D Direction',(1.,0.,0.)) ;
#1699=DIRECTION('Axis2P3D XDirection',(0.,-1.,0.)) ;
#1703=DIRECTION('Vector Direction',(0.,0.,-1.)) ;
#1710=DIRECTION('Vector Direction',(0.,-1.,0.)) ;
#1717=DIRECTION('Vector Direction',(0.,0.,-1.)) ;
#1729=DIRECTION('Axis2P3D Direction',(-0.,1.,0.)) ;
#1730=DIRECTION('Axis2P3D XDirection',(1.,0.,0.)) ;
#1734=DIRECTION('Vector Direction',(1.,0.,0.)) ;
#1741=DIRECTION('Vector Direction',(0.,0.,-1.)) ;
#1753=DIRECTION('Axis2P3D Direction',(-1.,0.,0.)) ;
#1754=DIRECTION('Axis2P3D XDirection',(0.,1.,0.)) ;
#1758=DIRECTION('Vector Direction',(0.,1.,0.)) ;
#1765=DIRECTION('Vector Direction',(0.,0.,-1.)) ;
#1777=DIRECTION('Axis2P3D Direction',(-0.,-1.,-0.)) ;
#1778=DIRECTION('Axis2P3D XDirection',(-1.,0.,0.)) ;
#1782=DIRECTION('Vector Direction',(-1.,0.,0.)) ;
#1794=DIRECTION('Axis2P3D Direction',(0.,0.,1.)) ;
#1795=DIRECTION('Axis2P3D XDirection',(1.83697019872E-016,1.,-0.)) ;
#1799=DIRECTION('Axis2P3D Direction',(0.,0.,1.)) ;
#1806=DIRECTION('Vector Direction',(0.,0.,1.)) ;
#1818=DIRECTION('Axis2P3D Direction',(0.,0.,1.)) ;
#1819=DIRECTION('Axis2P3D XDirection',(-1.,1.22464679915E-016,0.)) ;
#1823=DIRECTION('Vector Direction',(0.,0.,1.)) ;
#1830=DIRECTION('Axis2P3D Direction',(0.,0.,1.)) ;
#1842=DIRECTION('Vector Direction',(0.,-1.,0.)) ;
#1854=DIRECTION('Axis2P3D Direction',(1.,0.,0.)) ;
#1855=DIRECTION('Axis2P3D XDirection',(0.,1.,0.)) ;
#1859=DIRECTION('Vector Direction',(0.,1.,0.)) ;
#1874=DIRECTION('Axis2P3D Direction',(0.,0.,1.)) ;
#1875=DIRECTION('Axis2P3D XDirection',(1.,0.,0.)) ;
#1942=DIRECTION('Axis2P3D Direction',(0.,-1.,0.)) ;
#1943=DIRECTION('Axis2P3D XDirection',(-1.83697019872E-016,-0.,-1.)) ;
#1947=DIRECTION('Axis2P3D Direction',(0.,-1.,0.)) ;
#1954=DIRECTION('Vector Direction',(0.,-1.,0.)) ;
#1961=DIRECTION('Axis2P3D Direction',(0.,-1.,0.)) ;
#1973=DIRECTION('Axis2P3D Direction',(0.,-1.,0.)) ;
#1974=DIRECTION('Axis2P3D XDirection',(-1.,-0.,1.83697019872E-016)) ;
#1978=DIRECTION('Axis2P3D Direction',(0.,-1.,0.)) ;
#1983=DIRECTION('Axis2P3D Direction',(0.,-1.,0.)) ;
#1995=DIRECTION('Vector Direction',(-1.,0.,0.)) ;
#2013=DIRECTION('Vector Direction',(-1.,0.,0.)) ;
#48=AXIS2_PLACEMENT_3D(' ',#47,$,$) ;
#55=AXIS2_PLACEMENT_3D('Plane Axis2P3D',#52,#53,#54) ;
#95=AXIS2_PLACEMENT_3D('Plane Axis2P3D',#92,#93,#94) ;
#126=AXIS2_PLACEMENT_3D('Plane Axis2P3D',#123,#124,#125) ;
#157=AXIS2_PLACEMENT_3D('Plane Axis2P3D',#154,#155,#156) ;
#188=AXIS2_PLACEMENT_3D('Plane Axis2P3D',#185,#186,#187) ;
#229=AXIS2_PLACEMENT_3D('Circle Axis2P3D',#227,#228,$) ;
#252=AXIS2_PLACEMENT_3D('Cylinder Axis2P3D',#249,#250,#251) ;
#256=AXIS2_PLACEMENT_3D('Circle Axis2P3D',#254,#255,$) ;
#283=AXIS2_PLACEMENT_3D('Plane Axis2P3D',#280,#281,#282) ;
#322=AXIS2_PLACEMENT_3D('Cylinder Axis2P3D',#319,#320,#321) ;
#326=AXIS2_PLACEMENT_3D('Circle Axis2P3D',#324,#325,$) ;
#333=AXIS2_PLACEMENT_3D('Circle Axis2P3D',#331,#332,$) ;
#353=AXIS2_PLACEMENT_3D('Plane Axis2P3D',#350,#351,#352) ;
#357=AXIS2_PLACEMENT_3D('Circle Axis2P3D',#355,#356,$) ;
#390=AXIS2_PLACEMENT_3D('Circle Axis2P3D',#388,#389,$) ;
#437=AXIS2_PLACEMENT_3D('Circle Axis2P3D',#435,#436,$) ;
#446=AXIS2_PLACEMENT_3D('Circle Axis2P3D',#444,#445,$) ;
#455=AXIS2_PLACEMENT_3D('Circle Axis2P3D',#453,#454,$) ;
#464=AXIS2_PLACEMENT_3D('Circle Axis2P3D',#462,#463,$) ;
#541=AXIS2_PLACEMENT_3D('Circle Axis2P3D',#539,#540,$) ;
#550=AXIS2_PLACEMENT_3D('Circle Axis2P3D',#548,#549,$) ;
#559=AXIS2_PLACEMENT_3D('Circle Axis2P3D',#557,#558,$) ;
#568=AXIS2_PLACEMENT_3D('Circle Axis2P3D',#566,#567,$) ;
#577=AXIS2_PLACEMENT_3D('Circle Axis2P3D',#575,#576,$) ;
#586=AXIS2_PLACEMENT_3D('Circle Axis2P3D',#584,#585,$) ;
#595=AXIS2_PLACEMENT_3D('Circle Axis2P3D',#593,#594,$) ;
#604=AXIS2_PLACEMENT_3D('Circle Axis2P3D',#602,#603,$) ;
#613=AXIS2_PLACEMENT_3D('Circle Axis2P3D',#611,#612,$) ;
#622=AXIS2_PLACEMENT_3D('Circle Axis2P3D',#620,#621,$) ;
#631=AXIS2_PLACEMENT_3D('Circle Axis2P3D',#629,#630,$) ;
#640=AXIS2_PLACEMENT_3D('Circle Axis2P3D',#638,#639,$) ;
#649=AXIS2_PLACEMENT_3D('Circle Axis2P3D',#647,#648,$) ;
#658=AXIS2_PLACEMENT_3D('Circle Axis2P3D',#656,#657,$) ;
#669=AXIS2_PLACEMENT_3D('Plane Axis2P3D',#666,#667,#668) ;
#693=AXIS2_PLACEMENT_3D('Plane Axis2P3D',#690,#691,#692) ;
#746=AXIS2_PLACEMENT_3D('Circle Axis2P3D',#744,#745,$) ;
#765=AXIS2_PLACEMENT_3D('Circle Axis2P3D',#763,#764,$) ;
#817=AXIS2_PLACEMENT_3D('Plane Axis2P3D',#814,#815,#816) ;
#841=AXIS2_PLACEMENT_3D('Cylinder Axis2P3D',#838,#839,#840) ;
#859=AXIS2_PLACEMENT_3D('Circle Axis2P3D',#857,#858,$) ;
#871=AXIS2_PLACEMENT_3D('Circle Axis2P3D',#869,#870,$) ;
#884=AXIS2_PLACEMENT_3D('Cylinder Axis2P3D',#881,#882,#883) ;
#902=AXIS2_PLACEMENT_3D('Circle Axis2P3D',#900,#901,$) ;
#914=AXIS2_PLACEMENT_3D('Circle Axis2P3D',#912,#913,$) ;
#927=AXIS2_PLACEMENT_3D('Plane Axis2P3D',#924,#925,#926) ;
#958=AXIS2_PLACEMENT_3D('Cylinder Axis2P3D',#955,#956,#957) ;
#969=AXIS2_PLACEMENT_3D('Circle Axis2P3D',#967,#968,$) ;
#988=AXIS2_PLACEMENT_3D('Circle Axis2P3D',#986,#987,$) ;
#1001=AXIS2_PLACEMENT_3D('Cylinder Axis2P3D',#998,#999,#1000) ;
#1012=AXIS2_PLACEMENT_3D('Circle Axis2P3D',#1010,#1011,$) ;
#1031=AXIS2_PLACEMENT_3D('Circle Axis2P3D',#1029,#1030,$) ;
#1044=AXIS2_PLACEMENT_3D('Cylinder Axis2P3D',#1041,#1042,#1043) ;
#1055=AXIS2_PLACEMENT_3D('Circle Axis2P3D',#1053,#1054,$) ;
#1074=AXIS2_PLACEMENT_3D('Circle Axis2P3D',#1072,#1073,$) ;
#1087=AXIS2_PLACEMENT_3D('Cylinder Axis2P3D',#1084,#1085,#1086) ;
#1098=AXIS2_PLACEMENT_3D('Circle Axis2P3D',#1096,#1097,$) ;
#1117=AXIS2_PLACEMENT_3D('Circle Axis2P3D',#1115,#1116,$) ;
#1130=AXIS2_PLACEMENT_3D('Cylinder Axis2P3D',#1127,#1128,#1129) ;
#1141=AXIS2_PLACEMENT_3D('Circle Axis2P3D',#1139,#1140,$) ;
#1160=AXIS2_PLACEMENT_3D('Circle Axis2P3D',#1158,#1159,$) ;
#1173=AXIS2_PLACEMENT_3D('Cylinder Axis2P3D',#1170,#1171,#1172) ;
#1184=AXIS2_PLACEMENT_3D('Circle Axis2P3D',#1182,#1183,$) ;
#1203=AXIS2_PLACEMENT_3D('Circle Axis2P3D',#1201,#1202,$) ;
#1216=AXIS2_PLACEMENT_3D('Cylinder Axis2P3D',#1213,#1214,#1215) ;
#1227=AXIS2_PLACEMENT_3D('Circle Axis2P3D',#1225,#1226,$) ;
#1246=AXIS2_PLACEMENT_3D('Circle Axis2P3D',#1244,#1245,$) ;
#1285=AXIS2_PLACEMENT_3D('Plane Axis2P3D',#1282,#1283,#1284) ;
#1309=AXIS2_PLACEMENT_3D('Plane Axis2P3D',#1306,#1307,#1308) ;
#1313=AXIS2_PLACEMENT_3D('Circle Axis2P3D',#1311,#1312,$) ;
#1322=AXIS2_PLACEMENT_3D('Circle Axis2P3D',#1320,#1321,$) ;
#1336=AXIS2_PLACEMENT_3D('Circle Axis2P3D',#1334,#1335,$) ;
#1345=AXIS2_PLACEMENT_3D('Circle Axis2P3D',#1343,#1344,$) ;
#1360=AXIS2_PLACEMENT_3D('Plane Axis2P3D',#1357,#1358,#1359) ;
#1371=AXIS2_PLACEMENT_3D('Circle Axis2P3D',#1369,#1370,$) ;
#1399=AXIS2_PLACEMENT_3D('Circle Axis2P3D',#1397,#1398,$) ;
#1432=AXIS2_PLACEMENT_3D('Cylinder Axis2P3D',#1429,#1430,#1431) ;
#1443=AXIS2_PLACEMENT_3D('Circle Axis2P3D',#1441,#1442,$) ;
#1462=AXIS2_PLACEMENT_3D('Circle Axis2P3D',#1460,#1461,$) ;
#1475=AXIS2_PLACEMENT_3D('Cylinder Axis2P3D',#1472,#1473,#1474) ;
#1486=AXIS2_PLACEMENT_3D('Circle Axis2P3D',#1484,#1485,$) ;
#1505=AXIS2_PLACEMENT_3D('Circle Axis2P3D',#1503,#1504,$) ;
#1518=AXIS2_PLACEMENT_3D('Cylinder Axis2P3D',#1515,#1516,#1517) ;
#1522=AXIS2_PLACEMENT_3D('Circle Axis2P3D',#1520,#1521,$) ;
#1529=AXIS2_PLACEMENT_3D('Circle Axis2P3D',#1527,#1528,$) ;
#1547=AXIS2_PLACEMENT_3D('Plane Axis2P3D',#1544,#1545,#1546) ;
#1576=AXIS2_PLACEMENT_3D('Cylinder Axis2P3D',#1573,#1574,#1575) ;
#1593=AXIS2_PLACEMENT_3D('Plane Axis2P3D',#1590,#1591,#1592) ;
#1611=AXIS2_PLACEMENT_3D('Cylinder Axis2P3D',#1608,#1609,#1610) ;
#1635=AXIS2_PLACEMENT_3D('Plane Axis2P3D',#1632,#1633,#1634) ;
#1666=AXIS2_PLACEMENT_3D('Plane Axis2P3D',#1663,#1664,#1665) ;
#1683=AXIS2_PLACEMENT_3D('Plane Axis2P3D',#1680,#1681,#1682) ;
#1700=AXIS2_PLACEMENT_3D('Plane Axis2P3D',#1697,#1698,#1699) ;
#1731=AXIS2_PLACEMENT_3D('Plane Axis2P3D',#1728,#1729,#1730) ;
#1755=AXIS2_PLACEMENT_3D('Plane Axis2P3D',#1752,#1753,#1754) ;
#1779=AXIS2_PLACEMENT_3D('Plane Axis2P3D',#1776,#1777,#1778) ;
#1796=AXIS2_PLACEMENT_3D('Cylinder Axis2P3D',#1793,#1794,#1795) ;
#1800=AXIS2_PLACEMENT_3D('Circle Axis2P3D',#1798,#1799,$) ;
#1820=AXIS2_PLACEMENT_3D('Cylinder Axis2P3D',#1817,#1818,#1819) ;
#1831=AXIS2_PLACEMENT_3D('Circle Axis2P3D',#1829,#1830,$) ;
#1856=AXIS2_PLACEMENT_3D('Plane Axis2P3D',#1853,#1854,#1855) ;
#1876=AXIS2_PLACEMENT_3D('Plane Axis2P3D',#1873,#1874,#1875) ;
#1944=AXIS2_PLACEMENT_3D('Cylinder Axis2P3D',#1941,#1942,#1943) ;
#1948=AXIS2_PLACEMENT_3D('Circle Axis2P3D',#1946,#1947,$) ;
#1962=AXIS2_PLACEMENT_3D('Circle Axis2P3D',#1960,#1961,$) ;
#1975=AXIS2_PLACEMENT_3D('Cylinder Axis2P3D',#1972,#1973,#1974) ;
#1979=AXIS2_PLACEMENT_3D('Circle Axis2P3D',#1977,#1978,$) ;
#1984=AXIS2_PLACEMENT_3D('Circle Axis2P3D',#1982,#1983,$) ;
#40=PRODUCT_DEFINITION_SHAPE(' ',' ',#14) ;
#31=APPROVAL_PERSON_ORGANIZATION(#25,#21,#19) ;
#25=PERSON_AND_ORGANIZATION(#22,#23) ;
#22=PERSON(' ',' ',' ',$,$,$) ;
#23=ORGANIZATION(' ',' ',' ') ;
#21=APPROVAL(#20,' ') ;
#20=APPROVAL_STATUS('not_yet_approved') ;
#19=APPROVAL_ROLE('APPROVER') ;
#13=DATE_AND_TIME(#11,#12) ;
#12=LOCAL_TIME(14,16,14.,#10) ;
#10=COORDINATED_UNIVERSAL_TIME_OFFSET(0,0,.AHEAD.) ;
#86=ORIENTED_EDGE('',*,*,#65,.F.) ;
#87=ORIENTED_EDGE('',*,*,#72,.F.) ;
#88=ORIENTED_EDGE('',*,*,#79,.F.) ;
#89=ORIENTED_EDGE('',*,*,#84,.T.) ;
#117=ORIENTED_EDGE('',*,*,#84,.F.) ;
#118=ORIENTED_EDGE('',*,*,#103,.F.) ;
#119=ORIENTED_EDGE('',*,*,#110,.T.) ;
#120=ORIENTED_EDGE('',*,*,#115,.F.) ;
#148=ORIENTED_EDGE('',*,*,#134,.T.) ;
#149=ORIENTED_EDGE('',*,*,#110,.F.) ;
#150=ORIENTED_EDGE('',*,*,#141,.F.) ;
#151=ORIENTED_EDGE('',*,*,#146,.T.) ;
#179=ORIENTED_EDGE('',*,*,#146,.F.) ;
#180=ORIENTED_EDGE('',*,*,#165,.F.) ;
#181=ORIENTED_EDGE('',*,*,#172,.F.) ;
#182=ORIENTED_EDGE('',*,*,#177,.T.) ;
#240=ORIENTED_EDGE('',*,*,#198,.F.) ;
#241=ORIENTED_EDGE('',*,*,#205,.T.) ;
#242=ORIENTED_EDGE('',*,*,#212,.T.) ;
#243=ORIENTED_EDGE('',*,*,#219,.T.) ;
#244=ORIENTED_EDGE('',*,*,#226,.F.) ;
#245=ORIENTED_EDGE('',*,*,#233,.F.) ;
#246=ORIENTED_EDGE('',*,*,#238,.F.) ;
#274=ORIENTED_EDGE('',*,*,#262,.T.) ;
#275=ORIENTED_EDGE('',*,*,#267,.F.) ;
#276=ORIENTED_EDGE('',*,*,#233,.T.) ;
#277=ORIENTED_EDGE('',*,*,#272,.T.) ;
#312=ORIENTED_EDGE('',*,*,#291,.F.) ;
#313=ORIENTED_EDGE('',*,*,#262,.F.) ;
#314=ORIENTED_EDGE('',*,*,#298,.T.) ;
#315=ORIENTED_EDGE('',*,*,#305,.T.) ;
#316=ORIENTED_EDGE('',*,*,#310,.T.) ;
#344=ORIENTED_EDGE('',*,*,#330,.T.) ;
#345=ORIENTED_EDGE('',*,*,#219,.F.) ;
#346=ORIENTED_EDGE('',*,*,#337,.T.) ;
#347=ORIENTED_EDGE('',*,*,#342,.T.) ;
#422=ORIENTED_EDGE('',*,*,#363,.F.) ;
#423=ORIENTED_EDGE('',*,*,#368,.F.) ;
#424=ORIENTED_EDGE('',*,*,#337,.F.) ;
#425=ORIENTED_EDGE('',*,*,#212,.F.) ;
#426=ORIENTED_EDGE('',*,*,#373,.F.) ;
#427=ORIENTED_EDGE('',*,*,#380,.F.) ;
#428=ORIENTED_EDGE('',*,*,#387,.T.) ;
#429=ORIENTED_EDGE('',*,*,#394,.F.) ;
#430=ORIENTED_EDGE('',*,*,#401,.F.) ;
#431=ORIENTED_EDGE('',*,*,#408,.T.) ;
#432=ORIENTED_EDGE('',*,*,#415,.T.) ;
#433=ORIENTED_EDGE('',*,*,#420,.F.) ;
#450=ORIENTED_EDGE('',*,*,#443,.T.) ;
#451=ORIENTED_EDGE('',*,*,#448,.T.) ;
#468=ORIENTED_EDGE('',*,*,#461,.T.) ;
#469=ORIENTED_EDGE('',*,*,#466,.T.) ;
#500=ORIENTED_EDGE('',*,*,#479,.F.) ;
#501=ORIENTED_EDGE('',*,*,#486,.F.) ;
#502=ORIENTED_EDGE('',*,*,#493,.F.) ;
#503=ORIENTED_EDGE('',*,*,#498,.F.) ;
#534=ORIENTED_EDGE('',*,*,#513,.F.) ;
#535=ORIENTED_EDGE('',*,*,#520,.F.) ;
#536=ORIENTED_EDGE('',*,*,#527,.T.) ;
#537=ORIENTED_EDGE('',*,*,#532,.F.) ;
#554=ORIENTED_EDGE('',*,*,#547,.T.) ;
#555=ORIENTED_EDGE('',*,*,#552,.T.) ;
#572=ORIENTED_EDGE('',*,*,#565,.T.) ;
#573=ORIENTED_EDGE('',*,*,#570,.T.) ;
#590=ORIENTED_EDGE('',*,*,#583,.T.) ;
#591=ORIENTED_EDGE('',*,*,#588,.T.) ;
#608=ORIENTED_EDGE('',*,*,#601,.T.) ;
#609=ORIENTED_EDGE('',*,*,#606,.T.) ;
#626=ORIENTED_EDGE('',*,*,#619,.T.) ;
#627=ORIENTED_EDGE('',*,*,#624,.T.) ;
#644=ORIENTED_EDGE('',*,*,#637,.T.) ;
#645=ORIENTED_EDGE('',*,*,#642,.T.) ;
#662=ORIENTED_EDGE('',*,*,#655,.T.) ;
#663=ORIENTED_EDGE('',*,*,#660,.T.) ;
#684=ORIENTED_EDGE('',*,*,#677,.F.) ;
#685=ORIENTED_EDGE('',*,*,#682,.T.) ;
#686=ORIENTED_EDGE('',*,*,#380,.T.) ;
#687=ORIENTED_EDGE('',*,*,#298,.F.) ;
#708=ORIENTED_EDGE('',*,*,#701,.T.) ;
#709=ORIENTED_EDGE('',*,*,#706,.F.) ;
#710=ORIENTED_EDGE('',*,*,#342,.F.) ;
#711=ORIENTED_EDGE('',*,*,#368,.T.) ;
#776=ORIENTED_EDGE('',*,*,#722,.T.) ;
#777=ORIENTED_EDGE('',*,*,#729,.T.) ;
#778=ORIENTED_EDGE('',*,*,#736,.F.) ;
#779=ORIENTED_EDGE('',*,*,#743,.F.) ;
#780=ORIENTED_EDGE('',*,*,#750,.F.) ;
#781=ORIENTED_EDGE('',*,*,#755,.F.) ;
#782=ORIENTED_EDGE('',*,*,#415,.F.) ;
#783=ORIENTED_EDGE('',*,*,#762,.F.) ;
#784=ORIENTED_EDGE('',*,*,#769,.F.) ;
#785=ORIENTED_EDGE('',*,*,#774,.F.) ;
#808=ORIENTED_EDGE('',*,*,#408,.F.) ;
#809=ORIENTED_EDGE('',*,*,#794,.F.) ;
#810=ORIENTED_EDGE('',*,*,#801,.F.) ;
#811=ORIENTED_EDGE('',*,*,#806,.F.) ;
#832=ORIENTED_EDGE('',*,*,#682,.F.) ;
#833=ORIENTED_EDGE('',*,*,#825,.F.) ;
#834=ORIENTED_EDGE('',*,*,#830,.T.) ;
#835=ORIENTED_EDGE('',*,*,#387,.F.) ;
#863=ORIENTED_EDGE('',*,*,#849,.F.) ;
#864=ORIENTED_EDGE('',*,*,#448,.F.) ;
#865=ORIENTED_EDGE('',*,*,#856,.T.) ;
#866=ORIENTED_EDGE('',*,*,#861,.T.) ;
#875=ORIENTED_EDGE('',*,*,#856,.F.) ;
#876=ORIENTED_EDGE('',*,*,#443,.F.) ;
#877=ORIENTED_EDGE('',*,*,#849,.T.) ;
#878=ORIENTED_EDGE('',*,*,#873,.T.) ;
#906=ORIENTED_EDGE('',*,*,#892,.F.) ;
#907=ORIENTED_EDGE('',*,*,#466,.F.) ;
#908=ORIENTED_EDGE('',*,*,#899,.T.) ;
#909=ORIENTED_EDGE('',*,*,#904,.T.) ;
#918=ORIENTED_EDGE('',*,*,#899,.F.) ;
#919=ORIENTED_EDGE('',*,*,#461,.F.) ;
#920=ORIENTED_EDGE('',*,*,#892,.T.) ;
#921=ORIENTED_EDGE('',*,*,#916,.T.) ;
#949=ORIENTED_EDGE('',*,*,#935,.F.) ;
#950=ORIENTED_EDGE('',*,*,#942,.T.) ;
#951=ORIENTED_EDGE('',*,*,#947,.T.) ;
#952=ORIENTED_EDGE('',*,*,#527,.F.) ;
#980=ORIENTED_EDGE('',*,*,#552,.F.) ;
#981=ORIENTED_EDGE('',*,*,#966,.F.) ;
#982=ORIENTED_EDGE('',*,*,#973,.T.) ;
#983=ORIENTED_EDGE('',*,*,#978,.T.) ;
#992=ORIENTED_EDGE('',*,*,#547,.F.) ;
#993=ORIENTED_EDGE('',*,*,#978,.F.) ;
#994=ORIENTED_EDGE('',*,*,#990,.T.) ;
#995=ORIENTED_EDGE('',*,*,#966,.T.) ;
#1023=ORIENTED_EDGE('',*,*,#570,.F.) ;
#1024=ORIENTED_EDGE('',*,*,#1009,.F.) ;
#1025=ORIENTED_EDGE('',*,*,#1016,.T.) ;
#1026=ORIENTED_EDGE('',*,*,#1021,.T.) ;
#1035=ORIENTED_EDGE('',*,*,#565,.F.) ;
#1036=ORIENTED_EDGE('',*,*,#1021,.F.) ;
#1037=ORIENTED_EDGE('',*,*,#1033,.T.) ;
#1038=ORIENTED_EDGE('',*,*,#1009,.T.) ;
#1066=ORIENTED_EDGE('',*,*,#588,.F.) ;
#1067=ORIENTED_EDGE('',*,*,#1052,.F.) ;
#1068=ORIENTED_EDGE('',*,*,#1059,.T.) ;
#1069=ORIENTED_EDGE('',*,*,#1064,.T.) ;
#1078=ORIENTED_EDGE('',*,*,#583,.F.) ;
#1079=ORIENTED_EDGE('',*,*,#1064,.F.) ;
#1080=ORIENTED_EDGE('',*,*,#1076,.T.) ;
#1081=ORIENTED_EDGE('',*,*,#1052,.T.) ;
#1109=ORIENTED_EDGE('',*,*,#606,.F.) ;
#1110=ORIENTED_EDGE('',*,*,#1095,.F.) ;
#1111=ORIENTED_EDGE('',*,*,#1102,.T.) ;
#1112=ORIENTED_EDGE('',*,*,#1107,.T.) ;
#1121=ORIENTED_EDGE('',*,*,#601,.F.) ;
#1122=ORIENTED_EDGE('',*,*,#1107,.F.) ;
#1123=ORIENTED_EDGE('',*,*,#1119,.T.) ;
#1124=ORIENTED_EDGE('',*,*,#1095,.T.) ;
#1152=ORIENTED_EDGE('',*,*,#624,.F.) ;
#1153=ORIENTED_EDGE('',*,*,#1138,.F.) ;
#1154=ORIENTED_EDGE('',*,*,#1145,.T.) ;
#1155=ORIENTED_EDGE('',*,*,#1150,.T.) ;
#1164=ORIENTED_EDGE('',*,*,#619,.F.) ;
#1165=ORIENTED_EDGE('',*,*,#1150,.F.) ;
#1166=ORIENTED_EDGE('',*,*,#1162,.T.) ;
#1167=ORIENTED_EDGE('',*,*,#1138,.T.) ;
#1195=ORIENTED_EDGE('',*,*,#642,.F.) ;
#1196=ORIENTED_EDGE('',*,*,#1181,.F.) ;
#1197=ORIENTED_EDGE('',*,*,#1188,.T.) ;
#1198=ORIENTED_EDGE('',*,*,#1193,.T.) ;
#1207=ORIENTED_EDGE('',*,*,#637,.F.) ;
#1208=ORIENTED_EDGE('',*,*,#1193,.F.) ;
#1209=ORIENTED_EDGE('',*,*,#1205,.T.) ;
#1210=ORIENTED_EDGE('',*,*,#1181,.T.) ;
#1238=ORIENTED_EDGE('',*,*,#660,.F.) ;
#1239=ORIENTED_EDGE('',*,*,#1224,.F.) ;
#1240=ORIENTED_EDGE('',*,*,#1231,.T.) ;
#1241=ORIENTED_EDGE('',*,*,#1236,.T.) ;
#1250=ORIENTED_EDGE('',*,*,#655,.F.) ;
#1251=ORIENTED_EDGE('',*,*,#1236,.F.) ;
#1252=ORIENTED_EDGE('',*,*,#1248,.T.) ;
#1253=ORIENTED_EDGE('',*,*,#1224,.T.) ;
#1276=ORIENTED_EDGE('',*,*,#1262,.F.) ;
#1277=ORIENTED_EDGE('',*,*,#1269,.T.) ;
#1278=ORIENTED_EDGE('',*,*,#1274,.T.) ;
#1279=ORIENTED_EDGE('',*,*,#729,.F.) ;
#1300=ORIENTED_EDGE('',*,*,#1293,.F.) ;
#1301=ORIENTED_EDGE('',*,*,#1298,.T.) ;
#1302=ORIENTED_EDGE('',*,*,#1262,.T.) ;
#1303=ORIENTED_EDGE('',*,*,#722,.F.) ;
#1326=ORIENTED_EDGE('',*,*,#1319,.T.) ;
#1327=ORIENTED_EDGE('',*,*,#1324,.T.) ;
#1330=ORIENTED_EDGE('',*,*,#861,.F.) ;
#1331=ORIENTED_EDGE('',*,*,#873,.F.) ;
#1349=ORIENTED_EDGE('',*,*,#1342,.T.) ;
#1350=ORIENTED_EDGE('',*,*,#1347,.T.) ;
#1353=ORIENTED_EDGE('',*,*,#904,.F.) ;
#1354=ORIENTED_EDGE('',*,*,#916,.F.) ;
#1417=ORIENTED_EDGE('',*,*,#1368,.T.) ;
#1418=ORIENTED_EDGE('',*,*,#1375,.F.) ;
#1419=ORIENTED_EDGE('',*,*,#1382,.T.) ;
#1420=ORIENTED_EDGE('',*,*,#1389,.T.) ;
#1421=ORIENTED_EDGE('',*,*,#1396,.T.) ;
#1422=ORIENTED_EDGE('',*,*,#1403,.F.) ;
#1423=ORIENTED_EDGE('',*,*,#1410,.T.) ;
#1424=ORIENTED_EDGE('',*,*,#1415,.F.) ;
#1425=ORIENTED_EDGE('',*,*,#1269,.F.) ;
#1426=ORIENTED_EDGE('',*,*,#1298,.F.) ;
#1454=ORIENTED_EDGE('',*,*,#1440,.F.) ;
#1455=ORIENTED_EDGE('',*,*,#1447,.T.) ;
#1456=ORIENTED_EDGE('',*,*,#1452,.T.) ;
#1457=ORIENTED_EDGE('',*,*,#1319,.F.) ;
#1466=ORIENTED_EDGE('',*,*,#1452,.F.) ;
#1467=ORIENTED_EDGE('',*,*,#1464,.T.) ;
#1468=ORIENTED_EDGE('',*,*,#1440,.T.) ;
#1469=ORIENTED_EDGE('',*,*,#1324,.F.) ;
#1497=ORIENTED_EDGE('',*,*,#1483,.F.) ;
#1498=ORIENTED_EDGE('',*,*,#1490,.T.) ;
#1499=ORIENTED_EDGE('',*,*,#1495,.T.) ;
#1500=ORIENTED_EDGE('',*,*,#1342,.F.) ;
#1509=ORIENTED_EDGE('',*,*,#1495,.F.) ;
#1510=ORIENTED_EDGE('',*,*,#1507,.T.) ;
#1511=ORIENTED_EDGE('',*,*,#1483,.T.) ;
#1512=ORIENTED_EDGE('',*,*,#1347,.F.) ;
#1538=ORIENTED_EDGE('',*,*,#1526,.T.) ;
#1539=ORIENTED_EDGE('',*,*,#1389,.F.) ;
#1540=ORIENTED_EDGE('',*,*,#1531,.T.) ;
#1541=ORIENTED_EDGE('',*,*,#1536,.T.) ;
#1555=ORIENTED_EDGE('',*,*,#1274,.F.) ;
#1556=ORIENTED_EDGE('',*,*,#1415,.T.) ;
#1557=ORIENTED_EDGE('',*,*,#1553,.T.) ;
#1558=ORIENTED_EDGE('',*,*,#736,.T.) ;
#1567=ORIENTED_EDGE('',*,*,#1553,.F.) ;
#1568=ORIENTED_EDGE('',*,*,#1410,.F.) ;
#1569=ORIENTED_EDGE('',*,*,#1565,.F.) ;
#1570=ORIENTED_EDGE('',*,*,#743,.T.) ;
#1584=ORIENTED_EDGE('',*,*,#1403,.T.) ;
#1585=ORIENTED_EDGE('',*,*,#1582,.F.) ;
#1586=ORIENTED_EDGE('',*,*,#750,.T.) ;
#1587=ORIENTED_EDGE('',*,*,#1565,.T.) ;
#1601=ORIENTED_EDGE('',*,*,#762,.T.) ;
#1602=ORIENTED_EDGE('',*,*,#806,.T.) ;
#1603=ORIENTED_EDGE('',*,*,#1531,.F.) ;
#1604=ORIENTED_EDGE('',*,*,#1382,.F.) ;
#1605=ORIENTED_EDGE('',*,*,#1599,.F.) ;
#1619=ORIENTED_EDGE('',*,*,#1375,.T.) ;
#1620=ORIENTED_EDGE('',*,*,#1617,.F.) ;
#1621=ORIENTED_EDGE('',*,*,#769,.T.) ;
#1622=ORIENTED_EDGE('',*,*,#1599,.T.) ;
#1626=ORIENTED_EDGE('',*,*,#1293,.T.) ;
#1627=ORIENTED_EDGE('',*,*,#774,.T.) ;
#1628=ORIENTED_EDGE('',*,*,#1617,.T.) ;
#1629=ORIENTED_EDGE('',*,*,#1368,.F.) ;
#1657=ORIENTED_EDGE('',*,*,#513,.T.) ;
#1658=ORIENTED_EDGE('',*,*,#1643,.F.) ;
#1659=ORIENTED_EDGE('',*,*,#1650,.T.) ;
#1660=ORIENTED_EDGE('',*,*,#1655,.T.) ;
#1674=ORIENTED_EDGE('',*,*,#520,.T.) ;
#1675=ORIENTED_EDGE('',*,*,#1655,.F.) ;
#1676=ORIENTED_EDGE('',*,*,#1672,.T.) ;
#1677=ORIENTED_EDGE('',*,*,#935,.T.) ;
#1691=ORIENTED_EDGE('',*,*,#532,.T.) ;
#1692=ORIENTED_EDGE('',*,*,#947,.F.) ;
#1693=ORIENTED_EDGE('',*,*,#1689,.T.) ;
#1694=ORIENTED_EDGE('',*,*,#1643,.T.) ;
#1722=ORIENTED_EDGE('',*,*,#479,.T.) ;
#1723=ORIENTED_EDGE('',*,*,#1708,.F.) ;
#1724=ORIENTED_EDGE('',*,*,#1715,.T.) ;
#1725=ORIENTED_EDGE('',*,*,#1720,.T.) ;
#1746=ORIENTED_EDGE('',*,*,#486,.T.) ;
#1747=ORIENTED_EDGE('',*,*,#1720,.F.) ;
#1748=ORIENTED_EDGE('',*,*,#1739,.T.) ;
#1749=ORIENTED_EDGE('',*,*,#1744,.T.) ;
#1770=ORIENTED_EDGE('',*,*,#493,.T.) ;
#1771=ORIENTED_EDGE('',*,*,#1744,.F.) ;
#1772=ORIENTED_EDGE('',*,*,#1763,.T.) ;
#1773=ORIENTED_EDGE('',*,*,#1768,.T.) ;
#1787=ORIENTED_EDGE('',*,*,#498,.T.) ;
#1788=ORIENTED_EDGE('',*,*,#1768,.F.) ;
#1789=ORIENTED_EDGE('',*,*,#1785,.T.) ;
#1790=ORIENTED_EDGE('',*,*,#1708,.T.) ;
#1811=ORIENTED_EDGE('',*,*,#1804,.T.) ;
#1812=ORIENTED_EDGE('',*,*,#701,.F.) ;
#1813=ORIENTED_EDGE('',*,*,#363,.T.) ;
#1814=ORIENTED_EDGE('',*,*,#1809,.T.) ;
#1835=ORIENTED_EDGE('',*,*,#1828,.T.) ;
#1836=ORIENTED_EDGE('',*,*,#394,.T.) ;
#1837=ORIENTED_EDGE('',*,*,#830,.F.) ;
#1838=ORIENTED_EDGE('',*,*,#1833,.F.) ;
#1847=ORIENTED_EDGE('',*,*,#401,.T.) ;
#1848=ORIENTED_EDGE('',*,*,#1828,.F.) ;
#1849=ORIENTED_EDGE('',*,*,#1845,.F.) ;
#1850=ORIENTED_EDGE('',*,*,#794,.T.) ;
#1864=ORIENTED_EDGE('',*,*,#1582,.T.) ;
#1865=ORIENTED_EDGE('',*,*,#1396,.F.) ;
#1866=ORIENTED_EDGE('',*,*,#1526,.F.) ;
#1867=ORIENTED_EDGE('',*,*,#1862,.F.) ;
#1868=ORIENTED_EDGE('',*,*,#1809,.F.) ;
#1869=ORIENTED_EDGE('',*,*,#420,.T.) ;
#1870=ORIENTED_EDGE('',*,*,#755,.T.) ;
#1879=ORIENTED_EDGE('',*,*,#801,.T.) ;
#1880=ORIENTED_EDGE('',*,*,#1845,.T.) ;
#1881=ORIENTED_EDGE('',*,*,#1833,.T.) ;
#1882=ORIENTED_EDGE('',*,*,#825,.T.) ;
#1883=ORIENTED_EDGE('',*,*,#677,.T.) ;
#1884=ORIENTED_EDGE('',*,*,#272,.F.) ;
#1885=ORIENTED_EDGE('',*,*,#226,.T.) ;
#1886=ORIENTED_EDGE('',*,*,#330,.F.) ;
#1887=ORIENTED_EDGE('',*,*,#706,.T.) ;
#1888=ORIENTED_EDGE('',*,*,#1804,.F.) ;
#1889=ORIENTED_EDGE('',*,*,#1862,.T.) ;
#1890=ORIENTED_EDGE('',*,*,#1536,.F.) ;
#1893=ORIENTED_EDGE('',*,*,#1248,.F.) ;
#1894=ORIENTED_EDGE('',*,*,#1231,.F.) ;
#1897=ORIENTED_EDGE('',*,*,#1059,.F.) ;
#1898=ORIENTED_EDGE('',*,*,#1076,.F.) ;
#1901=ORIENTED_EDGE('',*,*,#1016,.F.) ;
#1902=ORIENTED_EDGE('',*,*,#1033,.F.) ;
#1905=ORIENTED_EDGE('',*,*,#973,.F.) ;
#1906=ORIENTED_EDGE('',*,*,#990,.F.) ;
#1909=ORIENTED_EDGE('',*,*,#1672,.F.) ;
#1910=ORIENTED_EDGE('',*,*,#1650,.F.) ;
#1911=ORIENTED_EDGE('',*,*,#1689,.F.) ;
#1912=ORIENTED_EDGE('',*,*,#942,.F.) ;
#1915=ORIENTED_EDGE('',*,*,#1739,.F.) ;
#1916=ORIENTED_EDGE('',*,*,#1715,.F.) ;
#1917=ORIENTED_EDGE('',*,*,#1785,.F.) ;
#1918=ORIENTED_EDGE('',*,*,#1763,.F.) ;
#1921=ORIENTED_EDGE('',*,*,#1162,.F.) ;
#1922=ORIENTED_EDGE('',*,*,#1145,.F.) ;
#1925=ORIENTED_EDGE('',*,*,#1205,.F.) ;
#1926=ORIENTED_EDGE('',*,*,#1188,.F.) ;
#1929=ORIENTED_EDGE('',*,*,#1447,.F.) ;
#1930=ORIENTED_EDGE('',*,*,#1464,.F.) ;
#1933=ORIENTED_EDGE('',*,*,#1507,.F.) ;
#1934=ORIENTED_EDGE('',*,*,#1490,.F.) ;
#1937=ORIENTED_EDGE('',*,*,#1119,.F.) ;
#1938=ORIENTED_EDGE('',*,*,#1102,.F.) ;
#1966=ORIENTED_EDGE('',*,*,#1952,.T.) ;
#1967=ORIENTED_EDGE('',*,*,#1959,.F.) ;
#1968=ORIENTED_EDGE('',*,*,#1964,.T.) ;
#1969=ORIENTED_EDGE('',*,*,#198,.T.) ;
#1988=ORIENTED_EDGE('',*,*,#1981,.T.) ;
#1989=ORIENTED_EDGE('',*,*,#310,.F.) ;
#1990=ORIENTED_EDGE('',*,*,#1986,.T.) ;
#1991=ORIENTED_EDGE('',*,*,#172,.T.) ;
#2000=ORIENTED_EDGE('',*,*,#65,.T.) ;
#2001=ORIENTED_EDGE('',*,*,#115,.T.) ;
#2002=ORIENTED_EDGE('',*,*,#134,.F.) ;
#2003=ORIENTED_EDGE('',*,*,#177,.F.) ;
#2004=ORIENTED_EDGE('',*,*,#1986,.F.) ;
#2005=ORIENTED_EDGE('',*,*,#305,.F.) ;
#2006=ORIENTED_EDGE('',*,*,#373,.T.) ;
#2007=ORIENTED_EDGE('',*,*,#205,.F.) ;
#2008=ORIENTED_EDGE('',*,*,#1964,.F.) ;
#2009=ORIENTED_EDGE('',*,*,#1998,.F.) ;
#2018=ORIENTED_EDGE('',*,*,#72,.T.) ;
#2019=ORIENTED_EDGE('',*,*,#1998,.T.) ;
#2020=ORIENTED_EDGE('',*,*,#1959,.T.) ;
#2021=ORIENTED_EDGE('',*,*,#2016,.F.) ;
#2025=ORIENTED_EDGE('',*,*,#2016,.T.) ;
#2026=ORIENTED_EDGE('',*,*,#1952,.F.) ;
#2027=ORIENTED_EDGE('',*,*,#238,.T.) ;
#2028=ORIENTED_EDGE('',*,*,#267,.T.) ;
#2029=ORIENTED_EDGE('',*,*,#291,.T.) ;
#2030=ORIENTED_EDGE('',*,*,#1981,.F.) ;
#2031=ORIENTED_EDGE('',*,*,#165,.T.) ;
#2032=ORIENTED_EDGE('',*,*,#141,.T.) ;
#2033=ORIENTED_EDGE('',*,*,#103,.T.) ;
#2034=ORIENTED_EDGE('',*,*,#79,.T.) ;
#452=FACE_BOUND('',#449,.T.) ;
#470=FACE_BOUND('',#467,.T.) ;
#504=FACE_BOUND('',#499,.T.) ;
#538=FACE_BOUND('',#533,.T.) ;
#556=FACE_BOUND('',#553,.T.) ;
#574=FACE_BOUND('',#571,.T.) ;
#592=FACE_BOUND('',#589,.T.) ;
#610=FACE_BOUND('',#607,.T.) ;
#628=FACE_BOUND('',#625,.T.) ;
#646=FACE_BOUND('',#643,.T.) ;
#664=FACE_BOUND('',#661,.T.) ;
#1332=FACE_BOUND('',#1329,.T.) ;
#1355=FACE_BOUND('',#1352,.T.) ;
#1895=FACE_BOUND('',#1892,.T.) ;
#1899=FACE_BOUND('',#1896,.T.) ;
#1903=FACE_BOUND('',#1900,.T.) ;
#1907=FACE_BOUND('',#1904,.T.) ;
#1913=FACE_BOUND('',#1908,.T.) ;
#1919=FACE_BOUND('',#1914,.T.) ;
#1923=FACE_BOUND('',#1920,.T.) ;
#1927=FACE_BOUND('',#1924,.T.) ;
#1931=FACE_BOUND('',#1928,.T.) ;
#1935=FACE_BOUND('',#1932,.T.) ;
#1939=FACE_BOUND('',#1936,.T.) ;
#51=CLOSED_SHELL('Closed Shell',(#91,#122,#153,#184,#248,#279,#318,#349,#665,#689,#713,#787,#813,#837,#868,#880,#911,#923,#954,#985,#997,#1028,#1040,#1071,#1083,#1114,#1126,#1157,#1169,#1200,#1212,#1243,#1255,#1281,#1305,#1333,#1356,#1428,#1459,#1471,#1502,#1514,#1543,#1560,#1572,#1589,#1607,#1624,#1631,#1662,#1679,#1696,#1727,#1751,#1775,#1792,#1816,#1840,#1852,#1872,#1940,#1971,#1993,#2011,#2023,#2036)) ;
#59=VECTOR('Line Direction',#58,1.) ;
#68=VECTOR('Line Direction',#67,1.) ;
#75=VECTOR('Line Direction',#74,1.) ;
#82=VECTOR('Line Direction',#81,1.) ;
#99=VECTOR('Line Direction',#98,1.) ;
#106=VECTOR('Line Direction',#105,1.) ;
#113=VECTOR('Line Direction',#112,1.) ;
#130=VECTOR('Line Direction',#129,1.) ;
#137=VECTOR('Line Direction',#136,1.) ;
#144=VECTOR('Line Direction',#143,1.) ;
#161=VECTOR('Line Direction',#160,1.) ;
#168=VECTOR('Line Direction',#167,1.) ;
#175=VECTOR('Line Direction',#174,1.) ;
#192=VECTOR('Line Direction',#191,1.) ;
#201=VECTOR('Line Direction',#200,1.) ;
#208=VECTOR('Line Direction',#207,1.) ;
#215=VECTOR('Line Direction',#214,1.) ;
#222=VECTOR('Line Direction',#221,1.) ;
#236=VECTOR('Line Direction',#235,1.) ;
#265=VECTOR('Line Direction',#264,1.) ;
#270=VECTOR('Line Direction',#269,1.) ;
#287=VECTOR('Line Direction',#286,1.) ;
#294=VECTOR('Line Direction',#293,1.) ;
#301=VECTOR('Line Direction',#300,1.) ;
#308=VECTOR('Line Direction',#307,1.) ;
#340=VECTOR('Line Direction',#339,1.) ;
#366=VECTOR('Line Direction',#365,1.) ;
#371=VECTOR('Line Direction',#370,1.) ;
#376=VECTOR('Line Direction',#375,1.) ;
#383=VECTOR('Line Direction',#382,1.) ;
#397=VECTOR('Line Direction',#396,1.) ;
#404=VECTOR('Line Direction',#403,1.) ;
#411=VECTOR('Line Direction',#410,1.) ;
#418=VECTOR('Line Direction',#417,1.) ;
#473=VECTOR('Line Direction',#472,1.) ;
#482=VECTOR('Line Direction',#481,1.) ;
#489=VECTOR('Line Direction',#488,1.) ;
#496=VECTOR('Line Direction',#495,1.) ;
#507=VECTOR('Line Direction',#506,1.) ;
#516=VECTOR('Line Direction',#515,1.) ;
#523=VECTOR('Line Direction',#522,1.) ;
#530=VECTOR('Line Direction',#529,1.) ;
#673=VECTOR('Line Direction',#672,1.) ;
#680=VECTOR('Line Direction',#679,1.) ;
#697=VECTOR('Line Direction',#696,1.) ;
#704=VECTOR('Line Direction',#703,1.) ;
#716=VECTOR('Line Direction',#715,1.) ;
#725=VECTOR('Line Direction',#724,1.) ;
#732=VECTOR('Line Direction',#731,1.) ;
#739=VECTOR('Line Direction',#738,1.) ;
#753=VECTOR('Line Direction',#752,1.) ;
#758=VECTOR('Line Direction',#757,1.) ;
#772=VECTOR('Line Direction',#771,1.) ;
#790=VECTOR('Line Direction',#789,1.) ;
#797=VECTOR('Line Direction',#796,1.) ;
#804=VECTOR('Line Direction',#803,1.) ;
#821=VECTOR('Line Direction',#820,1.) ;
#828=VECTOR('Line Direction',#827,1.) ;
#845=VECTOR('Line Direction',#844,1.) ;
#852=VECTOR('Line Direction',#851,1.) ;
#888=VECTOR('Line Direction',#887,1.) ;
#895=VECTOR('Line Direction',#894,1.) ;
#931=VECTOR('Line Direction',#930,1.) ;
#938=VECTOR('Line Direction',#937,1.) ;
#945=VECTOR('Line Direction',#944,1.) ;
#962=VECTOR('Line Direction',#961,1.) ;
#976=VECTOR('Line Direction',#975,1.) ;
#1005=VECTOR('Line Direction',#1004,1.) ;
#1019=VECTOR('Line Direction',#1018,1.) ;
#1048=VECTOR('Line Direction',#1047,1.) ;
#1062=VECTOR('Line Direction',#1061,1.) ;
#1091=VECTOR('Line Direction',#1090,1.) ;
#1105=VECTOR('Line Direction',#1104,1.) ;
#1134=VECTOR('Line Direction',#1133,1.) ;
#1148=VECTOR('Line Direction',#1147,1.) ;
#1177=VECTOR('Line Direction',#1176,1.) ;
#1191=VECTOR('Line Direction',#1190,1.) ;
#1220=VECTOR('Line Direction',#1219,1.) ;
#1234=VECTOR('Line Direction',#1233,1.) ;
#1258=VECTOR('Line Direction',#1257,1.) ;
#1265=VECTOR('Line Direction',#1264,1.) ;
#1272=VECTOR('Line Direction',#1271,1.) ;
#1289=VECTOR('Line Direction',#1288,1.) ;
#1296=VECTOR('Line Direction',#1295,1.) ;
#1364=VECTOR('Line Direction',#1363,1.) ;
#1378=VECTOR('Line Direction',#1377,1.) ;
#1385=VECTOR('Line Direction',#1384,1.) ;
#1392=VECTOR('Line Direction',#1391,1.) ;
#1406=VECTOR('Line Direction',#1405,1.) ;
#1413=VECTOR('Line Direction',#1412,1.) ;
#1436=VECTOR('Line Direction',#1435,1.) ;
#1450=VECTOR('Line Direction',#1449,1.) ;
#1479=VECTOR('Line Direction',#1478,1.) ;
#1493=VECTOR('Line Direction',#1492,1.) ;
#1534=VECTOR('Line Direction',#1533,1.) ;
#1551=VECTOR('Line Direction',#1550,1.) ;
#1563=VECTOR('Line Direction',#1562,1.) ;
#1580=VECTOR('Line Direction',#1579,1.) ;
#1597=VECTOR('Line Direction',#1596,1.) ;
#1615=VECTOR('Line Direction',#1614,1.) ;
#1639=VECTOR('Line Direction',#1638,1.) ;
#1646=VECTOR('Line Direction',#1645,1.) ;
#1653=VECTOR('Line Direction',#1652,1.) ;
#1670=VECTOR('Line Direction',#1669,1.) ;
#1687=VECTOR('Line Direction',#1686,1.) ;
#1704=VECTOR('Line Direction',#1703,1.) ;
#1711=VECTOR('Line Direction',#1710,1.) ;
#1718=VECTOR('Line Direction',#1717,1.) ;
#1735=VECTOR('Line Direction',#1734,1.) ;
#1742=VECTOR('Line Direction',#1741,1.) ;
#1759=VECTOR('Line Direction',#1758,1.) ;
#1766=VECTOR('Line Direction',#1765,1.) ;
#1783=VECTOR('Line Direction',#1782,1.) ;
#1807=VECTOR('Line Direction',#1806,1.) ;
#1824=VECTOR('Line Direction',#1823,1.) ;
#1843=VECTOR('Line Direction',#1842,1.) ;
#1860=VECTOR('Line Direction',#1859,1.) ;
#1955=VECTOR('Line Direction',#1954,1.) ;
#1996=VECTOR('Line Direction',#1995,1.) ;
#2014=VECTOR('Line Direction',#2013,1.) ;
#2038=ADVANCED_BREP_SHAPE_REPRESENTATION('NONE',(#2037),#46) ;
#49=SHAPE_REPRESENTATION(' ',(#48),#46) ;
#91=ADVANCED_FACE('PartBody',(#90),#56,.F.) ;
#122=ADVANCED_FACE('PartBody',(#121),#96,.T.) ;
#153=ADVANCED_FACE('PartBody',(#152),#127,.F.) ;
#184=ADVANCED_FACE('PartBody',(#183),#158,.F.) ;
#248=ADVANCED_FACE('PartBody',(#247),#189,.F.) ;
#279=ADVANCED_FACE('PartBody',(#278),#253,.T.) ;
#318=ADVANCED_FACE('PartBody',(#317),#284,.T.) ;
#349=ADVANCED_FACE('PartBody',(#348),#323,.T.) ;
#665=ADVANCED_FACE('PartBody',(#434,#452,#470,#504,#538,#556,#574,#592,#610,#628,#646,#664),#354,.F.) ;
#689=ADVANCED_FACE('PartBody',(#688),#670,.T.) ;
#713=ADVANCED_FACE('PartBody',(#712),#694,.F.) ;
#787=ADVANCED_FACE('PartBody',(#786),#670,.F.) ;
#813=ADVANCED_FACE('PartBody',(#812),#670,.T.) ;
#837=ADVANCED_FACE('PartBody',(#836),#818,.T.) ;
#868=ADVANCED_FACE('PartBody',(#867),#842,.F.) ;
#880=ADVANCED_FACE('PartBody',(#879),#842,.F.) ;
#911=ADVANCED_FACE('PartBody',(#910),#885,.F.) ;
#923=ADVANCED_FACE('PartBody',(#922),#885,.F.) ;
#954=ADVANCED_FACE('PartBody',(#953),#928,.T.) ;
#985=ADVANCED_FACE('PartBody',(#984),#959,.F.) ;
#997=ADVANCED_FACE('PartBody',(#996),#959,.F.) ;
#1028=ADVANCED_FACE('PartBody',(#1027),#1002,.F.) ;
#1040=ADVANCED_FACE('PartBody',(#1039),#1002,.F.) ;
#1071=ADVANCED_FACE('PartBody',(#1070),#1045,.F.) ;
#1083=ADVANCED_FACE('PartBody',(#1082),#1045,.F.) ;
#1114=ADVANCED_FACE('PartBody',(#1113),#1088,.F.) ;
#1126=ADVANCED_FACE('PartBody',(#1125),#1088,.F.) ;
#1157=ADVANCED_FACE('PartBody',(#1156),#1131,.F.) ;
#1169=ADVANCED_FACE('PartBody',(#1168),#1131,.F.) ;
#1200=ADVANCED_FACE('PartBody',(#1199),#1174,.F.) ;
#1212=ADVANCED_FACE('PartBody',(#1211),#1174,.F.) ;
#1243=ADVANCED_FACE('PartBody',(#1242),#1217,.F.) ;
#1255=ADVANCED_FACE('PartBody',(#1254),#1217,.F.) ;
#1281=ADVANCED_FACE('PartBody',(#1280),#96,.T.) ;
#1305=ADVANCED_FACE('PartBody',(#1304),#1286,.T.) ;
#1333=ADVANCED_FACE('PartBody',(#1328,#1332),#1310,.T.) ;
#1356=ADVANCED_FACE('PartBody',(#1351,#1355),#1310,.T.) ;
#1428=ADVANCED_FACE('PartBody',(#1427),#1361,.T.) ;
#1459=ADVANCED_FACE('PartBody',(#1458),#1433,.T.) ;
#1471=ADVANCED_FACE('PartBody',(#1470),#1433,.T.) ;
#1502=ADVANCED_FACE('PartBody',(#1501),#1476,.T.) ;
#1514=ADVANCED_FACE('PartBody',(#1513),#1476,.T.) ;
#1543=ADVANCED_FACE('PartBody',(#1542),#1519,.T.) ;
#1560=ADVANCED_FACE('PartBody',(#1559),#1548,.T.) ;
#1572=ADVANCED_FACE('PartBody',(#1571),#158,.F.) ;
#1589=ADVANCED_FACE('PartBody',(#1588),#1577,.T.) ;
#1607=ADVANCED_FACE('PartBody',(#1606),#1594,.T.) ;
#1624=ADVANCED_FACE('PartBody',(#1623),#1612,.T.) ;
#1631=ADVANCED_FACE('PartBody',(#1630),#158,.F.) ;
#1662=ADVANCED_FACE('PartBody',(#1661),#1636,.F.) ;
#1679=ADVANCED_FACE('PartBody',(#1678),#1667,.F.) ;
#1696=ADVANCED_FACE('PartBody',(#1695),#1684,.F.) ;
#1727=ADVANCED_FACE('PartBody',(#1726),#1701,.F.) ;
#1751=ADVANCED_FACE('PartBody',(#1750),#1732,.F.) ;
#1775=ADVANCED_FACE('PartBody',(#1774),#1756,.F.) ;
#1792=ADVANCED_FACE('PartBody',(#1791),#1780,.F.) ;
#1816=ADVANCED_FACE('PartBody',(#1815),#1797,.T.) ;
#1840=ADVANCED_FACE('PartBody',(#1839),#1821,.T.) ;
#1852=ADVANCED_FACE('PartBody',(#1851),#928,.F.) ;
#1872=ADVANCED_FACE('PartBody',(#1871),#1857,.F.) ;
#1940=ADVANCED_FACE('PartBody',(#1891,#1895,#1899,#1903,#1907,#1913,#1919,#1923,#1927,#1931,#1935,#1939),#1877,.T.) ;
#1971=ADVANCED_FACE('PartBody',(#1970),#1945,.T.) ;
#1993=ADVANCED_FACE('PartBody',(#1992),#1976,.T.) ;
#2011=ADVANCED_FACE('PartBody',(#2010),#670,.F.) ;
#2023=ADVANCED_FACE('PartBody',(#2022),#158,.F.) ;
#2036=ADVANCED_FACE('PartBody',(#2035),#1361,.T.) ;
#4=APPLICATION_PROTOCOL_DEFINITION('international standard','config_control_design',1994,#1) ;
#32=APPROVAL_DATE_TIME(#13,#21) ;
#2037=MANIFOLD_SOLID_BREP('PartBody',#51) ;
#11=CALENDAR_DATE(2020,18,8) ;
#30=CC_DESIGN_APPROVAL(#21,(#16,#6,#14)) ;
#18=CC_DESIGN_DATE_AND_TIME_ASSIGNMENT(#13,#17,(#16)) ;
#29=CC_DESIGN_DATE_AND_TIME_ASSIGNMENT(#13,#28,(#14)) ;
#17=DATE_TIME_ROLE('classification_date') ;
#28=DATE_TIME_ROLE('creation_date') ;
#27=CC_DESIGN_PERSON_AND_ORGANIZATION_ASSIGNMENT(#25,#26,(#16)) ;
#33=CC_DESIGN_PERSON_AND_ORGANIZATION_ASSIGNMENT(#25,#34,(#6)) ;
#35=CC_DESIGN_PERSON_AND_ORGANIZATION_ASSIGNMENT(#25,#36,(#6,#14)) ;
#37=CC_DESIGN_PERSON_AND_ORGANIZATION_ASSIGNMENT(#25,#38,(#5)) ;
#26=PERSON_AND_ORGANIZATION_ROLE('classification_officer') ;
#34=PERSON_AND_ORGANIZATION_ROLE('design_supplier') ;
#36=PERSON_AND_ORGANIZATION_ROLE('creator') ;
#38=PERSON_AND_ORGANIZATION_ROLE('design_owner') ;
#39=CC_DESIGN_SECURITY_CLASSIFICATION(#16,(#6)) ;
#230=CIRCLE('generated circle',#229,2.5) ;
#257=CIRCLE('generated circle',#256,2.5) ;
#327=CIRCLE('generated circle',#326,8.) ;
#334=CIRCLE('generated circle',#333,8.) ;
#358=CIRCLE('generated circle',#357,8.) ;
#391=CIRCLE('generated circle',#390,12.) ;
#438=CIRCLE('generated circle',#437,1.2295) ;
#447=CIRCLE('generated circle',#446,1.2295) ;
#456=CIRCLE('generated circle',#455,1.2295) ;
#465=CIRCLE('generated circle',#464,1.2295) ;
#542=CIRCLE('generated circle',#541,1.625) ;
#551=CIRCLE('generated circle',#550,1.625) ;
#560=CIRCLE('generated circle',#559,1.75) ;
#569=CIRCLE('generated circle',#568,1.75) ;
#578=CIRCLE('generated circle',#577,1.25) ;
#587=CIRCLE('generated circle',#586,1.25) ;
#596=CIRCLE('generated circle',#595,1.25) ;
#605=CIRCLE('generated circle',#604,1.25) ;
#614=CIRCLE('generated circle',#613,2.5) ;
#623=CIRCLE('generated circle',#622,2.5) ;
#632=CIRCLE('generated circle',#631,2.5) ;
#641=CIRCLE('generated circle',#640,2.5) ;
#650=CIRCLE('generated circle',#649,3.6) ;
#659=CIRCLE('generated circle',#658,3.6) ;
#747=CIRCLE('generated circle',#746,2.5) ;
#766=CIRCLE('generated circle',#765,2.5) ;
#860=CIRCLE('generated circle',#859,1.2295) ;
#872=CIRCLE('generated circle',#871,1.2295) ;
#903=CIRCLE('generated circle',#902,1.2295) ;
#915=CIRCLE('generated circle',#914,1.2295) ;
#970=CIRCLE('generated circle',#969,1.625) ;
#989=CIRCLE('generated circle',#988,1.625) ;
#1013=CIRCLE('generated circle',#1012,1.75) ;
#1032=CIRCLE('generated circle',#1031,1.75) ;
#1056=CIRCLE('generated circle',#1055,1.25) ;
#1075=CIRCLE('generated circle',#1074,1.25) ;
#1099=CIRCLE('generated circle',#1098,1.25) ;
#1118=CIRCLE('generated circle',#1117,1.25) ;
#1142=CIRCLE('generated circle',#1141,2.5) ;
#1161=CIRCLE('generated circle',#1160,2.5) ;
#1185=CIRCLE('generated circle',#1184,2.5) ;
#1204=CIRCLE('generated circle',#1203,2.5) ;
#1228=CIRCLE('generated circle',#1227,3.6) ;
#1247=CIRCLE('generated circle',#1246,3.6) ;
#1314=CIRCLE('generated circle',#1313,2.67) ;
#1323=CIRCLE('generated circle',#1322,2.67) ;
#1337=CIRCLE('generated circle',#1336,2.67) ;
#1346=CIRCLE('generated circle',#1345,2.67) ;
#1372=CIRCLE('generated circle',#1371,2.5) ;
#1400=CIRCLE('generated circle',#1399,2.5) ;
#1444=CIRCLE('generated circle',#1443,2.67) ;
#1463=CIRCLE('generated circle',#1462,2.67) ;
#1487=CIRCLE('generated circle',#1486,2.67) ;
#1506=CIRCLE('generated circle',#1505,2.67) ;
#1523=CIRCLE('generated circle',#1522,2.5) ;
#1530=CIRCLE('generated circle',#1529,2.5) ;
#1801=CIRCLE('generated circle',#1800,8.) ;
#1832=CIRCLE('generated circle',#1831,12.) ;
#1949=CIRCLE('generated circle',#1948,2.5) ;
#1963=CIRCLE('generated circle',#1962,2.5) ;
#1980=CIRCLE('generated circle',#1979,2.5) ;
#1985=CIRCLE('generated circle',#1984,2.5) ;
#2039=SHAPE_REPRESENTATION_RELATIONSHIP(' ',' ',#49,#2038) ;
#253=CYLINDRICAL_SURFACE('generated cylinder',#252,2.5) ;
#323=CYLINDRICAL_SURFACE('generated cylinder',#322,8.) ;
#842=CYLINDRICAL_SURFACE('generated cylinder',#841,1.2295) ;
#885=CYLINDRICAL_SURFACE('generated cylinder',#884,1.2295) ;
#959=CYLINDRICAL_SURFACE('generated cylinder',#958,1.625) ;
#1002=CYLINDRICAL_SURFACE('generated cylinder',#1001,1.75) ;
#1045=CYLINDRICAL_SURFACE('generated cylinder',#1044,1.25) ;
#1088=CYLINDRICAL_SURFACE('generated cylinder',#1087,1.25) ;
#1131=CYLINDRICAL_SURFACE('generated cylinder',#1130,2.5) ;
#1174=CYLINDRICAL_SURFACE('generated cylinder',#1173,2.5) ;
#1217=CYLINDRICAL_SURFACE('generated cylinder',#1216,3.6) ;
#1433=CYLINDRICAL_SURFACE('generated cylinder',#1432,2.67) ;
#1476=CYLINDRICAL_SURFACE('generated cylinder',#1475,2.67) ;
#1519=CYLINDRICAL_SURFACE('generated cylinder',#1518,2.5) ;
#1577=CYLINDRICAL_SURFACE('generated cylinder',#1576,2.5) ;
#1612=CYLINDRICAL_SURFACE('generated cylinder',#1611,2.5) ;
#1797=CYLINDRICAL_SURFACE('generated cylinder',#1796,8.) ;
#1821=CYLINDRICAL_SURFACE('generated cylinder',#1820,12.) ;
#1945=CYLINDRICAL_SURFACE('generated cylinder',#1944,2.5) ;
#1976=CYLINDRICAL_SURFACE('generated cylinder',#1975,2.5) ;
#3=DESIGN_CONTEXT(' ',#1,'design') ;
#65=EDGE_CURVE('',#62,#64,#60,.T.) ;
#72=EDGE_CURVE('',#71,#62,#69,.T.) ;
#79=EDGE_CURVE('',#78,#71,#76,.T.) ;
#84=EDGE_CURVE('',#78,#64,#83,.T.) ;
#103=EDGE_CURVE('',#102,#78,#100,.T.) ;
#110=EDGE_CURVE('',#102,#109,#107,.T.) ;
#115=EDGE_CURVE('',#64,#109,#114,.T.) ;
#134=EDGE_CURVE('',#133,#109,#131,.T.) ;
#141=EDGE_CURVE('',#140,#102,#138,.T.) ;
#146=EDGE_CURVE('',#140,#133,#145,.T.) ;
#165=EDGE_CURVE('',#164,#140,#162,.F.) ;
#172=EDGE_CURVE('',#171,#164,#169,.T.) ;
#177=EDGE_CURVE('',#171,#133,#176,.F.) ;
#198=EDGE_CURVE('',#195,#197,#193,.T.) ;
#205=EDGE_CURVE('',#195,#204,#202,.T.) ;
#212=EDGE_CURVE('',#204,#211,#209,.F.) ;
#219=EDGE_CURVE('',#211,#218,#216,.T.) ;
#226=EDGE_CURVE('',#225,#218,#223,.F.) ;
#233=EDGE_CURVE('',#232,#225,#230,.T.) ;
#238=EDGE_CURVE('',#197,#232,#237,.T.) ;
#262=EDGE_CURVE('',#259,#261,#257,.T.) ;
#267=EDGE_CURVE('',#232,#261,#266,.F.) ;
#272=EDGE_CURVE('',#225,#259,#271,.F.) ;
#291=EDGE_CURVE('',#261,#290,#288,.T.) ;
#298=EDGE_CURVE('',#259,#297,#295,.T.) ;
#305=EDGE_CURVE('',#297,#304,#302,.T.) ;
#310=EDGE_CURVE('',#304,#290,#309,.T.) ;
#330=EDGE_CURVE('',#329,#218,#327,.F.) ;
#337=EDGE_CURVE('',#211,#336,#334,.T.) ;
#342=EDGE_CURVE('',#336,#329,#341,.T.) ;
#363=EDGE_CURVE('',#360,#362,#358,.T.) ;
#368=EDGE_CURVE('',#336,#360,#367,.F.) ;
#373=EDGE_CURVE('',#297,#204,#372,.T.) ;
#380=EDGE_CURVE('',#379,#297,#377,.T.) ;
#387=EDGE_CURVE('',#379,#386,#384,.T.) ;
#394=EDGE_CURVE('',#393,#386,#391,.T.) ;
#401=EDGE_CURVE('',#400,#393,#398,.T.) ;
#408=EDGE_CURVE('',#400,#407,#405,.T.) ;
#415=EDGE_CURVE('',#407,#414,#412,.T.) ;
#420=EDGE_CURVE('',#362,#414,#419,.F.) ;
#443=EDGE_CURVE('',#440,#442,#438,.T.) ;
#448=EDGE_CURVE('',#442,#440,#447,.T.) ;
#461=EDGE_CURVE('',#458,#460,#456,.T.) ;
#466=EDGE_CURVE('',#460,#458,#465,.T.) ;
#479=EDGE_CURVE('',#476,#478,#474,.T.) ;
#486=EDGE_CURVE('',#485,#476,#483,.T.) ;
#493=EDGE_CURVE('',#492,#485,#490,.T.) ;
#498=EDGE_CURVE('',#478,#492,#497,.T.) ;
#513=EDGE_CURVE('',#510,#512,#508,.T.) ;
#520=EDGE_CURVE('',#519,#510,#517,.T.) ;
#527=EDGE_CURVE('',#519,#526,#524,.T.) ;
#532=EDGE_CURVE('',#512,#526,#531,.T.) ;
#547=EDGE_CURVE('',#544,#546,#542,.T.) ;
#552=EDGE_CURVE('',#546,#544,#551,.T.) ;
#565=EDGE_CURVE('',#562,#564,#560,.T.) ;
#570=EDGE_CURVE('',#564,#562,#569,.T.) ;
#583=EDGE_CURVE('',#580,#582,#578,.T.) ;
#588=EDGE_CURVE('',#582,#580,#587,.T.) ;
#601=EDGE_CURVE('',#598,#600,#596,.T.) ;
#606=EDGE_CURVE('',#600,#598,#605,.T.) ;
#619=EDGE_CURVE('',#616,#618,#614,.T.) ;
#624=EDGE_CURVE('',#618,#616,#623,.T.) ;
#637=EDGE_CURVE('',#634,#636,#632,.T.) ;
#642=EDGE_CURVE('',#636,#634,#641,.T.) ;
#655=EDGE_CURVE('',#652,#654,#650,.T.) ;
#660=EDGE_CURVE('',#654,#652,#659,.T.) ;
#677=EDGE_CURVE('',#676,#259,#674,.T.) ;
#682=EDGE_CURVE('',#676,#379,#681,.T.) ;
#701=EDGE_CURVE('',#360,#700,#698,.T.) ;
#706=EDGE_CURVE('',#329,#700,#705,.F.) ;
#722=EDGE_CURVE('',#719,#721,#717,.T.) ;
#729=EDGE_CURVE('',#721,#728,#726,.T.) ;
#736=EDGE_CURVE('',#735,#728,#733,.T.) ;
#743=EDGE_CURVE('',#742,#735,#740,.F.) ;
#750=EDGE_CURVE('',#749,#742,#747,.T.) ;
#755=EDGE_CURVE('',#414,#749,#754,.T.) ;
#762=EDGE_CURVE('',#761,#407,#759,.T.) ;
#769=EDGE_CURVE('',#768,#761,#766,.T.) ;
#774=EDGE_CURVE('',#719,#768,#773,.F.) ;
#794=EDGE_CURVE('',#793,#400,#791,.T.) ;
#801=EDGE_CURVE('',#800,#793,#798,.T.) ;
#806=EDGE_CURVE('',#407,#800,#805,.T.) ;
#825=EDGE_CURVE('',#824,#676,#822,.F.) ;
#830=EDGE_CURVE('',#824,#386,#829,.T.) ;
#849=EDGE_CURVE('',#440,#848,#846,.F.) ;
#856=EDGE_CURVE('',#442,#855,#853,.F.) ;
#861=EDGE_CURVE('',#855,#848,#860,.F.) ;
#873=EDGE_CURVE('',#848,#855,#872,.F.) ;
#892=EDGE_CURVE('',#458,#891,#889,.F.) ;
#899=EDGE_CURVE('',#460,#898,#896,.F.) ;
#904=EDGE_CURVE('',#898,#891,#903,.F.) ;
#916=EDGE_CURVE('',#891,#898,#915,.F.) ;
#935=EDGE_CURVE('',#934,#519,#932,.T.) ;
#942=EDGE_CURVE('',#934,#941,#939,.F.) ;
#947=EDGE_CURVE('',#941,#526,#946,.T.) ;
#966=EDGE_CURVE('',#965,#546,#963,.F.) ;
#973=EDGE_CURVE('',#965,#972,#970,.T.) ;
#978=EDGE_CURVE('',#972,#544,#977,.F.) ;
#990=EDGE_CURVE('',#972,#965,#989,.T.) ;
#1009=EDGE_CURVE('',#1008,#564,#1006,.F.) ;
#1016=EDGE_CURVE('',#1008,#1015,#1013,.T.) ;
#1021=EDGE_CURVE('',#1015,#562,#1020,.F.) ;
#1033=EDGE_CURVE('',#1015,#1008,#1032,.T.) ;
#1052=EDGE_CURVE('',#1051,#582,#1049,.F.) ;
#1059=EDGE_CURVE('',#1051,#1058,#1056,.T.) ;
#1064=EDGE_CURVE('',#1058,#580,#1063,.F.) ;
#1076=EDGE_CURVE('',#1058,#1051,#1075,.T.) ;
#1095=EDGE_CURVE('',#1094,#600,#1092,.F.) ;
#1102=EDGE_CURVE('',#1094,#1101,#1099,.T.) ;
#1107=EDGE_CURVE('',#1101,#598,#1106,.F.) ;
#1119=EDGE_CURVE('',#1101,#1094,#1118,.T.) ;
#1138=EDGE_CURVE('',#1137,#618,#1135,.F.) ;
#1145=EDGE_CURVE('',#1137,#1144,#1142,.T.) ;
#1150=EDGE_CURVE('',#1144,#616,#1149,.F.) ;
#1162=EDGE_CURVE('',#1144,#1137,#1161,.T.) ;
#1181=EDGE_CURVE('',#1180,#636,#1178,.F.) ;
#1188=EDGE_CURVE('',#1180,#1187,#1185,.T.) ;
#1193=EDGE_CURVE('',#1187,#634,#1192,.F.) ;
#1205=EDGE_CURVE('',#1187,#1180,#1204,.T.) ;
#1224=EDGE_CURVE('',#1223,#654,#1221,.F.) ;
#1231=EDGE_CURVE('',#1223,#1230,#1228,.T.) ;
#1236=EDGE_CURVE('',#1230,#652,#1235,.F.) ;
#1248=EDGE_CURVE('',#1230,#1223,#1247,.T.) ;
#1262=EDGE_CURVE('',#1261,#721,#1259,.T.) ;
#1269=EDGE_CURVE('',#1261,#1268,#1266,.T.) ;
#1274=EDGE_CURVE('',#1268,#728,#1273,.T.) ;
#1293=EDGE_CURVE('',#1292,#719,#1290,.T.) ;
#1298=EDGE_CURVE('',#1292,#1261,#1297,.T.) ;
#1319=EDGE_CURVE('',#1316,#1318,#1314,.T.) ;
#1324=EDGE_CURVE('',#1318,#1316,#1323,.T.) ;
#1342=EDGE_CURVE('',#1339,#1341,#1337,.T.) ;
#1347=EDGE_CURVE('',#1341,#1339,#1346,.T.) ;
#1368=EDGE_CURVE('',#1292,#1367,#1365,.F.) ;
#1375=EDGE_CURVE('',#1374,#1367,#1372,.F.) ;
#1382=EDGE_CURVE('',#1374,#1381,#1379,.T.) ;
#1389=EDGE_CURVE('',#1381,#1388,#1386,.F.) ;
#1396=EDGE_CURVE('',#1388,#1395,#1393,.T.) ;
#1403=EDGE_CURVE('',#1402,#1395,#1400,.F.) ;
#1410=EDGE_CURVE('',#1402,#1409,#1407,.F.) ;
#1415=EDGE_CURVE('',#1268,#1409,#1414,.T.) ;
#1440=EDGE_CURVE('',#1439,#1316,#1437,.T.) ;
#1447=EDGE_CURVE('',#1439,#1446,#1444,.T.) ;
#1452=EDGE_CURVE('',#1446,#1318,#1451,.T.) ;
#1464=EDGE_CURVE('',#1446,#1439,#1463,.T.) ;
#1483=EDGE_CURVE('',#1482,#1339,#1480,.T.) ;
#1490=EDGE_CURVE('',#1482,#1489,#1487,.T.) ;
#1495=EDGE_CURVE('',#1489,#1341,#1494,.T.) ;
#1507=EDGE_CURVE('',#1489,#1482,#1506,.T.) ;
#1526=EDGE_CURVE('',#1525,#1388,#1523,.T.) ;
#1531=EDGE_CURVE('',#1381,#800,#1530,.F.) ;
#1536=EDGE_CURVE('',#800,#1525,#1535,.F.) ;
#1553=EDGE_CURVE('',#1409,#735,#1552,.T.) ;
#1565=EDGE_CURVE('',#742,#1402,#1564,.T.) ;
#1582=EDGE_CURVE('',#749,#1395,#1581,.T.) ;
#1599=EDGE_CURVE('',#761,#1374,#1598,.T.) ;
#1617=EDGE_CURVE('',#768,#1367,#1616,.T.) ;
#1643=EDGE_CURVE('',#1642,#512,#1640,.T.) ;
#1650=EDGE_CURVE('',#1642,#1649,#1647,.F.) ;
#1655=EDGE_CURVE('',#1649,#510,#1654,.T.) ;
#1672=EDGE_CURVE('',#1649,#934,#1671,.F.) ;
#1689=EDGE_CURVE('',#941,#1642,#1688,.F.) ;
#1708=EDGE_CURVE('',#1707,#478,#1705,.T.) ;
#1715=EDGE_CURVE('',#1707,#1714,#1712,.F.) ;
#1720=EDGE_CURVE('',#1714,#476,#1719,.T.) ;
#1739=EDGE_CURVE('',#1714,#1738,#1736,.F.) ;
#1744=EDGE_CURVE('',#1738,#485,#1743,.T.) ;
#1763=EDGE_CURVE('',#1738,#1762,#1760,.F.) ;
#1768=EDGE_CURVE('',#1762,#492,#1767,.T.) ;
#1785=EDGE_CURVE('',#1762,#1707,#1784,.F.) ;
#1804=EDGE_CURVE('',#1803,#700,#1801,.F.) ;
#1809=EDGE_CURVE('',#362,#1803,#1808,.T.) ;
#1828=EDGE_CURVE('',#1827,#393,#1825,.F.) ;
#1833=EDGE_CURVE('',#1827,#824,#1832,.T.) ;
#1845=EDGE_CURVE('',#793,#1827,#1844,.T.) ;
#1862=EDGE_CURVE('',#1803,#1525,#1861,.F.) ;
#1952=EDGE_CURVE('',#197,#1951,#1949,.F.) ;
#1959=EDGE_CURVE('',#1958,#1951,#1956,.T.) ;
#1964=EDGE_CURVE('',#1958,#195,#1963,.T.) ;
#1981=EDGE_CURVE('',#164,#290,#1980,.F.) ;
#1986=EDGE_CURVE('',#304,#171,#1985,.T.) ;
#1998=EDGE_CURVE('',#62,#1958,#1997,.F.) ;
#2016=EDGE_CURVE('',#71,#1951,#2015,.F.) ;
#85=EDGE_LOOP('',(#86,#87,#88,#89)) ;
#116=EDGE_LOOP('',(#117,#118,#119,#120)) ;
#147=EDGE_LOOP('',(#148,#149,#150,#151)) ;
#178=EDGE_LOOP('',(#179,#180,#181,#182)) ;
#239=EDGE_LOOP('',(#240,#241,#242,#243,#244,#245,#246)) ;
#273=EDGE_LOOP('',(#274,#275,#276,#277)) ;
#311=EDGE_LOOP('',(#312,#313,#314,#315,#316)) ;
#343=EDGE_LOOP('',(#344,#345,#346,#347)) ;
#421=EDGE_LOOP('',(#422,#423,#424,#425,#426,#427,#428,#429,#430,#431,#432,#433)) ;
#449=EDGE_LOOP('',(#450,#451)) ;
#467=EDGE_LOOP('',(#468,#469)) ;
#499=EDGE_LOOP('',(#500,#501,#502,#503)) ;
#533=EDGE_LOOP('',(#534,#535,#536,#537)) ;
#553=EDGE_LOOP('',(#554,#555)) ;
#571=EDGE_LOOP('',(#572,#573)) ;
#589=EDGE_LOOP('',(#590,#591)) ;
#607=EDGE_LOOP('',(#608,#609)) ;
#625=EDGE_LOOP('',(#626,#627)) ;
#643=EDGE_LOOP('',(#644,#645)) ;
#661=EDGE_LOOP('',(#662,#663)) ;
#683=EDGE_LOOP('',(#684,#685,#686,#687)) ;
#707=EDGE_LOOP('',(#708,#709,#710,#711)) ;
#775=EDGE_LOOP('',(#776,#777,#778,#779,#780,#781,#782,#783,#784,#785)) ;
#807=EDGE_LOOP('',(#808,#809,#810,#811)) ;
#831=EDGE_LOOP('',(#832,#833,#834,#835)) ;
#862=EDGE_LOOP('',(#863,#864,#865,#866)) ;
#874=EDGE_LOOP('',(#875,#876,#877,#878)) ;
#905=EDGE_LOOP('',(#906,#907,#908,#909)) ;
#917=EDGE_LOOP('',(#918,#919,#920,#921)) ;
#948=EDGE_LOOP('',(#949,#950,#951,#952)) ;
#979=EDGE_LOOP('',(#980,#981,#982,#983)) ;
#991=EDGE_LOOP('',(#992,#993,#994,#995)) ;
#1022=EDGE_LOOP('',(#1023,#1024,#1025,#1026)) ;
#1034=EDGE_LOOP('',(#1035,#1036,#1037,#1038)) ;
#1065=EDGE_LOOP('',(#1066,#1067,#1068,#1069)) ;
#1077=EDGE_LOOP('',(#1078,#1079,#1080,#1081)) ;
#1108=EDGE_LOOP('',(#1109,#1110,#1111,#1112)) ;
#1120=EDGE_LOOP('',(#1121,#1122,#1123,#1124)) ;
#1151=EDGE_LOOP('',(#1152,#1153,#1154,#1155)) ;
#1163=EDGE_LOOP('',(#1164,#1165,#1166,#1167)) ;
#1194=EDGE_LOOP('',(#1195,#1196,#1197,#1198)) ;
#1206=EDGE_LOOP('',(#1207,#1208,#1209,#1210)) ;
#1237=EDGE_LOOP('',(#1238,#1239,#1240,#1241)) ;
#1249=EDGE_LOOP('',(#1250,#1251,#1252,#1253)) ;
#1275=EDGE_LOOP('',(#1276,#1277,#1278,#1279)) ;
#1299=EDGE_LOOP('',(#1300,#1301,#1302,#1303)) ;
#1325=EDGE_LOOP('',(#1326,#1327)) ;
#1329=EDGE_LOOP('',(#1330,#1331)) ;
#1348=EDGE_LOOP('',(#1349,#1350)) ;
#1352=EDGE_LOOP('',(#1353,#1354)) ;
#1416=EDGE_LOOP('',(#1417,#1418,#1419,#1420,#1421,#1422,#1423,#1424,#1425,#1426)) ;
#1453=EDGE_LOOP('',(#1454,#1455,#1456,#1457)) ;
#1465=EDGE_LOOP('',(#1466,#1467,#1468,#1469)) ;
#1496=EDGE_LOOP('',(#1497,#1498,#1499,#1500)) ;
#1508=EDGE_LOOP('',(#1509,#1510,#1511,#1512)) ;
#1537=EDGE_LOOP('',(#1538,#1539,#1540,#1541)) ;
#1554=EDGE_LOOP('',(#1555,#1556,#1557,#1558)) ;
#1566=EDGE_LOOP('',(#1567,#1568,#1569,#1570)) ;
#1583=EDGE_LOOP('',(#1584,#1585,#1586,#1587)) ;
#1600=EDGE_LOOP('',(#1601,#1602,#1603,#1604,#1605)) ;
#1618=EDGE_LOOP('',(#1619,#1620,#1621,#1622)) ;
#1625=EDGE_LOOP('',(#1626,#1627,#1628,#1629)) ;
#1656=EDGE_LOOP('',(#1657,#1658,#1659,#1660)) ;
#1673=EDGE_LOOP('',(#1674,#1675,#1676,#1677)) ;
#1690=EDGE_LOOP('',(#1691,#1692,#1693,#1694)) ;
#1721=EDGE_LOOP('',(#1722,#1723,#1724,#1725)) ;
#1745=EDGE_LOOP('',(#1746,#1747,#1748,#1749)) ;
#1769=EDGE_LOOP('',(#1770,#1771,#1772,#1773)) ;
#1786=EDGE_LOOP('',(#1787,#1788,#1789,#1790)) ;
#1810=EDGE_LOOP('',(#1811,#1812,#1813,#1814)) ;
#1834=EDGE_LOOP('',(#1835,#1836,#1837,#1838)) ;
#1846=EDGE_LOOP('',(#1847,#1848,#1849,#1850)) ;
#1863=EDGE_LOOP('',(#1864,#1865,#1866,#1867,#1868,#1869,#1870)) ;
#1878=EDGE_LOOP('',(#1879,#1880,#1881,#1882,#1883,#1884,#1885,#1886,#1887,#1888,#1889,#1890)) ;
#1892=EDGE_LOOP('',(#1893,#1894)) ;
#1896=EDGE_LOOP('',(#1897,#1898)) ;
#1900=EDGE_LOOP('',(#1901,#1902)) ;
#1904=EDGE_LOOP('',(#1905,#1906)) ;
#1908=EDGE_LOOP('',(#1909,#1910,#1911,#1912)) ;
#1914=EDGE_LOOP('',(#1915,#1916,#1917,#1918)) ;
#1920=EDGE_LOOP('',(#1921,#1922)) ;
#1924=EDGE_LOOP('',(#1925,#1926)) ;
#1928=EDGE_LOOP('',(#1929,#1930)) ;
#1932=EDGE_LOOP('',(#1933,#1934)) ;
#1936=EDGE_LOOP('',(#1937,#1938)) ;
#1965=EDGE_LOOP('',(#1966,#1967,#1968,#1969)) ;
#1987=EDGE_LOOP('',(#1988,#1989,#1990,#1991)) ;
#1999=EDGE_LOOP('',(#2000,#2001,#2002,#2003,#2004,#2005,#2006,#2007,#2008,#2009)) ;
#2017=EDGE_LOOP('',(#2018,#2019,#2020,#2021)) ;
#2024=EDGE_LOOP('',(#2025,#2026,#2027,#2028,#2029,#2030,#2031,#2032,#2033,#2034)) ;
#90=FACE_OUTER_BOUND('',#85,.T.) ;
#121=FACE_OUTER_BOUND('',#116,.T.) ;
#152=FACE_OUTER_BOUND('',#147,.T.) ;
#183=FACE_OUTER_BOUND('',#178,.T.) ;
#247=FACE_OUTER_BOUND('',#239,.T.) ;
#278=FACE_OUTER_BOUND('',#273,.T.) ;
#317=FACE_OUTER_BOUND('',#311,.T.) ;
#348=FACE_OUTER_BOUND('',#343,.T.) ;
#434=FACE_OUTER_BOUND('',#421,.T.) ;
#688=FACE_OUTER_BOUND('',#683,.T.) ;
#712=FACE_OUTER_BOUND('',#707,.T.) ;
#786=FACE_OUTER_BOUND('',#775,.T.) ;
#812=FACE_OUTER_BOUND('',#807,.T.) ;
#836=FACE_OUTER_BOUND('',#831,.T.) ;
#867=FACE_OUTER_BOUND('',#862,.T.) ;
#879=FACE_OUTER_BOUND('',#874,.T.) ;
#910=FACE_OUTER_BOUND('',#905,.T.) ;
#922=FACE_OUTER_BOUND('',#917,.T.) ;
#953=FACE_OUTER_BOUND('',#948,.T.) ;
#984=FACE_OUTER_BOUND('',#979,.T.) ;
#996=FACE_OUTER_BOUND('',#991,.T.) ;
#1027=FACE_OUTER_BOUND('',#1022,.T.) ;
#1039=FACE_OUTER_BOUND('',#1034,.T.) ;
#1070=FACE_OUTER_BOUND('',#1065,.T.) ;
#1082=FACE_OUTER_BOUND('',#1077,.T.) ;
#1113=FACE_OUTER_BOUND('',#1108,.T.) ;
#1125=FACE_OUTER_BOUND('',#1120,.T.) ;
#1156=FACE_OUTER_BOUND('',#1151,.T.) ;
#1168=FACE_OUTER_BOUND('',#1163,.T.) ;
#1199=FACE_OUTER_BOUND('',#1194,.T.) ;
#1211=FACE_OUTER_BOUND('',#1206,.T.) ;
#1242=FACE_OUTER_BOUND('',#1237,.T.) ;
#1254=FACE_OUTER_BOUND('',#1249,.T.) ;
#1280=FACE_OUTER_BOUND('',#1275,.T.) ;
#1304=FACE_OUTER_BOUND('',#1299,.T.) ;
#1328=FACE_OUTER_BOUND('',#1325,.T.) ;
#1351=FACE_OUTER_BOUND('',#1348,.T.) ;
#1427=FACE_OUTER_BOUND('',#1416,.T.) ;
#1458=FACE_OUTER_BOUND('',#1453,.T.) ;
#1470=FACE_OUTER_BOUND('',#1465,.T.) ;
#1501=FACE_OUTER_BOUND('',#1496,.T.) ;
#1513=FACE_OUTER_BOUND('',#1508,.T.) ;
#1542=FACE_OUTER_BOUND('',#1537,.T.) ;
#1559=FACE_OUTER_BOUND('',#1554,.T.) ;
#1571=FACE_OUTER_BOUND('',#1566,.T.) ;
#1588=FACE_OUTER_BOUND('',#1583,.T.) ;
#1606=FACE_OUTER_BOUND('',#1600,.T.) ;
#1623=FACE_OUTER_BOUND('',#1618,.T.) ;
#1630=FACE_OUTER_BOUND('',#1625,.T.) ;
#1661=FACE_OUTER_BOUND('',#1656,.T.) ;
#1678=FACE_OUTER_BOUND('',#1673,.T.) ;
#1695=FACE_OUTER_BOUND('',#1690,.T.) ;
#1726=FACE_OUTER_BOUND('',#1721,.T.) ;
#1750=FACE_OUTER_BOUND('',#1745,.T.) ;
#1774=FACE_OUTER_BOUND('',#1769,.T.) ;
#1791=FACE_OUTER_BOUND('',#1786,.T.) ;
#1815=FACE_OUTER_BOUND('',#1810,.T.) ;
#1839=FACE_OUTER_BOUND('',#1834,.T.) ;
#1851=FACE_OUTER_BOUND('',#1846,.T.) ;
#1871=FACE_OUTER_BOUND('',#1863,.T.) ;
#1891=FACE_OUTER_BOUND('',#1878,.T.) ;
#1970=FACE_OUTER_BOUND('',#1965,.T.) ;
#1992=FACE_OUTER_BOUND('',#1987,.T.) ;
#2010=FACE_OUTER_BOUND('',#1999,.T.) ;
#2022=FACE_OUTER_BOUND('',#2017,.T.) ;
#2035=FACE_OUTER_BOUND('',#2024,.T.) ;
#45=UNCERTAINTY_MEASURE_WITH_UNIT(LENGTH_MEASURE(0.005),#41,'distance_accuracy_value','CONFUSED CURVE UNCERTAINTY') ;
#60=LINE('Line',#57,#59) ;
#69=LINE('Line',#66,#68) ;
#76=LINE('Line',#73,#75) ;
#83=LINE('Line',#80,#82) ;
#100=LINE('Line',#97,#99) ;
#107=LINE('Line',#104,#106) ;
#114=LINE('Line',#111,#113) ;
#131=LINE('Line',#128,#130) ;
#138=LINE('Line',#135,#137) ;
#145=LINE('Line',#142,#144) ;
#162=LINE('Line',#159,#161) ;
#169=LINE('Line',#166,#168) ;
#176=LINE('Line',#173,#175) ;
#193=LINE('Line',#190,#192) ;
#202=LINE('Line',#199,#201) ;
#209=LINE('Line',#206,#208) ;
#216=LINE('Line',#213,#215) ;
#223=LINE('Line',#220,#222) ;
#237=LINE('Line',#234,#236) ;
#266=LINE('Line',#263,#265) ;
#271=LINE('Line',#268,#270) ;
#288=LINE('Line',#285,#287) ;
#295=LINE('Line',#292,#294) ;
#302=LINE('Line',#299,#301) ;
#309=LINE('Line',#306,#308) ;
#341=LINE('Line',#338,#340) ;
#367=LINE('Line',#364,#366) ;
#372=LINE('Line',#369,#371) ;
#377=LINE('Line',#374,#376) ;
#384=LINE('Line',#381,#383) ;
#398=LINE('Line',#395,#397) ;
#405=LINE('Line',#402,#404) ;
#412=LINE('Line',#409,#411) ;
#419=LINE('Line',#416,#418) ;
#474=LINE('Line',#471,#473) ;
#483=LINE('Line',#480,#482) ;
#490=LINE('Line',#487,#489) ;
#497=LINE('Line',#494,#496) ;
#508=LINE('Line',#505,#507) ;
#517=LINE('Line',#514,#516) ;
#524=LINE('Line',#521,#523) ;
#531=LINE('Line',#528,#530) ;
#674=LINE('Line',#671,#673) ;
#681=LINE('Line',#678,#680) ;
#698=LINE('Line',#695,#697) ;
#705=LINE('Line',#702,#704) ;
#717=LINE('Line',#714,#716) ;
#726=LINE('Line',#723,#725) ;
#733=LINE('Line',#730,#732) ;
#740=LINE('Line',#737,#739) ;
#754=LINE('Line',#751,#753) ;
#759=LINE('Line',#756,#758) ;
#773=LINE('Line',#770,#772) ;
#791=LINE('Line',#788,#790) ;
#798=LINE('Line',#795,#797) ;
#805=LINE('Line',#802,#804) ;
#822=LINE('Line',#819,#821) ;
#829=LINE('Line',#826,#828) ;
#846=LINE('Line',#843,#845) ;
#853=LINE('Line',#850,#852) ;
#889=LINE('Line',#886,#888) ;
#896=LINE('Line',#893,#895) ;
#932=LINE('Line',#929,#931) ;
#939=LINE('Line',#936,#938) ;
#946=LINE('Line',#943,#945) ;
#963=LINE('Line',#960,#962) ;
#977=LINE('Line',#974,#976) ;
#1006=LINE('Line',#1003,#1005) ;
#1020=LINE('Line',#1017,#1019) ;
#1049=LINE('Line',#1046,#1048) ;
#1063=LINE('Line',#1060,#1062) ;
#1092=LINE('Line',#1089,#1091) ;
#1106=LINE('Line',#1103,#1105) ;
#1135=LINE('Line',#1132,#1134) ;
#1149=LINE('Line',#1146,#1148) ;
#1178=LINE('Line',#1175,#1177) ;
#1192=LINE('Line',#1189,#1191) ;
#1221=LINE('Line',#1218,#1220) ;
#1235=LINE('Line',#1232,#1234) ;
#1259=LINE('Line',#1256,#1258) ;
#1266=LINE('Line',#1263,#1265) ;
#1273=LINE('Line',#1270,#1272) ;
#1290=LINE('Line',#1287,#1289) ;
#1297=LINE('Line',#1294,#1296) ;
#1365=LINE('Line',#1362,#1364) ;
#1379=LINE('Line',#1376,#1378) ;
#1386=LINE('Line',#1383,#1385) ;
#1393=LINE('Line',#1390,#1392) ;
#1407=LINE('Line',#1404,#1406) ;
#1414=LINE('Line',#1411,#1413) ;
#1437=LINE('Line',#1434,#1436) ;
#1451=LINE('Line',#1448,#1450) ;
#1480=LINE('Line',#1477,#1479) ;
#1494=LINE('Line',#1491,#1493) ;
#1535=LINE('Line',#1532,#1534) ;
#1552=LINE('Line',#1549,#1551) ;
#1564=LINE('Line',#1561,#1563) ;
#1581=LINE('Line',#1578,#1580) ;
#1598=LINE('Line',#1595,#1597) ;
#1616=LINE('Line',#1613,#1615) ;
#1640=LINE('Line',#1637,#1639) ;
#1647=LINE('Line',#1644,#1646) ;
#1654=LINE('Line',#1651,#1653) ;
#1671=LINE('Line',#1668,#1670) ;
#1688=LINE('Line',#1685,#1687) ;
#1705=LINE('Line',#1702,#1704) ;
#1712=LINE('Line',#1709,#1711) ;
#1719=LINE('Line',#1716,#1718) ;
#1736=LINE('Line',#1733,#1735) ;
#1743=LINE('Line',#1740,#1742) ;
#1760=LINE('Line',#1757,#1759) ;
#1767=LINE('Line',#1764,#1766) ;
#1784=LINE('Line',#1781,#1783) ;
#1808=LINE('Line',#1805,#1807) ;
#1825=LINE('Line',#1822,#1824) ;
#1844=LINE('Line',#1841,#1843) ;
#1861=LINE('Line',#1858,#1860) ;
#1956=LINE('Line',#1953,#1955) ;
#1997=LINE('Line',#1994,#1996) ;
#2015=LINE('Line',#2012,#2014) ;
#2=MECHANICAL_CONTEXT(' ',#1,'mechanical') ;
#24=PERSONAL_ADDRESS(' ',' ',' ',' ',' ',' ',' ',' ',' ',' ',' ',' ',(#22),' ') ;
#56=PLANE('Plane',#55) ;
#96=PLANE('Plane',#95) ;
#127=PLANE('Plane',#126) ;
#158=PLANE('Plane',#157) ;
#189=PLANE('Plane',#188) ;
#284=PLANE('Plane',#283) ;
#354=PLANE('Plane',#353) ;
#670=PLANE('Plane',#669) ;
#694=PLANE('Plane',#693) ;
#818=PLANE('Plane',#817) ;
#928=PLANE('Plane',#927) ;
#1286=PLANE('Plane',#1285) ;
#1310=PLANE('Plane',#1309) ;
#1361=PLANE('Plane',#1360) ;
#1548=PLANE('Plane',#1547) ;
#1594=PLANE('Plane',#1593) ;
#1636=PLANE('Plane',#1635) ;
#1667=PLANE('Plane',#1666) ;
#1684=PLANE('Plane',#1683) ;
#1701=PLANE('Plane',#1700) ;
#1732=PLANE('Plane',#1731) ;
#1756=PLANE('Plane',#1755) ;
#1780=PLANE('Plane',#1779) ;
#1857=PLANE('Plane',#1856) ;
#1877=PLANE('Plane',#1876) ;
#43=PLANE_ANGLE_MEASURE_WITH_UNIT(PLANE_ANGLE_MEASURE(0.0174532925199),#42) ;
#7=PRODUCT_CATEGORY('part',$) ;
#9=PRODUCT_CATEGORY_RELATIONSHIP(' ',' ',#7,#8) ;
#6=PRODUCT_DEFINITION_FORMATION_WITH_SPECIFIED_SOURCE('',' ',#5,.NOT_KNOWN.) ;
#8=PRODUCT_RELATED_PRODUCT_CATEGORY('detail',$,(#5)) ;
#50=SHAPE_DEFINITION_REPRESENTATION(#40,#49) ;
#62=VERTEX_POINT('',#61) ;
#64=VERTEX_POINT('',#63) ;
#71=VERTEX_POINT('',#70) ;
#78=VERTEX_POINT('',#77) ;
#102=VERTEX_POINT('',#101) ;
#109=VERTEX_POINT('',#108) ;
#133=VERTEX_POINT('',#132) ;
#140=VERTEX_POINT('',#139) ;
#164=VERTEX_POINT('',#163) ;
#171=VERTEX_POINT('',#170) ;
#195=VERTEX_POINT('',#194) ;
#197=VERTEX_POINT('',#196) ;
#204=VERTEX_POINT('',#203) ;
#211=VERTEX_POINT('',#210) ;
#218=VERTEX_POINT('',#217) ;
#225=VERTEX_POINT('',#224) ;
#232=VERTEX_POINT('',#231) ;
#259=VERTEX_POINT('',#258) ;
#261=VERTEX_POINT('',#260) ;
#290=VERTEX_POINT('',#289) ;
#297=VERTEX_POINT('',#296) ;
#304=VERTEX_POINT('',#303) ;
#329=VERTEX_POINT('',#328) ;
#336=VERTEX_POINT('',#335) ;
#360=VERTEX_POINT('',#359) ;
#362=VERTEX_POINT('',#361) ;
#379=VERTEX_POINT('',#378) ;
#386=VERTEX_POINT('',#385) ;
#393=VERTEX_POINT('',#392) ;
#400=VERTEX_POINT('',#399) ;
#407=VERTEX_POINT('',#406) ;
#414=VERTEX_POINT('',#413) ;
#440=VERTEX_POINT('',#439) ;
#442=VERTEX_POINT('',#441) ;
#458=VERTEX_POINT('',#457) ;
#460=VERTEX_POINT('',#459) ;
#476=VERTEX_POINT('',#475) ;
#478=VERTEX_POINT('',#477) ;
#485=VERTEX_POINT('',#484) ;
#492=VERTEX_POINT('',#491) ;
#510=VERTEX_POINT('',#509) ;
#512=VERTEX_POINT('',#511) ;
#519=VERTEX_POINT('',#518) ;
#526=VERTEX_POINT('',#525) ;
#544=VERTEX_POINT('',#543) ;
#546=VERTEX_POINT('',#545) ;
#562=VERTEX_POINT('',#561) ;
#564=VERTEX_POINT('',#563) ;
#580=VERTEX_POINT('',#579) ;
#582=VERTEX_POINT('',#581) ;
#598=VERTEX_POINT('',#597) ;
#600=VERTEX_POINT('',#599) ;
#616=VERTEX_POINT('',#615) ;
#618=VERTEX_POINT('',#617) ;
#634=VERTEX_POINT('',#633) ;
#636=VERTEX_POINT('',#635) ;
#652=VERTEX_POINT('',#651) ;
#654=VERTEX_POINT('',#653) ;
#676=VERTEX_POINT('',#675) ;
#700=VERTEX_POINT('',#699) ;
#719=VERTEX_POINT('',#718) ;
#721=VERTEX_POINT('',#720) ;
#728=VERTEX_POINT('',#727) ;
#735=VERTEX_POINT('',#734) ;
#742=VERTEX_POINT('',#741) ;
#749=VERTEX_POINT('',#748) ;
#761=VERTEX_POINT('',#760) ;
#768=VERTEX_POINT('',#767) ;
#793=VERTEX_POINT('',#792) ;
#800=VERTEX_POINT('',#799) ;
#824=VERTEX_POINT('',#823) ;
#848=VERTEX_POINT('',#847) ;
#855=VERTEX_POINT('',#854) ;
#891=VERTEX_POINT('',#890) ;
#898=VERTEX_POINT('',#897) ;
#934=VERTEX_POINT('',#933) ;
#941=VERTEX_POINT('',#940) ;
#965=VERTEX_POINT('',#964) ;
#972=VERTEX_POINT('',#971) ;
#1008=VERTEX_POINT('',#1007) ;
#1015=VERTEX_POINT('',#1014) ;
#1051=VERTEX_POINT('',#1050) ;
#1058=VERTEX_POINT('',#1057) ;
#1094=VERTEX_POINT('',#1093) ;
#1101=VERTEX_POINT('',#1100) ;
#1137=VERTEX_POINT('',#1136) ;
#1144=VERTEX_POINT('',#1143) ;
#1180=VERTEX_POINT('',#1179) ;
#1187=VERTEX_POINT('',#1186) ;
#1223=VERTEX_POINT('',#1222) ;
#1230=VERTEX_POINT('',#1229) ;
#1261=VERTEX_POINT('',#1260) ;
#1268=VERTEX_POINT('',#1267) ;
#1292=VERTEX_POINT('',#1291) ;
#1316=VERTEX_POINT('',#1315) ;
#1318=VERTEX_POINT('',#1317) ;
#1339=VERTEX_POINT('',#1338) ;
#1341=VERTEX_POINT('',#1340) ;
#1367=VERTEX_POINT('',#1366) ;
#1374=VERTEX_POINT('',#1373) ;
#1381=VERTEX_POINT('',#1380) ;
#1388=VERTEX_POINT('',#1387) ;
#1395=VERTEX_POINT('',#1394) ;
#1402=VERTEX_POINT('',#1401) ;
#1409=VERTEX_POINT('',#1408) ;
#1439=VERTEX_POINT('',#1438) ;
#1446=VERTEX_POINT('',#1445) ;
#1482=VERTEX_POINT('',#1481) ;
#1489=VERTEX_POINT('',#1488) ;
#1525=VERTEX_POINT('',#1524) ;
#1642=VERTEX_POINT('',#1641) ;
#1649=VERTEX_POINT('',#1648) ;
#1707=VERTEX_POINT('',#1706) ;
#1714=VERTEX_POINT('',#1713) ;
#1738=VERTEX_POINT('',#1737) ;
#1762=VERTEX_POINT('',#1761) ;
#1803=VERTEX_POINT('',#1802) ;
#1827=VERTEX_POINT('',#1826) ;
#1951=VERTEX_POINT('',#1950) ;
#1958=VERTEX_POINT('',#1957) ;
#41=(LENGTH_UNIT()NAMED_UNIT(*)SI_UNIT(.MILLI.,.METRE.)) ;
#42=(NAMED_UNIT(*)PLANE_ANGLE_UNIT()SI_UNIT($,.RADIAN.)) ;
#44=(NAMED_UNIT(*)SI_UNIT($,.STERADIAN.)SOLID_ANGLE_UNIT()) ;
#46=(GEOMETRIC_REPRESENTATION_CONTEXT(3)GLOBAL_UNCERTAINTY_ASSIGNED_CONTEXT((#45))GLOBAL_UNIT_ASSIGNED_CONTEXT((#41,#42,#44))REPRESENTATION_CONTEXT(' ',' ')) ;
ENDSEC;
END-ISO-10303-21;
