ISO-10303-21;
HEADER;
/* Generated by software containing ST-Developer
 * from STEP Tools, Inc. (www.steptools.com) 
 */
/* OPTION: using custom renumber hook */

FILE_DESCRIPTION(
/* description */ ('STEP AP242 Edition 2',
'CAx-IF Rec.Pracs.---Representation and Presentation of Product Manufa
cturing Information (PMI)---4.0---2014-10-13',
'CAx-IF Rec.Pracs.---3D Tessellated Geometry---0.4---2014-09-14','2;1',
'CAx-IF Rec.Pracs.---User Defined Attributes---1.5---2016-08-15'),
/* implementation_level */ '2;1');

FILE_NAME(
/* name */ 'Predalcniki - posoda-makeup',
/* time_stamp */ '2026-09-19T11:03:11Z',
/* author */ (''),
/* organization */ (''),
/* preprocessor_version */ 'ST-DEVELOPER v20',
/* originating_system */ 'ONSHAPE BY PTC INC, 1.221',
/* authorisation */ '  ');

FILE_SCHEMA (('AP242_MANAGED_MODEL_BASED_3D_ENGINEERING_MIM_LF { 1 0 10303 442 3 1 4 }'));
ENDSEC;

DATA;
#10=SHAPE_REPRESENTATION_RELATIONSHIP('','',#679,#11);
#11=ADVANCED_BREP_SHAPE_REPRESENTATION('',(#677),#1197);
#12=CONICAL_SURFACE('',#744,0.0085,0.785398163397447);
#13=CONICAL_SURFACE('',#746,0.011,0.785398163397448);
#14=CONICAL_SURFACE('',#750,0.011,0.785398163397448);
#15=CONICAL_SURFACE('',#752,0.0085,0.785398163397447);
#16=TOROIDAL_SURFACE('',#719,0.0085,0.0025);
#17=TOROIDAL_SURFACE('',#730,0.0085,0.0025);
#18=TOROIDAL_SURFACE('',#733,0.0085,0.0025);
#19=TOROIDAL_SURFACE('',#742,0.0085,0.0025);
#20=TOROIDAL_SURFACE('',#755,0.0085,0.0025);
#21=TOROIDAL_SURFACE('',#762,0.0085,0.0025);
#22=TOROIDAL_SURFACE('',#764,0.0085,0.0025);
#23=TOROIDAL_SURFACE('',#770,0.0085,0.0025);
#24=PLANE('',#684);
#25=PLANE('',#688);
#26=PLANE('',#692);
#27=PLANE('',#696);
#28=PLANE('',#697);
#29=PLANE('',#705);
#30=PLANE('',#709);
#31=PLANE('',#713);
#32=PLANE('',#717);
#33=PLANE('',#718);
#34=PLANE('',#743);
#35=PLANE('',#748);
#36=PLANE('',#749);
#37=PLANE('',#754);
#38=CIRCLE('',#682,0.011);
#39=CIRCLE('',#683,0.011);
#40=CIRCLE('',#686,0.011);
#41=CIRCLE('',#687,0.011);
#42=CIRCLE('',#690,0.011);
#43=CIRCLE('',#691,0.011);
#44=CIRCLE('',#694,0.011);
#45=CIRCLE('',#695,0.011);
#46=CIRCLE('',#698,0.0085);
#47=CIRCLE('',#699,0.0085);
#48=CIRCLE('',#700,0.0085);
#49=CIRCLE('',#701,0.0085);
#50=CIRCLE('',#703,0.006);
#51=CIRCLE('',#704,0.006);
#52=CIRCLE('',#707,0.006);
#53=CIRCLE('',#708,0.006);
#54=CIRCLE('',#711,0.006);
#55=CIRCLE('',#712,0.006);
#56=CIRCLE('',#715,0.006);
#57=CIRCLE('',#716,0.006);
#58=CIRCLE('',#720,0.0025);
#59=CIRCLE('',#721,0.0025);
#60=CIRCLE('',#722,0.0025);
#61=CIRCLE('',#723,0.0025);
#62=CIRCLE('',#725,0.0025);
#63=CIRCLE('',#726,0.0025);
#64=CIRCLE('',#728,0.0025);
#65=CIRCLE('',#729,0.0025);
#66=CIRCLE('',#731,0.0025);
#67=CIRCLE('',#732,0.0025);
#68=CIRCLE('',#734,0.0025);
#69=CIRCLE('',#735,0.0025);
#70=CIRCLE('',#737,0.0025);
#71=CIRCLE('',#738,0.0025);
#72=CIRCLE('',#740,0.0025);
#73=CIRCLE('',#741,0.0025);
#74=CIRCLE('',#745,0.0102677669529664);
#75=CIRCLE('',#747,0.0102677669529664);
#76=CIRCLE('',#751,0.0102677669529664);
#77=CIRCLE('',#753,0.0102677669529664);
#78=CIRCLE('',#756,0.0025);
#79=CIRCLE('',#757,0.0025);
#80=CIRCLE('',#759,0.0025);
#81=CIRCLE('',#761,0.0025);
#82=CIRCLE('',#763,0.0025);
#83=CIRCLE('',#765,0.0025);
#84=CIRCLE('',#767,0.0025);
#85=CIRCLE('',#769,0.0025);
#86=ORIENTED_EDGE('',*,*,#278,.T.);
#87=ORIENTED_EDGE('',*,*,#279,.T.);
#88=ORIENTED_EDGE('',*,*,#280,.F.);
#89=ORIENTED_EDGE('',*,*,#281,.T.);
#90=ORIENTED_EDGE('',*,*,#280,.T.);
#91=ORIENTED_EDGE('',*,*,#282,.T.);
#92=ORIENTED_EDGE('',*,*,#283,.F.);
#93=ORIENTED_EDGE('',*,*,#284,.T.);
#94=ORIENTED_EDGE('',*,*,#283,.T.);
#95=ORIENTED_EDGE('',*,*,#285,.T.);
#96=ORIENTED_EDGE('',*,*,#286,.F.);
#97=ORIENTED_EDGE('',*,*,#287,.T.);
#98=ORIENTED_EDGE('',*,*,#286,.T.);
#99=ORIENTED_EDGE('',*,*,#288,.T.);
#100=ORIENTED_EDGE('',*,*,#289,.F.);
#101=ORIENTED_EDGE('',*,*,#290,.T.);
#102=ORIENTED_EDGE('',*,*,#289,.T.);
#103=ORIENTED_EDGE('',*,*,#291,.T.);
#104=ORIENTED_EDGE('',*,*,#292,.F.);
#105=ORIENTED_EDGE('',*,*,#293,.T.);
#106=ORIENTED_EDGE('',*,*,#292,.T.);
#107=ORIENTED_EDGE('',*,*,#294,.T.);
#108=ORIENTED_EDGE('',*,*,#295,.F.);
#109=ORIENTED_EDGE('',*,*,#296,.T.);
#110=ORIENTED_EDGE('',*,*,#295,.T.);
#111=ORIENTED_EDGE('',*,*,#297,.T.);
#112=ORIENTED_EDGE('',*,*,#298,.F.);
#113=ORIENTED_EDGE('',*,*,#299,.T.);
#114=ORIENTED_EDGE('',*,*,#298,.T.);
#115=ORIENTED_EDGE('',*,*,#300,.T.);
#116=ORIENTED_EDGE('',*,*,#278,.F.);
#117=ORIENTED_EDGE('',*,*,#301,.T.);
#118=ORIENTED_EDGE('',*,*,#302,.T.);
#119=ORIENTED_EDGE('',*,*,#303,.T.);
#120=ORIENTED_EDGE('',*,*,#304,.T.);
#121=ORIENTED_EDGE('',*,*,#305,.T.);
#122=ORIENTED_EDGE('',*,*,#306,.T.);
#123=ORIENTED_EDGE('',*,*,#307,.T.);
#124=ORIENTED_EDGE('',*,*,#308,.T.);
#125=ORIENTED_EDGE('',*,*,#309,.T.);
#126=ORIENTED_EDGE('',*,*,#310,.F.);
#127=ORIENTED_EDGE('',*,*,#311,.T.);
#128=ORIENTED_EDGE('',*,*,#312,.T.);
#129=ORIENTED_EDGE('',*,*,#313,.F.);
#130=ORIENTED_EDGE('',*,*,#314,.F.);
#131=ORIENTED_EDGE('',*,*,#315,.T.);
#132=ORIENTED_EDGE('',*,*,#310,.T.);
#133=ORIENTED_EDGE('',*,*,#316,.F.);
#134=ORIENTED_EDGE('',*,*,#317,.F.);
#135=ORIENTED_EDGE('',*,*,#318,.T.);
#136=ORIENTED_EDGE('',*,*,#314,.T.);
#137=ORIENTED_EDGE('',*,*,#319,.T.);
#138=ORIENTED_EDGE('',*,*,#320,.F.);
#139=ORIENTED_EDGE('',*,*,#321,.T.);
#140=ORIENTED_EDGE('',*,*,#317,.T.);
#141=ORIENTED_EDGE('',*,*,#322,.F.);
#142=ORIENTED_EDGE('',*,*,#323,.F.);
#143=ORIENTED_EDGE('',*,*,#324,.T.);
#144=ORIENTED_EDGE('',*,*,#320,.T.);
#145=ORIENTED_EDGE('',*,*,#325,.F.);
#146=ORIENTED_EDGE('',*,*,#326,.F.);
#147=ORIENTED_EDGE('',*,*,#327,.T.);
#148=ORIENTED_EDGE('',*,*,#323,.T.);
#149=ORIENTED_EDGE('',*,*,#328,.F.);
#150=ORIENTED_EDGE('',*,*,#329,.F.);
#151=ORIENTED_EDGE('',*,*,#330,.T.);
#152=ORIENTED_EDGE('',*,*,#326,.T.);
#153=ORIENTED_EDGE('',*,*,#331,.T.);
#154=ORIENTED_EDGE('',*,*,#312,.F.);
#155=ORIENTED_EDGE('',*,*,#332,.T.);
#156=ORIENTED_EDGE('',*,*,#329,.T.);
#157=ORIENTED_EDGE('',*,*,#333,.F.);
#158=ORIENTED_EDGE('',*,*,#316,.T.);
#159=ORIENTED_EDGE('',*,*,#313,.T.);
#160=ORIENTED_EDGE('',*,*,#333,.T.);
#161=ORIENTED_EDGE('',*,*,#331,.F.);
#162=ORIENTED_EDGE('',*,*,#328,.T.);
#163=ORIENTED_EDGE('',*,*,#325,.T.);
#164=ORIENTED_EDGE('',*,*,#322,.T.);
#165=ORIENTED_EDGE('',*,*,#319,.F.);
#166=ORIENTED_EDGE('',*,*,#334,.F.);
#167=ORIENTED_EDGE('',*,*,#287,.F.);
#168=ORIENTED_EDGE('',*,*,#335,.F.);
#169=ORIENTED_EDGE('',*,*,#336,.F.);
#170=ORIENTED_EDGE('',*,*,#318,.F.);
#171=ORIENTED_EDGE('',*,*,#337,.F.);
#172=ORIENTED_EDGE('',*,*,#335,.T.);
#173=ORIENTED_EDGE('',*,*,#290,.F.);
#174=ORIENTED_EDGE('',*,*,#338,.F.);
#175=ORIENTED_EDGE('',*,*,#339,.F.);
#176=ORIENTED_EDGE('',*,*,#315,.F.);
#177=ORIENTED_EDGE('',*,*,#336,.T.);
#178=ORIENTED_EDGE('',*,*,#334,.T.);
#179=ORIENTED_EDGE('',*,*,#337,.T.);
#180=ORIENTED_EDGE('',*,*,#321,.F.);
#181=ORIENTED_EDGE('',*,*,#340,.F.);
#182=ORIENTED_EDGE('',*,*,#341,.F.);
#183=ORIENTED_EDGE('',*,*,#284,.F.);
#184=ORIENTED_EDGE('',*,*,#338,.T.);
#185=ORIENTED_EDGE('',*,*,#293,.F.);
#186=ORIENTED_EDGE('',*,*,#342,.F.);
#187=ORIENTED_EDGE('',*,*,#343,.F.);
#188=ORIENTED_EDGE('',*,*,#311,.F.);
#189=ORIENTED_EDGE('',*,*,#339,.T.);
#190=ORIENTED_EDGE('',*,*,#341,.T.);
#191=ORIENTED_EDGE('',*,*,#340,.T.);
#192=ORIENTED_EDGE('',*,*,#324,.F.);
#193=ORIENTED_EDGE('',*,*,#344,.F.);
#194=ORIENTED_EDGE('',*,*,#345,.F.);
#195=ORIENTED_EDGE('',*,*,#281,.F.);
#196=ORIENTED_EDGE('',*,*,#342,.T.);
#197=ORIENTED_EDGE('',*,*,#296,.F.);
#198=ORIENTED_EDGE('',*,*,#346,.F.);
#199=ORIENTED_EDGE('',*,*,#347,.F.);
#200=ORIENTED_EDGE('',*,*,#332,.F.);
#201=ORIENTED_EDGE('',*,*,#343,.T.);
#202=ORIENTED_EDGE('',*,*,#345,.T.);
#203=ORIENTED_EDGE('',*,*,#344,.T.);
#204=ORIENTED_EDGE('',*,*,#327,.F.);
#205=ORIENTED_EDGE('',*,*,#348,.F.);
#206=ORIENTED_EDGE('',*,*,#349,.F.);
#207=ORIENTED_EDGE('',*,*,#301,.F.);
#208=ORIENTED_EDGE('',*,*,#346,.T.);
#209=ORIENTED_EDGE('',*,*,#299,.F.);
#210=ORIENTED_EDGE('',*,*,#349,.T.);
#211=ORIENTED_EDGE('',*,*,#348,.T.);
#212=ORIENTED_EDGE('',*,*,#330,.F.);
#213=ORIENTED_EDGE('',*,*,#347,.T.);
#214=ORIENTED_EDGE('',*,*,#350,.F.);
#215=ORIENTED_EDGE('',*,*,#351,.T.);
#216=ORIENTED_EDGE('',*,*,#352,.F.);
#217=ORIENTED_EDGE('',*,*,#307,.F.);
#218=ORIENTED_EDGE('',*,*,#352,.T.);
#219=ORIENTED_EDGE('',*,*,#353,.T.);
#220=ORIENTED_EDGE('',*,*,#354,.F.);
#221=ORIENTED_EDGE('',*,*,#308,.F.);
#222=ORIENTED_EDGE('',*,*,#355,.F.);
#223=ORIENTED_EDGE('',*,*,#356,.T.);
#224=ORIENTED_EDGE('',*,*,#350,.T.);
#225=ORIENTED_EDGE('',*,*,#306,.F.);
#226=ORIENTED_EDGE('',*,*,#354,.T.);
#227=ORIENTED_EDGE('',*,*,#357,.T.);
#228=ORIENTED_EDGE('',*,*,#358,.F.);
#229=ORIENTED_EDGE('',*,*,#309,.F.);
#230=ORIENTED_EDGE('',*,*,#359,.F.);
#231=ORIENTED_EDGE('',*,*,#360,.T.);
#232=ORIENTED_EDGE('',*,*,#355,.T.);
#233=ORIENTED_EDGE('',*,*,#305,.F.);
#234=ORIENTED_EDGE('',*,*,#358,.T.);
#235=ORIENTED_EDGE('',*,*,#361,.T.);
#236=ORIENTED_EDGE('',*,*,#362,.F.);
#237=ORIENTED_EDGE('',*,*,#302,.F.);
#238=ORIENTED_EDGE('',*,*,#363,.F.);
#239=ORIENTED_EDGE('',*,*,#364,.T.);
#240=ORIENTED_EDGE('',*,*,#359,.T.);
#241=ORIENTED_EDGE('',*,*,#304,.F.);
#242=ORIENTED_EDGE('',*,*,#362,.T.);
#243=ORIENTED_EDGE('',*,*,#365,.T.);
#244=ORIENTED_EDGE('',*,*,#363,.T.);
#245=ORIENTED_EDGE('',*,*,#303,.F.);
#246=ORIENTED_EDGE('',*,*,#366,.F.);
#247=ORIENTED_EDGE('',*,*,#353,.F.);
#248=ORIENTED_EDGE('',*,*,#367,.F.);
#249=ORIENTED_EDGE('',*,*,#291,.F.);
#250=ORIENTED_EDGE('',*,*,#367,.T.);
#251=ORIENTED_EDGE('',*,*,#351,.F.);
#252=ORIENTED_EDGE('',*,*,#368,.F.);
#253=ORIENTED_EDGE('',*,*,#294,.F.);
#254=ORIENTED_EDGE('',*,*,#366,.T.);
#255=ORIENTED_EDGE('',*,*,#288,.F.);
#256=ORIENTED_EDGE('',*,*,#369,.F.);
#257=ORIENTED_EDGE('',*,*,#357,.F.);
#258=ORIENTED_EDGE('',*,*,#368,.T.);
#259=ORIENTED_EDGE('',*,*,#356,.F.);
#260=ORIENTED_EDGE('',*,*,#370,.F.);
#261=ORIENTED_EDGE('',*,*,#297,.F.);
#262=ORIENTED_EDGE('',*,*,#369,.T.);
#263=ORIENTED_EDGE('',*,*,#285,.F.);
#264=ORIENTED_EDGE('',*,*,#371,.F.);
#265=ORIENTED_EDGE('',*,*,#361,.F.);
#266=ORIENTED_EDGE('',*,*,#370,.T.);
#267=ORIENTED_EDGE('',*,*,#360,.F.);
#268=ORIENTED_EDGE('',*,*,#372,.F.);
#269=ORIENTED_EDGE('',*,*,#300,.F.);
#270=ORIENTED_EDGE('',*,*,#371,.T.);
#271=ORIENTED_EDGE('',*,*,#282,.F.);
#272=ORIENTED_EDGE('',*,*,#373,.F.);
#273=ORIENTED_EDGE('',*,*,#365,.F.);
#274=ORIENTED_EDGE('',*,*,#372,.T.);
#275=ORIENTED_EDGE('',*,*,#364,.F.);
#276=ORIENTED_EDGE('',*,*,#373,.T.);
#277=ORIENTED_EDGE('',*,*,#279,.F.);
#278=EDGE_CURVE('',#374,#375,#430,.T.);
#279=EDGE_CURVE('',#375,#376,#38,.F.);
#280=EDGE_CURVE('',#377,#376,#431,.T.);
#281=EDGE_CURVE('',#377,#374,#39,.F.);
#282=EDGE_CURVE('',#376,#378,#432,.T.);
#283=EDGE_CURVE('',#379,#378,#433,.T.);
#284=EDGE_CURVE('',#379,#377,#434,.T.);
#285=EDGE_CURVE('',#378,#380,#40,.F.);
#286=EDGE_CURVE('',#381,#380,#435,.T.);
#287=EDGE_CURVE('',#381,#379,#41,.F.);
#288=EDGE_CURVE('',#380,#382,#436,.T.);
#289=EDGE_CURVE('',#383,#382,#437,.T.);
#290=EDGE_CURVE('',#383,#381,#438,.T.);
#291=EDGE_CURVE('',#382,#384,#42,.F.);
#292=EDGE_CURVE('',#385,#384,#439,.T.);
#293=EDGE_CURVE('',#385,#383,#43,.F.);
#294=EDGE_CURVE('',#384,#386,#440,.T.);
#295=EDGE_CURVE('',#387,#386,#441,.T.);
#296=EDGE_CURVE('',#387,#385,#442,.T.);
#297=EDGE_CURVE('',#386,#388,#44,.F.);
#298=EDGE_CURVE('',#389,#388,#443,.T.);
#299=EDGE_CURVE('',#389,#387,#45,.F.);
#300=EDGE_CURVE('',#388,#375,#444,.T.);
#301=EDGE_CURVE('',#374,#389,#445,.T.);
#302=EDGE_CURVE('',#390,#391,#46,.F.);
#303=EDGE_CURVE('',#391,#392,#446,.T.);
#304=EDGE_CURVE('',#392,#393,#47,.F.);
#305=EDGE_CURVE('',#393,#394,#447,.T.);
#306=EDGE_CURVE('',#394,#395,#48,.F.);
#307=EDGE_CURVE('',#395,#396,#448,.T.);
#308=EDGE_CURVE('',#396,#397,#49,.F.);
#309=EDGE_CURVE('',#397,#390,#449,.T.);
#310=EDGE_CURVE('',#398,#399,#450,.T.);
#311=EDGE_CURVE('',#398,#400,#50,.T.);
#312=EDGE_CURVE('',#400,#401,#451,.T.);
#313=EDGE_CURVE('',#399,#401,#51,.T.);
#314=EDGE_CURVE('',#402,#403,#452,.T.);
#315=EDGE_CURVE('',#402,#398,#453,.F.);
#316=EDGE_CURVE('',#403,#399,#454,.T.);
#317=EDGE_CURVE('',#404,#405,#455,.T.);
#318=EDGE_CURVE('',#404,#402,#52,.T.);
#319=EDGE_CURVE('',#403,#405,#53,.F.);
#320=EDGE_CURVE('',#406,#407,#456,.T.);
#321=EDGE_CURVE('',#406,#404,#457,.F.);
#322=EDGE_CURVE('',#407,#405,#458,.T.);
#323=EDGE_CURVE('',#408,#409,#459,.T.);
#324=EDGE_CURVE('',#408,#406,#54,.T.);
#325=EDGE_CURVE('',#409,#407,#55,.T.);
#326=EDGE_CURVE('',#410,#411,#460,.T.);
#327=EDGE_CURVE('',#410,#408,#461,.F.);
#328=EDGE_CURVE('',#411,#409,#462,.T.);
#329=EDGE_CURVE('',#412,#413,#463,.T.);
#330=EDGE_CURVE('',#412,#410,#56,.T.);
#331=EDGE_CURVE('',#411,#413,#57,.F.);
#332=EDGE_CURVE('',#400,#412,#464,.F.);
#333=EDGE_CURVE('',#401,#413,#465,.T.);
#334=EDGE_CURVE('',#379,#414,#58,.T.);
#335=EDGE_CURVE('',#415,#381,#59,.T.);
#336=EDGE_CURVE('',#402,#415,#60,.T.);
#337=EDGE_CURVE('',#414,#404,#61,.T.);
#338=EDGE_CURVE('',#416,#383,#62,.T.);
#339=EDGE_CURVE('',#398,#416,#63,.T.);
#340=EDGE_CURVE('',#417,#406,#64,.T.);
#341=EDGE_CURVE('',#377,#417,#65,.T.);
#342=EDGE_CURVE('',#418,#385,#66,.T.);
#343=EDGE_CURVE('',#400,#418,#67,.T.);
#344=EDGE_CURVE('',#419,#408,#68,.T.);
#345=EDGE_CURVE('',#374,#419,#69,.T.);
#346=EDGE_CURVE('',#420,#387,#70,.T.);
#347=EDGE_CURVE('',#412,#420,#71,.T.);
#348=EDGE_CURVE('',#421,#410,#72,.T.);
#349=EDGE_CURVE('',#389,#421,#73,.T.);
#350=EDGE_CURVE('',#422,#395,#466,.T.);
#351=EDGE_CURVE('',#422,#423,#467,.F.);
#352=EDGE_CURVE('',#396,#423,#468,.T.);
#353=EDGE_CURVE('',#423,#424,#74,.T.);
#354=EDGE_CURVE('',#397,#424,#469,.T.);
#355=EDGE_CURVE('',#425,#394,#470,.T.);
#356=EDGE_CURVE('',#425,#422,#75,.F.);
#357=EDGE_CURVE('',#424,#426,#471,.F.);
#358=EDGE_CURVE('',#390,#426,#472,.T.);
#359=EDGE_CURVE('',#427,#393,#473,.T.);
#360=EDGE_CURVE('',#427,#425,#474,.F.);
#361=EDGE_CURVE('',#426,#428,#76,.F.);
#362=EDGE_CURVE('',#391,#428,#475,.T.);
#363=EDGE_CURVE('',#429,#392,#476,.T.);
#364=EDGE_CURVE('',#429,#427,#77,.T.);
#365=EDGE_CURVE('',#428,#429,#477,.F.);
#366=EDGE_CURVE('',#424,#382,#78,.T.);
#367=EDGE_CURVE('',#384,#423,#79,.T.);
#368=EDGE_CURVE('',#386,#422,#80,.T.);
#369=EDGE_CURVE('',#426,#380,#81,.T.);
#370=EDGE_CURVE('',#388,#425,#82,.T.);
#371=EDGE_CURVE('',#428,#378,#83,.T.);
#372=EDGE_CURVE('',#375,#427,#84,.T.);
#373=EDGE_CURVE('',#429,#376,#85,.T.);
#374=VERTEX_POINT('',#1004);
#375=VERTEX_POINT('',#1005);
#376=VERTEX_POINT('',#1007);
#377=VERTEX_POINT('',#1009);
#378=VERTEX_POINT('',#1013);
#379=VERTEX_POINT('',#1015);
#380=VERTEX_POINT('',#1019);
#381=VERTEX_POINT('',#1021);
#382=VERTEX_POINT('',#1025);
#383=VERTEX_POINT('',#1027);
#384=VERTEX_POINT('',#1031);
#385=VERTEX_POINT('',#1033);
#386=VERTEX_POINT('',#1037);
#387=VERTEX_POINT('',#1039);
#388=VERTEX_POINT('',#1043);
#389=VERTEX_POINT('',#1045);
#390=VERTEX_POINT('',#1052);
#391=VERTEX_POINT('',#1053);
#392=VERTEX_POINT('',#1055);
#393=VERTEX_POINT('',#1057);
#394=VERTEX_POINT('',#1059);
#395=VERTEX_POINT('',#1061);
#396=VERTEX_POINT('',#1063);
#397=VERTEX_POINT('',#1065);
#398=VERTEX_POINT('',#1069);
#399=VERTEX_POINT('',#1070);
#400=VERTEX_POINT('',#1072);
#401=VERTEX_POINT('',#1074);
#402=VERTEX_POINT('',#1078);
#403=VERTEX_POINT('',#1079);
#404=VERTEX_POINT('',#1084);
#405=VERTEX_POINT('',#1085);
#406=VERTEX_POINT('',#1090);
#407=VERTEX_POINT('',#1091);
#408=VERTEX_POINT('',#1096);
#409=VERTEX_POINT('',#1097);
#410=VERTEX_POINT('',#1102);
#411=VERTEX_POINT('',#1103);
#412=VERTEX_POINT('',#1108);
#413=VERTEX_POINT('',#1109);
#414=VERTEX_POINT('',#1118);
#415=VERTEX_POINT('',#1120);
#416=VERTEX_POINT('',#1125);
#417=VERTEX_POINT('',#1129);
#418=VERTEX_POINT('',#1133);
#419=VERTEX_POINT('',#1137);
#420=VERTEX_POINT('',#1141);
#421=VERTEX_POINT('',#1145);
#422=VERTEX_POINT('',#1150);
#423=VERTEX_POINT('',#1152);
#424=VERTEX_POINT('',#1156);
#425=VERTEX_POINT('',#1160);
#426=VERTEX_POINT('',#1164);
#427=VERTEX_POINT('',#1168);
#428=VERTEX_POINT('',#1172);
#429=VERTEX_POINT('',#1176);
#430=LINE('',#1003,#478);
#431=LINE('',#1008,#479);
#432=LINE('',#1012,#480);
#433=LINE('',#1014,#481);
#434=LINE('',#1016,#482);
#435=LINE('',#1020,#483);
#436=LINE('',#1024,#484);
#437=LINE('',#1026,#485);
#438=LINE('',#1028,#486);
#439=LINE('',#1032,#487);
#440=LINE('',#1036,#488);
#441=LINE('',#1038,#489);
#442=LINE('',#1040,#490);
#443=LINE('',#1044,#491);
#444=LINE('',#1048,#492);
#445=LINE('',#1049,#493);
#446=LINE('',#1054,#494);
#447=LINE('',#1058,#495);
#448=LINE('',#1062,#496);
#449=LINE('',#1066,#497);
#450=LINE('',#1068,#498);
#451=LINE('',#1073,#499);
#452=LINE('',#1077,#500);
#453=LINE('',#1080,#501);
#454=LINE('',#1081,#502);
#455=LINE('',#1083,#503);
#456=LINE('',#1089,#504);
#457=LINE('',#1092,#505);
#458=LINE('',#1093,#506);
#459=LINE('',#1095,#507);
#460=LINE('',#1101,#508);
#461=LINE('',#1104,#509);
#462=LINE('',#1105,#510);
#463=LINE('',#1107,#511);
#464=LINE('',#1113,#512);
#465=LINE('',#1114,#513);
#466=LINE('',#1149,#514);
#467=LINE('',#1151,#515);
#468=LINE('',#1153,#516);
#469=LINE('',#1157,#517);
#470=LINE('',#1159,#518);
#471=LINE('',#1163,#519);
#472=LINE('',#1165,#520);
#473=LINE('',#1167,#521);
#474=LINE('',#1169,#522);
#475=LINE('',#1173,#523);
#476=LINE('',#1175,#524);
#477=LINE('',#1179,#525);
#478=VECTOR('',#775,1.);
#479=VECTOR('',#778,1.);
#480=VECTOR('',#783,1.);
#481=VECTOR('',#784,1.);
#482=VECTOR('',#785,1.);
#483=VECTOR('',#790,1.);
#484=VECTOR('',#795,1.);
#485=VECTOR('',#796,1.);
#486=VECTOR('',#797,1.);
#487=VECTOR('',#802,1.);
#488=VECTOR('',#807,1.);
#489=VECTOR('',#808,1.);
#490=VECTOR('',#809,1.);
#491=VECTOR('',#814,1.);
#492=VECTOR('',#819,1.);
#493=VECTOR('',#820,1.);
#494=VECTOR('',#825,1.);
#495=VECTOR('',#828,1.);
#496=VECTOR('',#831,1.);
#497=VECTOR('',#834,1.);
#498=VECTOR('',#837,1.);
#499=VECTOR('',#840,1.);
#500=VECTOR('',#845,1.);
#501=VECTOR('',#846,1.);
#502=VECTOR('',#847,1.);
#503=VECTOR('',#850,1.);
#504=VECTOR('',#857,1.);
#505=VECTOR('',#858,1.);
#506=VECTOR('',#859,1.);
#507=VECTOR('',#862,1.);
#508=VECTOR('',#869,1.);
#509=VECTOR('',#870,1.);
#510=VECTOR('',#871,1.);
#511=VECTOR('',#874,1.);
#512=VECTOR('',#881,1.);
#513=VECTOR('',#882,1.);
#514=VECTOR('',#935,1.);
#515=VECTOR('',#936,1.);
#516=VECTOR('',#937,1.);
#517=VECTOR('',#942,1.);
#518=VECTOR('',#945,1.);
#519=VECTOR('',#950,1.);
#520=VECTOR('',#951,1.);
#521=VECTOR('',#954,1.);
#522=VECTOR('',#955,1.);
#523=VECTOR('',#960,1.);
#524=VECTOR('',#963,1.);
#525=VECTOR('',#968,1.);
#526=EDGE_LOOP('',(#86,#87,#88,#89));
#527=EDGE_LOOP('',(#90,#91,#92,#93));
#528=EDGE_LOOP('',(#94,#95,#96,#97));
#529=EDGE_LOOP('',(#98,#99,#100,#101));
#530=EDGE_LOOP('',(#102,#103,#104,#105));
#531=EDGE_LOOP('',(#106,#107,#108,#109));
#532=EDGE_LOOP('',(#110,#111,#112,#113));
#533=EDGE_LOOP('',(#114,#115,#116,#117));
#534=EDGE_LOOP('',(#118,#119,#120,#121,#122,#123,#124,#125));
#535=EDGE_LOOP('',(#126,#127,#128,#129));
#536=EDGE_LOOP('',(#130,#131,#132,#133));
#537=EDGE_LOOP('',(#134,#135,#136,#137));
#538=EDGE_LOOP('',(#138,#139,#140,#141));
#539=EDGE_LOOP('',(#142,#143,#144,#145));
#540=EDGE_LOOP('',(#146,#147,#148,#149));
#541=EDGE_LOOP('',(#150,#151,#152,#153));
#542=EDGE_LOOP('',(#154,#155,#156,#157));
#543=EDGE_LOOP('',(#158,#159,#160,#161,#162,#163,#164,#165));
#544=EDGE_LOOP('',(#166,#167,#168,#169,#170,#171));
#545=EDGE_LOOP('',(#172,#173,#174,#175,#176,#177));
#546=EDGE_LOOP('',(#178,#179,#180,#181,#182,#183));
#547=EDGE_LOOP('',(#184,#185,#186,#187,#188,#189));
#548=EDGE_LOOP('',(#190,#191,#192,#193,#194,#195));
#549=EDGE_LOOP('',(#196,#197,#198,#199,#200,#201));
#550=EDGE_LOOP('',(#202,#203,#204,#205,#206,#207));
#551=EDGE_LOOP('',(#208,#209,#210,#211,#212,#213));
#552=EDGE_LOOP('',(#214,#215,#216,#217));
#553=EDGE_LOOP('',(#218,#219,#220,#221));
#554=EDGE_LOOP('',(#222,#223,#224,#225));
#555=EDGE_LOOP('',(#226,#227,#228,#229));
#556=EDGE_LOOP('',(#230,#231,#232,#233));
#557=EDGE_LOOP('',(#234,#235,#236,#237));
#558=EDGE_LOOP('',(#238,#239,#240,#241));
#559=EDGE_LOOP('',(#242,#243,#244,#245));
#560=EDGE_LOOP('',(#246,#247,#248,#249));
#561=EDGE_LOOP('',(#250,#251,#252,#253));
#562=EDGE_LOOP('',(#254,#255,#256,#257));
#563=EDGE_LOOP('',(#258,#259,#260,#261));
#564=EDGE_LOOP('',(#262,#263,#264,#265));
#565=EDGE_LOOP('',(#266,#267,#268,#269));
#566=EDGE_LOOP('',(#270,#271,#272,#273));
#567=EDGE_LOOP('',(#274,#275,#276,#277));
#568=FACE_BOUND('',#526,.T.);
#569=FACE_BOUND('',#527,.T.);
#570=FACE_BOUND('',#528,.T.);
#571=FACE_BOUND('',#529,.T.);
#572=FACE_BOUND('',#530,.T.);
#573=FACE_BOUND('',#531,.T.);
#574=FACE_BOUND('',#532,.T.);
#575=FACE_BOUND('',#533,.T.);
#576=FACE_BOUND('',#534,.T.);
#577=FACE_BOUND('',#535,.T.);
#578=FACE_BOUND('',#536,.T.);
#579=FACE_BOUND('',#537,.T.);
#580=FACE_BOUND('',#538,.T.);
#581=FACE_BOUND('',#539,.T.);
#582=FACE_BOUND('',#540,.T.);
#583=FACE_BOUND('',#541,.T.);
#584=FACE_BOUND('',#542,.T.);
#585=FACE_BOUND('',#543,.T.);
#586=FACE_BOUND('',#544,.T.);
#587=FACE_BOUND('',#545,.T.);
#588=FACE_BOUND('',#546,.T.);
#589=FACE_BOUND('',#547,.T.);
#590=FACE_BOUND('',#548,.T.);
#591=FACE_BOUND('',#549,.T.);
#592=FACE_BOUND('',#550,.T.);
#593=FACE_BOUND('',#551,.T.);
#594=FACE_BOUND('',#552,.T.);
#595=FACE_BOUND('',#553,.T.);
#596=FACE_BOUND('',#554,.T.);
#597=FACE_BOUND('',#555,.T.);
#598=FACE_BOUND('',#556,.T.);
#599=FACE_BOUND('',#557,.T.);
#600=FACE_BOUND('',#558,.T.);
#601=FACE_BOUND('',#559,.T.);
#602=FACE_BOUND('',#560,.T.);
#603=FACE_BOUND('',#561,.T.);
#604=FACE_BOUND('',#562,.T.);
#605=FACE_BOUND('',#563,.T.);
#606=FACE_BOUND('',#564,.T.);
#607=FACE_BOUND('',#565,.T.);
#608=FACE_BOUND('',#566,.T.);
#609=FACE_BOUND('',#567,.T.);
#610=CYLINDRICAL_SURFACE('',#681,0.011);
#611=CYLINDRICAL_SURFACE('',#685,0.011);
#612=CYLINDRICAL_SURFACE('',#689,0.011);
#613=CYLINDRICAL_SURFACE('',#693,0.011);
#614=CYLINDRICAL_SURFACE('',#702,0.006);
#615=CYLINDRICAL_SURFACE('',#706,0.006);
#616=CYLINDRICAL_SURFACE('',#710,0.006);
#617=CYLINDRICAL_SURFACE('',#714,0.006);
#618=CYLINDRICAL_SURFACE('',#724,0.0025);
#619=CYLINDRICAL_SURFACE('',#727,0.0025);
#620=CYLINDRICAL_SURFACE('',#736,0.0025);
#621=CYLINDRICAL_SURFACE('',#739,0.0025);
#622=CYLINDRICAL_SURFACE('',#758,0.0025);
#623=CYLINDRICAL_SURFACE('',#760,0.0025);
#624=CYLINDRICAL_SURFACE('',#766,0.0025);
#625=CYLINDRICAL_SURFACE('',#768,0.0025);
#626=ADVANCED_FACE('',(#568),#610,.T.);
#627=ADVANCED_FACE('',(#569),#24,.T.);
#628=ADVANCED_FACE('',(#570),#611,.T.);
#629=ADVANCED_FACE('',(#571),#25,.T.);
#630=ADVANCED_FACE('',(#572),#612,.T.);
#631=ADVANCED_FACE('',(#573),#26,.T.);
#632=ADVANCED_FACE('',(#574),#613,.T.);
#633=ADVANCED_FACE('',(#575),#27,.T.);
#634=ADVANCED_FACE('',(#576),#28,.F.);
#635=ADVANCED_FACE('',(#577),#614,.F.);
#636=ADVANCED_FACE('',(#578),#29,.F.);
#637=ADVANCED_FACE('',(#579),#615,.F.);
#638=ADVANCED_FACE('',(#580),#30,.F.);
#639=ADVANCED_FACE('',(#581),#616,.F.);
#640=ADVANCED_FACE('',(#582),#31,.F.);
#641=ADVANCED_FACE('',(#583),#617,.F.);
#642=ADVANCED_FACE('',(#584),#32,.F.);
#643=ADVANCED_FACE('',(#585),#33,.T.);
#644=ADVANCED_FACE('',(#586),#16,.T.);
#645=ADVANCED_FACE('',(#587),#618,.T.);
#646=ADVANCED_FACE('',(#588),#619,.T.);
#647=ADVANCED_FACE('',(#589),#17,.T.);
#648=ADVANCED_FACE('',(#590),#18,.T.);
#649=ADVANCED_FACE('',(#591),#620,.T.);
#650=ADVANCED_FACE('',(#592),#621,.T.);
#651=ADVANCED_FACE('',(#593),#19,.T.);
#652=ADVANCED_FACE('',(#594),#34,.T.);
#653=ADVANCED_FACE('',(#595),#12,.T.);
#654=ADVANCED_FACE('',(#596),#13,.T.);
#655=ADVANCED_FACE('',(#597),#35,.T.);
#656=ADVANCED_FACE('',(#598),#36,.T.);
#657=ADVANCED_FACE('',(#599),#14,.T.);
#658=ADVANCED_FACE('',(#600),#15,.T.);
#659=ADVANCED_FACE('',(#601),#37,.T.);
#660=ADVANCED_FACE('',(#602),#20,.T.);
#661=ADVANCED_FACE('',(#603),#622,.T.);
#662=ADVANCED_FACE('',(#604),#623,.T.);
#663=ADVANCED_FACE('',(#605),#21,.T.);
#664=ADVANCED_FACE('',(#606),#22,.T.);
#665=ADVANCED_FACE('',(#607),#624,.T.);
#666=ADVANCED_FACE('',(#608),#625,.T.);
#667=ADVANCED_FACE('',(#609),#23,.T.);
#668=CLOSED_SHELL('',(#626,#627,#628,#629,#630,#631,#632,#633,#634,#635,
#636,#637,#638,#639,#640,#641,#642,#643,#644,#645,#646,#647,#648,#649,#650,
#651,#652,#653,#654,#655,#656,#657,#658,#659,#660,#661,#662,#663,#664,#665,
#666,#667));
#669=STYLED_ITEM('',(#670),#677);
#670=PRESENTATION_STYLE_ASSIGNMENT((#671));
#671=SURFACE_STYLE_USAGE(.BOTH.,#672);
#672=SURFACE_SIDE_STYLE('',(#673));
#673=SURFACE_STYLE_FILL_AREA(#674);
#674=FILL_AREA_STYLE('',(#675));
#675=FILL_AREA_STYLE_COLOUR('',#676);
#676=COLOUR_RGB('',0.647058823529412,0.647058823529412,0.647058823529412);
#677=MANIFOLD_SOLID_BREP('posoda-makeup',#668);
#678=SHAPE_DEFINITION_REPRESENTATION(#1202,#679);
#679=SHAPE_REPRESENTATION('posoda-makeup',(#680),#1197);
#680=AXIS2_PLACEMENT_3D('',#1001,#771,#772);
#681=AXIS2_PLACEMENT_3D('',#1002,#773,#774);
#682=AXIS2_PLACEMENT_3D('',#1006,#776,#777);
#683=AXIS2_PLACEMENT_3D('',#1010,#779,#780);
#684=AXIS2_PLACEMENT_3D('',#1011,#781,#782);
#685=AXIS2_PLACEMENT_3D('',#1017,#786,#787);
#686=AXIS2_PLACEMENT_3D('',#1018,#788,#789);
#687=AXIS2_PLACEMENT_3D('',#1022,#791,#792);
#688=AXIS2_PLACEMENT_3D('',#1023,#793,#794);
#689=AXIS2_PLACEMENT_3D('',#1029,#798,#799);
#690=AXIS2_PLACEMENT_3D('',#1030,#800,#801);
#691=AXIS2_PLACEMENT_3D('',#1034,#803,#804);
#692=AXIS2_PLACEMENT_3D('',#1035,#805,#806);
#693=AXIS2_PLACEMENT_3D('',#1041,#810,#811);
#694=AXIS2_PLACEMENT_3D('',#1042,#812,#813);
#695=AXIS2_PLACEMENT_3D('',#1046,#815,#816);
#696=AXIS2_PLACEMENT_3D('',#1047,#817,#818);
#697=AXIS2_PLACEMENT_3D('',#1050,#821,#822);
#698=AXIS2_PLACEMENT_3D('',#1051,#823,#824);
#699=AXIS2_PLACEMENT_3D('',#1056,#826,#827);
#700=AXIS2_PLACEMENT_3D('',#1060,#829,#830);
#701=AXIS2_PLACEMENT_3D('',#1064,#832,#833);
#702=AXIS2_PLACEMENT_3D('',#1067,#835,#836);
#703=AXIS2_PLACEMENT_3D('',#1071,#838,#839);
#704=AXIS2_PLACEMENT_3D('',#1075,#841,#842);
#705=AXIS2_PLACEMENT_3D('',#1076,#843,#844);
#706=AXIS2_PLACEMENT_3D('',#1082,#848,#849);
#707=AXIS2_PLACEMENT_3D('',#1086,#851,#852);
#708=AXIS2_PLACEMENT_3D('',#1087,#853,#854);
#709=AXIS2_PLACEMENT_3D('',#1088,#855,#856);
#710=AXIS2_PLACEMENT_3D('',#1094,#860,#861);
#711=AXIS2_PLACEMENT_3D('',#1098,#863,#864);
#712=AXIS2_PLACEMENT_3D('',#1099,#865,#866);
#713=AXIS2_PLACEMENT_3D('',#1100,#867,#868);
#714=AXIS2_PLACEMENT_3D('',#1106,#872,#873);
#715=AXIS2_PLACEMENT_3D('',#1110,#875,#876);
#716=AXIS2_PLACEMENT_3D('',#1111,#877,#878);
#717=AXIS2_PLACEMENT_3D('',#1112,#879,#880);
#718=AXIS2_PLACEMENT_3D('',#1115,#883,#884);
#719=AXIS2_PLACEMENT_3D('',#1116,#885,#886);
#720=AXIS2_PLACEMENT_3D('',#1117,#887,#888);
#721=AXIS2_PLACEMENT_3D('',#1119,#889,#890);
#722=AXIS2_PLACEMENT_3D('',#1121,#891,#892);
#723=AXIS2_PLACEMENT_3D('',#1122,#893,#894);
#724=AXIS2_PLACEMENT_3D('',#1123,#895,#896);
#725=AXIS2_PLACEMENT_3D('',#1124,#897,#898);
#726=AXIS2_PLACEMENT_3D('',#1126,#899,#900);
#727=AXIS2_PLACEMENT_3D('',#1127,#901,#902);
#728=AXIS2_PLACEMENT_3D('',#1128,#903,#904);
#729=AXIS2_PLACEMENT_3D('',#1130,#905,#906);
#730=AXIS2_PLACEMENT_3D('',#1131,#907,#908);
#731=AXIS2_PLACEMENT_3D('',#1132,#909,#910);
#732=AXIS2_PLACEMENT_3D('',#1134,#911,#912);
#733=AXIS2_PLACEMENT_3D('',#1135,#913,#914);
#734=AXIS2_PLACEMENT_3D('',#1136,#915,#916);
#735=AXIS2_PLACEMENT_3D('',#1138,#917,#918);
#736=AXIS2_PLACEMENT_3D('',#1139,#919,#920);
#737=AXIS2_PLACEMENT_3D('',#1140,#921,#922);
#738=AXIS2_PLACEMENT_3D('',#1142,#923,#924);
#739=AXIS2_PLACEMENT_3D('',#1143,#925,#926);
#740=AXIS2_PLACEMENT_3D('',#1144,#927,#928);
#741=AXIS2_PLACEMENT_3D('',#1146,#929,#930);
#742=AXIS2_PLACEMENT_3D('',#1147,#931,#932);
#743=AXIS2_PLACEMENT_3D('',#1148,#933,#934);
#744=AXIS2_PLACEMENT_3D('',#1154,#938,#939);
#745=AXIS2_PLACEMENT_3D('',#1155,#940,#941);
#746=AXIS2_PLACEMENT_3D('',#1158,#943,#944);
#747=AXIS2_PLACEMENT_3D('',#1161,#946,#947);
#748=AXIS2_PLACEMENT_3D('',#1162,#948,#949);
#749=AXIS2_PLACEMENT_3D('',#1166,#952,#953);
#750=AXIS2_PLACEMENT_3D('',#1170,#956,#957);
#751=AXIS2_PLACEMENT_3D('',#1171,#958,#959);
#752=AXIS2_PLACEMENT_3D('',#1174,#961,#962);
#753=AXIS2_PLACEMENT_3D('',#1177,#964,#965);
#754=AXIS2_PLACEMENT_3D('',#1178,#966,#967);
#755=AXIS2_PLACEMENT_3D('',#1180,#969,#970);
#756=AXIS2_PLACEMENT_3D('',#1181,#971,#972);
#757=AXIS2_PLACEMENT_3D('',#1182,#973,#974);
#758=AXIS2_PLACEMENT_3D('',#1183,#975,#976);
#759=AXIS2_PLACEMENT_3D('',#1184,#977,#978);
#760=AXIS2_PLACEMENT_3D('',#1185,#979,#980);
#761=AXIS2_PLACEMENT_3D('',#1186,#981,#982);
#762=AXIS2_PLACEMENT_3D('',#1187,#983,#984);
#763=AXIS2_PLACEMENT_3D('',#1188,#985,#986);
#764=AXIS2_PLACEMENT_3D('',#1189,#987,#988);
#765=AXIS2_PLACEMENT_3D('',#1190,#989,#990);
#766=AXIS2_PLACEMENT_3D('',#1191,#991,#992);
#767=AXIS2_PLACEMENT_3D('',#1192,#993,#994);
#768=AXIS2_PLACEMENT_3D('',#1193,#995,#996);
#769=AXIS2_PLACEMENT_3D('',#1194,#997,#998);
#770=AXIS2_PLACEMENT_3D('',#1195,#999,#1000);
#771=DIRECTION('',(0.,0.,1.));
#772=DIRECTION('',(1.,0.,0.));
#773=DIRECTION('',(0.,0.,-1.));
#774=DIRECTION('',(-1.,0.,0.));
#775=DIRECTION('',(0.,0.,-1.));
#776=DIRECTION('',(0.,0.,-1.));
#777=DIRECTION('',(-1.,0.,0.));
#778=DIRECTION('',(0.,0.,-1.));
#779=DIRECTION('',(0.,0.,1.));
#780=DIRECTION('',(1.,0.,0.));
#781=DIRECTION('',(0.,-1.,0.));
#782=DIRECTION('',(0.,0.,-1.));
#783=DIRECTION('',(1.,0.,0.));
#784=DIRECTION('',(0.,0.,-1.));
#785=DIRECTION('',(-1.,0.,0.));
#786=DIRECTION('',(0.,0.,-1.));
#787=DIRECTION('',(-1.,0.,0.));
#788=DIRECTION('',(0.,0.,-1.));
#789=DIRECTION('',(-1.,0.,0.));
#790=DIRECTION('',(0.,0.,-1.));
#791=DIRECTION('',(0.,0.,1.));
#792=DIRECTION('',(1.,0.,0.));
#793=DIRECTION('',(1.,0.,0.));
#794=DIRECTION('',(0.,0.,-1.));
#795=DIRECTION('',(0.,1.,0.));
#796=DIRECTION('',(0.,0.,-1.));
#797=DIRECTION('',(0.,-1.,0.));
#798=DIRECTION('',(0.,0.,-1.));
#799=DIRECTION('',(-1.,0.,0.));
#800=DIRECTION('',(0.,0.,-1.));
#801=DIRECTION('',(-1.,0.,0.));
#802=DIRECTION('',(0.,0.,-1.));
#803=DIRECTION('',(0.,0.,1.));
#804=DIRECTION('',(1.,0.,0.));
#805=DIRECTION('',(0.,1.,0.));
#806=DIRECTION('',(0.,0.,1.));
#807=DIRECTION('',(-1.,0.,0.));
#808=DIRECTION('',(0.,0.,-1.));
#809=DIRECTION('',(1.,0.,0.));
#810=DIRECTION('',(0.,0.,-1.));
#811=DIRECTION('',(-1.,0.,0.));
#812=DIRECTION('',(0.,0.,-1.));
#813=DIRECTION('',(-1.,0.,0.));
#814=DIRECTION('',(0.,0.,-1.));
#815=DIRECTION('',(0.,0.,1.));
#816=DIRECTION('',(1.,0.,0.));
#817=DIRECTION('',(-1.,0.,0.));
#818=DIRECTION('',(0.,0.,1.));
#819=DIRECTION('',(0.,-1.,0.));
#820=DIRECTION('',(0.,1.,0.));
#821=DIRECTION('',(0.,0.,1.));
#822=DIRECTION('',(1.,0.,0.));
#823=DIRECTION('',(0.,0.,1.));
#824=DIRECTION('',(1.,0.,0.));
#825=DIRECTION('',(-1.,0.,0.));
#826=DIRECTION('',(0.,0.,1.));
#827=DIRECTION('',(1.,0.,0.));
#828=DIRECTION('',(0.,1.,0.));
#829=DIRECTION('',(0.,0.,1.));
#830=DIRECTION('',(1.,0.,0.));
#831=DIRECTION('',(1.,0.,0.));
#832=DIRECTION('',(0.,0.,1.));
#833=DIRECTION('',(1.,0.,0.));
#834=DIRECTION('',(0.,-1.,0.));
#835=DIRECTION('',(0.,0.,-1.));
#836=DIRECTION('',(-1.,0.,0.));
#837=DIRECTION('',(0.,0.,-1.));
#838=DIRECTION('',(0.,0.,1.));
#839=DIRECTION('',(1.,0.,0.));
#840=DIRECTION('',(0.,0.,-1.));
#841=DIRECTION('',(0.,0.,1.));
#842=DIRECTION('',(1.,0.,0.));
#843=DIRECTION('',(1.,0.,0.));
#844=DIRECTION('',(0.,0.,-1.));
#845=DIRECTION('',(0.,0.,-1.));
#846=DIRECTION('',(0.,-1.,0.));
#847=DIRECTION('',(0.,1.,0.));
#848=DIRECTION('',(0.,0.,-1.));
#849=DIRECTION('',(-1.,0.,0.));
#850=DIRECTION('',(0.,0.,-1.));
#851=DIRECTION('',(0.,0.,1.));
#852=DIRECTION('',(1.,0.,0.));
#853=DIRECTION('',(0.,0.,1.));
#854=DIRECTION('',(1.,0.,0.));
#855=DIRECTION('',(0.,-1.,0.));
#856=DIRECTION('',(0.,0.,-1.));
#857=DIRECTION('',(0.,0.,-1.));
#858=DIRECTION('',(-1.,0.,0.));
#859=DIRECTION('',(1.,0.,0.));
#860=DIRECTION('',(0.,0.,-1.));
#861=DIRECTION('',(-1.,0.,0.));
#862=DIRECTION('',(0.,0.,-1.));
#863=DIRECTION('',(0.,0.,1.));
#864=DIRECTION('',(1.,0.,0.));
#865=DIRECTION('',(0.,0.,1.));
#866=DIRECTION('',(1.,0.,0.));
#867=DIRECTION('',(-1.,0.,0.));
#868=DIRECTION('',(0.,0.,1.));
#869=DIRECTION('',(0.,0.,-1.));
#870=DIRECTION('',(0.,1.,0.));
#871=DIRECTION('',(0.,-1.,0.));
#872=DIRECTION('',(0.,0.,-1.));
#873=DIRECTION('',(-1.,0.,0.));
#874=DIRECTION('',(0.,0.,-1.));
#875=DIRECTION('',(0.,0.,1.));
#876=DIRECTION('',(1.,0.,0.));
#877=DIRECTION('',(0.,0.,1.));
#878=DIRECTION('',(1.,0.,0.));
#879=DIRECTION('',(0.,1.,0.));
#880=DIRECTION('',(0.,0.,1.));
#881=DIRECTION('',(1.,0.,0.));
#882=DIRECTION('',(-1.,0.,0.));
#883=DIRECTION('',(0.,0.,1.));
#884=DIRECTION('',(1.,0.,0.));
#885=DIRECTION('',(0.,0.,1.));
#886=DIRECTION('',(1.,0.,0.));
#887=DIRECTION('',(-1.,0.,0.));
#888=DIRECTION('',(0.,0.,1.));
#889=DIRECTION('',(0.,1.,0.));
#890=DIRECTION('',(0.,0.,1.));
#891=DIRECTION('',(0.,1.,0.));
#892=DIRECTION('',(0.,0.,1.));
#893=DIRECTION('',(-1.,0.,0.));
#894=DIRECTION('',(0.,0.,1.));
#895=DIRECTION('',(0.,-1.,0.));
#896=DIRECTION('',(0.,0.,-1.));
#897=DIRECTION('',(0.,1.,0.));
#898=DIRECTION('',(0.,0.,1.));
#899=DIRECTION('',(0.,1.,0.));
#900=DIRECTION('',(0.,0.,1.));
#901=DIRECTION('',(-1.,0.,0.));
#902=DIRECTION('',(0.,0.,1.));
#903=DIRECTION('',(-1.,0.,0.));
#904=DIRECTION('',(0.,0.,1.));
#905=DIRECTION('',(-1.,0.,0.));
#906=DIRECTION('',(0.,0.,1.));
#907=DIRECTION('',(0.,0.,1.));
#908=DIRECTION('',(1.,0.,0.));
#909=DIRECTION('',(-1.,0.,0.));
#910=DIRECTION('',(0.,0.,1.));
#911=DIRECTION('',(-1.,0.,0.));
#912=DIRECTION('',(0.,0.,1.));
#913=DIRECTION('',(0.,0.,1.));
#914=DIRECTION('',(1.,0.,0.));
#915=DIRECTION('',(0.,1.,0.));
#916=DIRECTION('',(0.,0.,1.));
#917=DIRECTION('',(-2.77555756156289E-15,1.,2.77555756156289E-15));
#918=DIRECTION('',(0.,-2.77555756156289E-15,1.));
#919=DIRECTION('',(1.,0.,0.));
#920=DIRECTION('',(0.,0.,-1.));
#921=DIRECTION('',(-1.,0.,0.));
#922=DIRECTION('',(0.,0.,1.));
#923=DIRECTION('',(-1.,0.,0.));
#924=DIRECTION('',(0.,0.,1.));
#925=DIRECTION('',(0.,1.,0.));
#926=DIRECTION('',(0.,0.,1.));
#927=DIRECTION('',(0.,1.,0.));
#928=DIRECTION('',(0.,0.,1.));
#929=DIRECTION('',(0.,1.,0.));
#930=DIRECTION('',(0.,0.,1.));
#931=DIRECTION('',(0.,0.,1.));
#932=DIRECTION('',(1.,0.,0.));
#933=DIRECTION('',(0.,0.707106781186548,-0.707106781186547));
#934=DIRECTION('',(-1.,0.,0.));
#935=DIRECTION('',(0.,-0.707106781186547,-0.707106781186548));
#936=DIRECTION('',(-1.,0.,0.));
#937=DIRECTION('',(0.,0.707106781186547,0.707106781186548));
#938=DIRECTION('',(0.,0.,1.));
#939=DIRECTION('',(1.,0.,0.));
#940=DIRECTION('',(0.,0.,-1.));
#941=DIRECTION('',(-1.,0.,0.));
#942=DIRECTION('',(0.707106781186546,0.,0.707106781186549));
#943=DIRECTION('',(0.,0.,1.));
#944=DIRECTION('',(1.,0.,0.));
#945=DIRECTION('',(0.707106781186548,0.,-0.707106781186547));
#946=DIRECTION('',(0.,0.,1.));
#947=DIRECTION('',(1.,0.,0.));
#948=DIRECTION('',(0.707106781186547,0.,-0.707106781186548));
#949=DIRECTION('',(0.,1.,0.));
#950=DIRECTION('',(0.,1.,0.));
#951=DIRECTION('',(0.707106781186548,0.,0.707106781186547));
#952=DIRECTION('',(-0.707106781186547,0.,-0.707106781186548));
#953=DIRECTION('',(0.,-1.,0.));
#954=DIRECTION('',(0.707106781186548,0.,-0.707106781186547));
#955=DIRECTION('',(0.,-1.,0.));
#956=DIRECTION('',(0.,0.,1.));
#957=DIRECTION('',(1.,0.,0.));
#958=DIRECTION('',(0.,0.,1.));
#959=DIRECTION('',(1.,0.,0.));
#960=DIRECTION('',(0.,-0.707106781186547,0.707106781186548));
#961=DIRECTION('',(0.,0.,1.));
#962=DIRECTION('',(1.,0.,0.));
#963=DIRECTION('',(0.,0.707106781186546,-0.707106781186549));
#964=DIRECTION('',(0.,0.,-1.));
#965=DIRECTION('',(-1.,0.,0.));
#966=DIRECTION('',(0.,-0.707106781186548,-0.707106781186547));
#967=DIRECTION('',(1.,0.,0.));
#968=DIRECTION('',(1.,0.,0.));
#969=DIRECTION('',(0.,0.,-1.));
#970=DIRECTION('',(-1.,0.,0.));
#971=DIRECTION('',(2.77555756156289E-15,-1.,-1.14967358514654E-15));
#972=DIRECTION('',(1.,2.77555756156289E-15,0.));
#973=DIRECTION('',(-1.,0.,0.));
#974=DIRECTION('',(0.,0.,1.));
#975=DIRECTION('',(-1.,0.,0.));
#976=DIRECTION('',(0.,0.,1.));
#977=DIRECTION('',(-1.,0.,0.));
#978=DIRECTION('',(0.,0.,1.));
#979=DIRECTION('',(0.,1.,0.));
#980=DIRECTION('',(0.,0.,1.));
#981=DIRECTION('',(0.,-1.,0.));
#982=DIRECTION('',(0.,0.,-1.));
#983=DIRECTION('',(0.,0.,-1.));
#984=DIRECTION('',(-1.,0.,0.));
#985=DIRECTION('',(0.,-1.,0.));
#986=DIRECTION('',(0.,0.,-1.));
#987=DIRECTION('',(0.,0.,-1.));
#988=DIRECTION('',(-1.,0.,0.));
#989=DIRECTION('',(-1.,0.,0.));
#990=DIRECTION('',(0.,0.,1.));
#991=DIRECTION('',(0.,-1.,0.));
#992=DIRECTION('',(0.,0.,-1.));
#993=DIRECTION('',(0.,-1.,0.));
#994=DIRECTION('',(0.,0.,-1.));
#995=DIRECTION('',(1.,0.,0.));
#996=DIRECTION('',(0.,0.,-1.));
#997=DIRECTION('',(-1.,0.,0.));
#998=DIRECTION('',(0.,0.,1.));
#999=DIRECTION('',(0.,0.,-1.));
#1000=DIRECTION('',(-1.,0.,0.));
#1001=CARTESIAN_POINT('',(0.,0.,0.));
#1002=CARTESIAN_POINT('',(-0.069,-0.0465,0.005));
#1003=CARTESIAN_POINT('',(-0.08,-0.0465,0.005));
#1004=CARTESIAN_POINT('',(-0.08,-0.0465,0.0545));
#1005=CARTESIAN_POINT('',(-0.08,-0.0465,0.00353553390593273));
#1006=CARTESIAN_POINT('',(-0.069,-0.0465,0.00353553390593274));
#1007=CARTESIAN_POINT('',(-0.069,-0.0575,0.00353553390593274));
#1008=CARTESIAN_POINT('',(-0.069,-0.0575,0.005));
#1009=CARTESIAN_POINT('',(-0.069,-0.0575,0.0545));
#1010=CARTESIAN_POINT('',(-0.069,-0.0465,0.0545));
#1011=CARTESIAN_POINT('',(0.,-0.0575,0.005));
#1012=CARTESIAN_POINT('',(0.,-0.0575,0.00353553390593274));
#1013=CARTESIAN_POINT('',(0.069,-0.0575,0.00353553390593274));
#1014=CARTESIAN_POINT('',(0.069,-0.0575,0.005));
#1015=CARTESIAN_POINT('',(0.069,-0.0575,0.0545));
#1016=CARTESIAN_POINT('',(0.,-0.0575,0.0545));
#1017=CARTESIAN_POINT('',(0.069,-0.0465,0.005));
#1018=CARTESIAN_POINT('',(0.069,-0.0465,0.00353553390593274));
#1019=CARTESIAN_POINT('',(0.08,-0.0465,0.00353553390593274));
#1020=CARTESIAN_POINT('',(0.08,-0.0465,0.005));
#1021=CARTESIAN_POINT('',(0.08,-0.0465,0.0545));
#1022=CARTESIAN_POINT('',(0.069,-0.0465,0.0545));
#1023=CARTESIAN_POINT('',(0.08,6.93889390390723E-18,0.005));
#1024=CARTESIAN_POINT('',(0.08,6.93889390390723E-18,0.00353553390593273));
#1025=CARTESIAN_POINT('',(0.08,0.0465,0.00353553390593273));
#1026=CARTESIAN_POINT('',(0.08,0.0465,0.005));
#1027=CARTESIAN_POINT('',(0.08,0.0465,0.0545));
#1028=CARTESIAN_POINT('',(0.08,6.93889390390723E-18,0.0545));
#1029=CARTESIAN_POINT('',(0.069,0.0465,0.005));
#1030=CARTESIAN_POINT('',(0.069,0.0465,0.00353553390593274));
#1031=CARTESIAN_POINT('',(0.069,0.0575,0.00353553390593274));
#1032=CARTESIAN_POINT('',(0.069,0.0575,0.005));
#1033=CARTESIAN_POINT('',(0.069,0.0575,0.0545));
#1034=CARTESIAN_POINT('',(0.069,0.0465,0.0545));
#1035=CARTESIAN_POINT('',(0.,0.0575,0.005));
#1036=CARTESIAN_POINT('',(0.,0.0575,0.00353553390593274));
#1037=CARTESIAN_POINT('',(-0.069,0.0575,0.00353553390593274));
#1038=CARTESIAN_POINT('',(-0.069,0.0575,0.005));
#1039=CARTESIAN_POINT('',(-0.069,0.0575,0.0545));
#1040=CARTESIAN_POINT('',(0.,0.0575,0.0545));
#1041=CARTESIAN_POINT('',(-0.069,0.0465,0.005));
#1042=CARTESIAN_POINT('',(-0.069,0.0465,0.00353553390593274));
#1043=CARTESIAN_POINT('',(-0.08,0.0465,0.00353553390593274));
#1044=CARTESIAN_POINT('',(-0.08,0.0465,0.005));
#1045=CARTESIAN_POINT('',(-0.08,0.0465,0.0545));
#1046=CARTESIAN_POINT('',(-0.069,0.0465,0.0545));
#1047=CARTESIAN_POINT('',(-0.08,-6.93889390390723E-18,0.005));
#1048=CARTESIAN_POINT('',(-0.08,-6.93889390390723E-18,0.00353553390593273));
#1049=CARTESIAN_POINT('',(-0.08,-6.93889390390723E-18,0.0545));
#1050=CARTESIAN_POINT('',(0.,0.,0.));
#1051=CARTESIAN_POINT('',(0.069,-0.0465,0.));
#1052=CARTESIAN_POINT('',(0.0775,-0.0465,0.));
#1053=CARTESIAN_POINT('',(0.069,-0.055,0.));
#1054=CARTESIAN_POINT('',(-0.069,-0.055,0.));
#1055=CARTESIAN_POINT('',(-0.069,-0.055,0.));
#1056=CARTESIAN_POINT('',(-0.069,-0.0465,0.));
#1057=CARTESIAN_POINT('',(-0.0775,-0.0465,0.));
#1058=CARTESIAN_POINT('',(-0.0775,0.0465,0.));
#1059=CARTESIAN_POINT('',(-0.0775,0.0465,0.));
#1060=CARTESIAN_POINT('',(-0.069,0.0465,0.));
#1061=CARTESIAN_POINT('',(-0.069,0.055,0.));
#1062=CARTESIAN_POINT('',(0.069,0.055,0.));
#1063=CARTESIAN_POINT('',(0.069,0.055,0.));
#1064=CARTESIAN_POINT('',(0.069,0.0465,0.));
#1065=CARTESIAN_POINT('',(0.0775,0.0465,0.));
#1066=CARTESIAN_POINT('',(0.0775,-0.0465,0.));
#1067=CARTESIAN_POINT('',(0.069,0.0465,0.057));
#1068=CARTESIAN_POINT('',(0.075,0.0465,0.057));
#1069=CARTESIAN_POINT('',(0.075,0.0465,0.0545));
#1070=CARTESIAN_POINT('',(0.075,0.0465,0.005));
#1071=CARTESIAN_POINT('',(0.069,0.0465,0.0545));
#1072=CARTESIAN_POINT('',(0.069,0.0525,0.0545));
#1073=CARTESIAN_POINT('',(0.069,0.0525,0.057));
#1074=CARTESIAN_POINT('',(0.069,0.0525,0.005));
#1075=CARTESIAN_POINT('',(0.069,0.0465,0.005));
#1076=CARTESIAN_POINT('',(0.075,0.,0.057));
#1077=CARTESIAN_POINT('',(0.075,-0.0465,0.057));
#1078=CARTESIAN_POINT('',(0.075,-0.0465,0.0545));
#1079=CARTESIAN_POINT('',(0.075,-0.0465,0.005));
#1080=CARTESIAN_POINT('',(0.075,0.0465,0.0545));
#1081=CARTESIAN_POINT('',(0.075,0.,0.005));
#1082=CARTESIAN_POINT('',(0.069,-0.0465,0.057));
#1083=CARTESIAN_POINT('',(0.069,-0.0525,0.057));
#1084=CARTESIAN_POINT('',(0.069,-0.0525,0.0545));
#1085=CARTESIAN_POINT('',(0.069,-0.0525,0.005));
#1086=CARTESIAN_POINT('',(0.069,-0.0465,0.0545));
#1087=CARTESIAN_POINT('',(0.069,-0.0465,0.005));
#1088=CARTESIAN_POINT('',(0.,-0.0525,0.057));
#1089=CARTESIAN_POINT('',(-0.069,-0.0525,0.057));
#1090=CARTESIAN_POINT('',(-0.069,-0.0525,0.0545));
#1091=CARTESIAN_POINT('',(-0.069,-0.0525,0.005));
#1092=CARTESIAN_POINT('',(0.069,-0.0525,0.0545));
#1093=CARTESIAN_POINT('',(0.,-0.0525,0.005));
#1094=CARTESIAN_POINT('',(-0.069,-0.0465,0.057));
#1095=CARTESIAN_POINT('',(-0.075,-0.0465,0.057));
#1096=CARTESIAN_POINT('',(-0.075,-0.0465,0.0545));
#1097=CARTESIAN_POINT('',(-0.075,-0.0465,0.005));
#1098=CARTESIAN_POINT('',(-0.069,-0.0465,0.0545));
#1099=CARTESIAN_POINT('',(-0.069,-0.0465,0.005));
#1100=CARTESIAN_POINT('',(-0.075,0.,0.057));
#1101=CARTESIAN_POINT('',(-0.075,0.0465,0.057));
#1102=CARTESIAN_POINT('',(-0.075,0.0465,0.0545));
#1103=CARTESIAN_POINT('',(-0.075,0.0465,0.005));
#1104=CARTESIAN_POINT('',(-0.075,-0.0465,0.0545));
#1105=CARTESIAN_POINT('',(-0.075,0.,0.005));
#1106=CARTESIAN_POINT('',(-0.069,0.0465,0.057));
#1107=CARTESIAN_POINT('',(-0.069,0.0525,0.057));
#1108=CARTESIAN_POINT('',(-0.069,0.0525,0.0545));
#1109=CARTESIAN_POINT('',(-0.069,0.0525,0.005));
#1110=CARTESIAN_POINT('',(-0.069,0.0465,0.0545));
#1111=CARTESIAN_POINT('',(-0.069,0.0465,0.005));
#1112=CARTESIAN_POINT('',(0.,0.0525,0.057));
#1113=CARTESIAN_POINT('',(-0.069,0.0525,0.0545));
#1114=CARTESIAN_POINT('',(0.,0.0525,0.005));
#1115=CARTESIAN_POINT('',(0.,0.,0.005));
#1116=CARTESIAN_POINT('',(0.069,-0.0465,0.0545));
#1117=CARTESIAN_POINT('',(0.069,-0.055,0.0545));
#1118=CARTESIAN_POINT('',(0.069,-0.055,0.057));
#1119=CARTESIAN_POINT('',(0.0775,-0.0465,0.0545));
#1120=CARTESIAN_POINT('',(0.0775,-0.0465,0.057));
#1121=CARTESIAN_POINT('',(0.0775,-0.0465,0.0545));
#1122=CARTESIAN_POINT('',(0.069,-0.055,0.0545));
#1123=CARTESIAN_POINT('',(0.0775,6.93889390390723E-18,0.0545));
#1124=CARTESIAN_POINT('',(0.0775,0.0465,0.0545));
#1125=CARTESIAN_POINT('',(0.0775,0.0465,0.057));
#1126=CARTESIAN_POINT('',(0.0775,0.0465,0.0545));
#1127=CARTESIAN_POINT('',(0.,-0.055,0.0545));
#1128=CARTESIAN_POINT('',(-0.069,-0.055,0.0545));
#1129=CARTESIAN_POINT('',(-0.069,-0.055,0.057));
#1130=CARTESIAN_POINT('',(-0.069,-0.055,0.0545));
#1131=CARTESIAN_POINT('',(0.069,0.0465,0.0545));
#1132=CARTESIAN_POINT('',(0.069,0.055,0.0545));
#1133=CARTESIAN_POINT('',(0.069,0.055,0.057));
#1134=CARTESIAN_POINT('',(0.069,0.055,0.0545));
#1135=CARTESIAN_POINT('',(-0.069,-0.0465,0.0545));
#1136=CARTESIAN_POINT('',(-0.0775,-0.0465,0.0545));
#1137=CARTESIAN_POINT('',(-0.0775,-0.0465,0.057));
#1138=CARTESIAN_POINT('',(-0.0775,-0.0465,0.0545));
#1139=CARTESIAN_POINT('',(0.,0.055,0.0545));
#1140=CARTESIAN_POINT('',(-0.069,0.055,0.0545));
#1141=CARTESIAN_POINT('',(-0.069,0.055,0.057));
#1142=CARTESIAN_POINT('',(-0.069,0.055,0.0545));
#1143=CARTESIAN_POINT('',(-0.0775,-6.93889390390723E-18,0.0545));
#1144=CARTESIAN_POINT('',(-0.0775,0.0465,0.0545));
#1145=CARTESIAN_POINT('',(-0.0775,0.0465,0.057));
#1146=CARTESIAN_POINT('',(-0.0775,0.0465,0.0545));
#1147=CARTESIAN_POINT('',(-0.069,0.0465,0.0545));
#1148=CARTESIAN_POINT('',(0.,0.055,0.));
#1149=CARTESIAN_POINT('',(-0.069,0.0575,0.0025));
#1150=CARTESIAN_POINT('',(-0.069,0.0567677669529664,0.00176776695296636));
#1151=CARTESIAN_POINT('',(0.,0.0567677669529664,0.00176776695296636));
#1152=CARTESIAN_POINT('',(0.069,0.0567677669529664,0.00176776695296637));
#1153=CARTESIAN_POINT('',(0.069,0.055,0.));
#1154=CARTESIAN_POINT('',(0.069,0.0465,0.));
#1155=CARTESIAN_POINT('',(0.069,0.0465,0.00176776695296637));
#1156=CARTESIAN_POINT('',(0.0792677669529664,0.0465,0.00176776695296636));
#1157=CARTESIAN_POINT('',(0.0775,0.0465,0.));
#1158=CARTESIAN_POINT('',(-0.069,0.0465,0.0025));
#1159=CARTESIAN_POINT('',(-0.08,0.0465,0.0025));
#1160=CARTESIAN_POINT('',(-0.0792677669529663,0.0465,0.00176776695296636));
#1161=CARTESIAN_POINT('',(-0.069,0.0465,0.00176776695296636));
#1162=CARTESIAN_POINT('',(0.0775,0.,0.));
#1163=CARTESIAN_POINT('',(0.0792677669529664,0.,0.00176776695296636));
#1164=CARTESIAN_POINT('',(0.0792677669529664,-0.0465,0.00176776695296636));
#1165=CARTESIAN_POINT('',(0.0775,-0.0465,0.));
#1166=CARTESIAN_POINT('',(-0.0775,0.,0.));
#1167=CARTESIAN_POINT('',(-0.08,-0.0465,0.0025));
#1168=CARTESIAN_POINT('',(-0.0792677669529664,-0.0465,0.00176776695296636));
#1169=CARTESIAN_POINT('',(-0.0792677669529664,0.,0.00176776695296636));
#1170=CARTESIAN_POINT('',(0.069,-0.0465,0.0025));
#1171=CARTESIAN_POINT('',(0.069,-0.0465,0.00176776695296637));
#1172=CARTESIAN_POINT('',(0.069,-0.0567677669529664,0.00176776695296636));
#1173=CARTESIAN_POINT('',(0.069,-0.055,0.));
#1174=CARTESIAN_POINT('',(-0.069,-0.0465,0.));
#1175=CARTESIAN_POINT('',(-0.069,-0.0575,0.0025));
#1176=CARTESIAN_POINT('',(-0.069,-0.0567677669529664,0.00176776695296637));
#1177=CARTESIAN_POINT('',(-0.069,-0.0465,0.00176776695296637));
#1178=CARTESIAN_POINT('',(0.,-0.055,0.));
#1179=CARTESIAN_POINT('',(0.,-0.0567677669529664,0.00176776695296636));
#1180=CARTESIAN_POINT('',(0.069,0.0465,0.00353553390593274));
#1181=CARTESIAN_POINT('',(0.0775,0.0465,0.00353553390593274));
#1182=CARTESIAN_POINT('',(0.069,0.055,0.00353553390593274));
#1183=CARTESIAN_POINT('',(0.,0.055,0.00353553390593274));
#1184=CARTESIAN_POINT('',(-0.069,0.055,0.00353553390593274));
#1185=CARTESIAN_POINT('',(0.0775,6.93889390390723E-18,0.00353553390593273));
#1186=CARTESIAN_POINT('',(0.0775,-0.0465,0.00353553390593273));
#1187=CARTESIAN_POINT('',(-0.069,0.0465,0.00353553390593274));
#1188=CARTESIAN_POINT('',(-0.0775,0.0465,0.00353553390593274));
#1189=CARTESIAN_POINT('',(0.069,-0.0465,0.00353553390593274));
#1190=CARTESIAN_POINT('',(0.069,-0.055,0.00353553390593274));
#1191=CARTESIAN_POINT('',(-0.0775,-6.93889390390723E-18,0.00353553390593273));
#1192=CARTESIAN_POINT('',(-0.0775,-0.0465,0.00353553390593273));
#1193=CARTESIAN_POINT('',(0.,-0.055,0.00353553390593274));
#1194=CARTESIAN_POINT('',(-0.069,-0.055,0.00353553390593274));
#1195=CARTESIAN_POINT('',(-0.069,-0.0465,0.00353553390593274));
#1196=MECHANICAL_DESIGN_GEOMETRIC_PRESENTATION_REPRESENTATION('',(#669),
#1197);
#1197=(
GEOMETRIC_REPRESENTATION_CONTEXT(3)
GLOBAL_UNCERTAINTY_ASSIGNED_CONTEXT((#1198))
GLOBAL_UNIT_ASSIGNED_CONTEXT((#1201,#1200,#1199))
REPRESENTATION_CONTEXT('posoda-makeup','TOP_LEVEL_ASSEMBLY_PART')
);
#1198=UNCERTAINTY_MEASURE_WITH_UNIT(LENGTH_MEASURE(1.E-8),#1201,
'DISTANCE_ACCURACY_VALUE','Maximum Tolerance applied to model');
#1199=(
NAMED_UNIT(*)
SI_UNIT($,.STERADIAN.)
SOLID_ANGLE_UNIT()
);
#1200=(
NAMED_UNIT(*)
PLANE_ANGLE_UNIT()
SI_UNIT($,.RADIAN.)
);
#1201=(
LENGTH_UNIT()
NAMED_UNIT(*)
SI_UNIT($,.METRE.)
);
#1202=PRODUCT_DEFINITION_SHAPE('','',#1203);
#1203=PRODUCT_DEFINITION('','',#1205,#1204);
#1204=PRODUCT_DEFINITION_CONTEXT('',#1211,'design');
#1205=PRODUCT_DEFINITION_FORMATION_WITH_SPECIFIED_SOURCE('','',#1207,
 .NOT_KNOWN.);
#1206=PRODUCT_RELATED_PRODUCT_CATEGORY('','',(#1207));
#1207=PRODUCT('posoda-makeup','posoda-makeup','posoda-makeup',(#1209));
#1208=PRODUCT_CATEGORY('','');
#1209=PRODUCT_CONTEXT('',#1211,'mechanical');
#1210=APPLICATION_PROTOCOL_DEFINITION('international standard',
'ap242_managed_model_based_3d_engineering',2020,#1211);
#1211=APPLICATION_CONTEXT('managed model based 3d engineering');
ENDSEC;
END-ISO-10303-21;
