ISO-10303-21;
HEADER;
/* Generated by software containing ST-Developer
 * from STEP Tools, Inc. (www.steptools.com) 
 */
/* OPTION: using custom renumber hook */

FILE_DESCRIPTION(
/* description */ ('STEP AP242 Edition 2',
'CAx-IF Rec.Pracs.---Representation and Presentation of Product Manufa
cturing Information (PMI)---4.0---2014-10-13',
'CAx-IF Rec.Pracs.---3D Tessellated Geometry---0.4---2014-09-14','2;1',
'CAx-IF Rec.Pracs.---User Defined Attributes---1.5---2016-08-15'),
/* implementation_level */ '2;1');

FILE_NAME(
/* name */ 'spindle-mount-BLTouch-mount - BLTouch-V3',
/* time_stamp */ '2026-10-03T12:17:03Z',
/* author */ (''),
/* organization */ (''),
/* preprocessor_version */ 'ST-DEVELOPER v20',
/* originating_system */ 'ONSHAPE BY PTC INC, 1.221',
/* authorisation */ '  ');

FILE_SCHEMA (('AP242_MANAGED_MODEL_BASED_3D_ENGINEERING_MIM_LF { 1 0 10303 442 3 1 4 }'));
ENDSEC;

DATA;
#10=SHAPE_REPRESENTATION_RELATIONSHIP('','',#626,#11);
#11=ADVANCED_BREP_SHAPE_REPRESENTATION('',(#624),#1075);
#12=ELLIPSE('',#665,0.00141421356237309,0.001);
#13=TOROIDAL_SURFACE('',#657,0.001,0.001);
#14=TOROIDAL_SURFACE('',#662,0.001,0.001);
#15=CONICAL_SURFACE('',#653,0.00225015142736424,0.785398163397448);
#16=CONICAL_SURFACE('',#654,0.00225015142736403,0.785398163397448);
#17=B_SPLINE_CURVE_WITH_KNOTS('',3,(#917,#918,#919,#920,#921),
 .UNSPECIFIED.,.F.,.F.,(4,1,4),(0.,0.00209698516921066,0.00419397033842132),
 .UNSPECIFIED.);
#18=B_SPLINE_CURVE_WITH_KNOTS('',3,(#922,#923,#924,#925,#926),
 .UNSPECIFIED.,.F.,.F.,(4,1,4),(0.,0.00209698516921026,0.00419397033842053),
 .UNSPECIFIED.);
#19=B_SPLINE_CURVE_WITH_KNOTS('',3,(#981,#982,#983,#984,#985),
 .UNSPECIFIED.,.F.,.F.,(4,1,4),(0.,0.000783414247540036,0.00156682849508007),
 .UNSPECIFIED.);
#20=B_SPLINE_CURVE_WITH_KNOTS('',3,(#991,#992,#993,#994,#995,#996,#997,
#998,#999,#1000),.UNSPECIFIED.,.F.,.F.,(4,1,1,1,1,1,1,4),(0.,0.000206655114680084,
0.000413310229360168,0.000826620458720336,0.0012399306880805,0.00165324091744067,
0.00247986137616101,0.00330648183488134),.UNSPECIFIED.);
#21=B_SPLINE_CURVE_WITH_KNOTS('',3,(#1017,#1018,#1019,#1020,#1021),
 .UNSPECIFIED.,.F.,.F.,(4,1,4),(0.,0.00364297252153107,0.00728594504306214),
 .UNSPECIFIED.);
#22=CYLINDRICAL_SURFACE('',#637,0.002);
#23=CYLINDRICAL_SURFACE('',#649,0.00225015142736424);
#24=CYLINDRICAL_SURFACE('',#651,0.00225015142736403);
#25=CYLINDRICAL_SURFACE('',#655,0.001);
#26=CYLINDRICAL_SURFACE('',#659,0.001);
#27=CYLINDRICAL_SURFACE('',#660,0.001);
#28=CYLINDRICAL_SURFACE('',#664,0.001);
#29=CYLINDRICAL_SURFACE('',#666,0.001);
#30=CYLINDRICAL_SURFACE('',#669,0.00890321803365885);
#31=CYLINDRICAL_SURFACE('',#675,0.0045);
#32=CYLINDRICAL_SURFACE('',#680,0.0045);
#33=CYLINDRICAL_SURFACE('',#682,0.01);
#34=CYLINDRICAL_SURFACE('',#684,0.00175);
#35=CYLINDRICAL_SURFACE('',#687,0.00175);
#36=CYLINDRICAL_SURFACE('',#692,0.033);
#37=LINE('',#879,#85);
#38=LINE('',#884,#86);
#39=LINE('',#886,#87);
#40=LINE('',#888,#88);
#41=LINE('',#890,#89);
#42=LINE('',#894,#90);
#43=LINE('',#897,#91);
#44=LINE('',#899,#92);
#45=LINE('',#903,#93);
#46=LINE('',#905,#94);
#47=LINE('',#909,#95);
#48=LINE('',#913,#96);
#49=LINE('',#929,#97);
#50=LINE('',#930,#98);
#51=LINE('',#932,#99);
#52=LINE('',#936,#100);
#53=LINE('',#938,#101);
#54=LINE('',#940,#102);
#55=LINE('',#943,#103);
#56=LINE('',#945,#104);
#57=LINE('',#949,#105);
#58=LINE('',#953,#106);
#59=LINE('',#956,#107);
#60=LINE('',#959,#108);
#61=LINE('',#961,#109);
#62=LINE('',#965,#110);
#63=LINE('',#967,#111);
#64=LINE('',#969,#112);
#65=LINE('',#1009,#113);
#66=LINE('',#1011,#114);
#67=LINE('',#1013,#115);
#68=LINE('',#1023,#116);
#69=LINE('',#1025,#117);
#70=LINE('',#1027,#118);
#71=LINE('',#1029,#119);
#72=LINE('',#1031,#120);
#73=LINE('',#1033,#121);
#74=LINE('',#1035,#122);
#75=LINE('',#1037,#123);
#76=LINE('',#1039,#124);
#77=LINE('',#1043,#125);
#78=LINE('',#1045,#126);
#79=LINE('',#1047,#127);
#80=LINE('',#1049,#128);
#81=LINE('',#1051,#129);
#82=LINE('',#1053,#130);
#83=LINE('',#1055,#131);
#84=LINE('',#1071,#132);
#85=VECTOR('',#701,1.);
#86=VECTOR('',#704,1.);
#87=VECTOR('',#705,1.);
#88=VECTOR('',#706,1.);
#89=VECTOR('',#707,1.);
#90=VECTOR('',#712,1.);
#91=VECTOR('',#713,1.);
#92=VECTOR('',#714,1.);
#93=VECTOR('',#717,1.);
#94=VECTOR('',#718,1.);
#95=VECTOR('',#721,1.);
#96=VECTOR('',#726,1.);
#97=VECTOR('',#733,1.);
#98=VECTOR('',#734,1.);
#99=VECTOR('',#737,1.);
#100=VECTOR('',#740,1.);
#101=VECTOR('',#741,1.);
#102=VECTOR('',#744,1.);
#103=VECTOR('',#745,1.);
#104=VECTOR('',#746,1.);
#105=VECTOR('',#749,1.);
#106=VECTOR('',#752,1.);
#107=VECTOR('',#755,1.);
#108=VECTOR('',#756,1.);
#109=VECTOR('',#757,1.);
#110=VECTOR('',#760,1.);
#111=VECTOR('',#761,1.);
#112=VECTOR('',#762,1.);
#113=VECTOR('',#805,1.);
#114=VECTOR('',#806,1.);
#115=VECTOR('',#807,1.);
#116=VECTOR('',#814,1.);
#117=VECTOR('',#815,1.);
#118=VECTOR('',#818,1.);
#119=VECTOR('',#819,1.);
#120=VECTOR('',#820,1.);
#121=VECTOR('',#823,1.);
#122=VECTOR('',#824,1.);
#123=VECTOR('',#827,1.);
#124=VECTOR('',#828,1.);
#125=VECTOR('',#833,1.);
#126=VECTOR('',#836,1.);
#127=VECTOR('',#837,1.);
#128=VECTOR('',#840,1.);
#129=VECTOR('',#841,1.);
#130=VECTOR('',#844,1.);
#131=VECTOR('',#845,1.);
#132=VECTOR('',#868,1.);
#133=ORIENTED_EDGE('',*,*,#301,.F.);
#134=ORIENTED_EDGE('',*,*,#302,.F.);
#135=ORIENTED_EDGE('',*,*,#303,.T.);
#136=ORIENTED_EDGE('',*,*,#304,.T.);
#137=ORIENTED_EDGE('',*,*,#305,.F.);
#138=ORIENTED_EDGE('',*,*,#306,.T.);
#139=ORIENTED_EDGE('',*,*,#307,.T.);
#140=ORIENTED_EDGE('',*,*,#308,.F.);
#141=ORIENTED_EDGE('',*,*,#309,.T.);
#142=ORIENTED_EDGE('',*,*,#310,.T.);
#143=ORIENTED_EDGE('',*,*,#311,.T.);
#144=ORIENTED_EDGE('',*,*,#312,.F.);
#145=ORIENTED_EDGE('',*,*,#313,.T.);
#146=ORIENTED_EDGE('',*,*,#314,.T.);
#147=ORIENTED_EDGE('',*,*,#315,.T.);
#148=ORIENTED_EDGE('',*,*,#316,.T.);
#149=ORIENTED_EDGE('',*,*,#317,.T.);
#150=ORIENTED_EDGE('',*,*,#318,.T.);
#151=ORIENTED_EDGE('',*,*,#319,.T.);
#152=ORIENTED_EDGE('',*,*,#320,.T.);
#153=ORIENTED_EDGE('',*,*,#310,.F.);
#154=ORIENTED_EDGE('',*,*,#321,.T.);
#155=ORIENTED_EDGE('',*,*,#317,.F.);
#156=ORIENTED_EDGE('',*,*,#322,.T.);
#157=ORIENTED_EDGE('',*,*,#315,.F.);
#158=ORIENTED_EDGE('',*,*,#323,.T.);
#159=ORIENTED_EDGE('',*,*,#308,.T.);
#160=ORIENTED_EDGE('',*,*,#324,.T.);
#161=ORIENTED_EDGE('',*,*,#319,.F.);
#162=ORIENTED_EDGE('',*,*,#325,.T.);
#163=ORIENTED_EDGE('',*,*,#303,.F.);
#164=ORIENTED_EDGE('',*,*,#326,.T.);
#165=ORIENTED_EDGE('',*,*,#327,.T.);
#166=ORIENTED_EDGE('',*,*,#328,.T.);
#167=ORIENTED_EDGE('',*,*,#329,.T.);
#168=ORIENTED_EDGE('',*,*,#330,.T.);
#169=ORIENTED_EDGE('',*,*,#331,.T.);
#170=ORIENTED_EDGE('',*,*,#332,.T.);
#171=ORIENTED_EDGE('',*,*,#333,.T.);
#172=ORIENTED_EDGE('',*,*,#334,.T.);
#173=ORIENTED_EDGE('',*,*,#335,.T.);
#174=ORIENTED_EDGE('',*,*,#336,.T.);
#175=ORIENTED_EDGE('',*,*,#337,.T.);
#176=ORIENTED_EDGE('',*,*,#338,.F.);
#177=ORIENTED_EDGE('',*,*,#339,.F.);
#178=ORIENTED_EDGE('',*,*,#340,.T.);
#179=ORIENTED_EDGE('',*,*,#341,.F.);
#180=ORIENTED_EDGE('',*,*,#342,.F.);
#181=ORIENTED_EDGE('',*,*,#343,.T.);
#182=ORIENTED_EDGE('',*,*,#344,.T.);
#183=ORIENTED_EDGE('',*,*,#345,.T.);
#184=ORIENTED_EDGE('',*,*,#346,.T.);
#185=ORIENTED_EDGE('',*,*,#302,.T.);
#186=ORIENTED_EDGE('',*,*,#347,.T.);
#187=ORIENTED_EDGE('',*,*,#301,.T.);
#188=ORIENTED_EDGE('',*,*,#321,.F.);
#189=ORIENTED_EDGE('',*,*,#318,.F.);
#190=ORIENTED_EDGE('',*,*,#346,.F.);
#191=ORIENTED_EDGE('',*,*,#322,.F.);
#192=ORIENTED_EDGE('',*,*,#316,.F.);
#193=ORIENTED_EDGE('',*,*,#347,.F.);
#194=ORIENTED_EDGE('',*,*,#314,.F.);
#195=ORIENTED_EDGE('',*,*,#348,.T.);
#196=ORIENTED_EDGE('',*,*,#328,.F.);
#197=ORIENTED_EDGE('',*,*,#349,.F.);
#198=ORIENTED_EDGE('',*,*,#349,.T.);
#199=ORIENTED_EDGE('',*,*,#327,.F.);
#200=ORIENTED_EDGE('',*,*,#350,.F.);
#201=ORIENTED_EDGE('',*,*,#323,.F.);
#202=ORIENTED_EDGE('',*,*,#350,.T.);
#203=ORIENTED_EDGE('',*,*,#326,.F.);
#204=ORIENTED_EDGE('',*,*,#309,.F.);
#205=ORIENTED_EDGE('',*,*,#325,.F.);
#206=ORIENTED_EDGE('',*,*,#336,.F.);
#207=ORIENTED_EDGE('',*,*,#351,.F.);
#208=ORIENTED_EDGE('',*,*,#311,.F.);
#209=ORIENTED_EDGE('',*,*,#352,.F.);
#210=ORIENTED_EDGE('',*,*,#352,.T.);
#211=ORIENTED_EDGE('',*,*,#320,.F.);
#212=ORIENTED_EDGE('',*,*,#353,.F.);
#213=ORIENTED_EDGE('',*,*,#337,.F.);
#214=ORIENTED_EDGE('',*,*,#353,.T.);
#215=ORIENTED_EDGE('',*,*,#324,.F.);
#216=ORIENTED_EDGE('',*,*,#354,.F.);
#217=ORIENTED_EDGE('',*,*,#330,.F.);
#218=ORIENTED_EDGE('',*,*,#354,.T.);
#219=ORIENTED_EDGE('',*,*,#307,.F.);
#220=ORIENTED_EDGE('',*,*,#355,.F.);
#221=ORIENTED_EDGE('',*,*,#331,.F.);
#222=ORIENTED_EDGE('',*,*,#334,.F.);
#223=ORIENTED_EDGE('',*,*,#356,.F.);
#224=ORIENTED_EDGE('',*,*,#357,.T.);
#225=ORIENTED_EDGE('',*,*,#358,.T.);
#226=ORIENTED_EDGE('',*,*,#312,.T.);
#227=ORIENTED_EDGE('',*,*,#351,.T.);
#228=ORIENTED_EDGE('',*,*,#335,.F.);
#229=ORIENTED_EDGE('',*,*,#358,.F.);
#230=ORIENTED_EDGE('',*,*,#359,.T.);
#231=ORIENTED_EDGE('',*,*,#360,.T.);
#232=ORIENTED_EDGE('',*,*,#332,.F.);
#233=ORIENTED_EDGE('',*,*,#355,.T.);
#234=ORIENTED_EDGE('',*,*,#306,.F.);
#235=ORIENTED_EDGE('',*,*,#361,.T.);
#236=ORIENTED_EDGE('',*,*,#362,.T.);
#237=ORIENTED_EDGE('',*,*,#338,.T.);
#238=ORIENTED_EDGE('',*,*,#363,.F.);
#239=ORIENTED_EDGE('',*,*,#364,.F.);
#240=ORIENTED_EDGE('',*,*,#365,.T.);
#241=ORIENTED_EDGE('',*,*,#339,.T.);
#242=ORIENTED_EDGE('',*,*,#365,.F.);
#243=ORIENTED_EDGE('',*,*,#366,.F.);
#244=ORIENTED_EDGE('',*,*,#367,.T.);
#245=ORIENTED_EDGE('',*,*,#340,.F.);
#246=ORIENTED_EDGE('',*,*,#367,.F.);
#247=ORIENTED_EDGE('',*,*,#368,.T.);
#248=ORIENTED_EDGE('',*,*,#369,.T.);
#249=ORIENTED_EDGE('',*,*,#341,.T.);
#250=ORIENTED_EDGE('',*,*,#369,.F.);
#251=ORIENTED_EDGE('',*,*,#370,.F.);
#252=ORIENTED_EDGE('',*,*,#371,.T.);
#253=ORIENTED_EDGE('',*,*,#342,.T.);
#254=ORIENTED_EDGE('',*,*,#371,.F.);
#255=ORIENTED_EDGE('',*,*,#372,.F.);
#256=ORIENTED_EDGE('',*,*,#373,.T.);
#257=ORIENTED_EDGE('',*,*,#343,.F.);
#258=ORIENTED_EDGE('',*,*,#373,.F.);
#259=ORIENTED_EDGE('',*,*,#374,.T.);
#260=ORIENTED_EDGE('',*,*,#375,.T.);
#261=ORIENTED_EDGE('',*,*,#344,.F.);
#262=ORIENTED_EDGE('',*,*,#375,.F.);
#263=ORIENTED_EDGE('',*,*,#376,.T.);
#264=ORIENTED_EDGE('',*,*,#377,.T.);
#265=ORIENTED_EDGE('',*,*,#345,.F.);
#266=ORIENTED_EDGE('',*,*,#377,.F.);
#267=ORIENTED_EDGE('',*,*,#378,.T.);
#268=ORIENTED_EDGE('',*,*,#363,.T.);
#269=ORIENTED_EDGE('',*,*,#333,.F.);
#270=ORIENTED_EDGE('',*,*,#362,.F.);
#271=ORIENTED_EDGE('',*,*,#379,.T.);
#272=ORIENTED_EDGE('',*,*,#356,.T.);
#273=ORIENTED_EDGE('',*,*,#380,.F.);
#274=ORIENTED_EDGE('',*,*,#381,.T.);
#275=ORIENTED_EDGE('',*,*,#382,.F.);
#276=ORIENTED_EDGE('',*,*,#383,.T.);
#277=ORIENTED_EDGE('',*,*,#361,.F.);
#278=ORIENTED_EDGE('',*,*,#305,.T.);
#279=ORIENTED_EDGE('',*,*,#384,.T.);
#280=ORIENTED_EDGE('',*,*,#359,.F.);
#281=ORIENTED_EDGE('',*,*,#357,.F.);
#282=ORIENTED_EDGE('',*,*,#379,.F.);
#283=ORIENTED_EDGE('',*,*,#380,.T.);
#284=ORIENTED_EDGE('',*,*,#382,.T.);
#285=ORIENTED_EDGE('',*,*,#366,.T.);
#286=ORIENTED_EDGE('',*,*,#364,.T.);
#287=ORIENTED_EDGE('',*,*,#378,.F.);
#288=ORIENTED_EDGE('',*,*,#376,.F.);
#289=ORIENTED_EDGE('',*,*,#374,.F.);
#290=ORIENTED_EDGE('',*,*,#372,.T.);
#291=ORIENTED_EDGE('',*,*,#370,.T.);
#292=ORIENTED_EDGE('',*,*,#368,.F.);
#293=ORIENTED_EDGE('',*,*,#381,.F.);
#294=ORIENTED_EDGE('',*,*,#383,.F.);
#295=ORIENTED_EDGE('',*,*,#360,.F.);
#296=ORIENTED_EDGE('',*,*,#384,.F.);
#297=ORIENTED_EDGE('',*,*,#304,.F.);
#298=ORIENTED_EDGE('',*,*,#329,.F.);
#299=ORIENTED_EDGE('',*,*,#348,.F.);
#300=ORIENTED_EDGE('',*,*,#313,.F.);
#301=EDGE_CURVE('',#385,#385,#442,.T.);
#302=EDGE_CURVE('',#386,#386,#443,.T.);
#303=EDGE_CURVE('',#387,#388,#37,.T.);
#304=EDGE_CURVE('',#388,#389,#444,.F.);
#305=EDGE_CURVE('',#390,#389,#38,.T.);
#306=EDGE_CURVE('',#390,#391,#39,.T.);
#307=EDGE_CURVE('',#391,#392,#40,.F.);
#308=EDGE_CURVE('',#393,#392,#41,.T.);
#309=EDGE_CURVE('',#393,#387,#445,.T.);
#310=EDGE_CURVE('',#394,#395,#42,.T.);
#311=EDGE_CURVE('',#395,#396,#43,.T.);
#312=EDGE_CURVE('',#397,#396,#44,.T.);
#313=EDGE_CURVE('',#397,#398,#446,.T.);
#314=EDGE_CURVE('',#398,#399,#45,.F.);
#315=EDGE_CURVE('',#399,#400,#46,.T.);
#316=EDGE_CURVE('',#400,#401,#447,.T.);
#317=EDGE_CURVE('',#401,#402,#47,.T.);
#318=EDGE_CURVE('',#402,#394,#448,.T.);
#319=EDGE_CURVE('',#403,#404,#48,.T.);
#320=EDGE_CURVE('',#404,#395,#449,.F.);
#321=EDGE_CURVE('',#394,#402,#17,.T.);
#322=EDGE_CURVE('',#401,#400,#18,.T.);
#323=EDGE_CURVE('',#399,#403,#450,.T.);
#324=EDGE_CURVE('',#392,#404,#49,.F.);
#325=EDGE_CURVE('',#403,#393,#50,.T.);
#326=EDGE_CURVE('',#387,#405,#51,.F.);
#327=EDGE_CURVE('',#405,#406,#451,.F.);
#328=EDGE_CURVE('',#406,#407,#52,.T.);
#329=EDGE_CURVE('',#407,#388,#53,.F.);
#330=EDGE_CURVE('',#408,#409,#54,.T.);
#331=EDGE_CURVE('',#409,#410,#55,.T.);
#332=EDGE_CURVE('',#410,#411,#56,.T.);
#333=EDGE_CURVE('',#411,#412,#452,.T.);
#334=EDGE_CURVE('',#412,#413,#57,.T.);
#335=EDGE_CURVE('',#413,#414,#453,.T.);
#336=EDGE_CURVE('',#414,#415,#58,.F.);
#337=EDGE_CURVE('',#415,#408,#454,.T.);
#338=EDGE_CURVE('',#416,#417,#59,.T.);
#339=EDGE_CURVE('',#418,#416,#60,.T.);
#340=EDGE_CURVE('',#418,#419,#61,.T.);
#341=EDGE_CURVE('',#420,#419,#455,.T.);
#342=EDGE_CURVE('',#421,#420,#62,.T.);
#343=EDGE_CURVE('',#421,#422,#63,.T.);
#344=EDGE_CURVE('',#422,#423,#64,.T.);
#345=EDGE_CURVE('',#423,#417,#456,.T.);
#346=EDGE_CURVE('',#424,#424,#457,.F.);
#347=EDGE_CURVE('',#425,#425,#458,.F.);
#348=EDGE_CURVE('',#398,#407,#19,.T.);
#349=EDGE_CURVE('',#399,#406,#459,.T.);
#350=EDGE_CURVE('',#403,#405,#460,.T.);
#351=EDGE_CURVE('',#396,#414,#20,.T.);
#352=EDGE_CURVE('',#415,#395,#461,.T.);
#353=EDGE_CURVE('',#408,#404,#462,.T.);
#354=EDGE_CURVE('',#409,#392,#12,.T.);
#355=EDGE_CURVE('',#410,#391,#463,.F.);
#356=EDGE_CURVE('',#426,#412,#65,.T.);
#357=EDGE_CURVE('',#426,#427,#66,.T.);
#358=EDGE_CURVE('',#427,#413,#67,.T.);
#359=EDGE_CURVE('',#427,#428,#464,.T.);
#360=EDGE_CURVE('',#428,#397,#21,.T.);
#361=EDGE_CURVE('',#390,#429,#68,.T.);
#362=EDGE_CURVE('',#429,#411,#69,.T.);
#363=EDGE_CURVE('',#430,#417,#70,.T.);
#364=EDGE_CURVE('',#431,#430,#71,.T.);
#365=EDGE_CURVE('',#431,#416,#72,.T.);
#366=EDGE_CURVE('',#432,#431,#73,.T.);
#367=EDGE_CURVE('',#432,#418,#74,.T.);
#368=EDGE_CURVE('',#432,#433,#75,.T.);
#369=EDGE_CURVE('',#433,#419,#76,.T.);
#370=EDGE_CURVE('',#434,#433,#465,.T.);
#371=EDGE_CURVE('',#434,#420,#77,.T.);
#372=EDGE_CURVE('',#435,#434,#78,.T.);
#373=EDGE_CURVE('',#435,#421,#79,.T.);
#374=EDGE_CURVE('',#435,#436,#80,.T.);
#375=EDGE_CURVE('',#436,#422,#81,.T.);
#376=EDGE_CURVE('',#436,#437,#82,.T.);
#377=EDGE_CURVE('',#437,#423,#83,.T.);
#378=EDGE_CURVE('',#437,#430,#466,.T.);
#379=EDGE_CURVE('',#429,#426,#467,.T.);
#380=EDGE_CURVE('',#438,#438,#468,.T.);
#381=EDGE_CURVE('',#439,#439,#469,.T.);
#382=EDGE_CURVE('',#440,#440,#470,.T.);
#383=EDGE_CURVE('',#441,#441,#471,.T.);
#384=EDGE_CURVE('',#389,#428,#84,.F.);
#385=VERTEX_POINT('',#876);
#386=VERTEX_POINT('',#878);
#387=VERTEX_POINT('',#880);
#388=VERTEX_POINT('',#881);
#389=VERTEX_POINT('',#883);
#390=VERTEX_POINT('',#885);
#391=VERTEX_POINT('',#887);
#392=VERTEX_POINT('',#889);
#393=VERTEX_POINT('',#891);
#394=VERTEX_POINT('',#895);
#395=VERTEX_POINT('',#896);
#396=VERTEX_POINT('',#898);
#397=VERTEX_POINT('',#900);
#398=VERTEX_POINT('',#902);
#399=VERTEX_POINT('',#904);
#400=VERTEX_POINT('',#906);
#401=VERTEX_POINT('',#908);
#402=VERTEX_POINT('',#910);
#403=VERTEX_POINT('',#914);
#404=VERTEX_POINT('',#915);
#405=VERTEX_POINT('',#933);
#406=VERTEX_POINT('',#935);
#407=VERTEX_POINT('',#937);
#408=VERTEX_POINT('',#941);
#409=VERTEX_POINT('',#942);
#410=VERTEX_POINT('',#944);
#411=VERTEX_POINT('',#946);
#412=VERTEX_POINT('',#948);
#413=VERTEX_POINT('',#950);
#414=VERTEX_POINT('',#952);
#415=VERTEX_POINT('',#954);
#416=VERTEX_POINT('',#957);
#417=VERTEX_POINT('',#958);
#418=VERTEX_POINT('',#960);
#419=VERTEX_POINT('',#962);
#420=VERTEX_POINT('',#964);
#421=VERTEX_POINT('',#966);
#422=VERTEX_POINT('',#968);
#423=VERTEX_POINT('',#970);
#424=VERTEX_POINT('',#974);
#425=VERTEX_POINT('',#977);
#426=VERTEX_POINT('',#1010);
#427=VERTEX_POINT('',#1012);
#428=VERTEX_POINT('',#1016);
#429=VERTEX_POINT('',#1024);
#430=VERTEX_POINT('',#1028);
#431=VERTEX_POINT('',#1030);
#432=VERTEX_POINT('',#1034);
#433=VERTEX_POINT('',#1038);
#434=VERTEX_POINT('',#1042);
#435=VERTEX_POINT('',#1046);
#436=VERTEX_POINT('',#1050);
#437=VERTEX_POINT('',#1054);
#438=VERTEX_POINT('',#1062);
#439=VERTEX_POINT('',#1064);
#440=VERTEX_POINT('',#1067);
#441=VERTEX_POINT('',#1069);
#442=CIRCLE('',#629,0.00225015142736403);
#443=CIRCLE('',#630,0.00225015142736424);
#444=CIRCLE('',#631,0.033);
#445=CIRCLE('',#632,0.001);
#446=CIRCLE('',#634,0.033);
#447=CIRCLE('',#635,0.00365015142736403);
#448=CIRCLE('',#636,0.00365015142736423);
#449=CIRCLE('',#638,0.002);
#450=CIRCLE('',#639,0.002);
#451=CIRCLE('',#642,0.001);
#452=CIRCLE('',#644,0.01);
#453=CIRCLE('',#645,0.00890321803365885);
#454=CIRCLE('',#646,0.001);
#455=CIRCLE('',#647,0.0045);
#456=CIRCLE('',#648,0.0045);
#457=CIRCLE('',#650,0.00225015142736424);
#458=CIRCLE('',#652,0.00225015142736403);
#459=CIRCLE('',#656,0.001);
#460=CIRCLE('',#658,0.001);
#461=CIRCLE('',#661,0.001);
#462=CIRCLE('',#663,0.001);
#463=CIRCLE('',#667,0.001);
#464=CIRCLE('',#670,0.00890321803365885);
#465=CIRCLE('',#676,0.0045);
#466=CIRCLE('',#681,0.0045);
#467=CIRCLE('',#683,0.01);
#468=CIRCLE('',#685,0.00175);
#469=CIRCLE('',#686,0.00175);
#470=CIRCLE('',#688,0.00175);
#471=CIRCLE('',#689,0.00175);
#472=EDGE_LOOP('',(#133));
#473=EDGE_LOOP('',(#134));
#474=EDGE_LOOP('',(#135,#136,#137,#138,#139,#140,#141));
#475=EDGE_LOOP('',(#142,#143,#144,#145,#146,#147,#148,#149,#150));
#476=EDGE_LOOP('',(#151,#152,#153,#154,#155,#156,#157,#158));
#477=EDGE_LOOP('',(#159,#160,#161,#162));
#478=EDGE_LOOP('',(#163,#164,#165,#166,#167));
#479=EDGE_LOOP('',(#168,#169,#170,#171,#172,#173,#174,#175));
#480=EDGE_LOOP('',(#176,#177,#178,#179,#180,#181,#182,#183));
#481=EDGE_LOOP('',(#184));
#482=EDGE_LOOP('',(#185));
#483=EDGE_LOOP('',(#186));
#484=EDGE_LOOP('',(#187));
#485=EDGE_LOOP('',(#188,#189));
#486=EDGE_LOOP('',(#190));
#487=EDGE_LOOP('',(#191,#192));
#488=EDGE_LOOP('',(#193));
#489=EDGE_LOOP('',(#194,#195,#196,#197));
#490=EDGE_LOOP('',(#198,#199,#200,#201));
#491=EDGE_LOOP('',(#202,#203,#204,#205));
#492=EDGE_LOOP('',(#206,#207,#208,#209));
#493=EDGE_LOOP('',(#210,#211,#212,#213));
#494=EDGE_LOOP('',(#214,#215,#216,#217));
#495=EDGE_LOOP('',(#218,#219,#220,#221));
#496=EDGE_LOOP('',(#222,#223,#224,#225));
#497=EDGE_LOOP('',(#226,#227,#228,#229,#230,#231));
#498=EDGE_LOOP('',(#232,#233,#234,#235,#236));
#499=EDGE_LOOP('',(#237,#238,#239,#240));
#500=EDGE_LOOP('',(#241,#242,#243,#244));
#501=EDGE_LOOP('',(#245,#246,#247,#248));
#502=EDGE_LOOP('',(#249,#250,#251,#252));
#503=EDGE_LOOP('',(#253,#254,#255,#256));
#504=EDGE_LOOP('',(#257,#258,#259,#260));
#505=EDGE_LOOP('',(#261,#262,#263,#264));
#506=EDGE_LOOP('',(#265,#266,#267,#268));
#507=EDGE_LOOP('',(#269,#270,#271,#272));
#508=EDGE_LOOP('',(#273));
#509=EDGE_LOOP('',(#274));
#510=EDGE_LOOP('',(#275));
#511=EDGE_LOOP('',(#276));
#512=EDGE_LOOP('',(#277,#278,#279,#280,#281,#282));
#513=EDGE_LOOP('',(#283));
#514=EDGE_LOOP('',(#284));
#515=EDGE_LOOP('',(#285,#286,#287,#288,#289,#290,#291,#292));
#516=EDGE_LOOP('',(#293));
#517=EDGE_LOOP('',(#294));
#518=EDGE_LOOP('',(#295,#296,#297,#298,#299,#300));
#519=FACE_BOUND('',#472,.T.);
#520=FACE_BOUND('',#473,.T.);
#521=FACE_BOUND('',#474,.T.);
#522=FACE_BOUND('',#475,.T.);
#523=FACE_BOUND('',#476,.T.);
#524=FACE_BOUND('',#477,.T.);
#525=FACE_BOUND('',#478,.T.);
#526=FACE_BOUND('',#479,.T.);
#527=FACE_BOUND('',#480,.T.);
#528=FACE_BOUND('',#481,.T.);
#529=FACE_BOUND('',#482,.T.);
#530=FACE_BOUND('',#483,.T.);
#531=FACE_BOUND('',#484,.T.);
#532=FACE_BOUND('',#485,.T.);
#533=FACE_BOUND('',#486,.T.);
#534=FACE_BOUND('',#487,.T.);
#535=FACE_BOUND('',#488,.T.);
#536=FACE_BOUND('',#489,.T.);
#537=FACE_BOUND('',#490,.T.);
#538=FACE_BOUND('',#491,.T.);
#539=FACE_BOUND('',#492,.T.);
#540=FACE_BOUND('',#493,.T.);
#541=FACE_BOUND('',#494,.T.);
#542=FACE_BOUND('',#495,.T.);
#543=FACE_BOUND('',#496,.T.);
#544=FACE_BOUND('',#497,.T.);
#545=FACE_BOUND('',#498,.T.);
#546=FACE_BOUND('',#499,.T.);
#547=FACE_BOUND('',#500,.T.);
#548=FACE_BOUND('',#501,.T.);
#549=FACE_BOUND('',#502,.T.);
#550=FACE_BOUND('',#503,.T.);
#551=FACE_BOUND('',#504,.T.);
#552=FACE_BOUND('',#505,.T.);
#553=FACE_BOUND('',#506,.T.);
#554=FACE_BOUND('',#507,.T.);
#555=FACE_BOUND('',#508,.T.);
#556=FACE_BOUND('',#509,.T.);
#557=FACE_BOUND('',#510,.T.);
#558=FACE_BOUND('',#511,.T.);
#559=FACE_BOUND('',#512,.T.);
#560=FACE_BOUND('',#513,.T.);
#561=FACE_BOUND('',#514,.T.);
#562=FACE_BOUND('',#515,.T.);
#563=FACE_BOUND('',#516,.T.);
#564=FACE_BOUND('',#517,.T.);
#565=FACE_BOUND('',#518,.T.);
#566=PLANE('',#628);
#567=PLANE('',#633);
#568=PLANE('',#640);
#569=PLANE('',#641);
#570=PLANE('',#643);
#571=PLANE('',#668);
#572=PLANE('',#671);
#573=PLANE('',#672);
#574=PLANE('',#673);
#575=PLANE('',#674);
#576=PLANE('',#677);
#577=PLANE('',#678);
#578=PLANE('',#679);
#579=PLANE('',#690);
#580=PLANE('',#691);
#581=ADVANCED_FACE('',(#519,#520,#521),#566,.T.);
#582=ADVANCED_FACE('',(#522),#567,.F.);
#583=ADVANCED_FACE('',(#523),#22,.T.);
#584=ADVANCED_FACE('',(#524),#568,.T.);
#585=ADVANCED_FACE('',(#525),#569,.F.);
#586=ADVANCED_FACE('',(#526,#527),#570,.T.);
#587=ADVANCED_FACE('',(#528,#529),#23,.F.);
#588=ADVANCED_FACE('',(#530,#531),#24,.F.);
#589=ADVANCED_FACE('',(#532,#533),#15,.F.);
#590=ADVANCED_FACE('',(#534,#535),#16,.F.);
#591=ADVANCED_FACE('',(#536),#25,.T.);
#592=ADVANCED_FACE('',(#537),#13,.T.);
#593=ADVANCED_FACE('',(#538),#26,.T.);
#594=ADVANCED_FACE('',(#539),#27,.T.);
#595=ADVANCED_FACE('',(#540),#14,.T.);
#596=ADVANCED_FACE('',(#541),#28,.T.);
#597=ADVANCED_FACE('',(#542),#29,.T.);
#598=ADVANCED_FACE('',(#543),#571,.T.);
#599=ADVANCED_FACE('',(#544),#30,.T.);
#600=ADVANCED_FACE('',(#545),#572,.T.);
#601=ADVANCED_FACE('',(#546),#573,.F.);
#602=ADVANCED_FACE('',(#547),#574,.F.);
#603=ADVANCED_FACE('',(#548),#575,.T.);
#604=ADVANCED_FACE('',(#549),#31,.F.);
#605=ADVANCED_FACE('',(#550),#576,.F.);
#606=ADVANCED_FACE('',(#551),#577,.T.);
#607=ADVANCED_FACE('',(#552),#578,.T.);
#608=ADVANCED_FACE('',(#553),#32,.F.);
#609=ADVANCED_FACE('',(#554),#33,.T.);
#610=ADVANCED_FACE('',(#555,#556),#34,.F.);
#611=ADVANCED_FACE('',(#557,#558),#35,.F.);
#612=ADVANCED_FACE('',(#559,#560,#561),#579,.F.);
#613=ADVANCED_FACE('',(#562,#563,#564),#580,.T.);
#614=ADVANCED_FACE('',(#565),#36,.F.);
#615=CLOSED_SHELL('',(#581,#582,#583,#584,#585,#586,#587,#588,#589,#590,
#591,#592,#593,#594,#595,#596,#597,#598,#599,#600,#601,#602,#603,#604,#605,
#606,#607,#608,#609,#610,#611,#612,#613,#614));
#616=STYLED_ITEM('',(#617),#624);
#617=PRESENTATION_STYLE_ASSIGNMENT((#618));
#618=SURFACE_STYLE_USAGE(.BOTH.,#619);
#619=SURFACE_SIDE_STYLE('',(#620));
#620=SURFACE_STYLE_FILL_AREA(#621);
#621=FILL_AREA_STYLE('',(#622));
#622=FILL_AREA_STYLE_COLOUR('',#623);
#623=COLOUR_RGB('',0.647058823529412,0.647058823529412,0.647058823529412);
#624=MANIFOLD_SOLID_BREP('BLTouch-V3',#615);
#625=SHAPE_DEFINITION_REPRESENTATION(#1080,#626);
#626=SHAPE_REPRESENTATION('BLTouch-V3',(#627),#1075);
#627=AXIS2_PLACEMENT_3D('',#873,#693,#694);
#628=AXIS2_PLACEMENT_3D('',#874,#695,#696);
#629=AXIS2_PLACEMENT_3D('',#875,#697,#698);
#630=AXIS2_PLACEMENT_3D('',#877,#699,#700);
#631=AXIS2_PLACEMENT_3D('',#882,#702,#703);
#632=AXIS2_PLACEMENT_3D('',#892,#708,#709);
#633=AXIS2_PLACEMENT_3D('',#893,#710,#711);
#634=AXIS2_PLACEMENT_3D('',#901,#715,#716);
#635=AXIS2_PLACEMENT_3D('',#907,#719,#720);
#636=AXIS2_PLACEMENT_3D('',#911,#722,#723);
#637=AXIS2_PLACEMENT_3D('',#912,#724,#725);
#638=AXIS2_PLACEMENT_3D('',#916,#727,#728);
#639=AXIS2_PLACEMENT_3D('',#927,#729,#730);
#640=AXIS2_PLACEMENT_3D('',#928,#731,#732);
#641=AXIS2_PLACEMENT_3D('',#931,#735,#736);
#642=AXIS2_PLACEMENT_3D('',#934,#738,#739);
#643=AXIS2_PLACEMENT_3D('',#939,#742,#743);
#644=AXIS2_PLACEMENT_3D('',#947,#747,#748);
#645=AXIS2_PLACEMENT_3D('',#951,#750,#751);
#646=AXIS2_PLACEMENT_3D('',#955,#753,#754);
#647=AXIS2_PLACEMENT_3D('',#963,#758,#759);
#648=AXIS2_PLACEMENT_3D('',#971,#763,#764);
#649=AXIS2_PLACEMENT_3D('',#972,#765,#766);
#650=AXIS2_PLACEMENT_3D('',#973,#767,#768);
#651=AXIS2_PLACEMENT_3D('',#975,#769,#770);
#652=AXIS2_PLACEMENT_3D('',#976,#771,#772);
#653=AXIS2_PLACEMENT_3D('',#978,#773,#774);
#654=AXIS2_PLACEMENT_3D('',#979,#775,#776);
#655=AXIS2_PLACEMENT_3D('',#980,#777,#778);
#656=AXIS2_PLACEMENT_3D('',#986,#779,#780);
#657=AXIS2_PLACEMENT_3D('',#987,#781,#782);
#658=AXIS2_PLACEMENT_3D('',#988,#783,#784);
#659=AXIS2_PLACEMENT_3D('',#989,#785,#786);
#660=AXIS2_PLACEMENT_3D('',#990,#787,#788);
#661=AXIS2_PLACEMENT_3D('',#1001,#789,#790);
#662=AXIS2_PLACEMENT_3D('',#1002,#791,#792);
#663=AXIS2_PLACEMENT_3D('',#1003,#793,#794);
#664=AXIS2_PLACEMENT_3D('',#1004,#795,#796);
#665=AXIS2_PLACEMENT_3D('',#1005,#797,#798);
#666=AXIS2_PLACEMENT_3D('',#1006,#799,#800);
#667=AXIS2_PLACEMENT_3D('',#1007,#801,#802);
#668=AXIS2_PLACEMENT_3D('',#1008,#803,#804);
#669=AXIS2_PLACEMENT_3D('',#1014,#808,#809);
#670=AXIS2_PLACEMENT_3D('',#1015,#810,#811);
#671=AXIS2_PLACEMENT_3D('',#1022,#812,#813);
#672=AXIS2_PLACEMENT_3D('',#1026,#816,#817);
#673=AXIS2_PLACEMENT_3D('',#1032,#821,#822);
#674=AXIS2_PLACEMENT_3D('',#1036,#825,#826);
#675=AXIS2_PLACEMENT_3D('',#1040,#829,#830);
#676=AXIS2_PLACEMENT_3D('',#1041,#831,#832);
#677=AXIS2_PLACEMENT_3D('',#1044,#834,#835);
#678=AXIS2_PLACEMENT_3D('',#1048,#838,#839);
#679=AXIS2_PLACEMENT_3D('',#1052,#842,#843);
#680=AXIS2_PLACEMENT_3D('',#1056,#846,#847);
#681=AXIS2_PLACEMENT_3D('',#1057,#848,#849);
#682=AXIS2_PLACEMENT_3D('',#1058,#850,#851);
#683=AXIS2_PLACEMENT_3D('',#1059,#852,#853);
#684=AXIS2_PLACEMENT_3D('',#1060,#854,#855);
#685=AXIS2_PLACEMENT_3D('',#1061,#856,#857);
#686=AXIS2_PLACEMENT_3D('',#1063,#858,#859);
#687=AXIS2_PLACEMENT_3D('',#1065,#860,#861);
#688=AXIS2_PLACEMENT_3D('',#1066,#862,#863);
#689=AXIS2_PLACEMENT_3D('',#1068,#864,#865);
#690=AXIS2_PLACEMENT_3D('',#1070,#866,#867);
#691=AXIS2_PLACEMENT_3D('',#1072,#869,#870);
#692=AXIS2_PLACEMENT_3D('',#1073,#871,#872);
#693=DIRECTION('',(0.,0.,1.));
#694=DIRECTION('',(1.,0.,0.));
#695=DIRECTION('',(0.,-1.,0.));
#696=DIRECTION('',(-1.,0.,0.));
#697=DIRECTION('',(0.,-1.,0.));
#698=DIRECTION('',(-1.,0.,0.));
#699=DIRECTION('',(0.,-1.,0.));
#700=DIRECTION('',(-1.,0.,0.));
#701=DIRECTION('',(1.,0.,2.16164919124835E-16));
#702=DIRECTION('',(0.,-1.,0.));
#703=DIRECTION('',(-1.,0.,0.));
#704=DIRECTION('',(1.,0.,2.16164919124835E-16));
#705=DIRECTION('',(-2.16164919124835E-16,0.,1.));
#706=DIRECTION('',(1.,0.,2.16164919124835E-16));
#707=DIRECTION('',(-2.16164919124835E-16,0.,1.));
#708=DIRECTION('',(0.,-1.,0.));
#709=DIRECTION('',(-1.,0.,0.));
#710=DIRECTION('',(0.,-1.,0.));
#711=DIRECTION('',(-1.,0.,0.));
#712=DIRECTION('',(-2.16164919124835E-16,0.,1.));
#713=DIRECTION('',(1.,0.,2.16164919124835E-16));
#714=DIRECTION('',(-2.16164919124835E-16,0.,1.));
#715=DIRECTION('',(0.,-1.,0.));
#716=DIRECTION('',(-1.,0.,0.));
#717=DIRECTION('',(1.,0.,2.16164919124835E-16));
#718=DIRECTION('',(-2.16164919124835E-16,0.,1.));
#719=DIRECTION('',(0.,-1.,0.));
#720=DIRECTION('',(-1.,0.,0.));
#721=DIRECTION('',(-2.16164919124835E-16,0.,1.));
#722=DIRECTION('',(0.,-1.,0.));
#723=DIRECTION('',(-1.,0.,0.));
#724=DIRECTION('',(-2.16164919124835E-16,0.,1.));
#725=DIRECTION('',(1.,0.,2.16164919124835E-16));
#726=DIRECTION('',(-2.16164919124835E-16,0.,1.));
#727=DIRECTION('',(-2.16164919124835E-16,0.,1.));
#728=DIRECTION('',(1.,0.,2.16164919124835E-16));
#729=DIRECTION('',(-2.16164919124835E-16,0.,1.));
#730=DIRECTION('',(1.,0.,2.16164919124835E-16));
#731=DIRECTION('',(-1.,0.,-2.16164919124835E-16));
#732=DIRECTION('',(-2.16164919124835E-16,0.,1.));
#733=DIRECTION('',(0.,-1.,0.));
#734=DIRECTION('',(0.,-1.,0.));
#735=DIRECTION('',(-2.16164919124835E-16,0.,1.));
#736=DIRECTION('',(1.,0.,2.16164919124835E-16));
#737=DIRECTION('',(0.,-1.,0.));
#738=DIRECTION('',(-2.16164919124835E-16,0.,1.));
#739=DIRECTION('',(1.,0.,2.16164919124835E-16));
#740=DIRECTION('',(1.,0.,2.16164919124835E-16));
#741=DIRECTION('',(0.,1.,0.));
#742=DIRECTION('',(-2.16164919124835E-16,0.,1.));
#743=DIRECTION('',(1.,0.,2.16164919124835E-16));
#744=DIRECTION('',(0.,-1.,0.));
#745=DIRECTION('',(1.,0.,2.16164919124835E-16));
#746=DIRECTION('',(0.,-1.,0.));
#747=DIRECTION('',(-2.16164919124835E-16,0.,1.));
#748=DIRECTION('',(-0.95,-0.312249899919917,-3.46944695195361E-16));
#749=DIRECTION('',(1.,0.,2.16164919124835E-16));
#750=DIRECTION('',(-2.16164919124835E-16,0.,1.));
#751=DIRECTION('',(0.172342472059753,-0.985037091852045,0.));
#752=DIRECTION('',(1.,0.,2.16164919124835E-16));
#753=DIRECTION('',(-2.16164919124835E-16,0.,1.));
#754=DIRECTION('',(1.,0.,2.16164919124835E-16));
#755=DIRECTION('',(0.969470723531656,0.245207088427329,2.09565560546116E-16));
#756=DIRECTION('',(1.,0.,2.16164919124835E-16));
#757=DIRECTION('',(-0.969470723531656,0.245207088427329,-2.09565560546116E-16));
#758=DIRECTION('',(-2.16164919124835E-16,0.,1.));
#759=DIRECTION('',(-0.245207088427326,0.969470723531656,0.));
#760=DIRECTION('',(-0.969470723531656,-0.24520708842733,-2.09565560546116E-16));
#761=DIRECTION('',(1.,0.,2.16164919124835E-16));
#762=DIRECTION('',(0.969470723531656,-0.245207088427329,2.09565560546116E-16));
#763=DIRECTION('',(2.16164919124835E-16,0.,-1.));
#764=DIRECTION('',(0.245207088427327,0.969470723531656,0.));
#765=DIRECTION('',(0.,1.,0.));
#766=DIRECTION('',(1.,0.,0.));
#767=DIRECTION('',(0.,-1.,0.));
#768=DIRECTION('',(-1.,0.,0.));
#769=DIRECTION('',(0.,1.,0.));
#770=DIRECTION('',(1.,0.,0.));
#771=DIRECTION('',(0.,-1.,0.));
#772=DIRECTION('',(-1.,0.,0.));
#773=DIRECTION('',(0.,1.,0.));
#774=DIRECTION('',(1.,0.,0.));
#775=DIRECTION('',(0.,1.,0.));
#776=DIRECTION('',(1.,0.,0.));
#777=DIRECTION('',(1.,0.,2.16164919124835E-16));
#778=DIRECTION('',(2.16164919124835E-16,0.,-1.));
#779=DIRECTION('',(-1.,0.,0.));
#780=DIRECTION('',(0.,1.,0.));
#781=DIRECTION('',(-2.16164919124835E-16,0.,1.));
#782=DIRECTION('',(1.,0.,2.16164919124835E-16));
#783=DIRECTION('',(0.,-1.,0.));
#784=DIRECTION('',(-1.,0.,0.));
#785=DIRECTION('',(0.,1.,0.));
#786=DIRECTION('',(1.,0.,0.));
#787=DIRECTION('',(-1.,0.,-2.16164919124835E-16));
#788=DIRECTION('',(-2.16164919124835E-16,0.,1.));
#789=DIRECTION('',(-1.,0.,0.));
#790=DIRECTION('',(0.,1.,0.));
#791=DIRECTION('',(-2.16164919124835E-16,0.,1.));
#792=DIRECTION('',(1.,0.,2.16164919124835E-16));
#793=DIRECTION('',(0.,-1.,0.));
#794=DIRECTION('',(-1.,0.,0.));
#795=DIRECTION('',(0.,-1.,0.));
#796=DIRECTION('',(-1.,0.,0.));
#797=DIRECTION('',(0.707106781186548,-0.707106781186548,1.52851680167813E-16));
#798=DIRECTION('',(-0.707106781186548,-0.707106781186548,-1.52851680167813E-16));
#799=DIRECTION('',(1.,0.,2.16164919124835E-16));
#800=DIRECTION('',(2.16164919124835E-16,0.,-1.));
#801=DIRECTION('',(-1.,0.,-2.16164919124835E-16));
#802=DIRECTION('',(-2.16164919124835E-16,0.,1.));
#803=DIRECTION('',(0.,-1.,0.));
#804=DIRECTION('',(-1.,0.,0.));
#805=DIRECTION('',(-2.16164919124835E-16,0.,1.));
#806=DIRECTION('',(1.,0.,2.16164919124835E-16));
#807=DIRECTION('',(-2.16164919124835E-16,0.,1.));
#808=DIRECTION('',(-2.16164919124835E-16,0.,1.));
#809=DIRECTION('',(1.,0.,2.16164919124835E-16));
#810=DIRECTION('',(-2.16164919124835E-16,0.,1.));
#811=DIRECTION('',(0.172342472059753,-0.985037091852045,0.));
#812=DIRECTION('',(-1.,0.,-2.16164919124835E-16));
#813=DIRECTION('',(-2.16164919124835E-16,0.,1.));
#814=DIRECTION('',(0.,-1.,0.));
#815=DIRECTION('',(-2.16164919124835E-16,0.,1.));
#816=DIRECTION('',(0.245207088427329,-0.969470723531656,5.300517043873E-17));
#817=DIRECTION('',(-0.969470723531656,-0.245207088427329,0.));
#818=DIRECTION('',(-2.16164919124835E-16,0.,1.));
#819=DIRECTION('',(0.969470723531656,0.245207088427329,2.09565560546116E-16));
#820=DIRECTION('',(-2.16164919124835E-16,0.,1.));
#821=DIRECTION('',(0.,-1.,0.));
#822=DIRECTION('',(-1.,0.,0.));
#823=DIRECTION('',(1.,0.,2.16164919124835E-16));
#824=DIRECTION('',(-2.16164919124835E-16,0.,1.));
#825=DIRECTION('',(0.245207088427329,0.969470723531656,5.30051704387301E-17));
#826=DIRECTION('',(0.969470723531656,-0.245207088427329,0.));
#827=DIRECTION('',(-0.969470723531656,0.245207088427329,-2.09565560546116E-16));
#828=DIRECTION('',(-2.16164919124835E-16,0.,1.));
#829=DIRECTION('',(-2.16164919124835E-16,0.,1.));
#830=DIRECTION('',(1.,0.,2.16164919124835E-16));
#831=DIRECTION('',(-2.16164919124835E-16,0.,1.));
#832=DIRECTION('',(-0.245207088427326,0.969470723531656,0.));
#833=DIRECTION('',(-2.16164919124835E-16,0.,1.));
#834=DIRECTION('',(-0.24520708842733,0.969470723531656,-5.30051704387302E-17));
#835=DIRECTION('',(0.969470723531656,0.24520708842733,0.));
#836=DIRECTION('',(-0.969470723531656,-0.24520708842733,-2.09565560546116E-16));
#837=DIRECTION('',(-2.16164919124835E-16,0.,1.));
#838=DIRECTION('',(0.,-1.,0.));
#839=DIRECTION('',(-1.,0.,0.));
#840=DIRECTION('',(1.,0.,2.16164919124835E-16));
#841=DIRECTION('',(-2.16164919124835E-16,0.,1.));
#842=DIRECTION('',(-0.245207088427329,-0.969470723531656,-5.30051704387301E-17));
#843=DIRECTION('',(-0.969470723531656,0.245207088427329,0.));
#844=DIRECTION('',(0.969470723531656,-0.245207088427329,2.09565560546116E-16));
#845=DIRECTION('',(-2.16164919124835E-16,0.,1.));
#846=DIRECTION('',(-2.16164919124835E-16,0.,1.));
#847=DIRECTION('',(1.,0.,2.16164919124835E-16));
#848=DIRECTION('',(2.16164919124835E-16,0.,-1.));
#849=DIRECTION('',(0.245207088427327,0.969470723531656,0.));
#850=DIRECTION('',(-2.16164919124835E-16,0.,1.));
#851=DIRECTION('',(1.,0.,2.16164919124835E-16));
#852=DIRECTION('',(-2.16164919124835E-16,0.,1.));
#853=DIRECTION('',(-0.95,-0.312249899919917,-3.46944695195361E-16));
#854=DIRECTION('',(-2.16164919124835E-16,0.,1.));
#855=DIRECTION('',(1.,0.,2.16164919124835E-16));
#856=DIRECTION('',(-2.16164919124835E-16,0.,1.));
#857=DIRECTION('',(1.,0.,0.));
#858=DIRECTION('',(-2.16164919124835E-16,0.,1.));
#859=DIRECTION('',(1.,0.,0.));
#860=DIRECTION('',(-2.16164919124835E-16,0.,1.));
#861=DIRECTION('',(1.,0.,2.16164919124835E-16));
#862=DIRECTION('',(-2.16164919124835E-16,0.,1.));
#863=DIRECTION('',(1.,0.,0.));
#864=DIRECTION('',(-2.16164919124835E-16,0.,1.));
#865=DIRECTION('',(1.,0.,0.));
#866=DIRECTION('',(-2.16164919124835E-16,0.,1.));
#867=DIRECTION('',(1.,0.,2.16164919124835E-16));
#868=DIRECTION('',(0.,-1.,0.));
#869=DIRECTION('',(-2.16164919124835E-16,0.,1.));
#870=DIRECTION('',(1.,0.,2.16164919124835E-16));
#871=DIRECTION('',(0.,1.,0.));
#872=DIRECTION('',(1.,0.,0.));
#873=CARTESIAN_POINT('',(0.,0.,0.));
#874=CARTESIAN_POINT('',(0.0328,0.0556,-0.00555));
#875=CARTESIAN_POINT('',(0.03255,0.0556,0.0032401495569464));
#876=CARTESIAN_POINT('',(0.030299848572636,0.0556,0.0032401495569464));
#877=CARTESIAN_POINT('',(0.03255,0.0556,0.0194901495569464));
#878=CARTESIAN_POINT('',(0.0302998485726358,0.0556,0.0194901495569464));
#879=CARTESIAN_POINT('',(0.0328,0.0556,-0.00555));
#880=CARTESIAN_POINT('',(0.0285,0.0556,-0.00555));
#881=CARTESIAN_POINT('',(0.0387366465496901,0.0556,-0.00555));
#882=CARTESIAN_POINT('',(0.0716,0.0556,-0.00855));
#883=CARTESIAN_POINT('',(0.0716,0.0556,0.02445));
#884=CARTESIAN_POINT('',(0.0174722473263741,0.0556,0.02445));
#885=CARTESIAN_POINT('',(0.0386,0.0556,0.02445));
#886=CARTESIAN_POINT('',(0.0386,0.0556,-0.00555));
#887=CARTESIAN_POINT('',(0.0386,0.0556,0.02845));
#888=CARTESIAN_POINT('',(0.0328,0.0556,0.02845));
#889=CARTESIAN_POINT('',(0.0275,0.0556,0.02845));
#890=CARTESIAN_POINT('',(0.0275,0.0556,-0.00555));
#891=CARTESIAN_POINT('',(0.0275,0.0556,-0.00455));
#892=CARTESIAN_POINT('',(0.0285,0.0556,-0.00455));
#893=CARTESIAN_POINT('',(0.0338,0.06037,-0.00555));
#894=CARTESIAN_POINT('',(0.0295,0.06037,-0.00555));
#895=CARTESIAN_POINT('',(0.0295,0.06037,0.0214954189759246));
#896=CARTESIAN_POINT('',(0.0295,0.06037,0.02845));
#897=CARTESIAN_POINT('',(0.0386,0.06037,0.02845));
#898=CARTESIAN_POINT('',(0.0656756792242971,0.06037,0.02845));
#899=CARTESIAN_POINT('',(0.0656756792242971,0.06037,0.02695));
#900=CARTESIAN_POINT('',(0.0656756792242971,0.06037,0.0239138633459818));
#901=CARTESIAN_POINT('',(0.0716,0.06037,-0.00855));
#902=CARTESIAN_POINT('',(0.0388433212916817,0.06037,-0.00455));
#903=CARTESIAN_POINT('',(0.0338,0.06037,-0.00455));
#904=CARTESIAN_POINT('',(0.0295,0.06037,-0.00455));
#905=CARTESIAN_POINT('',(0.0295,0.06037,-0.00555));
#906=CARTESIAN_POINT('',(0.0295,0.06037,0.00123488013796857));
#907=CARTESIAN_POINT('',(0.03255,0.06037,0.0032401495569464));
#908=CARTESIAN_POINT('',(0.0295,0.06037,0.00524541897592424));
#909=CARTESIAN_POINT('',(0.0295,0.06037,-0.00555));
#910=CARTESIAN_POINT('',(0.0295,0.06037,0.0174848801379682));
#911=CARTESIAN_POINT('',(0.03255,0.06037,0.0194901495569464));
#912=CARTESIAN_POINT('',(0.0295,0.05837,-0.00555));
#913=CARTESIAN_POINT('',(0.0275,0.05837,-0.00555));
#914=CARTESIAN_POINT('',(0.0275,0.05837,-0.00455));
#915=CARTESIAN_POINT('',(0.0275,0.05837,0.02845));
#916=CARTESIAN_POINT('',(0.0295,0.05837,0.02845));
#917=CARTESIAN_POINT('',(0.0295,0.06037,0.0214954189759246));
#918=CARTESIAN_POINT('',(0.0291094375451547,0.06037,0.0209013763619973));
#919=CARTESIAN_POINT('',(0.028832560880251,0.0602275760247689,0.0194921951899748));
#920=CARTESIAN_POINT('',(0.0291096834179736,0.06037,0.0180785487811508));
#921=CARTESIAN_POINT('',(0.0295,0.06037,0.0174848801379682));
#922=CARTESIAN_POINT('',(0.0295,0.06037,0.00524541897592424));
#923=CARTESIAN_POINT('',(0.0291094375451548,0.06037,0.00465137636199703));
#924=CARTESIAN_POINT('',(0.0288325608802512,0.060227576024769,0.00324219518997483));
#925=CARTESIAN_POINT('',(0.0291096834179737,0.06037,0.00182854878115114));
#926=CARTESIAN_POINT('',(0.0295,0.06037,0.00123488013796857));
#927=CARTESIAN_POINT('',(0.0295,0.05837,-0.00455));
#928=CARTESIAN_POINT('',(0.0275,0.056985,-0.00555));
#929=CARTESIAN_POINT('',(0.0275,0.056985,0.02845));
#930=CARTESIAN_POINT('',(0.0275,0.0556,-0.00455));
#931=CARTESIAN_POINT('',(0.0174722473263741,0.060715,-0.00555));
#932=CARTESIAN_POINT('',(0.0285,0.05837,-0.00555));
#933=CARTESIAN_POINT('',(0.0285,0.05837,-0.00555));
#934=CARTESIAN_POINT('',(0.0295,0.05837,-0.00555));
#935=CARTESIAN_POINT('',(0.0295,0.05937,-0.00555));
#936=CARTESIAN_POINT('',(0.0174722473263741,0.05937,-0.00555));
#937=CARTESIAN_POINT('',(0.0387366465496901,0.05937,-0.00555));
#938=CARTESIAN_POINT('',(0.0387366465496901,0.057485,-0.00555));
#939=CARTESIAN_POINT('',(0.0174722473263741,0.060715,0.02945));
#940=CARTESIAN_POINT('',(0.0285,0.060715,0.02945));
#941=CARTESIAN_POINT('',(0.0285,0.05837,0.02945));
#942=CARTESIAN_POINT('',(0.0285,0.0566,0.02945));
#943=CARTESIAN_POINT('',(0.0174722473263741,0.0566,0.02945));
#944=CARTESIAN_POINT('',(0.0386,0.0566,0.02945));
#945=CARTESIAN_POINT('',(0.0386,0.057985,0.02945));
#946=CARTESIAN_POINT('',(0.0386,0.0497075010008008,0.02945));
#947=CARTESIAN_POINT('',(0.0481,0.05283,0.02945));
#948=CARTESIAN_POINT('',(0.0481,0.04283,0.02945));
#949=CARTESIAN_POINT('',(0.0568878396121485,0.04283,0.02945));
#950=CARTESIAN_POINT('',(0.065675679224297,0.04283,0.02945));
#951=CARTESIAN_POINT('',(0.0641412766190894,0.0516,0.02945));
#952=CARTESIAN_POINT('',(0.0684880445396101,0.05937,0.02945));
#953=CARTESIAN_POINT('',(0.0295,0.05937,0.02945));
#954=CARTESIAN_POINT('',(0.0295,0.05937,0.02945));
#955=CARTESIAN_POINT('',(0.0295,0.05837,0.02945));
#956=CARTESIAN_POINT('',(0.0619050892887231,0.0462836908720538,0.02945));
#957=CARTESIAN_POINT('',(0.058134499353149,0.04533,0.02945));
#958=CARTESIAN_POINT('',(0.0656756792242971,0.0472373817441075,0.02945));
#959=CARTESIAN_POINT('',(0.0555722473263741,0.04533,0.02945));
#960=CARTESIAN_POINT('',(0.0530099952995992,0.04533,0.02945));
#961=CARTESIAN_POINT('',(0.0492394053640252,0.0462836908720538,0.02945));
#962=CARTESIAN_POINT('',(0.0454688154284511,0.0472373817441075,0.02945));
#963=CARTESIAN_POINT('',(0.0465722473263741,0.0516,0.02945));
#964=CARTESIAN_POINT('',(0.0454688154284512,0.0559626182558925,0.02945));
#965=CARTESIAN_POINT('',(0.0492394053640252,0.0569163091279462,0.02945));
#966=CARTESIAN_POINT('',(0.0530099952995992,0.05787,0.02945));
#967=CARTESIAN_POINT('',(0.0555722473263741,0.05787,0.02945));
#968=CARTESIAN_POINT('',(0.058134499353149,0.05787,0.02945));
#969=CARTESIAN_POINT('',(0.0619050892887231,0.0569163091279462,0.02945));
#970=CARTESIAN_POINT('',(0.0656756792242971,0.0559626182558925,0.02945));
#971=CARTESIAN_POINT('',(0.0645722473263741,0.0516,0.02945));
#972=CARTESIAN_POINT('',(0.03255,0.03537,0.0194901495569464));
#973=CARTESIAN_POINT('',(0.03255,0.05897,0.0194901495569464));
#974=CARTESIAN_POINT('',(0.0302998485726358,0.05897,0.0194901495569464));
#975=CARTESIAN_POINT('',(0.03255,0.03537,0.0032401495569464));
#976=CARTESIAN_POINT('',(0.03255,0.05897,0.0032401495569464));
#977=CARTESIAN_POINT('',(0.030299848572636,0.05897,0.0032401495569464));
#978=CARTESIAN_POINT('',(0.03255,0.05897,0.0194901495569464));
#979=CARTESIAN_POINT('',(0.03255,0.05897,0.0032401495569464));
#980=CARTESIAN_POINT('',(0.0174722473263741,0.05937,-0.00455));
#981=CARTESIAN_POINT('',(0.0388433212916817,0.06037,-0.00455));
#982=CARTESIAN_POINT('',(0.0388112147172004,0.06037,-0.00481292618617657));
#983=CARTESIAN_POINT('',(0.0387557609828939,0.060154630025841,-0.00532986505327675));
#984=CARTESIAN_POINT('',(0.0387366465496901,0.0596349261548174,-0.00555));
#985=CARTESIAN_POINT('',(0.0387366465496901,0.05937,-0.00555));
#986=CARTESIAN_POINT('',(0.0295,0.05937,-0.00455));
#987=CARTESIAN_POINT('',(0.0295,0.05837,-0.00455));
#988=CARTESIAN_POINT('',(0.0285,0.05837,-0.00455));
#989=CARTESIAN_POINT('',(0.0285,0.056985,-0.00455));
#990=CARTESIAN_POINT('',(0.0338,0.05937,0.02845));
#991=CARTESIAN_POINT('',(0.0656756792242971,0.06037,0.02845));
#992=CARTESIAN_POINT('',(0.0656756792242971,0.06037,0.0285200541760845));
#993=CARTESIAN_POINT('',(0.0657596716147968,0.0603553536629998,0.028640355826887));
#994=CARTESIAN_POINT('',(0.0659793977676408,0.0603127626753584,0.0287970294643726));
#995=CARTESIAN_POINT('',(0.0662796652193323,0.0602453758279479,0.0289445723099745));
#996=CARTESIAN_POINT('',(0.0666497702592818,0.0601454524716086,0.0290890938536176));
#997=CARTESIAN_POINT('',(0.0671451405524053,0.0599882527641522,0.0292495808043532));
#998=CARTESIAN_POINT('',(0.0677598967406046,0.0597479919720993,0.0293974765730004));
#999=CARTESIAN_POINT('',(0.0682492233332233,0.0595036036497635,0.02945));
#1000=CARTESIAN_POINT('',(0.0684880445396101,0.05937,0.02945));
#1001=CARTESIAN_POINT('',(0.0295,0.05937,0.02845));
#1002=CARTESIAN_POINT('',(0.0295,0.05837,0.02845));
#1003=CARTESIAN_POINT('',(0.0285,0.05837,0.02845));
#1004=CARTESIAN_POINT('',(0.0285,0.060715,0.02845));
#1005=CARTESIAN_POINT('',(0.0285,0.0566,0.02845));
#1006=CARTESIAN_POINT('',(0.0174722473263741,0.0566,0.02845));
#1007=CARTESIAN_POINT('',(0.0386,0.0566,0.02845));
#1008=CARTESIAN_POINT('',(0.0568878396121485,0.04283,0.02695));
#1009=CARTESIAN_POINT('',(0.0481,0.04283,0.02695));
#1010=CARTESIAN_POINT('',(0.0481,0.04283,0.02445));
#1011=CARTESIAN_POINT('',(0.0568878396121485,0.04283,0.02445));
#1012=CARTESIAN_POINT('',(0.065675679224297,0.04283,0.02445));
#1013=CARTESIAN_POINT('',(0.065675679224297,0.04283,0.02695));
#1014=CARTESIAN_POINT('',(0.0641412766190894,0.0516,0.02695));
#1015=CARTESIAN_POINT('',(0.0641412766190894,0.0516,0.02445));
#1016=CARTESIAN_POINT('',(0.0716,0.056461557042957,0.02445));
#1017=CARTESIAN_POINT('',(0.0716,0.056461557042957,0.02445));
#1018=CARTESIAN_POINT('',(0.0709274993045184,0.0574933245645032,0.02445));
#1019=CARTESIAN_POINT('',(0.0691717483336456,0.0592478274314925,0.024409463605741));
#1020=CARTESIAN_POINT('',(0.0668699125443219,0.0601610564746326,0.0241317986296988));
#1021=CARTESIAN_POINT('',(0.0656756792242972,0.06037,0.0239138633459818));
#1022=CARTESIAN_POINT('',(0.0386,0.057985,0.02695));
#1023=CARTESIAN_POINT('',(0.0386,0.057985,0.02445));
#1024=CARTESIAN_POINT('',(0.0386,0.0497075010008008,0.02445));
#1025=CARTESIAN_POINT('',(0.0386,0.0497075010008008,0.02695));
#1026=CARTESIAN_POINT('',(0.0619050892887231,0.0462836908720538,0.02695));
#1027=CARTESIAN_POINT('',(0.0656756792242971,0.0472373817441075,0.02695));
#1028=CARTESIAN_POINT('',(0.0656756792242971,0.0472373817441075,0.02695));
#1029=CARTESIAN_POINT('',(0.0619050892887231,0.0462836908720538,0.02695));
#1030=CARTESIAN_POINT('',(0.058134499353149,0.04533,0.02695));
#1031=CARTESIAN_POINT('',(0.058134499353149,0.04533,0.02695));
#1032=CARTESIAN_POINT('',(0.0555722473263741,0.04533,0.02695));
#1033=CARTESIAN_POINT('',(0.0555722473263741,0.04533,0.02695));
#1034=CARTESIAN_POINT('',(0.0530099952995992,0.04533,0.02695));
#1035=CARTESIAN_POINT('',(0.0530099952995992,0.04533,0.02695));
#1036=CARTESIAN_POINT('',(0.0492394053640252,0.0462836908720538,0.02695));
#1037=CARTESIAN_POINT('',(0.0492394053640252,0.0462836908720538,0.02695));
#1038=CARTESIAN_POINT('',(0.0454688154284511,0.0472373817441075,0.02695));
#1039=CARTESIAN_POINT('',(0.0454688154284511,0.0472373817441075,0.02695));
#1040=CARTESIAN_POINT('',(0.0465722473263741,0.0516,0.02695));
#1041=CARTESIAN_POINT('',(0.0465722473263741,0.0516,0.02695));
#1042=CARTESIAN_POINT('',(0.0454688154284512,0.0559626182558925,0.02695));
#1043=CARTESIAN_POINT('',(0.0454688154284512,0.0559626182558925,0.02695));
#1044=CARTESIAN_POINT('',(0.0492394053640252,0.0569163091279462,0.02695));
#1045=CARTESIAN_POINT('',(0.0492394053640252,0.0569163091279462,0.02695));
#1046=CARTESIAN_POINT('',(0.0530099952995992,0.05787,0.02695));
#1047=CARTESIAN_POINT('',(0.0530099952995992,0.05787,0.02695));
#1048=CARTESIAN_POINT('',(0.0555722473263741,0.05787,0.02695));
#1049=CARTESIAN_POINT('',(0.0555722473263741,0.05787,0.02695));
#1050=CARTESIAN_POINT('',(0.058134499353149,0.05787,0.02695));
#1051=CARTESIAN_POINT('',(0.058134499353149,0.05787,0.02695));
#1052=CARTESIAN_POINT('',(0.0619050892887231,0.0569163091279462,0.02695));
#1053=CARTESIAN_POINT('',(0.0619050892887231,0.0569163091279462,0.02695));
#1054=CARTESIAN_POINT('',(0.0656756792242971,0.0559626182558925,0.02695));
#1055=CARTESIAN_POINT('',(0.0656756792242971,0.0559626182558925,0.02695));
#1056=CARTESIAN_POINT('',(0.0645722473263741,0.0516,0.02695));
#1057=CARTESIAN_POINT('',(0.0645722473263741,0.0516,0.02695));
#1058=CARTESIAN_POINT('',(0.0481,0.05283,0.02695));
#1059=CARTESIAN_POINT('',(0.0481,0.05283,0.02445));
#1060=CARTESIAN_POINT('',(0.0465722473263741,0.0516,0.02445));
#1061=CARTESIAN_POINT('',(0.0465722473263741,0.0516,0.02445));
#1062=CARTESIAN_POINT('',(0.0483222473263741,0.0516,0.02445));
#1063=CARTESIAN_POINT('',(0.0465722473263741,0.0516,0.02695));
#1064=CARTESIAN_POINT('',(0.0483222473263741,0.0516,0.02695));
#1065=CARTESIAN_POINT('',(0.0645722473263741,0.0516,0.02445));
#1066=CARTESIAN_POINT('',(0.0645722473263741,0.0516,0.02445));
#1067=CARTESIAN_POINT('',(0.0663222473263741,0.0516,0.02445));
#1068=CARTESIAN_POINT('',(0.0645722473263741,0.0516,0.02695));
#1069=CARTESIAN_POINT('',(0.0663222473263741,0.0516,0.02695));
#1070=CARTESIAN_POINT('',(0.0174722473263741,0.060715,0.02445));
#1071=CARTESIAN_POINT('',(0.0716,0.06037,0.02445));
#1072=CARTESIAN_POINT('',(0.0174722473263741,0.060715,0.02695));
#1073=CARTESIAN_POINT('',(0.0716,0.057985,-0.00855));
#1074=MECHANICAL_DESIGN_GEOMETRIC_PRESENTATION_REPRESENTATION('',(#616),
#1075);
#1075=(
GEOMETRIC_REPRESENTATION_CONTEXT(3)
GLOBAL_UNCERTAINTY_ASSIGNED_CONTEXT((#1076))
GLOBAL_UNIT_ASSIGNED_CONTEXT((#1079,#1078,#1077))
REPRESENTATION_CONTEXT('BLTouch-V3','TOP_LEVEL_ASSEMBLY_PART')
);
#1076=UNCERTAINTY_MEASURE_WITH_UNIT(LENGTH_MEASURE(2.E-5),#1079,
'DISTANCE_ACCURACY_VALUE','Maximum Tolerance applied to model');
#1077=(
NAMED_UNIT(*)
SI_UNIT($,.STERADIAN.)
SOLID_ANGLE_UNIT()
);
#1078=(
NAMED_UNIT(*)
PLANE_ANGLE_UNIT()
SI_UNIT($,.RADIAN.)
);
#1079=(
LENGTH_UNIT()
NAMED_UNIT(*)
SI_UNIT($,.METRE.)
);
#1080=PRODUCT_DEFINITION_SHAPE('','',#1081);
#1081=PRODUCT_DEFINITION('','',#1083,#1082);
#1082=PRODUCT_DEFINITION_CONTEXT('',#1089,'design');
#1083=PRODUCT_DEFINITION_FORMATION_WITH_SPECIFIED_SOURCE('','',#1085,
 .NOT_KNOWN.);
#1084=PRODUCT_RELATED_PRODUCT_CATEGORY('','',(#1085));
#1085=PRODUCT('BLTouch-V3','BLTouch-V3','BLTouch-V3',(#1087));
#1086=PRODUCT_CATEGORY('','');
#1087=PRODUCT_CONTEXT('',#1089,'mechanical');
#1088=APPLICATION_PROTOCOL_DEFINITION('international standard',
'ap242_managed_model_based_3d_engineering',2020,#1089);
#1089=APPLICATION_CONTEXT('managed model based 3d engineering');
ENDSEC;
END-ISO-10303-21;
