ISO-10303-21;
HEADER;
/* Generated by software containing ST-Developer
 * from STEP Tools, Inc. (www.steptools.com) 
 */
/* OPTION: using custom renumber hook */

FILE_DESCRIPTION(
/* description */ ('STEP AP242 Edition 2',
'CAx-IF Rec.Pracs.---Representation and Presentation of Product Manufa
cturing Information (PMI)---4.0---2014-10-13',
'CAx-IF Rec.Pracs.---3D Tessellated Geometry---0.4---2014-09-14','2;1',
'CAx-IF Rec.Pracs.---User Defined Attributes---1.5---2016-08-15'),
/* implementation_level */ '2;1');

FILE_NAME(
/* name */ 'spindle-mount-BLTouch-mount - BLTouch-V3',
/* time_stamp */ '2026-10-03T12:19:27Z',
/* author */ (''),
/* organization */ (''),
/* preprocessor_version */ 'ST-DEVELOPER v20',
/* originating_system */ 'ONSHAPE BY PTC INC, 1.221',
/* authorisation */ '  ');

FILE_SCHEMA (('AP242_MANAGED_MODEL_BASED_3D_ENGINEERING_MIM_LF { 1 0 10303 442 3 1 4 }'));
ENDSEC;

DATA;
#10=SHAPE_REPRESENTATION_RELATIONSHIP('','',#716,#11);
#11=ADVANCED_BREP_SHAPE_REPRESENTATION('',(#714),#1217);
#12=ELLIPSE('',#764,0.00141421356237309,0.001);
#13=TOROIDAL_SURFACE('',#756,0.001,0.001);
#14=TOROIDAL_SURFACE('',#761,0.001,0.001);
#15=CONICAL_SURFACE('',#752,0.00225015142736424,0.785398163397448);
#16=CONICAL_SURFACE('',#753,0.00225015142736403,0.785398163397448);
#17=B_SPLINE_CURVE_WITH_KNOTS('',3,(#1067,#1068,#1069,#1070,#1071),
 .UNSPECIFIED.,.F.,.F.,(4,1,4),(0.,0.00209698516921066,0.00419397033842132),
 .UNSPECIFIED.);
#18=B_SPLINE_CURVE_WITH_KNOTS('',3,(#1072,#1073,#1074,#1075,#1076),
 .UNSPECIFIED.,.F.,.F.,(4,1,4),(0.,0.00209698516921026,0.00419397033842053),
 .UNSPECIFIED.);
#19=B_SPLINE_CURVE_WITH_KNOTS('',3,(#1131,#1132,#1133,#1134,#1135),
 .UNSPECIFIED.,.F.,.F.,(4,1,4),(0.,0.000783414247540036,0.00156682849508007),
 .UNSPECIFIED.);
#20=B_SPLINE_CURVE_WITH_KNOTS('',3,(#1141,#1142,#1143,#1144,#1145,#1146,
#1147,#1148,#1149,#1150),.UNSPECIFIED.,.F.,.F.,(4,1,1,1,1,1,1,4),(0.,0.000206655114680084,
0.000413310229360168,0.000826620458720336,0.0012399306880805,0.00165324091744067,
0.00247986137616101,0.00330648183488134),.UNSPECIFIED.);
#21=B_SPLINE_CURVE_WITH_KNOTS('',3,(#1162,#1163,#1164,#1165,#1166),
 .UNSPECIFIED.,.F.,.F.,(4,1,4),(0.,0.00364297252153107,0.00728594504306214),
 .UNSPECIFIED.);
#22=PLANE('',#724);
#23=PLANE('',#727);
#24=PLANE('',#732);
#25=PLANE('',#739);
#26=PLANE('',#740);
#27=PLANE('',#742);
#28=PLANE('',#767);
#29=PLANE('',#769);
#30=PLANE('',#770);
#31=PLANE('',#771);
#32=PLANE('',#772);
#33=PLANE('',#775);
#34=PLANE('',#776);
#35=PLANE('',#777);
#36=PLANE('',#781);
#37=PLANE('',#783);
#38=PLANE('',#784);
#39=PLANE('',#785);
#40=PLANE('',#786);
#41=CIRCLE('',#719,0.00175);
#42=CIRCLE('',#720,0.00175);
#43=CIRCLE('',#722,0.00175);
#44=CIRCLE('',#723,0.00175);
#45=CIRCLE('',#725,0.00890321803365885);
#46=CIRCLE('',#726,0.01);
#47=CIRCLE('',#728,0.00225015142736403);
#48=CIRCLE('',#729,0.00225015142736424);
#49=CIRCLE('',#730,0.033);
#50=CIRCLE('',#731,0.001);
#51=CIRCLE('',#733,0.033);
#52=CIRCLE('',#734,0.00365015142736403);
#53=CIRCLE('',#735,0.00365015142736423);
#54=CIRCLE('',#737,0.002);
#55=CIRCLE('',#738,0.002);
#56=CIRCLE('',#741,0.001);
#57=CIRCLE('',#743,0.01);
#58=CIRCLE('',#744,0.00890321803365885);
#59=CIRCLE('',#745,0.001);
#60=CIRCLE('',#746,0.0045);
#61=CIRCLE('',#747,0.0045);
#62=CIRCLE('',#749,0.00225015142736424);
#63=CIRCLE('',#751,0.00225015142736403);
#64=CIRCLE('',#755,0.001);
#65=CIRCLE('',#757,0.001);
#66=CIRCLE('',#760,0.001);
#67=CIRCLE('',#762,0.001);
#68=CIRCLE('',#766,0.001);
#69=CIRCLE('',#774,0.0045);
#70=CIRCLE('',#779,0.0045);
#71=ORIENTED_EDGE('',*,*,#267,.F.);
#72=ORIENTED_EDGE('',*,*,#268,.F.);
#73=ORIENTED_EDGE('',*,*,#269,.F.);
#74=ORIENTED_EDGE('',*,*,#270,.T.);
#75=ORIENTED_EDGE('',*,*,#271,.F.);
#76=ORIENTED_EDGE('',*,*,#272,.F.);
#77=ORIENTED_EDGE('',*,*,#273,.F.);
#78=ORIENTED_EDGE('',*,*,#274,.T.);
#79=ORIENTED_EDGE('',*,*,#275,.F.);
#80=ORIENTED_EDGE('',*,*,#272,.T.);
#81=ORIENTED_EDGE('',*,*,#276,.T.);
#82=ORIENTED_EDGE('',*,*,#277,.F.);
#83=ORIENTED_EDGE('',*,*,#278,.T.);
#84=ORIENTED_EDGE('',*,*,#279,.T.);
#85=ORIENTED_EDGE('',*,*,#280,.F.);
#86=ORIENTED_EDGE('',*,*,#281,.F.);
#87=ORIENTED_EDGE('',*,*,#282,.F.);
#88=ORIENTED_EDGE('',*,*,#283,.F.);
#89=ORIENTED_EDGE('',*,*,#268,.T.);
#90=ORIENTED_EDGE('',*,*,#284,.T.);
#91=ORIENTED_EDGE('',*,*,#285,.F.);
#92=ORIENTED_EDGE('',*,*,#286,.F.);
#93=ORIENTED_EDGE('',*,*,#287,.T.);
#94=ORIENTED_EDGE('',*,*,#288,.T.);
#95=ORIENTED_EDGE('',*,*,#278,.F.);
#96=ORIENTED_EDGE('',*,*,#289,.T.);
#97=ORIENTED_EDGE('',*,*,#290,.T.);
#98=ORIENTED_EDGE('',*,*,#291,.F.);
#99=ORIENTED_EDGE('',*,*,#292,.T.);
#100=ORIENTED_EDGE('',*,*,#293,.T.);
#101=ORIENTED_EDGE('',*,*,#294,.T.);
#102=ORIENTED_EDGE('',*,*,#295,.F.);
#103=ORIENTED_EDGE('',*,*,#296,.T.);
#104=ORIENTED_EDGE('',*,*,#297,.T.);
#105=ORIENTED_EDGE('',*,*,#298,.T.);
#106=ORIENTED_EDGE('',*,*,#299,.T.);
#107=ORIENTED_EDGE('',*,*,#300,.T.);
#108=ORIENTED_EDGE('',*,*,#301,.T.);
#109=ORIENTED_EDGE('',*,*,#302,.T.);
#110=ORIENTED_EDGE('',*,*,#303,.T.);
#111=ORIENTED_EDGE('',*,*,#293,.F.);
#112=ORIENTED_EDGE('',*,*,#304,.T.);
#113=ORIENTED_EDGE('',*,*,#300,.F.);
#114=ORIENTED_EDGE('',*,*,#305,.T.);
#115=ORIENTED_EDGE('',*,*,#298,.F.);
#116=ORIENTED_EDGE('',*,*,#306,.T.);
#117=ORIENTED_EDGE('',*,*,#291,.T.);
#118=ORIENTED_EDGE('',*,*,#307,.T.);
#119=ORIENTED_EDGE('',*,*,#302,.F.);
#120=ORIENTED_EDGE('',*,*,#308,.T.);
#121=ORIENTED_EDGE('',*,*,#287,.F.);
#122=ORIENTED_EDGE('',*,*,#309,.T.);
#123=ORIENTED_EDGE('',*,*,#310,.T.);
#124=ORIENTED_EDGE('',*,*,#311,.T.);
#125=ORIENTED_EDGE('',*,*,#312,.T.);
#126=ORIENTED_EDGE('',*,*,#313,.T.);
#127=ORIENTED_EDGE('',*,*,#314,.T.);
#128=ORIENTED_EDGE('',*,*,#315,.T.);
#129=ORIENTED_EDGE('',*,*,#316,.T.);
#130=ORIENTED_EDGE('',*,*,#317,.T.);
#131=ORIENTED_EDGE('',*,*,#318,.T.);
#132=ORIENTED_EDGE('',*,*,#319,.T.);
#133=ORIENTED_EDGE('',*,*,#320,.T.);
#134=ORIENTED_EDGE('',*,*,#321,.F.);
#135=ORIENTED_EDGE('',*,*,#322,.F.);
#136=ORIENTED_EDGE('',*,*,#323,.T.);
#137=ORIENTED_EDGE('',*,*,#324,.F.);
#138=ORIENTED_EDGE('',*,*,#325,.F.);
#139=ORIENTED_EDGE('',*,*,#326,.T.);
#140=ORIENTED_EDGE('',*,*,#327,.T.);
#141=ORIENTED_EDGE('',*,*,#328,.T.);
#142=ORIENTED_EDGE('',*,*,#329,.T.);
#143=ORIENTED_EDGE('',*,*,#286,.T.);
#144=ORIENTED_EDGE('',*,*,#330,.T.);
#145=ORIENTED_EDGE('',*,*,#285,.T.);
#146=ORIENTED_EDGE('',*,*,#304,.F.);
#147=ORIENTED_EDGE('',*,*,#301,.F.);
#148=ORIENTED_EDGE('',*,*,#329,.F.);
#149=ORIENTED_EDGE('',*,*,#305,.F.);
#150=ORIENTED_EDGE('',*,*,#299,.F.);
#151=ORIENTED_EDGE('',*,*,#330,.F.);
#152=ORIENTED_EDGE('',*,*,#297,.F.);
#153=ORIENTED_EDGE('',*,*,#331,.T.);
#154=ORIENTED_EDGE('',*,*,#311,.F.);
#155=ORIENTED_EDGE('',*,*,#332,.F.);
#156=ORIENTED_EDGE('',*,*,#332,.T.);
#157=ORIENTED_EDGE('',*,*,#310,.F.);
#158=ORIENTED_EDGE('',*,*,#333,.F.);
#159=ORIENTED_EDGE('',*,*,#306,.F.);
#160=ORIENTED_EDGE('',*,*,#333,.T.);
#161=ORIENTED_EDGE('',*,*,#309,.F.);
#162=ORIENTED_EDGE('',*,*,#292,.F.);
#163=ORIENTED_EDGE('',*,*,#308,.F.);
#164=ORIENTED_EDGE('',*,*,#319,.F.);
#165=ORIENTED_EDGE('',*,*,#334,.F.);
#166=ORIENTED_EDGE('',*,*,#294,.F.);
#167=ORIENTED_EDGE('',*,*,#335,.F.);
#168=ORIENTED_EDGE('',*,*,#335,.T.);
#169=ORIENTED_EDGE('',*,*,#303,.F.);
#170=ORIENTED_EDGE('',*,*,#336,.F.);
#171=ORIENTED_EDGE('',*,*,#320,.F.);
#172=ORIENTED_EDGE('',*,*,#336,.T.);
#173=ORIENTED_EDGE('',*,*,#307,.F.);
#174=ORIENTED_EDGE('',*,*,#337,.F.);
#175=ORIENTED_EDGE('',*,*,#313,.F.);
#176=ORIENTED_EDGE('',*,*,#337,.T.);
#177=ORIENTED_EDGE('',*,*,#290,.F.);
#178=ORIENTED_EDGE('',*,*,#338,.F.);
#179=ORIENTED_EDGE('',*,*,#314,.F.);
#180=ORIENTED_EDGE('',*,*,#317,.F.);
#181=ORIENTED_EDGE('',*,*,#339,.F.);
#182=ORIENTED_EDGE('',*,*,#281,.T.);
#183=ORIENTED_EDGE('',*,*,#340,.T.);
#184=ORIENTED_EDGE('',*,*,#295,.T.);
#185=ORIENTED_EDGE('',*,*,#334,.T.);
#186=ORIENTED_EDGE('',*,*,#318,.F.);
#187=ORIENTED_EDGE('',*,*,#340,.F.);
#188=ORIENTED_EDGE('',*,*,#280,.T.);
#189=ORIENTED_EDGE('',*,*,#341,.T.);
#190=ORIENTED_EDGE('',*,*,#315,.F.);
#191=ORIENTED_EDGE('',*,*,#338,.T.);
#192=ORIENTED_EDGE('',*,*,#289,.F.);
#193=ORIENTED_EDGE('',*,*,#277,.T.);
#194=ORIENTED_EDGE('',*,*,#342,.T.);
#195=ORIENTED_EDGE('',*,*,#321,.T.);
#196=ORIENTED_EDGE('',*,*,#343,.F.);
#197=ORIENTED_EDGE('',*,*,#344,.F.);
#198=ORIENTED_EDGE('',*,*,#345,.T.);
#199=ORIENTED_EDGE('',*,*,#322,.T.);
#200=ORIENTED_EDGE('',*,*,#345,.F.);
#201=ORIENTED_EDGE('',*,*,#346,.F.);
#202=ORIENTED_EDGE('',*,*,#347,.T.);
#203=ORIENTED_EDGE('',*,*,#323,.F.);
#204=ORIENTED_EDGE('',*,*,#347,.F.);
#205=ORIENTED_EDGE('',*,*,#348,.T.);
#206=ORIENTED_EDGE('',*,*,#349,.T.);
#207=ORIENTED_EDGE('',*,*,#324,.T.);
#208=ORIENTED_EDGE('',*,*,#349,.F.);
#209=ORIENTED_EDGE('',*,*,#350,.F.);
#210=ORIENTED_EDGE('',*,*,#351,.T.);
#211=ORIENTED_EDGE('',*,*,#325,.T.);
#212=ORIENTED_EDGE('',*,*,#351,.F.);
#213=ORIENTED_EDGE('',*,*,#352,.F.);
#214=ORIENTED_EDGE('',*,*,#353,.T.);
#215=ORIENTED_EDGE('',*,*,#326,.F.);
#216=ORIENTED_EDGE('',*,*,#353,.F.);
#217=ORIENTED_EDGE('',*,*,#354,.T.);
#218=ORIENTED_EDGE('',*,*,#355,.T.);
#219=ORIENTED_EDGE('',*,*,#327,.F.);
#220=ORIENTED_EDGE('',*,*,#355,.F.);
#221=ORIENTED_EDGE('',*,*,#356,.T.);
#222=ORIENTED_EDGE('',*,*,#357,.T.);
#223=ORIENTED_EDGE('',*,*,#328,.F.);
#224=ORIENTED_EDGE('',*,*,#357,.F.);
#225=ORIENTED_EDGE('',*,*,#358,.T.);
#226=ORIENTED_EDGE('',*,*,#343,.T.);
#227=ORIENTED_EDGE('',*,*,#316,.F.);
#228=ORIENTED_EDGE('',*,*,#342,.F.);
#229=ORIENTED_EDGE('',*,*,#282,.T.);
#230=ORIENTED_EDGE('',*,*,#339,.T.);
#231=ORIENTED_EDGE('',*,*,#359,.F.);
#232=ORIENTED_EDGE('',*,*,#270,.F.);
#233=ORIENTED_EDGE('',*,*,#360,.T.);
#234=ORIENTED_EDGE('',*,*,#361,.F.);
#235=ORIENTED_EDGE('',*,*,#274,.F.);
#236=ORIENTED_EDGE('',*,*,#362,.T.);
#237=ORIENTED_EDGE('',*,*,#346,.T.);
#238=ORIENTED_EDGE('',*,*,#344,.T.);
#239=ORIENTED_EDGE('',*,*,#358,.F.);
#240=ORIENTED_EDGE('',*,*,#356,.F.);
#241=ORIENTED_EDGE('',*,*,#354,.F.);
#242=ORIENTED_EDGE('',*,*,#352,.T.);
#243=ORIENTED_EDGE('',*,*,#350,.T.);
#244=ORIENTED_EDGE('',*,*,#348,.F.);
#245=ORIENTED_EDGE('',*,*,#341,.F.);
#246=ORIENTED_EDGE('',*,*,#279,.F.);
#247=ORIENTED_EDGE('',*,*,#288,.F.);
#248=ORIENTED_EDGE('',*,*,#312,.F.);
#249=ORIENTED_EDGE('',*,*,#331,.F.);
#250=ORIENTED_EDGE('',*,*,#296,.F.);
#251=ORIENTED_EDGE('',*,*,#275,.T.);
#252=ORIENTED_EDGE('',*,*,#363,.T.);
#253=ORIENTED_EDGE('',*,*,#362,.F.);
#254=ORIENTED_EDGE('',*,*,#273,.T.);
#255=ORIENTED_EDGE('',*,*,#363,.F.);
#256=ORIENTED_EDGE('',*,*,#276,.F.);
#257=ORIENTED_EDGE('',*,*,#271,.T.);
#258=ORIENTED_EDGE('',*,*,#361,.T.);
#259=ORIENTED_EDGE('',*,*,#283,.T.);
#260=ORIENTED_EDGE('',*,*,#364,.T.);
#261=ORIENTED_EDGE('',*,*,#360,.F.);
#262=ORIENTED_EDGE('',*,*,#269,.T.);
#263=ORIENTED_EDGE('',*,*,#364,.F.);
#264=ORIENTED_EDGE('',*,*,#284,.F.);
#265=ORIENTED_EDGE('',*,*,#267,.T.);
#266=ORIENTED_EDGE('',*,*,#359,.T.);
#267=EDGE_CURVE('',#365,#366,#430,.T.);
#268=EDGE_CURVE('',#367,#365,#41,.T.);
#269=EDGE_CURVE('',#368,#367,#431,.T.);
#270=EDGE_CURVE('',#368,#366,#42,.T.);
#271=EDGE_CURVE('',#369,#370,#432,.T.);
#272=EDGE_CURVE('',#371,#369,#43,.T.);
#273=EDGE_CURVE('',#372,#371,#433,.T.);
#274=EDGE_CURVE('',#372,#370,#44,.T.);
#275=EDGE_CURVE('',#371,#373,#434,.T.);
#276=EDGE_CURVE('',#369,#373,#435,.T.);
#277=EDGE_CURVE('',#374,#375,#436,.T.);
#278=EDGE_CURVE('',#374,#376,#437,.T.);
#279=EDGE_CURVE('',#376,#377,#438,.F.);
#280=EDGE_CURVE('',#378,#377,#45,.T.);
#281=EDGE_CURVE('',#379,#378,#439,.T.);
#282=EDGE_CURVE('',#375,#379,#46,.T.);
#283=EDGE_CURVE('',#367,#380,#440,.T.);
#284=EDGE_CURVE('',#365,#380,#441,.T.);
#285=EDGE_CURVE('',#381,#381,#47,.T.);
#286=EDGE_CURVE('',#382,#382,#48,.T.);
#287=EDGE_CURVE('',#383,#384,#442,.T.);
#288=EDGE_CURVE('',#384,#376,#49,.F.);
#289=EDGE_CURVE('',#374,#385,#443,.T.);
#290=EDGE_CURVE('',#385,#386,#444,.F.);
#291=EDGE_CURVE('',#387,#386,#445,.T.);
#292=EDGE_CURVE('',#387,#383,#50,.T.);
#293=EDGE_CURVE('',#388,#389,#446,.T.);
#294=EDGE_CURVE('',#389,#390,#447,.T.);
#295=EDGE_CURVE('',#391,#390,#448,.T.);
#296=EDGE_CURVE('',#391,#392,#51,.T.);
#297=EDGE_CURVE('',#392,#393,#449,.F.);
#298=EDGE_CURVE('',#393,#394,#450,.T.);
#299=EDGE_CURVE('',#394,#395,#52,.T.);
#300=EDGE_CURVE('',#395,#396,#451,.T.);
#301=EDGE_CURVE('',#396,#388,#53,.T.);
#302=EDGE_CURVE('',#397,#398,#452,.T.);
#303=EDGE_CURVE('',#398,#389,#54,.F.);
#304=EDGE_CURVE('',#388,#396,#17,.T.);
#305=EDGE_CURVE('',#395,#394,#18,.T.);
#306=EDGE_CURVE('',#393,#397,#55,.T.);
#307=EDGE_CURVE('',#386,#398,#453,.F.);
#308=EDGE_CURVE('',#397,#387,#454,.T.);
#309=EDGE_CURVE('',#383,#399,#455,.F.);
#310=EDGE_CURVE('',#399,#400,#56,.F.);
#311=EDGE_CURVE('',#400,#401,#456,.T.);
#312=EDGE_CURVE('',#401,#384,#457,.F.);
#313=EDGE_CURVE('',#402,#403,#458,.T.);
#314=EDGE_CURVE('',#403,#404,#459,.T.);
#315=EDGE_CURVE('',#404,#405,#460,.T.);
#316=EDGE_CURVE('',#405,#406,#57,.T.);
#317=EDGE_CURVE('',#406,#407,#461,.T.);
#318=EDGE_CURVE('',#407,#408,#58,.T.);
#319=EDGE_CURVE('',#408,#409,#462,.F.);
#320=EDGE_CURVE('',#409,#402,#59,.T.);
#321=EDGE_CURVE('',#410,#411,#463,.T.);
#322=EDGE_CURVE('',#412,#410,#464,.T.);
#323=EDGE_CURVE('',#412,#413,#465,.T.);
#324=EDGE_CURVE('',#414,#413,#60,.T.);
#325=EDGE_CURVE('',#415,#414,#466,.T.);
#326=EDGE_CURVE('',#415,#416,#467,.T.);
#327=EDGE_CURVE('',#416,#417,#468,.T.);
#328=EDGE_CURVE('',#417,#411,#61,.T.);
#329=EDGE_CURVE('',#418,#418,#62,.F.);
#330=EDGE_CURVE('',#419,#419,#63,.F.);
#331=EDGE_CURVE('',#392,#401,#19,.T.);
#332=EDGE_CURVE('',#393,#400,#64,.T.);
#333=EDGE_CURVE('',#397,#399,#65,.T.);
#334=EDGE_CURVE('',#390,#408,#20,.T.);
#335=EDGE_CURVE('',#409,#389,#66,.T.);
#336=EDGE_CURVE('',#402,#398,#67,.T.);
#337=EDGE_CURVE('',#403,#386,#12,.T.);
#338=EDGE_CURVE('',#404,#385,#68,.F.);
#339=EDGE_CURVE('',#379,#406,#469,.T.);
#340=EDGE_CURVE('',#378,#407,#470,.T.);
#341=EDGE_CURVE('',#377,#391,#21,.T.);
#342=EDGE_CURVE('',#375,#405,#471,.T.);
#343=EDGE_CURVE('',#420,#411,#472,.T.);
#344=EDGE_CURVE('',#421,#420,#473,.T.);
#345=EDGE_CURVE('',#421,#410,#474,.T.);
#346=EDGE_CURVE('',#422,#421,#475,.T.);
#347=EDGE_CURVE('',#422,#412,#476,.T.);
#348=EDGE_CURVE('',#422,#423,#477,.T.);
#349=EDGE_CURVE('',#423,#413,#478,.T.);
#350=EDGE_CURVE('',#424,#423,#69,.T.);
#351=EDGE_CURVE('',#424,#414,#479,.T.);
#352=EDGE_CURVE('',#425,#424,#480,.T.);
#353=EDGE_CURVE('',#425,#415,#481,.T.);
#354=EDGE_CURVE('',#425,#426,#482,.T.);
#355=EDGE_CURVE('',#426,#416,#483,.T.);
#356=EDGE_CURVE('',#426,#427,#484,.T.);
#357=EDGE_CURVE('',#427,#417,#485,.T.);
#358=EDGE_CURVE('',#427,#420,#70,.T.);
#359=EDGE_CURVE('',#366,#428,#486,.T.);
#360=EDGE_CURVE('',#368,#428,#487,.T.);
#361=EDGE_CURVE('',#370,#429,#488,.T.);
#362=EDGE_CURVE('',#372,#429,#489,.T.);
#363=EDGE_CURVE('',#373,#429,#490,.T.);
#364=EDGE_CURVE('',#380,#428,#491,.T.);
#365=VERTEX_POINT('',#992);
#366=VERTEX_POINT('',#993);
#367=VERTEX_POINT('',#995);
#368=VERTEX_POINT('',#997);
#369=VERTEX_POINT('',#1001);
#370=VERTEX_POINT('',#1002);
#371=VERTEX_POINT('',#1004);
#372=VERTEX_POINT('',#1006);
#373=VERTEX_POINT('',#1010);
#374=VERTEX_POINT('',#1013);
#375=VERTEX_POINT('',#1014);
#376=VERTEX_POINT('',#1016);
#377=VERTEX_POINT('',#1018);
#378=VERTEX_POINT('',#1020);
#379=VERTEX_POINT('',#1022);
#380=VERTEX_POINT('',#1025);
#381=VERTEX_POINT('',#1029);
#382=VERTEX_POINT('',#1031);
#383=VERTEX_POINT('',#1033);
#384=VERTEX_POINT('',#1034);
#385=VERTEX_POINT('',#1037);
#386=VERTEX_POINT('',#1039);
#387=VERTEX_POINT('',#1041);
#388=VERTEX_POINT('',#1045);
#389=VERTEX_POINT('',#1046);
#390=VERTEX_POINT('',#1048);
#391=VERTEX_POINT('',#1050);
#392=VERTEX_POINT('',#1052);
#393=VERTEX_POINT('',#1054);
#394=VERTEX_POINT('',#1056);
#395=VERTEX_POINT('',#1058);
#396=VERTEX_POINT('',#1060);
#397=VERTEX_POINT('',#1064);
#398=VERTEX_POINT('',#1065);
#399=VERTEX_POINT('',#1083);
#400=VERTEX_POINT('',#1085);
#401=VERTEX_POINT('',#1087);
#402=VERTEX_POINT('',#1091);
#403=VERTEX_POINT('',#1092);
#404=VERTEX_POINT('',#1094);
#405=VERTEX_POINT('',#1096);
#406=VERTEX_POINT('',#1098);
#407=VERTEX_POINT('',#1100);
#408=VERTEX_POINT('',#1102);
#409=VERTEX_POINT('',#1104);
#410=VERTEX_POINT('',#1107);
#411=VERTEX_POINT('',#1108);
#412=VERTEX_POINT('',#1110);
#413=VERTEX_POINT('',#1112);
#414=VERTEX_POINT('',#1114);
#415=VERTEX_POINT('',#1116);
#416=VERTEX_POINT('',#1118);
#417=VERTEX_POINT('',#1120);
#418=VERTEX_POINT('',#1124);
#419=VERTEX_POINT('',#1127);
#420=VERTEX_POINT('',#1171);
#421=VERTEX_POINT('',#1173);
#422=VERTEX_POINT('',#1177);
#423=VERTEX_POINT('',#1181);
#424=VERTEX_POINT('',#1185);
#425=VERTEX_POINT('',#1189);
#426=VERTEX_POINT('',#1193);
#427=VERTEX_POINT('',#1197);
#428=VERTEX_POINT('',#1204);
#429=VERTEX_POINT('',#1207);
#430=LINE('',#991,#492);
#431=LINE('',#996,#493);
#432=LINE('',#1000,#494);
#433=LINE('',#1005,#495);
#434=LINE('',#1009,#496);
#435=LINE('',#1011,#497);
#436=LINE('',#1012,#498);
#437=LINE('',#1015,#499);
#438=LINE('',#1017,#500);
#439=LINE('',#1021,#501);
#440=LINE('',#1024,#502);
#441=LINE('',#1026,#503);
#442=LINE('',#1032,#504);
#443=LINE('',#1036,#505);
#444=LINE('',#1038,#506);
#445=LINE('',#1040,#507);
#446=LINE('',#1044,#508);
#447=LINE('',#1047,#509);
#448=LINE('',#1049,#510);
#449=LINE('',#1053,#511);
#450=LINE('',#1055,#512);
#451=LINE('',#1059,#513);
#452=LINE('',#1063,#514);
#453=LINE('',#1079,#515);
#454=LINE('',#1080,#516);
#455=LINE('',#1082,#517);
#456=LINE('',#1086,#518);
#457=LINE('',#1088,#519);
#458=LINE('',#1090,#520);
#459=LINE('',#1093,#521);
#460=LINE('',#1095,#522);
#461=LINE('',#1099,#523);
#462=LINE('',#1103,#524);
#463=LINE('',#1106,#525);
#464=LINE('',#1109,#526);
#465=LINE('',#1111,#527);
#466=LINE('',#1115,#528);
#467=LINE('',#1117,#529);
#468=LINE('',#1119,#530);
#469=LINE('',#1159,#531);
#470=LINE('',#1160,#532);
#471=LINE('',#1168,#533);
#472=LINE('',#1170,#534);
#473=LINE('',#1172,#535);
#474=LINE('',#1174,#536);
#475=LINE('',#1176,#537);
#476=LINE('',#1178,#538);
#477=LINE('',#1180,#539);
#478=LINE('',#1182,#540);
#479=LINE('',#1186,#541);
#480=LINE('',#1188,#542);
#481=LINE('',#1190,#543);
#482=LINE('',#1192,#544);
#483=LINE('',#1194,#545);
#484=LINE('',#1196,#546);
#485=LINE('',#1198,#547);
#486=LINE('',#1203,#548);
#487=LINE('',#1205,#549);
#488=LINE('',#1206,#550);
#489=LINE('',#1208,#551);
#490=LINE('',#1211,#552);
#491=LINE('',#1214,#553);
#492=VECTOR('',#791,1.);
#493=VECTOR('',#794,1.);
#494=VECTOR('',#799,1.);
#495=VECTOR('',#802,1.);
#496=VECTOR('',#807,1.);
#497=VECTOR('',#808,1.);
#498=VECTOR('',#809,1.);
#499=VECTOR('',#810,1.);
#500=VECTOR('',#811,1.);
#501=VECTOR('',#814,1.);
#502=VECTOR('',#817,1.);
#503=VECTOR('',#818,1.);
#504=VECTOR('',#825,1.);
#505=VECTOR('',#828,1.);
#506=VECTOR('',#829,1.);
#507=VECTOR('',#830,1.);
#508=VECTOR('',#835,1.);
#509=VECTOR('',#836,1.);
#510=VECTOR('',#837,1.);
#511=VECTOR('',#840,1.);
#512=VECTOR('',#841,1.);
#513=VECTOR('',#844,1.);
#514=VECTOR('',#849,1.);
#515=VECTOR('',#856,1.);
#516=VECTOR('',#857,1.);
#517=VECTOR('',#860,1.);
#518=VECTOR('',#863,1.);
#519=VECTOR('',#864,1.);
#520=VECTOR('',#867,1.);
#521=VECTOR('',#868,1.);
#522=VECTOR('',#869,1.);
#523=VECTOR('',#872,1.);
#524=VECTOR('',#875,1.);
#525=VECTOR('',#878,1.);
#526=VECTOR('',#879,1.);
#527=VECTOR('',#880,1.);
#528=VECTOR('',#883,1.);
#529=VECTOR('',#884,1.);
#530=VECTOR('',#885,1.);
#531=VECTOR('',#928,1.);
#532=VECTOR('',#929,1.);
#533=VECTOR('',#934,1.);
#534=VECTOR('',#937,1.);
#535=VECTOR('',#938,1.);
#536=VECTOR('',#939,1.);
#537=VECTOR('',#942,1.);
#538=VECTOR('',#943,1.);
#539=VECTOR('',#946,1.);
#540=VECTOR('',#947,1.);
#541=VECTOR('',#952,1.);
#542=VECTOR('',#955,1.);
#543=VECTOR('',#956,1.);
#544=VECTOR('',#959,1.);
#545=VECTOR('',#960,1.);
#546=VECTOR('',#963,1.);
#547=VECTOR('',#964,1.);
#548=VECTOR('',#973,1.);
#549=VECTOR('',#974,1.);
#550=VECTOR('',#975,1.);
#551=VECTOR('',#976,1.);
#552=VECTOR('',#981,1.);
#553=VECTOR('',#986,1.);
#554=EDGE_LOOP('',(#71,#72,#73,#74));
#555=EDGE_LOOP('',(#75,#76,#77,#78));
#556=EDGE_LOOP('',(#79,#80,#81));
#557=EDGE_LOOP('',(#82,#83,#84,#85,#86,#87));
#558=EDGE_LOOP('',(#88,#89,#90));
#559=EDGE_LOOP('',(#91));
#560=EDGE_LOOP('',(#92));
#561=EDGE_LOOP('',(#93,#94,#95,#96,#97,#98,#99));
#562=EDGE_LOOP('',(#100,#101,#102,#103,#104,#105,#106,#107,#108));
#563=EDGE_LOOP('',(#109,#110,#111,#112,#113,#114,#115,#116));
#564=EDGE_LOOP('',(#117,#118,#119,#120));
#565=EDGE_LOOP('',(#121,#122,#123,#124,#125));
#566=EDGE_LOOP('',(#126,#127,#128,#129,#130,#131,#132,#133));
#567=EDGE_LOOP('',(#134,#135,#136,#137,#138,#139,#140,#141));
#568=EDGE_LOOP('',(#142));
#569=EDGE_LOOP('',(#143));
#570=EDGE_LOOP('',(#144));
#571=EDGE_LOOP('',(#145));
#572=EDGE_LOOP('',(#146,#147));
#573=EDGE_LOOP('',(#148));
#574=EDGE_LOOP('',(#149,#150));
#575=EDGE_LOOP('',(#151));
#576=EDGE_LOOP('',(#152,#153,#154,#155));
#577=EDGE_LOOP('',(#156,#157,#158,#159));
#578=EDGE_LOOP('',(#160,#161,#162,#163));
#579=EDGE_LOOP('',(#164,#165,#166,#167));
#580=EDGE_LOOP('',(#168,#169,#170,#171));
#581=EDGE_LOOP('',(#172,#173,#174,#175));
#582=EDGE_LOOP('',(#176,#177,#178,#179));
#583=EDGE_LOOP('',(#180,#181,#182,#183));
#584=EDGE_LOOP('',(#184,#185,#186,#187,#188,#189));
#585=EDGE_LOOP('',(#190,#191,#192,#193,#194));
#586=EDGE_LOOP('',(#195,#196,#197,#198));
#587=EDGE_LOOP('',(#199,#200,#201,#202));
#588=EDGE_LOOP('',(#203,#204,#205,#206));
#589=EDGE_LOOP('',(#207,#208,#209,#210));
#590=EDGE_LOOP('',(#211,#212,#213,#214));
#591=EDGE_LOOP('',(#215,#216,#217,#218));
#592=EDGE_LOOP('',(#219,#220,#221,#222));
#593=EDGE_LOOP('',(#223,#224,#225,#226));
#594=EDGE_LOOP('',(#227,#228,#229,#230));
#595=EDGE_LOOP('',(#231,#232,#233));
#596=EDGE_LOOP('',(#234,#235,#236));
#597=EDGE_LOOP('',(#237,#238,#239,#240,#241,#242,#243,#244));
#598=EDGE_LOOP('',(#245,#246,#247,#248,#249,#250));
#599=EDGE_LOOP('',(#251,#252,#253,#254));
#600=EDGE_LOOP('',(#255,#256,#257,#258));
#601=EDGE_LOOP('',(#259,#260,#261,#262));
#602=EDGE_LOOP('',(#263,#264,#265,#266));
#603=FACE_BOUND('',#554,.T.);
#604=FACE_BOUND('',#555,.T.);
#605=FACE_BOUND('',#556,.T.);
#606=FACE_BOUND('',#557,.T.);
#607=FACE_BOUND('',#558,.T.);
#608=FACE_BOUND('',#559,.T.);
#609=FACE_BOUND('',#560,.T.);
#610=FACE_BOUND('',#561,.T.);
#611=FACE_BOUND('',#562,.T.);
#612=FACE_BOUND('',#563,.T.);
#613=FACE_BOUND('',#564,.T.);
#614=FACE_BOUND('',#565,.T.);
#615=FACE_BOUND('',#566,.T.);
#616=FACE_BOUND('',#567,.T.);
#617=FACE_BOUND('',#568,.T.);
#618=FACE_BOUND('',#569,.T.);
#619=FACE_BOUND('',#570,.T.);
#620=FACE_BOUND('',#571,.T.);
#621=FACE_BOUND('',#572,.T.);
#622=FACE_BOUND('',#573,.T.);
#623=FACE_BOUND('',#574,.T.);
#624=FACE_BOUND('',#575,.T.);
#625=FACE_BOUND('',#576,.T.);
#626=FACE_BOUND('',#577,.T.);
#627=FACE_BOUND('',#578,.T.);
#628=FACE_BOUND('',#579,.T.);
#629=FACE_BOUND('',#580,.T.);
#630=FACE_BOUND('',#581,.T.);
#631=FACE_BOUND('',#582,.T.);
#632=FACE_BOUND('',#583,.T.);
#633=FACE_BOUND('',#584,.T.);
#634=FACE_BOUND('',#585,.T.);
#635=FACE_BOUND('',#586,.T.);
#636=FACE_BOUND('',#587,.T.);
#637=FACE_BOUND('',#588,.T.);
#638=FACE_BOUND('',#589,.T.);
#639=FACE_BOUND('',#590,.T.);
#640=FACE_BOUND('',#591,.T.);
#641=FACE_BOUND('',#592,.T.);
#642=FACE_BOUND('',#593,.T.);
#643=FACE_BOUND('',#594,.T.);
#644=FACE_BOUND('',#595,.T.);
#645=FACE_BOUND('',#596,.T.);
#646=FACE_BOUND('',#597,.T.);
#647=FACE_BOUND('',#598,.T.);
#648=FACE_BOUND('',#599,.T.);
#649=FACE_BOUND('',#600,.T.);
#650=FACE_BOUND('',#601,.T.);
#651=FACE_BOUND('',#602,.T.);
#652=CYLINDRICAL_SURFACE('',#718,0.00175);
#653=CYLINDRICAL_SURFACE('',#721,0.00175);
#654=CYLINDRICAL_SURFACE('',#736,0.002);
#655=CYLINDRICAL_SURFACE('',#748,0.00225015142736424);
#656=CYLINDRICAL_SURFACE('',#750,0.00225015142736403);
#657=CYLINDRICAL_SURFACE('',#754,0.001);
#658=CYLINDRICAL_SURFACE('',#758,0.001);
#659=CYLINDRICAL_SURFACE('',#759,0.001);
#660=CYLINDRICAL_SURFACE('',#763,0.001);
#661=CYLINDRICAL_SURFACE('',#765,0.001);
#662=CYLINDRICAL_SURFACE('',#768,0.00890321803365885);
#663=CYLINDRICAL_SURFACE('',#773,0.0045);
#664=CYLINDRICAL_SURFACE('',#778,0.0045);
#665=CYLINDRICAL_SURFACE('',#780,0.01);
#666=CYLINDRICAL_SURFACE('',#782,0.033);
#667=ADVANCED_FACE('',(#603),#652,.F.);
#668=ADVANCED_FACE('',(#604),#653,.F.);
#669=ADVANCED_FACE('',(#605,#606,#607),#22,.F.);
#670=ADVANCED_FACE('',(#608,#609,#610),#23,.T.);
#671=ADVANCED_FACE('',(#611),#24,.F.);
#672=ADVANCED_FACE('',(#612),#654,.T.);
#673=ADVANCED_FACE('',(#613),#25,.T.);
#674=ADVANCED_FACE('',(#614),#26,.F.);
#675=ADVANCED_FACE('',(#615,#616),#27,.T.);
#676=ADVANCED_FACE('',(#617,#618),#655,.F.);
#677=ADVANCED_FACE('',(#619,#620),#656,.F.);
#678=ADVANCED_FACE('',(#621,#622),#15,.F.);
#679=ADVANCED_FACE('',(#623,#624),#16,.F.);
#680=ADVANCED_FACE('',(#625),#657,.T.);
#681=ADVANCED_FACE('',(#626),#13,.T.);
#682=ADVANCED_FACE('',(#627),#658,.T.);
#683=ADVANCED_FACE('',(#628),#659,.T.);
#684=ADVANCED_FACE('',(#629),#14,.T.);
#685=ADVANCED_FACE('',(#630),#660,.T.);
#686=ADVANCED_FACE('',(#631),#661,.T.);
#687=ADVANCED_FACE('',(#632),#28,.T.);
#688=ADVANCED_FACE('',(#633),#662,.T.);
#689=ADVANCED_FACE('',(#634),#29,.T.);
#690=ADVANCED_FACE('',(#635),#30,.F.);
#691=ADVANCED_FACE('',(#636),#31,.F.);
#692=ADVANCED_FACE('',(#637),#32,.T.);
#693=ADVANCED_FACE('',(#638),#663,.F.);
#694=ADVANCED_FACE('',(#639),#33,.F.);
#695=ADVANCED_FACE('',(#640),#34,.T.);
#696=ADVANCED_FACE('',(#641),#35,.T.);
#697=ADVANCED_FACE('',(#642),#664,.F.);
#698=ADVANCED_FACE('',(#643),#665,.T.);
#699=ADVANCED_FACE('',(#644,#645,#646),#36,.T.);
#700=ADVANCED_FACE('',(#647),#666,.F.);
#701=ADVANCED_FACE('',(#648),#37,.T.);
#702=ADVANCED_FACE('',(#649),#38,.T.);
#703=ADVANCED_FACE('',(#650),#39,.T.);
#704=ADVANCED_FACE('',(#651),#40,.T.);
#705=CLOSED_SHELL('',(#667,#668,#669,#670,#671,#672,#673,#674,#675,#676,
#677,#678,#679,#680,#681,#682,#683,#684,#685,#686,#687,#688,#689,#690,#691,
#692,#693,#694,#695,#696,#697,#698,#699,#700,#701,#702,#703,#704));
#706=STYLED_ITEM('',(#707),#714);
#707=PRESENTATION_STYLE_ASSIGNMENT((#708));
#708=SURFACE_STYLE_USAGE(.BOTH.,#709);
#709=SURFACE_SIDE_STYLE('',(#710));
#710=SURFACE_STYLE_FILL_AREA(#711);
#711=FILL_AREA_STYLE('',(#712));
#712=FILL_AREA_STYLE_COLOUR('',#713);
#713=COLOUR_RGB('',0.647058823529412,0.647058823529412,0.647058823529412);
#714=MANIFOLD_SOLID_BREP('BLTouch-V3',#705);
#715=SHAPE_DEFINITION_REPRESENTATION(#1222,#716);
#716=SHAPE_REPRESENTATION('BLTouch-V3',(#717),#1217);
#717=AXIS2_PLACEMENT_3D('',#989,#787,#788);
#718=AXIS2_PLACEMENT_3D('',#990,#789,#790);
#719=AXIS2_PLACEMENT_3D('',#994,#792,#793);
#720=AXIS2_PLACEMENT_3D('',#998,#795,#796);
#721=AXIS2_PLACEMENT_3D('',#999,#797,#798);
#722=AXIS2_PLACEMENT_3D('',#1003,#800,#801);
#723=AXIS2_PLACEMENT_3D('',#1007,#803,#804);
#724=AXIS2_PLACEMENT_3D('',#1008,#805,#806);
#725=AXIS2_PLACEMENT_3D('',#1019,#812,#813);
#726=AXIS2_PLACEMENT_3D('',#1023,#815,#816);
#727=AXIS2_PLACEMENT_3D('',#1027,#819,#820);
#728=AXIS2_PLACEMENT_3D('',#1028,#821,#822);
#729=AXIS2_PLACEMENT_3D('',#1030,#823,#824);
#730=AXIS2_PLACEMENT_3D('',#1035,#826,#827);
#731=AXIS2_PLACEMENT_3D('',#1042,#831,#832);
#732=AXIS2_PLACEMENT_3D('',#1043,#833,#834);
#733=AXIS2_PLACEMENT_3D('',#1051,#838,#839);
#734=AXIS2_PLACEMENT_3D('',#1057,#842,#843);
#735=AXIS2_PLACEMENT_3D('',#1061,#845,#846);
#736=AXIS2_PLACEMENT_3D('',#1062,#847,#848);
#737=AXIS2_PLACEMENT_3D('',#1066,#850,#851);
#738=AXIS2_PLACEMENT_3D('',#1077,#852,#853);
#739=AXIS2_PLACEMENT_3D('',#1078,#854,#855);
#740=AXIS2_PLACEMENT_3D('',#1081,#858,#859);
#741=AXIS2_PLACEMENT_3D('',#1084,#861,#862);
#742=AXIS2_PLACEMENT_3D('',#1089,#865,#866);
#743=AXIS2_PLACEMENT_3D('',#1097,#870,#871);
#744=AXIS2_PLACEMENT_3D('',#1101,#873,#874);
#745=AXIS2_PLACEMENT_3D('',#1105,#876,#877);
#746=AXIS2_PLACEMENT_3D('',#1113,#881,#882);
#747=AXIS2_PLACEMENT_3D('',#1121,#886,#887);
#748=AXIS2_PLACEMENT_3D('',#1122,#888,#889);
#749=AXIS2_PLACEMENT_3D('',#1123,#890,#891);
#750=AXIS2_PLACEMENT_3D('',#1125,#892,#893);
#751=AXIS2_PLACEMENT_3D('',#1126,#894,#895);
#752=AXIS2_PLACEMENT_3D('',#1128,#896,#897);
#753=AXIS2_PLACEMENT_3D('',#1129,#898,#899);
#754=AXIS2_PLACEMENT_3D('',#1130,#900,#901);
#755=AXIS2_PLACEMENT_3D('',#1136,#902,#903);
#756=AXIS2_PLACEMENT_3D('',#1137,#904,#905);
#757=AXIS2_PLACEMENT_3D('',#1138,#906,#907);
#758=AXIS2_PLACEMENT_3D('',#1139,#908,#909);
#759=AXIS2_PLACEMENT_3D('',#1140,#910,#911);
#760=AXIS2_PLACEMENT_3D('',#1151,#912,#913);
#761=AXIS2_PLACEMENT_3D('',#1152,#914,#915);
#762=AXIS2_PLACEMENT_3D('',#1153,#916,#917);
#763=AXIS2_PLACEMENT_3D('',#1154,#918,#919);
#764=AXIS2_PLACEMENT_3D('',#1155,#920,#921);
#765=AXIS2_PLACEMENT_3D('',#1156,#922,#923);
#766=AXIS2_PLACEMENT_3D('',#1157,#924,#925);
#767=AXIS2_PLACEMENT_3D('',#1158,#926,#927);
#768=AXIS2_PLACEMENT_3D('',#1161,#930,#931);
#769=AXIS2_PLACEMENT_3D('',#1167,#932,#933);
#770=AXIS2_PLACEMENT_3D('',#1169,#935,#936);
#771=AXIS2_PLACEMENT_3D('',#1175,#940,#941);
#772=AXIS2_PLACEMENT_3D('',#1179,#944,#945);
#773=AXIS2_PLACEMENT_3D('',#1183,#948,#949);
#774=AXIS2_PLACEMENT_3D('',#1184,#950,#951);
#775=AXIS2_PLACEMENT_3D('',#1187,#953,#954);
#776=AXIS2_PLACEMENT_3D('',#1191,#957,#958);
#777=AXIS2_PLACEMENT_3D('',#1195,#961,#962);
#778=AXIS2_PLACEMENT_3D('',#1199,#965,#966);
#779=AXIS2_PLACEMENT_3D('',#1200,#967,#968);
#780=AXIS2_PLACEMENT_3D('',#1201,#969,#970);
#781=AXIS2_PLACEMENT_3D('',#1202,#971,#972);
#782=AXIS2_PLACEMENT_3D('',#1209,#977,#978);
#783=AXIS2_PLACEMENT_3D('',#1210,#979,#980);
#784=AXIS2_PLACEMENT_3D('',#1212,#982,#983);
#785=AXIS2_PLACEMENT_3D('',#1213,#984,#985);
#786=AXIS2_PLACEMENT_3D('',#1215,#987,#988);
#787=DIRECTION('',(0.,0.,1.));
#788=DIRECTION('',(1.,0.,0.));
#789=DIRECTION('',(-2.16164919124835E-16,0.,1.));
#790=DIRECTION('',(1.,0.,2.16164919124835E-16));
#791=DIRECTION('',(-2.16164919124835E-16,0.,1.));
#792=DIRECTION('',(-2.16164919124835E-16,0.,1.));
#793=DIRECTION('',(1.,0.,0.));
#794=DIRECTION('',(2.16164919124835E-16,0.,-1.));
#795=DIRECTION('',(-2.16164919124835E-16,0.,1.));
#796=DIRECTION('',(1.,0.,0.));
#797=DIRECTION('',(-2.16164919124835E-16,0.,1.));
#798=DIRECTION('',(1.,0.,2.16164919124835E-16));
#799=DIRECTION('',(-2.16164919124835E-16,0.,1.));
#800=DIRECTION('',(-2.16164919124835E-16,0.,1.));
#801=DIRECTION('',(1.,0.,0.));
#802=DIRECTION('',(2.16164919124835E-16,0.,-1.));
#803=DIRECTION('',(-2.16164919124835E-16,0.,1.));
#804=DIRECTION('',(1.,0.,0.));
#805=DIRECTION('',(-2.16164919124835E-16,0.,1.));
#806=DIRECTION('',(1.,0.,2.16164919124835E-16));
#807=DIRECTION('',(0.866025403784439,0.5,1.87204311369116E-16));
#808=DIRECTION('',(-0.86602540378444,0.5,0.));
#809=DIRECTION('',(0.,-1.,0.));
#810=DIRECTION('',(1.,0.,2.16164919124835E-16));
#811=DIRECTION('',(0.,-1.,0.));
#812=DIRECTION('',(-2.16164919124835E-16,0.,1.));
#813=DIRECTION('',(0.172342472059753,-0.985037091852045,0.));
#814=DIRECTION('',(1.,0.,2.16164919124835E-16));
#815=DIRECTION('',(-2.16164919124835E-16,0.,1.));
#816=DIRECTION('',(-0.95,-0.312249899919917,-3.46944695195361E-16));
#817=DIRECTION('',(0.866025403784439,0.5,1.87204311369116E-16));
#818=DIRECTION('',(-0.86602540378444,0.5,0.));
#819=DIRECTION('',(0.,-1.,0.));
#820=DIRECTION('',(-1.,0.,0.));
#821=DIRECTION('',(0.,-1.,0.));
#822=DIRECTION('',(-1.,0.,0.));
#823=DIRECTION('',(0.,-1.,0.));
#824=DIRECTION('',(-1.,0.,0.));
#825=DIRECTION('',(1.,0.,2.16164919124835E-16));
#826=DIRECTION('',(0.,-1.,0.));
#827=DIRECTION('',(-1.,0.,0.));
#828=DIRECTION('',(-2.16164919124835E-16,0.,1.));
#829=DIRECTION('',(1.,0.,2.16164919124835E-16));
#830=DIRECTION('',(-2.16164919124835E-16,0.,1.));
#831=DIRECTION('',(0.,-1.,0.));
#832=DIRECTION('',(-1.,0.,0.));
#833=DIRECTION('',(0.,-1.,0.));
#834=DIRECTION('',(-1.,0.,0.));
#835=DIRECTION('',(-2.16164919124835E-16,0.,1.));
#836=DIRECTION('',(1.,0.,2.16164919124835E-16));
#837=DIRECTION('',(-2.16164919124835E-16,0.,1.));
#838=DIRECTION('',(0.,-1.,0.));
#839=DIRECTION('',(-1.,0.,0.));
#840=DIRECTION('',(1.,0.,2.16164919124835E-16));
#841=DIRECTION('',(-2.16164919124835E-16,0.,1.));
#842=DIRECTION('',(0.,-1.,0.));
#843=DIRECTION('',(-1.,0.,0.));
#844=DIRECTION('',(-2.16164919124835E-16,0.,1.));
#845=DIRECTION('',(0.,-1.,0.));
#846=DIRECTION('',(-1.,0.,0.));
#847=DIRECTION('',(-2.16164919124835E-16,0.,1.));
#848=DIRECTION('',(1.,0.,2.16164919124835E-16));
#849=DIRECTION('',(-2.16164919124835E-16,0.,1.));
#850=DIRECTION('',(-2.16164919124835E-16,0.,1.));
#851=DIRECTION('',(1.,0.,2.16164919124835E-16));
#852=DIRECTION('',(-2.16164919124835E-16,0.,1.));
#853=DIRECTION('',(1.,0.,2.16164919124835E-16));
#854=DIRECTION('',(-1.,0.,-2.16164919124835E-16));
#855=DIRECTION('',(-2.16164919124835E-16,0.,1.));
#856=DIRECTION('',(0.,-1.,0.));
#857=DIRECTION('',(0.,-1.,0.));
#858=DIRECTION('',(-2.16164919124835E-16,0.,1.));
#859=DIRECTION('',(1.,0.,2.16164919124835E-16));
#860=DIRECTION('',(0.,-1.,0.));
#861=DIRECTION('',(-2.16164919124835E-16,0.,1.));
#862=DIRECTION('',(1.,0.,2.16164919124835E-16));
#863=DIRECTION('',(1.,0.,2.16164919124835E-16));
#864=DIRECTION('',(0.,1.,0.));
#865=DIRECTION('',(-2.16164919124835E-16,0.,1.));
#866=DIRECTION('',(1.,0.,2.16164919124835E-16));
#867=DIRECTION('',(0.,-1.,0.));
#868=DIRECTION('',(1.,0.,2.16164919124835E-16));
#869=DIRECTION('',(0.,-1.,0.));
#870=DIRECTION('',(-2.16164919124835E-16,0.,1.));
#871=DIRECTION('',(-0.95,-0.312249899919917,-3.46944695195361E-16));
#872=DIRECTION('',(1.,0.,2.16164919124835E-16));
#873=DIRECTION('',(-2.16164919124835E-16,0.,1.));
#874=DIRECTION('',(0.172342472059753,-0.985037091852045,0.));
#875=DIRECTION('',(1.,0.,2.16164919124835E-16));
#876=DIRECTION('',(-2.16164919124835E-16,0.,1.));
#877=DIRECTION('',(1.,0.,2.16164919124835E-16));
#878=DIRECTION('',(0.969470723531656,0.245207088427329,2.09565560546116E-16));
#879=DIRECTION('',(1.,0.,2.16164919124835E-16));
#880=DIRECTION('',(-0.969470723531656,0.245207088427329,-2.09565560546116E-16));
#881=DIRECTION('',(-2.16164919124835E-16,0.,1.));
#882=DIRECTION('',(-0.245207088427326,0.969470723531656,0.));
#883=DIRECTION('',(-0.969470723531656,-0.24520708842733,-2.09565560546116E-16));
#884=DIRECTION('',(1.,0.,2.16164919124835E-16));
#885=DIRECTION('',(0.969470723531656,-0.245207088427329,2.09565560546116E-16));
#886=DIRECTION('',(2.16164919124835E-16,0.,-1.));
#887=DIRECTION('',(0.245207088427327,0.969470723531656,0.));
#888=DIRECTION('',(0.,1.,0.));
#889=DIRECTION('',(1.,0.,0.));
#890=DIRECTION('',(0.,-1.,0.));
#891=DIRECTION('',(-1.,0.,0.));
#892=DIRECTION('',(0.,1.,0.));
#893=DIRECTION('',(1.,0.,0.));
#894=DIRECTION('',(0.,-1.,0.));
#895=DIRECTION('',(-1.,0.,0.));
#896=DIRECTION('',(0.,1.,0.));
#897=DIRECTION('',(1.,0.,0.));
#898=DIRECTION('',(0.,1.,0.));
#899=DIRECTION('',(1.,0.,0.));
#900=DIRECTION('',(1.,0.,2.16164919124835E-16));
#901=DIRECTION('',(2.16164919124835E-16,0.,-1.));
#902=DIRECTION('',(-1.,0.,0.));
#903=DIRECTION('',(0.,1.,0.));
#904=DIRECTION('',(-2.16164919124835E-16,0.,1.));
#905=DIRECTION('',(1.,0.,2.16164919124835E-16));
#906=DIRECTION('',(0.,-1.,0.));
#907=DIRECTION('',(-1.,0.,0.));
#908=DIRECTION('',(0.,1.,0.));
#909=DIRECTION('',(1.,0.,0.));
#910=DIRECTION('',(-1.,0.,-2.16164919124835E-16));
#911=DIRECTION('',(-2.16164919124835E-16,0.,1.));
#912=DIRECTION('',(-1.,0.,0.));
#913=DIRECTION('',(0.,1.,0.));
#914=DIRECTION('',(-2.16164919124835E-16,0.,1.));
#915=DIRECTION('',(1.,0.,2.16164919124835E-16));
#916=DIRECTION('',(0.,-1.,0.));
#917=DIRECTION('',(-1.,0.,0.));
#918=DIRECTION('',(0.,-1.,0.));
#919=DIRECTION('',(-1.,0.,0.));
#920=DIRECTION('',(0.707106781186548,-0.707106781186548,1.52851680167813E-16));
#921=DIRECTION('',(-0.707106781186548,-0.707106781186548,-1.52851680167813E-16));
#922=DIRECTION('',(1.,0.,2.16164919124835E-16));
#923=DIRECTION('',(2.16164919124835E-16,0.,-1.));
#924=DIRECTION('',(-1.,0.,-2.16164919124835E-16));
#925=DIRECTION('',(-2.16164919124835E-16,0.,1.));
#926=DIRECTION('',(0.,-1.,0.));
#927=DIRECTION('',(-1.,0.,0.));
#928=DIRECTION('',(-2.16164919124835E-16,0.,1.));
#929=DIRECTION('',(-2.16164919124835E-16,0.,1.));
#930=DIRECTION('',(-2.16164919124835E-16,0.,1.));
#931=DIRECTION('',(1.,0.,2.16164919124835E-16));
#932=DIRECTION('',(-1.,0.,-2.16164919124835E-16));
#933=DIRECTION('',(-2.16164919124835E-16,0.,1.));
#934=DIRECTION('',(-2.16164919124835E-16,0.,1.));
#935=DIRECTION('',(0.245207088427329,-0.969470723531656,5.300517043873E-17));
#936=DIRECTION('',(-0.969470723531656,-0.245207088427329,0.));
#937=DIRECTION('',(-2.16164919124835E-16,0.,1.));
#938=DIRECTION('',(0.969470723531656,0.245207088427329,2.09565560546116E-16));
#939=DIRECTION('',(-2.16164919124835E-16,0.,1.));
#940=DIRECTION('',(0.,-1.,0.));
#941=DIRECTION('',(-1.,0.,0.));
#942=DIRECTION('',(1.,0.,2.16164919124835E-16));
#943=DIRECTION('',(-2.16164919124835E-16,0.,1.));
#944=DIRECTION('',(0.245207088427329,0.969470723531656,5.30051704387301E-17));
#945=DIRECTION('',(0.969470723531656,-0.245207088427329,0.));
#946=DIRECTION('',(-0.969470723531656,0.245207088427329,-2.09565560546116E-16));
#947=DIRECTION('',(-2.16164919124835E-16,0.,1.));
#948=DIRECTION('',(-2.16164919124835E-16,0.,1.));
#949=DIRECTION('',(1.,0.,2.16164919124835E-16));
#950=DIRECTION('',(-2.16164919124835E-16,0.,1.));
#951=DIRECTION('',(-0.245207088427326,0.969470723531656,0.));
#952=DIRECTION('',(-2.16164919124835E-16,0.,1.));
#953=DIRECTION('',(-0.24520708842733,0.969470723531656,-5.30051704387302E-17));
#954=DIRECTION('',(0.969470723531656,0.24520708842733,0.));
#955=DIRECTION('',(-0.969470723531656,-0.24520708842733,-2.09565560546116E-16));
#956=DIRECTION('',(-2.16164919124835E-16,0.,1.));
#957=DIRECTION('',(0.,-1.,0.));
#958=DIRECTION('',(-1.,0.,0.));
#959=DIRECTION('',(1.,0.,2.16164919124835E-16));
#960=DIRECTION('',(-2.16164919124835E-16,0.,1.));
#961=DIRECTION('',(-0.245207088427329,-0.969470723531656,-5.30051704387301E-17));
#962=DIRECTION('',(-0.969470723531656,0.245207088427329,0.));
#963=DIRECTION('',(0.969470723531656,-0.245207088427329,2.09565560546116E-16));
#964=DIRECTION('',(-2.16164919124835E-16,0.,1.));
#965=DIRECTION('',(-2.16164919124835E-16,0.,1.));
#966=DIRECTION('',(1.,0.,2.16164919124835E-16));
#967=DIRECTION('',(2.16164919124835E-16,0.,-1.));
#968=DIRECTION('',(0.245207088427327,0.969470723531656,0.));
#969=DIRECTION('',(-2.16164919124835E-16,0.,1.));
#970=DIRECTION('',(1.,0.,2.16164919124835E-16));
#971=DIRECTION('',(-2.16164919124835E-16,0.,1.));
#972=DIRECTION('',(1.,0.,2.16164919124835E-16));
#973=DIRECTION('',(-0.866025403784439,0.5,-1.87204311369116E-16));
#974=DIRECTION('',(0.86602540378444,0.5,0.));
#975=DIRECTION('',(-0.866025403784439,0.5,-1.87204311369116E-16));
#976=DIRECTION('',(0.866025403784439,0.5,0.));
#977=DIRECTION('',(0.,1.,0.));
#978=DIRECTION('',(1.,0.,0.));
#979=DIRECTION('',(0.5,-0.866025403784439,1.08082459562418E-16));
#980=DIRECTION('',(-0.866025403784439,-0.5,0.));
#981=DIRECTION('',(-2.16164919124835E-16,1.94423431438053E-32,1.));
#982=DIRECTION('',(-0.5,-0.866025403784438,-1.08082459562418E-16));
#983=DIRECTION('',(-0.866025403784439,0.5,0.));
#984=DIRECTION('',(0.5,-0.866025403784439,1.08082459562418E-16));
#985=DIRECTION('',(-0.866025403784439,-0.5,0.));
#986=DIRECTION('',(-2.16164919124835E-16,3.55819574986347E-33,1.));
#987=DIRECTION('',(-0.5,-0.866025403784438,-1.08082459562418E-16));
#988=DIRECTION('',(-0.866025403784439,0.5,0.));
#989=CARTESIAN_POINT('',(0.,0.,0.));
#990=CARTESIAN_POINT('',(0.0465722473263741,0.0516,0.02445));
#991=CARTESIAN_POINT('',(0.0474472473263741,0.0531155444566228,0.024453));
#992=CARTESIAN_POINT('',(0.0474479330125293,0.0531152456582243,0.0244509349385232));
#993=CARTESIAN_POINT('',(0.0474472862064949,0.0531156122893406,0.0269504318372179));
#994=CARTESIAN_POINT('',(0.0465722473263741,0.0516,0.02445));
#995=CARTESIAN_POINT('',(0.0456972115428649,0.0531156068867721,0.0244514312671269));
#996=CARTESIAN_POINT('',(0.0456972473263741,0.0531155444566228,0.024453));
#997=CARTESIAN_POINT('',(0.0456963437322139,0.0531151506849359,0.0269500930066102));
#998=CARTESIAN_POINT('',(0.0465722473263741,0.0516,0.02695));
#999=CARTESIAN_POINT('',(0.0645722473263741,0.0516,0.02445));
#1000=CARTESIAN_POINT('',(0.0654472473263741,0.0531155444566228,0.024453));
#1001=CARTESIAN_POINT('',(0.0654479330125303,0.0531152456582238,0.0244509349385226));
#1002=CARTESIAN_POINT('',(0.0654472862064949,0.0531156122893406,0.0269504318372179));
#1003=CARTESIAN_POINT('',(0.0645722473263741,0.0516,0.02445));
#1004=CARTESIAN_POINT('',(0.0636972115428649,0.0531156068867721,0.0244514312671269));
#1005=CARTESIAN_POINT('',(0.0636972473263741,0.0531155444566228,0.024453));
#1006=CARTESIAN_POINT('',(0.0636963437322126,0.0531151506849352,0.02695009300661));
#1007=CARTESIAN_POINT('',(0.0645722473263741,0.0516,0.02695));
#1008=CARTESIAN_POINT('',(0.0174722473263741,0.060715,0.02445));
#1009=CARTESIAN_POINT('',(0.0323191581041217,0.0349993961974993,0.02445));
#1010=CARTESIAN_POINT('',(0.0645722473263741,0.0536207259421637,0.02445));
#1011=CARTESIAN_POINT('',(0.0654472473263741,0.0531155444566228,0.02445));
#1012=CARTESIAN_POINT('',(0.0386,0.057985,0.02445));
#1013=CARTESIAN_POINT('',(0.0386,0.0556,0.02445));
#1014=CARTESIAN_POINT('',(0.0386,0.0497075010008008,0.02445));
#1015=CARTESIAN_POINT('',(0.0174722473263741,0.0556,0.02445));
#1016=CARTESIAN_POINT('',(0.0716,0.0556,0.02445));
#1017=CARTESIAN_POINT('',(0.0716,0.06037,0.02445));
#1018=CARTESIAN_POINT('',(0.0716,0.056461557042957,0.02445));
#1019=CARTESIAN_POINT('',(0.0641412766190894,0.0516,0.02445));
#1020=CARTESIAN_POINT('',(0.065675679224297,0.04283,0.02445));
#1021=CARTESIAN_POINT('',(0.0568878396121485,0.04283,0.02445));
#1022=CARTESIAN_POINT('',(0.0481,0.04283,0.02445));
#1023=CARTESIAN_POINT('',(0.0481,0.05283,0.02445));
#1024=CARTESIAN_POINT('',(0.0278191581041217,0.0427936248315592,0.02445));
#1025=CARTESIAN_POINT('',(0.0465722473263741,0.0536207259421637,0.02445));
#1026=CARTESIAN_POINT('',(0.0474472473263741,0.0531155444566228,0.02445));
#1027=CARTESIAN_POINT('',(0.0328,0.0556,-0.00555));
#1028=CARTESIAN_POINT('',(0.03255,0.0556,0.0032401495569464));
#1029=CARTESIAN_POINT('',(0.030299848572636,0.0556,0.0032401495569464));
#1030=CARTESIAN_POINT('',(0.03255,0.0556,0.0194901495569464));
#1031=CARTESIAN_POINT('',(0.0302998485726358,0.0556,0.0194901495569464));
#1032=CARTESIAN_POINT('',(0.0328,0.0556,-0.00555));
#1033=CARTESIAN_POINT('',(0.0285,0.0556,-0.00555));
#1034=CARTESIAN_POINT('',(0.0387366465496901,0.0556,-0.00555));
#1035=CARTESIAN_POINT('',(0.0716,0.0556,-0.00855));
#1036=CARTESIAN_POINT('',(0.0386,0.0556,-0.00555));
#1037=CARTESIAN_POINT('',(0.0386,0.0556,0.02845));
#1038=CARTESIAN_POINT('',(0.0328,0.0556,0.02845));
#1039=CARTESIAN_POINT('',(0.0275,0.0556,0.02845));
#1040=CARTESIAN_POINT('',(0.0275,0.0556,-0.00555));
#1041=CARTESIAN_POINT('',(0.0275,0.0556,-0.00455));
#1042=CARTESIAN_POINT('',(0.0285,0.0556,-0.00455));
#1043=CARTESIAN_POINT('',(0.0338,0.06037,-0.00555));
#1044=CARTESIAN_POINT('',(0.0295,0.06037,-0.00555));
#1045=CARTESIAN_POINT('',(0.0295,0.06037,0.0214954189759246));
#1046=CARTESIAN_POINT('',(0.0295,0.06037,0.02845));
#1047=CARTESIAN_POINT('',(0.0386,0.06037,0.02845));
#1048=CARTESIAN_POINT('',(0.0656756792242971,0.06037,0.02845));
#1049=CARTESIAN_POINT('',(0.0656756792242971,0.06037,0.02695));
#1050=CARTESIAN_POINT('',(0.0656756792242971,0.06037,0.0239138633459818));
#1051=CARTESIAN_POINT('',(0.0716,0.06037,-0.00855));
#1052=CARTESIAN_POINT('',(0.0388433212916817,0.06037,-0.00455));
#1053=CARTESIAN_POINT('',(0.0338,0.06037,-0.00455));
#1054=CARTESIAN_POINT('',(0.0295,0.06037,-0.00455));
#1055=CARTESIAN_POINT('',(0.0295,0.06037,-0.00555));
#1056=CARTESIAN_POINT('',(0.0295,0.06037,0.00123488013796857));
#1057=CARTESIAN_POINT('',(0.03255,0.06037,0.0032401495569464));
#1058=CARTESIAN_POINT('',(0.0295,0.06037,0.00524541897592424));
#1059=CARTESIAN_POINT('',(0.0295,0.06037,-0.00555));
#1060=CARTESIAN_POINT('',(0.0295,0.06037,0.0174848801379682));
#1061=CARTESIAN_POINT('',(0.03255,0.06037,0.0194901495569464));
#1062=CARTESIAN_POINT('',(0.0295,0.05837,-0.00555));
#1063=CARTESIAN_POINT('',(0.0275,0.05837,-0.00555));
#1064=CARTESIAN_POINT('',(0.0275,0.05837,-0.00455));
#1065=CARTESIAN_POINT('',(0.0275,0.05837,0.02845));
#1066=CARTESIAN_POINT('',(0.0295,0.05837,0.02845));
#1067=CARTESIAN_POINT('',(0.0295,0.06037,0.0214954189759246));
#1068=CARTESIAN_POINT('',(0.0291094375451547,0.06037,0.0209013763619973));
#1069=CARTESIAN_POINT('',(0.028832560880251,0.0602275760247689,0.0194921951899748));
#1070=CARTESIAN_POINT('',(0.0291096834179736,0.06037,0.0180785487811508));
#1071=CARTESIAN_POINT('',(0.0295,0.06037,0.0174848801379682));
#1072=CARTESIAN_POINT('',(0.0295,0.06037,0.00524541897592424));
#1073=CARTESIAN_POINT('',(0.0291094375451548,0.06037,0.00465137636199703));
#1074=CARTESIAN_POINT('',(0.0288325608802512,0.060227576024769,0.00324219518997483));
#1075=CARTESIAN_POINT('',(0.0291096834179737,0.06037,0.00182854878115114));
#1076=CARTESIAN_POINT('',(0.0295,0.06037,0.00123488013796857));
#1077=CARTESIAN_POINT('',(0.0295,0.05837,-0.00455));
#1078=CARTESIAN_POINT('',(0.0275,0.056985,-0.00555));
#1079=CARTESIAN_POINT('',(0.0275,0.056985,0.02845));
#1080=CARTESIAN_POINT('',(0.0275,0.0556,-0.00455));
#1081=CARTESIAN_POINT('',(0.0174722473263741,0.060715,-0.00555));
#1082=CARTESIAN_POINT('',(0.0285,0.05837,-0.00555));
#1083=CARTESIAN_POINT('',(0.0285,0.05837,-0.00555));
#1084=CARTESIAN_POINT('',(0.0295,0.05837,-0.00555));
#1085=CARTESIAN_POINT('',(0.0295,0.05937,-0.00555));
#1086=CARTESIAN_POINT('',(0.0174722473263741,0.05937,-0.00555));
#1087=CARTESIAN_POINT('',(0.0387366465496901,0.05937,-0.00555));
#1088=CARTESIAN_POINT('',(0.0387366465496901,0.057485,-0.00555));
#1089=CARTESIAN_POINT('',(0.0174722473263741,0.060715,0.02945));
#1090=CARTESIAN_POINT('',(0.0285,0.060715,0.02945));
#1091=CARTESIAN_POINT('',(0.0285,0.05837,0.02945));
#1092=CARTESIAN_POINT('',(0.0285,0.0566,0.02945));
#1093=CARTESIAN_POINT('',(0.0174722473263741,0.0566,0.02945));
#1094=CARTESIAN_POINT('',(0.0386,0.0566,0.02945));
#1095=CARTESIAN_POINT('',(0.0386,0.057985,0.02945));
#1096=CARTESIAN_POINT('',(0.0386,0.0497075010008008,0.02945));
#1097=CARTESIAN_POINT('',(0.0481,0.05283,0.02945));
#1098=CARTESIAN_POINT('',(0.0481,0.04283,0.02945));
#1099=CARTESIAN_POINT('',(0.0568878396121485,0.04283,0.02945));
#1100=CARTESIAN_POINT('',(0.065675679224297,0.04283,0.02945));
#1101=CARTESIAN_POINT('',(0.0641412766190894,0.0516,0.02945));
#1102=CARTESIAN_POINT('',(0.0684880445396101,0.05937,0.02945));
#1103=CARTESIAN_POINT('',(0.0295,0.05937,0.02945));
#1104=CARTESIAN_POINT('',(0.0295,0.05937,0.02945));
#1105=CARTESIAN_POINT('',(0.0295,0.05837,0.02945));
#1106=CARTESIAN_POINT('',(0.0619050892887231,0.0462836908720538,0.02945));
#1107=CARTESIAN_POINT('',(0.058134499353149,0.04533,0.02945));
#1108=CARTESIAN_POINT('',(0.0656756792242971,0.0472373817441075,0.02945));
#1109=CARTESIAN_POINT('',(0.0555722473263741,0.04533,0.02945));
#1110=CARTESIAN_POINT('',(0.0530099952995992,0.04533,0.02945));
#1111=CARTESIAN_POINT('',(0.0492394053640252,0.0462836908720538,0.02945));
#1112=CARTESIAN_POINT('',(0.0454688154284511,0.0472373817441075,0.02945));
#1113=CARTESIAN_POINT('',(0.0465722473263741,0.0516,0.02945));
#1114=CARTESIAN_POINT('',(0.0454688154284512,0.0559626182558925,0.02945));
#1115=CARTESIAN_POINT('',(0.0492394053640252,0.0569163091279462,0.02945));
#1116=CARTESIAN_POINT('',(0.0530099952995992,0.05787,0.02945));
#1117=CARTESIAN_POINT('',(0.0555722473263741,0.05787,0.02945));
#1118=CARTESIAN_POINT('',(0.058134499353149,0.05787,0.02945));
#1119=CARTESIAN_POINT('',(0.0619050892887231,0.0569163091279462,0.02945));
#1120=CARTESIAN_POINT('',(0.0656756792242971,0.0559626182558925,0.02945));
#1121=CARTESIAN_POINT('',(0.0645722473263741,0.0516,0.02945));
#1122=CARTESIAN_POINT('',(0.03255,0.03537,0.0194901495569464));
#1123=CARTESIAN_POINT('',(0.03255,0.05897,0.0194901495569464));
#1124=CARTESIAN_POINT('',(0.0302998485726358,0.05897,0.0194901495569464));
#1125=CARTESIAN_POINT('',(0.03255,0.03537,0.0032401495569464));
#1126=CARTESIAN_POINT('',(0.03255,0.05897,0.0032401495569464));
#1127=CARTESIAN_POINT('',(0.030299848572636,0.05897,0.0032401495569464));
#1128=CARTESIAN_POINT('',(0.03255,0.05897,0.0194901495569464));
#1129=CARTESIAN_POINT('',(0.03255,0.05897,0.0032401495569464));
#1130=CARTESIAN_POINT('',(0.0174722473263741,0.05937,-0.00455));
#1131=CARTESIAN_POINT('',(0.0388433212916817,0.06037,-0.00455));
#1132=CARTESIAN_POINT('',(0.0388112147172004,0.06037,-0.00481292618617657));
#1133=CARTESIAN_POINT('',(0.0387557609828939,0.060154630025841,-0.00532986505327675));
#1134=CARTESIAN_POINT('',(0.0387366465496901,0.0596349261548174,-0.00555));
#1135=CARTESIAN_POINT('',(0.0387366465496901,0.05937,-0.00555));
#1136=CARTESIAN_POINT('',(0.0295,0.05937,-0.00455));
#1137=CARTESIAN_POINT('',(0.0295,0.05837,-0.00455));
#1138=CARTESIAN_POINT('',(0.0285,0.05837,-0.00455));
#1139=CARTESIAN_POINT('',(0.0285,0.056985,-0.00455));
#1140=CARTESIAN_POINT('',(0.0338,0.05937,0.02845));
#1141=CARTESIAN_POINT('',(0.0656756792242971,0.06037,0.02845));
#1142=CARTESIAN_POINT('',(0.0656756792242971,0.06037,0.0285200541760845));
#1143=CARTESIAN_POINT('',(0.0657596716147968,0.0603553536629998,0.028640355826887));
#1144=CARTESIAN_POINT('',(0.0659793977676408,0.0603127626753584,0.0287970294643726));
#1145=CARTESIAN_POINT('',(0.0662796652193323,0.0602453758279479,0.0289445723099745));
#1146=CARTESIAN_POINT('',(0.0666497702592818,0.0601454524716086,0.0290890938536176));
#1147=CARTESIAN_POINT('',(0.0671451405524053,0.0599882527641522,0.0292495808043532));
#1148=CARTESIAN_POINT('',(0.0677598967406046,0.0597479919720993,0.0293974765730004));
#1149=CARTESIAN_POINT('',(0.0682492233332233,0.0595036036497635,0.02945));
#1150=CARTESIAN_POINT('',(0.0684880445396101,0.05937,0.02945));
#1151=CARTESIAN_POINT('',(0.0295,0.05937,0.02845));
#1152=CARTESIAN_POINT('',(0.0295,0.05837,0.02845));
#1153=CARTESIAN_POINT('',(0.0285,0.05837,0.02845));
#1154=CARTESIAN_POINT('',(0.0285,0.060715,0.02845));
#1155=CARTESIAN_POINT('',(0.0285,0.0566,0.02845));
#1156=CARTESIAN_POINT('',(0.0174722473263741,0.0566,0.02845));
#1157=CARTESIAN_POINT('',(0.0386,0.0566,0.02845));
#1158=CARTESIAN_POINT('',(0.0568878396121485,0.04283,0.02695));
#1159=CARTESIAN_POINT('',(0.0481,0.04283,0.02695));
#1160=CARTESIAN_POINT('',(0.065675679224297,0.04283,0.02695));
#1161=CARTESIAN_POINT('',(0.0641412766190894,0.0516,0.02695));
#1162=CARTESIAN_POINT('',(0.0716,0.056461557042957,0.02445));
#1163=CARTESIAN_POINT('',(0.0709274993045184,0.0574933245645032,0.02445));
#1164=CARTESIAN_POINT('',(0.0691717483336456,0.0592478274314925,0.024409463605741));
#1165=CARTESIAN_POINT('',(0.0668699125443219,0.0601610564746326,0.0241317986296988));
#1166=CARTESIAN_POINT('',(0.0656756792242972,0.06037,0.0239138633459818));
#1167=CARTESIAN_POINT('',(0.0386,0.057985,0.02695));
#1168=CARTESIAN_POINT('',(0.0386,0.0497075010008008,0.02695));
#1169=CARTESIAN_POINT('',(0.0619050892887231,0.0462836908720538,0.02695));
#1170=CARTESIAN_POINT('',(0.0656756792242971,0.0472373817441075,0.02695));
#1171=CARTESIAN_POINT('',(0.0656756792242971,0.0472373817441075,0.02695));
#1172=CARTESIAN_POINT('',(0.0619050892887231,0.0462836908720538,0.02695));
#1173=CARTESIAN_POINT('',(0.058134499353149,0.04533,0.02695));
#1174=CARTESIAN_POINT('',(0.058134499353149,0.04533,0.02695));
#1175=CARTESIAN_POINT('',(0.0555722473263741,0.04533,0.02695));
#1176=CARTESIAN_POINT('',(0.0555722473263741,0.04533,0.02695));
#1177=CARTESIAN_POINT('',(0.0530099952995992,0.04533,0.02695));
#1178=CARTESIAN_POINT('',(0.0530099952995992,0.04533,0.02695));
#1179=CARTESIAN_POINT('',(0.0492394053640252,0.0462836908720538,0.02695));
#1180=CARTESIAN_POINT('',(0.0492394053640252,0.0462836908720538,0.02695));
#1181=CARTESIAN_POINT('',(0.0454688154284511,0.0472373817441075,0.02695));
#1182=CARTESIAN_POINT('',(0.0454688154284511,0.0472373817441075,0.02695));
#1183=CARTESIAN_POINT('',(0.0465722473263741,0.0516,0.02695));
#1184=CARTESIAN_POINT('',(0.0465722473263741,0.0516,0.02695));
#1185=CARTESIAN_POINT('',(0.0454688154284512,0.0559626182558925,0.02695));
#1186=CARTESIAN_POINT('',(0.0454688154284512,0.0559626182558925,0.02695));
#1187=CARTESIAN_POINT('',(0.0492394053640252,0.0569163091279462,0.02695));
#1188=CARTESIAN_POINT('',(0.0492394053640252,0.0569163091279462,0.02695));
#1189=CARTESIAN_POINT('',(0.0530099952995992,0.05787,0.02695));
#1190=CARTESIAN_POINT('',(0.0530099952995992,0.05787,0.02695));
#1191=CARTESIAN_POINT('',(0.0555722473263741,0.05787,0.02695));
#1192=CARTESIAN_POINT('',(0.0555722473263741,0.05787,0.02695));
#1193=CARTESIAN_POINT('',(0.058134499353149,0.05787,0.02695));
#1194=CARTESIAN_POINT('',(0.058134499353149,0.05787,0.02695));
#1195=CARTESIAN_POINT('',(0.0619050892887231,0.0569163091279462,0.02695));
#1196=CARTESIAN_POINT('',(0.0619050892887231,0.0569163091279462,0.02695));
#1197=CARTESIAN_POINT('',(0.0656756792242971,0.0559626182558925,0.02695));
#1198=CARTESIAN_POINT('',(0.0656756792242971,0.0559626182558925,0.02695));
#1199=CARTESIAN_POINT('',(0.0645722473263741,0.0516,0.02695));
#1200=CARTESIAN_POINT('',(0.0645722473263741,0.0516,0.02695));
#1201=CARTESIAN_POINT('',(0.0481,0.05283,0.02695));
#1202=CARTESIAN_POINT('',(0.0174722473263741,0.060715,0.02695));
#1203=CARTESIAN_POINT('',(0.0474472473263741,0.0531155444566228,0.02695));
#1204=CARTESIAN_POINT('',(0.0465722473263741,0.0536207259421637,0.02695));
#1205=CARTESIAN_POINT('',(0.0456972473263741,0.0531155444566228,0.02695));
#1206=CARTESIAN_POINT('',(0.0654472473263741,0.0531155444566228,0.02695));
#1207=CARTESIAN_POINT('',(0.0645722473263741,0.0536207259421637,0.02695));
#1208=CARTESIAN_POINT('',(0.0636972473263741,0.0531155444566228,0.02695));
#1209=CARTESIAN_POINT('',(0.0716,0.057985,-0.00855));
#1210=CARTESIAN_POINT('',(0.0636972473263741,0.0531155444566228,0.024453));
#1211=CARTESIAN_POINT('',(0.0645722473263741,0.0536207259421637,0.024453));
#1212=CARTESIAN_POINT('',(0.0654472473263741,0.0531155444566228,0.024453));
#1213=CARTESIAN_POINT('',(0.0456972473263741,0.0531155444566228,0.024453));
#1214=CARTESIAN_POINT('',(0.0465722473263741,0.0536207259421637,0.024453));
#1215=CARTESIAN_POINT('',(0.0474472473263741,0.0531155444566228,0.024453));
#1216=MECHANICAL_DESIGN_GEOMETRIC_PRESENTATION_REPRESENTATION('',(#706),
#1217);
#1217=(
GEOMETRIC_REPRESENTATION_CONTEXT(3)
GLOBAL_UNCERTAINTY_ASSIGNED_CONTEXT((#1218))
GLOBAL_UNIT_ASSIGNED_CONTEXT((#1221,#1220,#1219))
REPRESENTATION_CONTEXT('BLTouch-V3','TOP_LEVEL_ASSEMBLY_PART')
);
#1218=UNCERTAINTY_MEASURE_WITH_UNIT(LENGTH_MEASURE(2.53926870561864E-5),
#1221,'DISTANCE_ACCURACY_VALUE','Maximum Tolerance applied to model');
#1219=(
NAMED_UNIT(*)
SI_UNIT($,.STERADIAN.)
SOLID_ANGLE_UNIT()
);
#1220=(
NAMED_UNIT(*)
PLANE_ANGLE_UNIT()
SI_UNIT($,.RADIAN.)
);
#1221=(
LENGTH_UNIT()
NAMED_UNIT(*)
SI_UNIT($,.METRE.)
);
#1222=PRODUCT_DEFINITION_SHAPE('','',#1223);
#1223=PRODUCT_DEFINITION('','',#1225,#1224);
#1224=PRODUCT_DEFINITION_CONTEXT('',#1231,'design');
#1225=PRODUCT_DEFINITION_FORMATION_WITH_SPECIFIED_SOURCE('','',#1227,
 .NOT_KNOWN.);
#1226=PRODUCT_RELATED_PRODUCT_CATEGORY('','',(#1227));
#1227=PRODUCT('BLTouch-V3','BLTouch-V3','BLTouch-V3',(#1229));
#1228=PRODUCT_CATEGORY('','');
#1229=PRODUCT_CONTEXT('',#1231,'mechanical');
#1230=APPLICATION_PROTOCOL_DEFINITION('international standard',
'ap242_managed_model_based_3d_engineering',2020,#1231);
#1231=APPLICATION_CONTEXT('managed model based 3d engineering');
ENDSEC;
END-ISO-10303-21;
