ISO-10303-21;
HEADER;
/* Generated by software containing ST-Developer
 * from STEP Tools, Inc. (www.steptools.com) 
 */
/* OPTION: using custom renumber hook */

FILE_DESCRIPTION(
/* description */ ('STEP AP242 Edition 2',
'CAx-IF Rec.Pracs.---Representation and Presentation of Product Manufa
cturing Information (PMI)---4.0---2014-10-13',
'CAx-IF Rec.Pracs.---3D Tessellated Geometry---0.4---2014-09-14','2;1',
'CAx-IF Rec.Pracs.---User Defined Attributes---1.5---2016-08-15'),
/* implementation_level */ '2;1');

FILE_NAME(
/* name */ 'spindle-mount-BLTouch-mount - BLTouch-holder',
/* time_stamp */ '2026-10-02T18:22:24Z',
/* author */ (''),
/* organization */ (''),
/* preprocessor_version */ 'ST-DEVELOPER v20',
/* originating_system */ 'ONSHAPE BY PTC INC, 1.221',
/* authorisation */ '  ');

FILE_SCHEMA (('AP242_MANAGED_MODEL_BASED_3D_ENGINEERING_MIM_LF { 1 0 10303 442 3 1 4 }'));
ENDSEC;

DATA;
#10=SHAPE_REPRESENTATION_RELATIONSHIP('','',#1192,#11);
#11=ADVANCED_BREP_SHAPE_REPRESENTATION('',(#1190),#2079);
#12=TOROIDAL_SURFACE('',#1306,0.0025,0.0025);
#13=TOROIDAL_SURFACE('',#1310,0.0025,0.0025);
#14=TOROIDAL_SURFACE('',#1314,0.0025,0.0025);
#15=TOROIDAL_SURFACE('',#1319,0.00225,0.0005);
#16=TOROIDAL_SURFACE('',#1324,0.00824999999999991,0.0005);
#17=TOROIDAL_SURFACE('',#1327,0.00139999999999998,0.0005);
#18=TOROIDAL_SURFACE('',#1329,0.00225,0.0005);
#19=TOROIDAL_SURFACE('',#1334,0.002,0.0005);
#20=TOROIDAL_SURFACE('',#1337,0.002,0.0005);
#21=TOROIDAL_SURFACE('',#1340,0.002,0.0005);
#22=B_SPLINE_CURVE_WITH_KNOTS('',3,(#2001,#2002,#2003,#2004,#2005,#2006,
#2007,#2008,#2009),.UNSPECIFIED.,.F.,.F.,(4,1,1,1,1,1,4),(0.,0.00305986839695256,
0.00458980259542885,0.00611973679390513,0.00764967099238141,0.00917960519085769,
0.0122394735878103),.UNSPECIFIED.);
#23=B_SPLINE_CURVE_WITH_KNOTS('',3,(#2064,#2065,#2066,#2067),
 .UNSPECIFIED.,.F.,.F.,(4,4),(0.,0.000783547137695034),.UNSPECIFIED.);
#24=CONICAL_SURFACE('',#1218,0.00235,0.785398163397448);
#25=CONICAL_SURFACE('',#1219,0.00235,0.785398163397448);
#26=CIRCLE('',#1196,0.005);
#27=CIRCLE('',#1197,0.005);
#28=CIRCLE('',#1200,0.005);
#29=CIRCLE('',#1201,0.005);
#30=CIRCLE('',#1204,0.005);
#31=CIRCLE('',#1205,0.005);
#32=CIRCLE('',#1208,0.00235);
#33=CIRCLE('',#1209,0.00235);
#34=CIRCLE('',#1212,0.00235);
#35=CIRCLE('',#1213,0.00235);
#36=CIRCLE('',#1215,0.00375);
#37=CIRCLE('',#1216,0.00375);
#38=CIRCLE('',#1222,0.002);
#39=CIRCLE('',#1223,0.00225);
#40=CIRCLE('',#1224,0.00675);
#41=CIRCLE('',#1225,0.00225);
#42=CIRCLE('',#1226,0.00139999999999998);
#43=CIRCLE('',#1227,0.005);
#44=CIRCLE('',#1229,0.002);
#45=CIRCLE('',#1230,0.00225);
#46=CIRCLE('',#1231,0.00675);
#47=CIRCLE('',#1232,0.00225);
#48=CIRCLE('',#1233,0.002);
#49=CIRCLE('',#1234,0.00824999999999991);
#50=CIRCLE('',#1236,0.0015);
#51=CIRCLE('',#1237,0.0025);
#52=CIRCLE('',#1238,0.0019);
#53=CIRCLE('',#1239,0.00175);
#54=CIRCLE('',#1240,0.0025);
#55=CIRCLE('',#1241,0.00875);
#56=CIRCLE('',#1242,0.0025);
#57=CIRCLE('',#1244,0.0005);
#58=CIRCLE('',#1246,0.0025);
#59=CIRCLE('',#1247,0.00875);
#60=CIRCLE('',#1248,0.0025);
#61=CIRCLE('',#1249,0.00175);
#62=CIRCLE('',#1250,0.0025);
#63=CIRCLE('',#1251,0.0015);
#64=CIRCLE('',#1253,0.0015);
#65=CIRCLE('',#1255,0.0015);
#66=CIRCLE('',#1258,0.005);
#67=CIRCLE('',#1259,0.005);
#68=CIRCLE('',#1261,0.0005);
#69=CIRCLE('',#1263,0.005);
#70=CIRCLE('',#1265,0.005);
#71=CIRCLE('',#1266,0.005);
#72=CIRCLE('',#1269,0.005);
#73=CIRCLE('',#1270,0.005);
#74=CIRCLE('',#1272,0.00675);
#75=CIRCLE('',#1274,0.0045);
#76=CIRCLE('',#1275,0.0045);
#77=CIRCLE('',#1277,0.0045);
#78=CIRCLE('',#1282,0.0045);
#79=CIRCLE('',#1287,0.00675);
#80=CIRCLE('',#1289,0.00675);
#81=CIRCLE('',#1291,0.00675);
#82=CIRCLE('',#1294,0.00875);
#83=CIRCLE('',#1296,0.00175);
#84=CIRCLE('',#1298,0.00175);
#85=CIRCLE('',#1300,0.0025);
#86=CIRCLE('',#1303,0.0019);
#87=CIRCLE('',#1305,0.0025);
#88=CIRCLE('',#1307,0.0025);
#89=CIRCLE('',#1309,0.0025);
#90=CIRCLE('',#1311,0.0025);
#91=CIRCLE('',#1313,0.0025);
#92=CIRCLE('',#1315,0.0025);
#93=CIRCLE('',#1318,0.0005);
#94=CIRCLE('',#1320,0.0005);
#95=CIRCLE('',#1321,0.0005);
#96=CIRCLE('',#1323,0.0005);
#97=CIRCLE('',#1325,0.0005);
#98=CIRCLE('',#1326,0.0005);
#99=CIRCLE('',#1328,0.0005);
#100=CIRCLE('',#1330,0.0005);
#101=CIRCLE('',#1333,0.0025);
#102=CIRCLE('',#1336,0.0025);
#103=CIRCLE('',#1339,0.0025);
#104=CYLINDRICAL_SURFACE('',#1195,0.005);
#105=CYLINDRICAL_SURFACE('',#1199,0.005);
#106=CYLINDRICAL_SURFACE('',#1203,0.005);
#107=CYLINDRICAL_SURFACE('',#1207,0.00235);
#108=CYLINDRICAL_SURFACE('',#1211,0.00235);
#109=CYLINDRICAL_SURFACE('',#1252,0.0015);
#110=CYLINDRICAL_SURFACE('',#1254,0.0015);
#111=CYLINDRICAL_SURFACE('',#1257,0.005);
#112=CYLINDRICAL_SURFACE('',#1262,0.005);
#113=CYLINDRICAL_SURFACE('',#1264,0.005);
#114=CYLINDRICAL_SURFACE('',#1268,0.005);
#115=CYLINDRICAL_SURFACE('',#1276,0.0045);
#116=CYLINDRICAL_SURFACE('',#1281,0.0045);
#117=CYLINDRICAL_SURFACE('',#1292,0.00675);
#118=CYLINDRICAL_SURFACE('',#1293,0.00875);
#119=CYLINDRICAL_SURFACE('',#1295,0.00175);
#120=CYLINDRICAL_SURFACE('',#1297,0.00175);
#121=CYLINDRICAL_SURFACE('',#1302,0.0019);
#122=CYLINDRICAL_SURFACE('',#1308,0.0025);
#123=CYLINDRICAL_SURFACE('',#1312,0.0025);
#124=CYLINDRICAL_SURFACE('',#1316,0.0025);
#125=CYLINDRICAL_SURFACE('',#1317,0.0005);
#126=CYLINDRICAL_SURFACE('',#1322,0.0005);
#127=CYLINDRICAL_SURFACE('',#1331,0.0005);
#128=CYLINDRICAL_SURFACE('',#1332,0.0025);
#129=CYLINDRICAL_SURFACE('',#1335,0.0025);
#130=CYLINDRICAL_SURFACE('',#1338,0.0025);
#131=ORIENTED_EDGE('',*,*,#465,.F.);
#132=ORIENTED_EDGE('',*,*,#466,.T.);
#133=ORIENTED_EDGE('',*,*,#467,.F.);
#134=ORIENTED_EDGE('',*,*,#468,.F.);
#135=ORIENTED_EDGE('',*,*,#469,.T.);
#136=ORIENTED_EDGE('',*,*,#470,.F.);
#137=ORIENTED_EDGE('',*,*,#471,.F.);
#138=ORIENTED_EDGE('',*,*,#467,.T.);
#139=ORIENTED_EDGE('',*,*,#472,.T.);
#140=ORIENTED_EDGE('',*,*,#473,.F.);
#141=ORIENTED_EDGE('',*,*,#474,.F.);
#142=ORIENTED_EDGE('',*,*,#470,.T.);
#143=ORIENTED_EDGE('',*,*,#475,.T.);
#144=ORIENTED_EDGE('',*,*,#476,.F.);
#145=ORIENTED_EDGE('',*,*,#477,.F.);
#146=ORIENTED_EDGE('',*,*,#473,.T.);
#147=ORIENTED_EDGE('',*,*,#478,.F.);
#148=ORIENTED_EDGE('',*,*,#479,.F.);
#149=ORIENTED_EDGE('',*,*,#480,.T.);
#150=ORIENTED_EDGE('',*,*,#476,.T.);
#151=ORIENTED_EDGE('',*,*,#481,.T.);
#152=ORIENTED_EDGE('',*,*,#482,.F.);
#153=ORIENTED_EDGE('',*,*,#483,.F.);
#154=ORIENTED_EDGE('',*,*,#479,.T.);
#155=ORIENTED_EDGE('',*,*,#484,.F.);
#156=ORIENTED_EDGE('',*,*,#485,.F.);
#157=ORIENTED_EDGE('',*,*,#486,.F.);
#158=ORIENTED_EDGE('',*,*,#487,.T.);
#159=ORIENTED_EDGE('',*,*,#482,.T.);
#160=ORIENTED_EDGE('',*,*,#488,.T.);
#161=ORIENTED_EDGE('',*,*,#489,.F.);
#162=ORIENTED_EDGE('',*,*,#490,.T.);
#163=ORIENTED_EDGE('',*,*,#491,.T.);
#164=ORIENTED_EDGE('',*,*,#485,.T.);
#165=ORIENTED_EDGE('',*,*,#492,.T.);
#166=ORIENTED_EDGE('',*,*,#493,.T.);
#167=ORIENTED_EDGE('',*,*,#494,.F.);
#168=ORIENTED_EDGE('',*,*,#495,.T.);
#169=ORIENTED_EDGE('',*,*,#496,.T.);
#170=ORIENTED_EDGE('',*,*,#471,.T.);
#171=ORIENTED_EDGE('',*,*,#474,.T.);
#172=ORIENTED_EDGE('',*,*,#477,.T.);
#173=ORIENTED_EDGE('',*,*,#480,.F.);
#174=ORIENTED_EDGE('',*,*,#483,.T.);
#175=ORIENTED_EDGE('',*,*,#487,.F.);
#176=ORIENTED_EDGE('',*,*,#497,.T.);
#177=ORIENTED_EDGE('',*,*,#468,.T.);
#178=ORIENTED_EDGE('',*,*,#469,.F.);
#179=ORIENTED_EDGE('',*,*,#466,.F.);
#180=ORIENTED_EDGE('',*,*,#498,.F.);
#181=ORIENTED_EDGE('',*,*,#492,.F.);
#182=ORIENTED_EDGE('',*,*,#484,.T.);
#183=ORIENTED_EDGE('',*,*,#481,.F.);
#184=ORIENTED_EDGE('',*,*,#478,.T.);
#185=ORIENTED_EDGE('',*,*,#475,.F.);
#186=ORIENTED_EDGE('',*,*,#472,.F.);
#187=ORIENTED_EDGE('',*,*,#489,.T.);
#188=ORIENTED_EDGE('',*,*,#494,.T.);
#189=ORIENTED_EDGE('',*,*,#495,.F.);
#190=ORIENTED_EDGE('',*,*,#493,.F.);
#191=ORIENTED_EDGE('',*,*,#496,.F.);
#192=ORIENTED_EDGE('',*,*,#488,.F.);
#193=ORIENTED_EDGE('',*,*,#499,.T.);
#194=ORIENTED_EDGE('',*,*,#498,.T.);
#195=ORIENTED_EDGE('',*,*,#500,.F.);
#196=ORIENTED_EDGE('',*,*,#501,.F.);
#197=ORIENTED_EDGE('',*,*,#502,.F.);
#198=ORIENTED_EDGE('',*,*,#503,.T.);
#199=ORIENTED_EDGE('',*,*,#504,.F.);
#200=ORIENTED_EDGE('',*,*,#505,.T.);
#201=ORIENTED_EDGE('',*,*,#506,.T.);
#202=ORIENTED_EDGE('',*,*,#507,.T.);
#203=ORIENTED_EDGE('',*,*,#508,.T.);
#204=ORIENTED_EDGE('',*,*,#509,.F.);
#205=ORIENTED_EDGE('',*,*,#510,.T.);
#206=ORIENTED_EDGE('',*,*,#511,.F.);
#207=ORIENTED_EDGE('',*,*,#512,.T.);
#208=ORIENTED_EDGE('',*,*,#513,.F.);
#209=ORIENTED_EDGE('',*,*,#514,.T.);
#210=ORIENTED_EDGE('',*,*,#515,.F.);
#211=ORIENTED_EDGE('',*,*,#516,.T.);
#212=ORIENTED_EDGE('',*,*,#517,.F.);
#213=ORIENTED_EDGE('',*,*,#518,.T.);
#214=ORIENTED_EDGE('',*,*,#519,.F.);
#215=ORIENTED_EDGE('',*,*,#520,.T.);
#216=ORIENTED_EDGE('',*,*,#521,.T.);
#217=ORIENTED_EDGE('',*,*,#522,.T.);
#218=ORIENTED_EDGE('',*,*,#523,.F.);
#219=ORIENTED_EDGE('',*,*,#524,.T.);
#220=ORIENTED_EDGE('',*,*,#525,.F.);
#221=ORIENTED_EDGE('',*,*,#526,.T.);
#222=ORIENTED_EDGE('',*,*,#527,.T.);
#223=ORIENTED_EDGE('',*,*,#528,.T.);
#224=ORIENTED_EDGE('',*,*,#529,.T.);
#225=ORIENTED_EDGE('',*,*,#530,.T.);
#226=ORIENTED_EDGE('',*,*,#486,.T.);
#227=ORIENTED_EDGE('',*,*,#531,.T.);
#228=ORIENTED_EDGE('',*,*,#532,.T.);
#229=ORIENTED_EDGE('',*,*,#511,.T.);
#230=ORIENTED_EDGE('',*,*,#533,.F.);
#231=ORIENTED_EDGE('',*,*,#534,.T.);
#232=ORIENTED_EDGE('',*,*,#535,.T.);
#233=ORIENTED_EDGE('',*,*,#536,.T.);
#234=ORIENTED_EDGE('',*,*,#537,.T.);
#235=ORIENTED_EDGE('',*,*,#538,.T.);
#236=ORIENTED_EDGE('',*,*,#539,.F.);
#237=ORIENTED_EDGE('',*,*,#540,.T.);
#238=ORIENTED_EDGE('',*,*,#541,.F.);
#239=ORIENTED_EDGE('',*,*,#519,.T.);
#240=ORIENTED_EDGE('',*,*,#542,.F.);
#241=ORIENTED_EDGE('',*,*,#541,.T.);
#242=ORIENTED_EDGE('',*,*,#543,.F.);
#243=ORIENTED_EDGE('',*,*,#544,.F.);
#244=ORIENTED_EDGE('',*,*,#545,.T.);
#245=ORIENTED_EDGE('',*,*,#546,.T.);
#246=ORIENTED_EDGE('',*,*,#547,.F.);
#247=ORIENTED_EDGE('',*,*,#548,.F.);
#248=ORIENTED_EDGE('',*,*,#549,.T.);
#249=ORIENTED_EDGE('',*,*,#544,.T.);
#250=ORIENTED_EDGE('',*,*,#550,.T.);
#251=ORIENTED_EDGE('',*,*,#509,.T.);
#252=ORIENTED_EDGE('',*,*,#551,.T.);
#253=ORIENTED_EDGE('',*,*,#552,.T.);
#254=ORIENTED_EDGE('',*,*,#548,.T.);
#255=ORIENTED_EDGE('',*,*,#553,.F.);
#256=ORIENTED_EDGE('',*,*,#554,.F.);
#257=ORIENTED_EDGE('',*,*,#554,.T.);
#258=ORIENTED_EDGE('',*,*,#555,.T.);
#259=ORIENTED_EDGE('',*,*,#497,.F.);
#260=ORIENTED_EDGE('',*,*,#530,.F.);
#261=ORIENTED_EDGE('',*,*,#510,.F.);
#262=ORIENTED_EDGE('',*,*,#556,.F.);
#263=ORIENTED_EDGE('',*,*,#557,.T.);
#264=ORIENTED_EDGE('',*,*,#501,.T.);
#265=ORIENTED_EDGE('',*,*,#558,.T.);
#266=ORIENTED_EDGE('',*,*,#559,.F.);
#267=ORIENTED_EDGE('',*,*,#560,.T.);
#268=ORIENTED_EDGE('',*,*,#556,.T.);
#269=ORIENTED_EDGE('',*,*,#561,.F.);
#270=ORIENTED_EDGE('',*,*,#546,.F.);
#271=ORIENTED_EDGE('',*,*,#562,.T.);
#272=ORIENTED_EDGE('',*,*,#559,.T.);
#273=ORIENTED_EDGE('',*,*,#563,.T.);
#274=ORIENTED_EDGE('',*,*,#564,.F.);
#275=ORIENTED_EDGE('',*,*,#565,.T.);
#276=ORIENTED_EDGE('',*,*,#547,.T.);
#277=ORIENTED_EDGE('',*,*,#563,.F.);
#278=ORIENTED_EDGE('',*,*,#561,.T.);
#279=ORIENTED_EDGE('',*,*,#558,.F.);
#280=ORIENTED_EDGE('',*,*,#500,.T.);
#281=ORIENTED_EDGE('',*,*,#465,.T.);
#282=ORIENTED_EDGE('',*,*,#555,.F.);
#283=ORIENTED_EDGE('',*,*,#553,.T.);
#284=ORIENTED_EDGE('',*,*,#550,.F.);
#285=ORIENTED_EDGE('',*,*,#566,.T.);
#286=ORIENTED_EDGE('',*,*,#567,.F.);
#287=ORIENTED_EDGE('',*,*,#568,.F.);
#288=ORIENTED_EDGE('',*,*,#569,.F.);
#289=ORIENTED_EDGE('',*,*,#570,.T.);
#290=ORIENTED_EDGE('',*,*,#571,.T.);
#291=ORIENTED_EDGE('',*,*,#572,.F.);
#292=ORIENTED_EDGE('',*,*,#573,.T.);
#293=ORIENTED_EDGE('',*,*,#574,.F.);
#294=ORIENTED_EDGE('',*,*,#575,.F.);
#295=ORIENTED_EDGE('',*,*,#567,.T.);
#296=ORIENTED_EDGE('',*,*,#576,.T.);
#297=ORIENTED_EDGE('',*,*,#577,.F.);
#298=ORIENTED_EDGE('',*,*,#578,.F.);
#299=ORIENTED_EDGE('',*,*,#568,.T.);
#300=ORIENTED_EDGE('',*,*,#575,.T.);
#301=ORIENTED_EDGE('',*,*,#579,.F.);
#302=ORIENTED_EDGE('',*,*,#580,.F.);
#303=ORIENTED_EDGE('',*,*,#569,.T.);
#304=ORIENTED_EDGE('',*,*,#578,.T.);
#305=ORIENTED_EDGE('',*,*,#581,.F.);
#306=ORIENTED_EDGE('',*,*,#582,.F.);
#307=ORIENTED_EDGE('',*,*,#583,.T.);
#308=ORIENTED_EDGE('',*,*,#584,.F.);
#309=ORIENTED_EDGE('',*,*,#570,.F.);
#310=ORIENTED_EDGE('',*,*,#580,.T.);
#311=ORIENTED_EDGE('',*,*,#585,.T.);
#312=ORIENTED_EDGE('',*,*,#586,.F.);
#313=ORIENTED_EDGE('',*,*,#571,.F.);
#314=ORIENTED_EDGE('',*,*,#584,.T.);
#315=ORIENTED_EDGE('',*,*,#587,.F.);
#316=ORIENTED_EDGE('',*,*,#588,.F.);
#317=ORIENTED_EDGE('',*,*,#572,.T.);
#318=ORIENTED_EDGE('',*,*,#586,.T.);
#319=ORIENTED_EDGE('',*,*,#589,.T.);
#320=ORIENTED_EDGE('',*,*,#564,.T.);
#321=ORIENTED_EDGE('',*,*,#590,.T.);
#322=ORIENTED_EDGE('',*,*,#591,.F.);
#323=ORIENTED_EDGE('',*,*,#573,.F.);
#324=ORIENTED_EDGE('',*,*,#588,.T.);
#325=ORIENTED_EDGE('',*,*,#592,.T.);
#326=ORIENTED_EDGE('',*,*,#576,.F.);
#327=ORIENTED_EDGE('',*,*,#566,.F.);
#328=ORIENTED_EDGE('',*,*,#591,.T.);
#329=ORIENTED_EDGE('',*,*,#582,.T.);
#330=ORIENTED_EDGE('',*,*,#593,.T.);
#331=ORIENTED_EDGE('',*,*,#543,.T.);
#332=ORIENTED_EDGE('',*,*,#589,.F.);
#333=ORIENTED_EDGE('',*,*,#587,.T.);
#334=ORIENTED_EDGE('',*,*,#585,.F.);
#335=ORIENTED_EDGE('',*,*,#583,.F.);
#336=ORIENTED_EDGE('',*,*,#579,.T.);
#337=ORIENTED_EDGE('',*,*,#594,.T.);
#338=ORIENTED_EDGE('',*,*,#542,.T.);
#339=ORIENTED_EDGE('',*,*,#590,.F.);
#340=ORIENTED_EDGE('',*,*,#595,.T.);
#341=ORIENTED_EDGE('',*,*,#581,.T.);
#342=ORIENTED_EDGE('',*,*,#577,.T.);
#343=ORIENTED_EDGE('',*,*,#574,.T.);
#344=ORIENTED_EDGE('',*,*,#592,.F.);
#345=ORIENTED_EDGE('',*,*,#593,.F.);
#346=ORIENTED_EDGE('',*,*,#595,.F.);
#347=ORIENTED_EDGE('',*,*,#565,.F.);
#348=ORIENTED_EDGE('',*,*,#594,.F.);
#349=ORIENTED_EDGE('',*,*,#515,.T.);
#350=ORIENTED_EDGE('',*,*,#504,.T.);
#351=ORIENTED_EDGE('',*,*,#596,.T.);
#352=ORIENTED_EDGE('',*,*,#597,.T.);
#353=ORIENTED_EDGE('',*,*,#537,.F.);
#354=ORIENTED_EDGE('',*,*,#598,.T.);
#355=ORIENTED_EDGE('',*,*,#527,.F.);
#356=ORIENTED_EDGE('',*,*,#599,.T.);
#357=ORIENTED_EDGE('',*,*,#600,.T.);
#358=ORIENTED_EDGE('',*,*,#601,.T.);
#359=ORIENTED_EDGE('',*,*,#525,.T.);
#360=ORIENTED_EDGE('',*,*,#602,.F.);
#361=ORIENTED_EDGE('',*,*,#539,.T.);
#362=ORIENTED_EDGE('',*,*,#603,.T.);
#363=ORIENTED_EDGE('',*,*,#604,.T.);
#364=ORIENTED_EDGE('',*,*,#605,.T.);
#365=ORIENTED_EDGE('',*,*,#552,.F.);
#366=ORIENTED_EDGE('',*,*,#606,.T.);
#367=ORIENTED_EDGE('',*,*,#607,.T.);
#368=ORIENTED_EDGE('',*,*,#522,.F.);
#369=ORIENTED_EDGE('',*,*,#608,.T.);
#370=ORIENTED_EDGE('',*,*,#609,.F.);
#371=ORIENTED_EDGE('',*,*,#610,.T.);
#372=ORIENTED_EDGE('',*,*,#602,.T.);
#373=ORIENTED_EDGE('',*,*,#524,.F.);
#374=ORIENTED_EDGE('',*,*,#607,.F.);
#375=ORIENTED_EDGE('',*,*,#611,.T.);
#376=ORIENTED_EDGE('',*,*,#609,.T.);
#377=ORIENTED_EDGE('',*,*,#523,.T.);
#378=ORIENTED_EDGE('',*,*,#533,.T.);
#379=ORIENTED_EDGE('',*,*,#612,.T.);
#380=ORIENTED_EDGE('',*,*,#613,.T.);
#381=ORIENTED_EDGE('',*,*,#531,.F.);
#382=ORIENTED_EDGE('',*,*,#491,.F.);
#383=ORIENTED_EDGE('',*,*,#614,.T.);
#384=ORIENTED_EDGE('',*,*,#608,.F.);
#385=ORIENTED_EDGE('',*,*,#521,.F.);
#386=ORIENTED_EDGE('',*,*,#615,.F.);
#387=ORIENTED_EDGE('',*,*,#549,.F.);
#388=ORIENTED_EDGE('',*,*,#615,.T.);
#389=ORIENTED_EDGE('',*,*,#520,.F.);
#390=ORIENTED_EDGE('',*,*,#616,.F.);
#391=ORIENTED_EDGE('',*,*,#545,.F.);
#392=ORIENTED_EDGE('',*,*,#616,.T.);
#393=ORIENTED_EDGE('',*,*,#529,.F.);
#394=ORIENTED_EDGE('',*,*,#617,.F.);
#395=ORIENTED_EDGE('',*,*,#562,.F.);
#396=ORIENTED_EDGE('',*,*,#598,.F.);
#397=ORIENTED_EDGE('',*,*,#536,.F.);
#398=ORIENTED_EDGE('',*,*,#618,.F.);
#399=ORIENTED_EDGE('',*,*,#560,.F.);
#400=ORIENTED_EDGE('',*,*,#617,.T.);
#401=ORIENTED_EDGE('',*,*,#528,.F.);
#402=ORIENTED_EDGE('',*,*,#618,.T.);
#403=ORIENTED_EDGE('',*,*,#535,.F.);
#404=ORIENTED_EDGE('',*,*,#619,.F.);
#405=ORIENTED_EDGE('',*,*,#557,.F.);
#406=ORIENTED_EDGE('',*,*,#619,.T.);
#407=ORIENTED_EDGE('',*,*,#534,.F.);
#408=ORIENTED_EDGE('',*,*,#614,.F.);
#409=ORIENTED_EDGE('',*,*,#490,.F.);
#410=ORIENTED_EDGE('',*,*,#499,.F.);
#411=ORIENTED_EDGE('',*,*,#613,.F.);
#412=ORIENTED_EDGE('',*,*,#620,.T.);
#413=ORIENTED_EDGE('',*,*,#512,.F.);
#414=ORIENTED_EDGE('',*,*,#532,.F.);
#415=ORIENTED_EDGE('',*,*,#604,.F.);
#416=ORIENTED_EDGE('',*,*,#621,.T.);
#417=ORIENTED_EDGE('',*,*,#516,.F.);
#418=ORIENTED_EDGE('',*,*,#503,.F.);
#419=ORIENTED_EDGE('',*,*,#622,.T.);
#420=ORIENTED_EDGE('',*,*,#551,.F.);
#421=ORIENTED_EDGE('',*,*,#508,.F.);
#422=ORIENTED_EDGE('',*,*,#623,.F.);
#423=ORIENTED_EDGE('',*,*,#606,.F.);
#424=ORIENTED_EDGE('',*,*,#596,.F.);
#425=ORIENTED_EDGE('',*,*,#624,.T.);
#426=ORIENTED_EDGE('',*,*,#518,.F.);
#427=ORIENTED_EDGE('',*,*,#625,.T.);
#428=ORIENTED_EDGE('',*,*,#623,.T.);
#429=ORIENTED_EDGE('',*,*,#507,.F.);
#430=ORIENTED_EDGE('',*,*,#626,.F.);
#431=ORIENTED_EDGE('',*,*,#611,.F.);
#432=ORIENTED_EDGE('',*,*,#514,.F.);
#433=ORIENTED_EDGE('',*,*,#627,.T.);
#434=ORIENTED_EDGE('',*,*,#600,.F.);
#435=ORIENTED_EDGE('',*,*,#628,.F.);
#436=ORIENTED_EDGE('',*,*,#505,.F.);
#437=ORIENTED_EDGE('',*,*,#626,.T.);
#438=ORIENTED_EDGE('',*,*,#506,.F.);
#439=ORIENTED_EDGE('',*,*,#628,.T.);
#440=ORIENTED_EDGE('',*,*,#610,.F.);
#441=ORIENTED_EDGE('',*,*,#526,.F.);
#442=ORIENTED_EDGE('',*,*,#601,.F.);
#443=ORIENTED_EDGE('',*,*,#629,.F.);
#444=ORIENTED_EDGE('',*,*,#599,.F.);
#445=ORIENTED_EDGE('',*,*,#624,.F.);
#446=ORIENTED_EDGE('',*,*,#629,.T.);
#447=ORIENTED_EDGE('',*,*,#627,.F.);
#448=ORIENTED_EDGE('',*,*,#513,.T.);
#449=ORIENTED_EDGE('',*,*,#540,.F.);
#450=ORIENTED_EDGE('',*,*,#605,.F.);
#451=ORIENTED_EDGE('',*,*,#630,.F.);
#452=ORIENTED_EDGE('',*,*,#612,.F.);
#453=ORIENTED_EDGE('',*,*,#620,.F.);
#454=ORIENTED_EDGE('',*,*,#630,.T.);
#455=ORIENTED_EDGE('',*,*,#622,.F.);
#456=ORIENTED_EDGE('',*,*,#502,.T.);
#457=ORIENTED_EDGE('',*,*,#538,.F.);
#458=ORIENTED_EDGE('',*,*,#597,.F.);
#459=ORIENTED_EDGE('',*,*,#631,.F.);
#460=ORIENTED_EDGE('',*,*,#603,.F.);
#461=ORIENTED_EDGE('',*,*,#621,.F.);
#462=ORIENTED_EDGE('',*,*,#631,.T.);
#463=ORIENTED_EDGE('',*,*,#625,.F.);
#464=ORIENTED_EDGE('',*,*,#517,.T.);
#465=EDGE_CURVE('',#632,#633,#738,.T.);
#466=EDGE_CURVE('',#632,#634,#739,.T.);
#467=EDGE_CURVE('',#635,#634,#740,.T.);
#468=EDGE_CURVE('',#633,#635,#741,.T.);
#469=EDGE_CURVE('',#634,#636,#26,.T.);
#470=EDGE_CURVE('',#637,#636,#742,.T.);
#471=EDGE_CURVE('',#635,#637,#27,.T.);
#472=EDGE_CURVE('',#636,#638,#743,.T.);
#473=EDGE_CURVE('',#639,#638,#744,.T.);
#474=EDGE_CURVE('',#637,#639,#745,.T.);
#475=EDGE_CURVE('',#638,#640,#28,.T.);
#476=EDGE_CURVE('',#641,#640,#746,.T.);
#477=EDGE_CURVE('',#639,#641,#29,.T.);
#478=EDGE_CURVE('',#642,#640,#747,.T.);
#479=EDGE_CURVE('',#643,#642,#748,.T.);
#480=EDGE_CURVE('',#643,#641,#749,.T.);
#481=EDGE_CURVE('',#642,#644,#30,.T.);
#482=EDGE_CURVE('',#645,#644,#750,.T.);
#483=EDGE_CURVE('',#643,#645,#31,.T.);
#484=EDGE_CURVE('',#646,#644,#751,.T.);
#485=EDGE_CURVE('',#647,#646,#752,.T.);
#486=EDGE_CURVE('',#648,#647,#753,.T.);
#487=EDGE_CURVE('',#648,#645,#754,.T.);
#488=EDGE_CURVE('',#649,#649,#32,.T.);
#489=EDGE_CURVE('',#650,#650,#33,.T.);
#490=EDGE_CURVE('',#651,#652,#755,.T.);
#491=EDGE_CURVE('',#652,#647,#756,.T.);
#492=EDGE_CURVE('',#646,#651,#757,.T.);
#493=EDGE_CURVE('',#653,#653,#34,.T.);
#494=EDGE_CURVE('',#654,#654,#35,.T.);
#495=EDGE_CURVE('',#655,#655,#36,.F.);
#496=EDGE_CURVE('',#656,#656,#37,.F.);
#497=EDGE_CURVE('',#648,#633,#758,.T.);
#498=EDGE_CURVE('',#651,#632,#759,.T.);
#499=EDGE_CURVE('',#657,#651,#760,.T.);
#500=EDGE_CURVE('',#658,#632,#761,.T.);
#501=EDGE_CURVE('',#657,#658,#762,.T.);
#502=EDGE_CURVE('',#659,#660,#38,.F.);
#503=EDGE_CURVE('',#659,#661,#39,.F.);
#504=EDGE_CURVE('',#662,#661,#40,.T.);
#505=EDGE_CURVE('',#662,#663,#41,.F.);
#506=EDGE_CURVE('',#663,#664,#763,.F.);
#507=EDGE_CURVE('',#664,#665,#42,.T.);
#508=EDGE_CURVE('',#665,#666,#764,.F.);
#509=EDGE_CURVE('',#667,#666,#765,.T.);
#510=EDGE_CURVE('',#667,#668,#43,.T.);
#511=EDGE_CURVE('',#669,#668,#766,.T.);
#512=EDGE_CURVE('',#669,#660,#767,.T.);
#513=EDGE_CURVE('',#670,#671,#44,.F.);
#514=EDGE_CURVE('',#670,#662,#45,.F.);
#515=EDGE_CURVE('',#661,#662,#46,.T.);
#516=EDGE_CURVE('',#661,#672,#47,.F.);
#517=EDGE_CURVE('',#673,#672,#48,.F.);
#518=EDGE_CURVE('',#673,#671,#49,.T.);
#519=EDGE_CURVE('',#674,#674,#50,.T.);
#520=EDGE_CURVE('',#675,#676,#768,.F.);
#521=EDGE_CURVE('',#676,#677,#51,.T.);
#522=EDGE_CURVE('',#677,#678,#769,.T.);
#523=EDGE_CURVE('',#679,#678,#52,.T.);
#524=EDGE_CURVE('',#679,#680,#770,.T.);
#525=EDGE_CURVE('',#681,#680,#53,.F.);
#526=EDGE_CURVE('',#681,#682,#54,.F.);
#527=EDGE_CURVE('',#682,#683,#55,.F.);
#528=EDGE_CURVE('',#683,#684,#771,.F.);
#529=EDGE_CURVE('',#684,#675,#56,.T.);
#530=EDGE_CURVE('',#668,#648,#772,.T.);
#531=EDGE_CURVE('',#647,#685,#773,.T.);
#532=EDGE_CURVE('',#685,#669,#57,.T.);
#533=EDGE_CURVE('',#686,#687,#774,.T.);
#534=EDGE_CURVE('',#686,#688,#775,.F.);
#535=EDGE_CURVE('',#688,#689,#58,.T.);
#536=EDGE_CURVE('',#689,#690,#776,.F.);
#537=EDGE_CURVE('',#690,#691,#59,.F.);
#538=EDGE_CURVE('',#691,#692,#60,.F.);
#539=EDGE_CURVE('',#693,#692,#61,.F.);
#540=EDGE_CURVE('',#693,#687,#62,.F.);
#541=EDGE_CURVE('',#694,#694,#63,.T.);
#542=EDGE_CURVE('',#695,#695,#64,.T.);
#543=EDGE_CURVE('',#696,#696,#65,.T.);
#544=EDGE_CURVE('',#697,#698,#777,.T.);
#545=EDGE_CURVE('',#697,#699,#778,.T.);
#546=EDGE_CURVE('',#699,#700,#779,.T.);
#547=EDGE_CURVE('',#698,#700,#780,.T.);
#548=EDGE_CURVE('',#701,#702,#781,.T.);
#549=EDGE_CURVE('',#701,#697,#66,.F.);
#550=EDGE_CURVE('',#698,#702,#67,.T.);
#551=EDGE_CURVE('',#666,#703,#68,.T.);
#552=EDGE_CURVE('',#703,#701,#782,.T.);
#553=EDGE_CURVE('',#704,#702,#783,.T.);
#554=EDGE_CURVE('',#667,#704,#784,.T.);
#555=EDGE_CURVE('',#704,#633,#69,.T.);
#556=EDGE_CURVE('',#705,#706,#785,.T.);
#557=EDGE_CURVE('',#705,#657,#70,.F.);
#558=EDGE_CURVE('',#658,#706,#71,.T.);
#559=EDGE_CURVE('',#707,#708,#786,.T.);
#560=EDGE_CURVE('',#707,#705,#787,.T.);
#561=EDGE_CURVE('',#708,#706,#788,.T.);
#562=EDGE_CURVE('',#699,#707,#72,.F.);
#563=EDGE_CURVE('',#708,#700,#73,.T.);
#564=EDGE_CURVE('',#709,#710,#789,.T.);
#565=EDGE_CURVE('',#709,#710,#74,.T.);
#566=EDGE_CURVE('',#711,#712,#790,.T.);
#567=EDGE_CURVE('',#713,#712,#75,.T.);
#568=EDGE_CURVE('',#714,#713,#791,.T.);
#569=EDGE_CURVE('',#715,#714,#792,.T.);
#570=EDGE_CURVE('',#715,#716,#793,.T.);
#571=EDGE_CURVE('',#716,#717,#76,.T.);
#572=EDGE_CURVE('',#718,#717,#794,.T.);
#573=EDGE_CURVE('',#718,#711,#795,.T.);
#574=EDGE_CURVE('',#719,#720,#77,.T.);
#575=EDGE_CURVE('',#713,#719,#796,.T.);
#576=EDGE_CURVE('',#712,#720,#797,.T.);
#577=EDGE_CURVE('',#721,#719,#798,.T.);
#578=EDGE_CURVE('',#714,#721,#799,.T.);
#579=EDGE_CURVE('',#722,#723,#800,.T.);
#580=EDGE_CURVE('',#715,#722,#801,.T.);
#581=EDGE_CURVE('',#724,#721,#802,.T.);
#582=EDGE_CURVE('',#723,#724,#803,.T.);
#583=EDGE_CURVE('',#722,#725,#804,.T.);
#584=EDGE_CURVE('',#716,#725,#805,.T.);
#585=EDGE_CURVE('',#725,#726,#78,.T.);
#586=EDGE_CURVE('',#717,#726,#806,.T.);
#587=EDGE_CURVE('',#727,#726,#807,.T.);
#588=EDGE_CURVE('',#718,#727,#808,.T.);
#589=EDGE_CURVE('',#727,#709,#809,.T.);
#590=EDGE_CURVE('',#710,#728,#810,.T.);
#591=EDGE_CURVE('',#711,#728,#811,.T.);
#592=EDGE_CURVE('',#728,#720,#812,.T.);
#593=EDGE_CURVE('',#724,#723,#79,.T.);
#594=EDGE_CURVE('',#723,#709,#80,.T.);
#595=EDGE_CURVE('',#710,#724,#81,.T.);
#596=EDGE_CURVE('',#729,#730,#82,.F.);
#597=EDGE_CURVE('',#730,#691,#813,.T.);
#598=EDGE_CURVE('',#690,#683,#22,.T.);
#599=EDGE_CURVE('',#682,#729,#814,.F.);
#600=EDGE_CURVE('',#731,#732,#83,.T.);
#601=EDGE_CURVE('',#732,#681,#815,.T.);
#602=EDGE_CURVE('',#731,#680,#816,.T.);
#603=EDGE_CURVE('',#692,#733,#817,.F.);
#604=EDGE_CURVE('',#733,#734,#84,.T.);
#605=EDGE_CURVE('',#734,#693,#818,.T.);
#606=EDGE_CURVE('',#703,#735,#819,.T.);
#607=EDGE_CURVE('',#735,#678,#820,.T.);
#608=EDGE_CURVE('',#677,#701,#85,.F.);
#609=EDGE_CURVE('',#736,#679,#821,.T.);
#610=EDGE_CURVE('',#736,#731,#822,.T.);
#611=EDGE_CURVE('',#735,#736,#86,.F.);
#612=EDGE_CURVE('',#687,#737,#823,.F.);
#613=EDGE_CURVE('',#737,#685,#824,.F.);
#614=EDGE_CURVE('',#652,#686,#87,.F.);
#615=EDGE_CURVE('',#697,#676,#88,.T.);
#616=EDGE_CURVE('',#699,#675,#89,.T.);
#617=EDGE_CURVE('',#707,#684,#90,.T.);
#618=EDGE_CURVE('',#705,#689,#91,.T.);
#619=EDGE_CURVE('',#657,#688,#92,.T.);
#620=EDGE_CURVE('',#737,#660,#93,.T.);
#621=EDGE_CURVE('',#733,#672,#94,.T.);
#622=EDGE_CURVE('',#659,#734,#95,.T.);
#623=EDGE_CURVE('',#735,#665,#96,.T.);
#624=EDGE_CURVE('',#729,#671,#97,.T.);
#625=EDGE_CURVE('',#673,#730,#98,.T.);
#626=EDGE_CURVE('',#736,#664,#99,.T.);
#627=EDGE_CURVE('',#670,#732,#100,.T.);
#628=EDGE_CURVE('',#663,#731,#23,.F.);
#629=EDGE_CURVE('',#729,#732,#101,.T.);
#630=EDGE_CURVE('',#737,#734,#102,.T.);
#631=EDGE_CURVE('',#733,#730,#103,.T.);
#632=VERTEX_POINT('',#1727);
#633=VERTEX_POINT('',#1728);
#634=VERTEX_POINT('',#1730);
#635=VERTEX_POINT('',#1732);
#636=VERTEX_POINT('',#1736);
#637=VERTEX_POINT('',#1738);
#638=VERTEX_POINT('',#1742);
#639=VERTEX_POINT('',#1744);
#640=VERTEX_POINT('',#1748);
#641=VERTEX_POINT('',#1750);
#642=VERTEX_POINT('',#1754);
#643=VERTEX_POINT('',#1756);
#644=VERTEX_POINT('',#1760);
#645=VERTEX_POINT('',#1762);
#646=VERTEX_POINT('',#1766);
#647=VERTEX_POINT('',#1768);
#648=VERTEX_POINT('',#1770);
#649=VERTEX_POINT('',#1774);
#650=VERTEX_POINT('',#1776);
#651=VERTEX_POINT('',#1779);
#652=VERTEX_POINT('',#1780);
#653=VERTEX_POINT('',#1785);
#654=VERTEX_POINT('',#1787);
#655=VERTEX_POINT('',#1790);
#656=VERTEX_POINT('',#1792);
#657=VERTEX_POINT('',#1800);
#658=VERTEX_POINT('',#1802);
#659=VERTEX_POINT('',#1806);
#660=VERTEX_POINT('',#1807);
#661=VERTEX_POINT('',#1809);
#662=VERTEX_POINT('',#1811);
#663=VERTEX_POINT('',#1813);
#664=VERTEX_POINT('',#1815);
#665=VERTEX_POINT('',#1817);
#666=VERTEX_POINT('',#1819);
#667=VERTEX_POINT('',#1821);
#668=VERTEX_POINT('',#1823);
#669=VERTEX_POINT('',#1825);
#670=VERTEX_POINT('',#1829);
#671=VERTEX_POINT('',#1830);
#672=VERTEX_POINT('',#1834);
#673=VERTEX_POINT('',#1836);
#674=VERTEX_POINT('',#1840);
#675=VERTEX_POINT('',#1842);
#676=VERTEX_POINT('',#1843);
#677=VERTEX_POINT('',#1845);
#678=VERTEX_POINT('',#1847);
#679=VERTEX_POINT('',#1849);
#680=VERTEX_POINT('',#1851);
#681=VERTEX_POINT('',#1853);
#682=VERTEX_POINT('',#1855);
#683=VERTEX_POINT('',#1857);
#684=VERTEX_POINT('',#1859);
#685=VERTEX_POINT('',#1864);
#686=VERTEX_POINT('',#1868);
#687=VERTEX_POINT('',#1869);
#688=VERTEX_POINT('',#1871);
#689=VERTEX_POINT('',#1873);
#690=VERTEX_POINT('',#1875);
#691=VERTEX_POINT('',#1877);
#692=VERTEX_POINT('',#1879);
#693=VERTEX_POINT('',#1881);
#694=VERTEX_POINT('',#1884);
#695=VERTEX_POINT('',#1887);
#696=VERTEX_POINT('',#1890);
#697=VERTEX_POINT('',#1893);
#698=VERTEX_POINT('',#1894);
#699=VERTEX_POINT('',#1896);
#700=VERTEX_POINT('',#1898);
#701=VERTEX_POINT('',#1902);
#702=VERTEX_POINT('',#1903);
#703=VERTEX_POINT('',#1908);
#704=VERTEX_POINT('',#1911);
#705=VERTEX_POINT('',#1917);
#706=VERTEX_POINT('',#1918);
#707=VERTEX_POINT('',#1923);
#708=VERTEX_POINT('',#1924);
#709=VERTEX_POINT('',#1932);
#710=VERTEX_POINT('',#1933);
#711=VERTEX_POINT('',#1937);
#712=VERTEX_POINT('',#1938);
#713=VERTEX_POINT('',#1940);
#714=VERTEX_POINT('',#1942);
#715=VERTEX_POINT('',#1944);
#716=VERTEX_POINT('',#1946);
#717=VERTEX_POINT('',#1948);
#718=VERTEX_POINT('',#1950);
#719=VERTEX_POINT('',#1954);
#720=VERTEX_POINT('',#1955);
#721=VERTEX_POINT('',#1960);
#722=VERTEX_POINT('',#1964);
#723=VERTEX_POINT('',#1965);
#724=VERTEX_POINT('',#1968);
#725=VERTEX_POINT('',#1972);
#726=VERTEX_POINT('',#1976);
#727=VERTEX_POINT('',#1980);
#728=VERTEX_POINT('',#1985);
#729=VERTEX_POINT('',#1998);
#730=VERTEX_POINT('',#1999);
#731=VERTEX_POINT('',#2013);
#732=VERTEX_POINT('',#2014);
#733=VERTEX_POINT('',#2019);
#734=VERTEX_POINT('',#2021);
#735=VERTEX_POINT('',#2025);
#736=VERTEX_POINT('',#2030);
#737=VERTEX_POINT('',#2036);
#738=LINE('',#1726,#825);
#739=LINE('',#1729,#826);
#740=LINE('',#1731,#827);
#741=LINE('',#1733,#828);
#742=LINE('',#1737,#829);
#743=LINE('',#1741,#830);
#744=LINE('',#1743,#831);
#745=LINE('',#1745,#832);
#746=LINE('',#1749,#833);
#747=LINE('',#1753,#834);
#748=LINE('',#1755,#835);
#749=LINE('',#1757,#836);
#750=LINE('',#1761,#837);
#751=LINE('',#1765,#838);
#752=LINE('',#1767,#839);
#753=LINE('',#1769,#840);
#754=LINE('',#1771,#841);
#755=LINE('',#1778,#842);
#756=LINE('',#1781,#843);
#757=LINE('',#1782,#844);
#758=LINE('',#1793,#845);
#759=LINE('',#1795,#846);
#760=LINE('',#1799,#847);
#761=LINE('',#1801,#848);
#762=LINE('',#1803,#849);
#763=LINE('',#1814,#850);
#764=LINE('',#1818,#851);
#765=LINE('',#1820,#852);
#766=LINE('',#1824,#853);
#767=LINE('',#1826,#854);
#768=LINE('',#1841,#855);
#769=LINE('',#1846,#856);
#770=LINE('',#1850,#857);
#771=LINE('',#1858,#858);
#772=LINE('',#1862,#859);
#773=LINE('',#1863,#860);
#774=LINE('',#1867,#861);
#775=LINE('',#1870,#862);
#776=LINE('',#1874,#863);
#777=LINE('',#1892,#864);
#778=LINE('',#1895,#865);
#779=LINE('',#1897,#866);
#780=LINE('',#1899,#867);
#781=LINE('',#1901,#868);
#782=LINE('',#1909,#869);
#783=LINE('',#1910,#870);
#784=LINE('',#1912,#871);
#785=LINE('',#1916,#872);
#786=LINE('',#1922,#873);
#787=LINE('',#1925,#874);
#788=LINE('',#1926,#875);
#789=LINE('',#1931,#876);
#790=LINE('',#1936,#877);
#791=LINE('',#1941,#878);
#792=LINE('',#1943,#879);
#793=LINE('',#1945,#880);
#794=LINE('',#1949,#881);
#795=LINE('',#1951,#882);
#796=LINE('',#1956,#883);
#797=LINE('',#1957,#884);
#798=LINE('',#1959,#885);
#799=LINE('',#1961,#886);
#800=LINE('',#1963,#887);
#801=LINE('',#1966,#888);
#802=LINE('',#1967,#889);
#803=LINE('',#1969,#890);
#804=LINE('',#1971,#891);
#805=LINE('',#1973,#892);
#806=LINE('',#1977,#893);
#807=LINE('',#1979,#894);
#808=LINE('',#1981,#895);
#809=LINE('',#1983,#896);
#810=LINE('',#1984,#897);
#811=LINE('',#1986,#898);
#812=LINE('',#1988,#899);
#813=LINE('',#2000,#900);
#814=LINE('',#2010,#901);
#815=LINE('',#2015,#902);
#816=LINE('',#2016,#903);
#817=LINE('',#2018,#904);
#818=LINE('',#2022,#905);
#819=LINE('',#2024,#906);
#820=LINE('',#2026,#907);
#821=LINE('',#2029,#908);
#822=LINE('',#2031,#909);
#823=LINE('',#2035,#910);
#824=LINE('',#2037,#911);
#825=VECTOR('',#1345,1.);
#826=VECTOR('',#1346,1.);
#827=VECTOR('',#1347,1.);
#828=VECTOR('',#1348,1.);
#829=VECTOR('',#1353,1.);
#830=VECTOR('',#1358,1.);
#831=VECTOR('',#1359,1.);
#832=VECTOR('',#1360,1.);
#833=VECTOR('',#1365,1.);
#834=VECTOR('',#1370,1.);
#835=VECTOR('',#1371,1.);
#836=VECTOR('',#1372,1.);
#837=VECTOR('',#1377,1.);
#838=VECTOR('',#1382,1.);
#839=VECTOR('',#1383,1.);
#840=VECTOR('',#1384,1.);
#841=VECTOR('',#1385,1.);
#842=VECTOR('',#1394,1.);
#843=VECTOR('',#1395,1.);
#844=VECTOR('',#1396,1.);
#845=VECTOR('',#1409,1.);
#846=VECTOR('',#1412,1.);
#847=VECTOR('',#1419,1.);
#848=VECTOR('',#1420,1.);
#849=VECTOR('',#1421,1.);
#850=VECTOR('',#1432,1.);
#851=VECTOR('',#1435,1.);
#852=VECTOR('',#1436,1.);
#853=VECTOR('',#1439,1.);
#854=VECTOR('',#1440,1.);
#855=VECTOR('',#1459,1.);
#856=VECTOR('',#1462,1.);
#857=VECTOR('',#1465,1.);
#858=VECTOR('',#1472,1.);
#859=VECTOR('',#1477,1.);
#860=VECTOR('',#1478,1.);
#861=VECTOR('',#1483,1.);
#862=VECTOR('',#1484,1.);
#863=VECTOR('',#1487,1.);
#864=VECTOR('',#1508,1.);
#865=VECTOR('',#1509,1.);
#866=VECTOR('',#1510,1.);
#867=VECTOR('',#1511,1.);
#868=VECTOR('',#1514,1.);
#869=VECTOR('',#1523,1.);
#870=VECTOR('',#1524,1.);
#871=VECTOR('',#1525,1.);
#872=VECTOR('',#1532,1.);
#873=VECTOR('',#1539,1.);
#874=VECTOR('',#1540,1.);
#875=VECTOR('',#1541,1.);
#876=VECTOR('',#1550,1.);
#877=VECTOR('',#1555,1.);
#878=VECTOR('',#1558,1.);
#879=VECTOR('',#1559,1.);
#880=VECTOR('',#1560,1.);
#881=VECTOR('',#1563,1.);
#882=VECTOR('',#1564,1.);
#883=VECTOR('',#1569,1.);
#884=VECTOR('',#1570,1.);
#885=VECTOR('',#1573,1.);
#886=VECTOR('',#1574,1.);
#887=VECTOR('',#1577,1.);
#888=VECTOR('',#1578,1.);
#889=VECTOR('',#1579,1.);
#890=VECTOR('',#1580,1.);
#891=VECTOR('',#1583,1.);
#892=VECTOR('',#1584,1.);
#893=VECTOR('',#1589,1.);
#894=VECTOR('',#1592,1.);
#895=VECTOR('',#1593,1.);
#896=VECTOR('',#1596,1.);
#897=VECTOR('',#1597,1.);
#898=VECTOR('',#1598,1.);
#899=VECTOR('',#1601,1.);
#900=VECTOR('',#1620,1.);
#901=VECTOR('',#1621,1.);
#902=VECTOR('',#1626,1.);
#903=VECTOR('',#1627,1.);
#904=VECTOR('',#1630,1.);
#905=VECTOR('',#1633,1.);
#906=VECTOR('',#1636,1.);
#907=VECTOR('',#1637,1.);
#908=VECTOR('',#1642,1.);
#909=VECTOR('',#1643,1.);
#910=VECTOR('',#1650,1.);
#911=VECTOR('',#1651,1.);
#912=EDGE_LOOP('',(#131,#132,#133,#134));
#913=EDGE_LOOP('',(#135,#136,#137,#138));
#914=EDGE_LOOP('',(#139,#140,#141,#142));
#915=EDGE_LOOP('',(#143,#144,#145,#146));
#916=EDGE_LOOP('',(#147,#148,#149,#150));
#917=EDGE_LOOP('',(#151,#152,#153,#154));
#918=EDGE_LOOP('',(#155,#156,#157,#158,#159));
#919=EDGE_LOOP('',(#160));
#920=EDGE_LOOP('',(#161));
#921=EDGE_LOOP('',(#162,#163,#164,#165));
#922=EDGE_LOOP('',(#166));
#923=EDGE_LOOP('',(#167));
#924=EDGE_LOOP('',(#168));
#925=EDGE_LOOP('',(#169));
#926=EDGE_LOOP('',(#170,#171,#172,#173,#174,#175,#176,#177));
#927=EDGE_LOOP('',(#178,#179,#180,#181,#182,#183,#184,#185,#186));
#928=EDGE_LOOP('',(#187));
#929=EDGE_LOOP('',(#188));
#930=EDGE_LOOP('',(#189));
#931=EDGE_LOOP('',(#190));
#932=EDGE_LOOP('',(#191));
#933=EDGE_LOOP('',(#192));
#934=EDGE_LOOP('',(#193,#194,#195,#196));
#935=EDGE_LOOP('',(#197,#198,#199,#200,#201,#202,#203,#204,#205,#206,#207));
#936=EDGE_LOOP('',(#208,#209,#210,#211,#212,#213));
#937=EDGE_LOOP('',(#214));
#938=EDGE_LOOP('',(#215,#216,#217,#218,#219,#220,#221,#222,#223,#224));
#939=EDGE_LOOP('',(#225,#226,#227,#228,#229));
#940=EDGE_LOOP('',(#230,#231,#232,#233,#234,#235,#236,#237));
#941=EDGE_LOOP('',(#238));
#942=EDGE_LOOP('',(#239));
#943=EDGE_LOOP('',(#240));
#944=EDGE_LOOP('',(#241));
#945=EDGE_LOOP('',(#242));
#946=EDGE_LOOP('',(#243,#244,#245,#246));
#947=EDGE_LOOP('',(#247,#248,#249,#250));
#948=EDGE_LOOP('',(#251,#252,#253,#254,#255,#256));
#949=EDGE_LOOP('',(#257,#258,#259,#260,#261));
#950=EDGE_LOOP('',(#262,#263,#264,#265));
#951=EDGE_LOOP('',(#266,#267,#268,#269));
#952=EDGE_LOOP('',(#270,#271,#272,#273));
#953=EDGE_LOOP('',(#274,#275));
#954=EDGE_LOOP('',(#276,#277,#278,#279,#280,#281,#282,#283,#284));
#955=EDGE_LOOP('',(#285,#286,#287,#288,#289,#290,#291,#292));
#956=EDGE_LOOP('',(#293,#294,#295,#296));
#957=EDGE_LOOP('',(#297,#298,#299,#300));
#958=EDGE_LOOP('',(#301,#302,#303,#304,#305,#306));
#959=EDGE_LOOP('',(#307,#308,#309,#310));
#960=EDGE_LOOP('',(#311,#312,#313,#314));
#961=EDGE_LOOP('',(#315,#316,#317,#318));
#962=EDGE_LOOP('',(#319,#320,#321,#322,#323,#324));
#963=EDGE_LOOP('',(#325,#326,#327,#328));
#964=EDGE_LOOP('',(#329,#330));
#965=EDGE_LOOP('',(#331));
#966=EDGE_LOOP('',(#332,#333,#334,#335,#336,#337));
#967=EDGE_LOOP('',(#338));
#968=EDGE_LOOP('',(#339,#340,#341,#342,#343,#344));
#969=EDGE_LOOP('',(#345,#346,#347,#348));
#970=EDGE_LOOP('',(#349,#350));
#971=EDGE_LOOP('',(#351,#352,#353,#354,#355,#356));
#972=EDGE_LOOP('',(#357,#358,#359,#360));
#973=EDGE_LOOP('',(#361,#362,#363,#364));
#974=EDGE_LOOP('',(#365,#366,#367,#368,#369));
#975=EDGE_LOOP('',(#370,#371,#372,#373));
#976=EDGE_LOOP('',(#374,#375,#376,#377));
#977=EDGE_LOOP('',(#378,#379,#380,#381,#382,#383));
#978=EDGE_LOOP('',(#384,#385,#386,#387));
#979=EDGE_LOOP('',(#388,#389,#390,#391));
#980=EDGE_LOOP('',(#392,#393,#394,#395));
#981=EDGE_LOOP('',(#396,#397,#398,#399,#400,#401));
#982=EDGE_LOOP('',(#402,#403,#404,#405));
#983=EDGE_LOOP('',(#406,#407,#408,#409,#410));
#984=EDGE_LOOP('',(#411,#412,#413,#414));
#985=EDGE_LOOP('',(#415,#416,#417,#418,#419));
#986=EDGE_LOOP('',(#420,#421,#422,#423));
#987=EDGE_LOOP('',(#424,#425,#426,#427));
#988=EDGE_LOOP('',(#428,#429,#430,#431));
#989=EDGE_LOOP('',(#432,#433,#434,#435,#436));
#990=EDGE_LOOP('',(#437,#438,#439,#440));
#991=EDGE_LOOP('',(#441,#442,#443,#444));
#992=EDGE_LOOP('',(#445,#446,#447,#448));
#993=EDGE_LOOP('',(#449,#450,#451,#452));
#994=EDGE_LOOP('',(#453,#454,#455,#456));
#995=EDGE_LOOP('',(#457,#458,#459,#460));
#996=EDGE_LOOP('',(#461,#462,#463,#464));
#997=FACE_BOUND('',#912,.T.);
#998=FACE_BOUND('',#913,.T.);
#999=FACE_BOUND('',#914,.T.);
#1000=FACE_BOUND('',#915,.T.);
#1001=FACE_BOUND('',#916,.T.);
#1002=FACE_BOUND('',#917,.T.);
#1003=FACE_BOUND('',#918,.T.);
#1004=FACE_BOUND('',#919,.T.);
#1005=FACE_BOUND('',#920,.T.);
#1006=FACE_BOUND('',#921,.T.);
#1007=FACE_BOUND('',#922,.T.);
#1008=FACE_BOUND('',#923,.T.);
#1009=FACE_BOUND('',#924,.T.);
#1010=FACE_BOUND('',#925,.T.);
#1011=FACE_BOUND('',#926,.T.);
#1012=FACE_BOUND('',#927,.T.);
#1013=FACE_BOUND('',#928,.T.);
#1014=FACE_BOUND('',#929,.T.);
#1015=FACE_BOUND('',#930,.T.);
#1016=FACE_BOUND('',#931,.T.);
#1017=FACE_BOUND('',#932,.T.);
#1018=FACE_BOUND('',#933,.T.);
#1019=FACE_BOUND('',#934,.T.);
#1020=FACE_BOUND('',#935,.T.);
#1021=FACE_BOUND('',#936,.T.);
#1022=FACE_BOUND('',#937,.T.);
#1023=FACE_BOUND('',#938,.T.);
#1024=FACE_BOUND('',#939,.T.);
#1025=FACE_BOUND('',#940,.T.);
#1026=FACE_BOUND('',#941,.T.);
#1027=FACE_BOUND('',#942,.T.);
#1028=FACE_BOUND('',#943,.T.);
#1029=FACE_BOUND('',#944,.T.);
#1030=FACE_BOUND('',#945,.T.);
#1031=FACE_BOUND('',#946,.T.);
#1032=FACE_BOUND('',#947,.T.);
#1033=FACE_BOUND('',#948,.T.);
#1034=FACE_BOUND('',#949,.T.);
#1035=FACE_BOUND('',#950,.T.);
#1036=FACE_BOUND('',#951,.T.);
#1037=FACE_BOUND('',#952,.T.);
#1038=FACE_BOUND('',#953,.T.);
#1039=FACE_BOUND('',#954,.T.);
#1040=FACE_BOUND('',#955,.T.);
#1041=FACE_BOUND('',#956,.T.);
#1042=FACE_BOUND('',#957,.T.);
#1043=FACE_BOUND('',#958,.T.);
#1044=FACE_BOUND('',#959,.T.);
#1045=FACE_BOUND('',#960,.T.);
#1046=FACE_BOUND('',#961,.T.);
#1047=FACE_BOUND('',#962,.T.);
#1048=FACE_BOUND('',#963,.T.);
#1049=FACE_BOUND('',#964,.T.);
#1050=FACE_BOUND('',#965,.T.);
#1051=FACE_BOUND('',#966,.T.);
#1052=FACE_BOUND('',#967,.T.);
#1053=FACE_BOUND('',#968,.T.);
#1054=FACE_BOUND('',#969,.T.);
#1055=FACE_BOUND('',#970,.T.);
#1056=FACE_BOUND('',#971,.T.);
#1057=FACE_BOUND('',#972,.T.);
#1058=FACE_BOUND('',#973,.T.);
#1059=FACE_BOUND('',#974,.T.);
#1060=FACE_BOUND('',#975,.T.);
#1061=FACE_BOUND('',#976,.T.);
#1062=FACE_BOUND('',#977,.T.);
#1063=FACE_BOUND('',#978,.T.);
#1064=FACE_BOUND('',#979,.T.);
#1065=FACE_BOUND('',#980,.T.);
#1066=FACE_BOUND('',#981,.T.);
#1067=FACE_BOUND('',#982,.T.);
#1068=FACE_BOUND('',#983,.T.);
#1069=FACE_BOUND('',#984,.T.);
#1070=FACE_BOUND('',#985,.T.);
#1071=FACE_BOUND('',#986,.T.);
#1072=FACE_BOUND('',#987,.T.);
#1073=FACE_BOUND('',#988,.T.);
#1074=FACE_BOUND('',#989,.T.);
#1075=FACE_BOUND('',#990,.T.);
#1076=FACE_BOUND('',#991,.T.);
#1077=FACE_BOUND('',#992,.T.);
#1078=FACE_BOUND('',#993,.T.);
#1079=FACE_BOUND('',#994,.T.);
#1080=FACE_BOUND('',#995,.T.);
#1081=FACE_BOUND('',#996,.T.);
#1082=PLANE('',#1194);
#1083=PLANE('',#1198);
#1084=PLANE('',#1202);
#1085=PLANE('',#1206);
#1086=PLANE('',#1210);
#1087=PLANE('',#1214);
#1088=PLANE('',#1217);
#1089=PLANE('',#1220);
#1090=PLANE('',#1221);
#1091=PLANE('',#1228);
#1092=PLANE('',#1235);
#1093=PLANE('',#1243);
#1094=PLANE('',#1245);
#1095=PLANE('',#1256);
#1096=PLANE('',#1260);
#1097=PLANE('',#1267);
#1098=PLANE('',#1271);
#1099=PLANE('',#1273);
#1100=PLANE('',#1278);
#1101=PLANE('',#1279);
#1102=PLANE('',#1280);
#1103=PLANE('',#1283);
#1104=PLANE('',#1284);
#1105=PLANE('',#1285);
#1106=PLANE('',#1286);
#1107=PLANE('',#1288);
#1108=PLANE('',#1290);
#1109=PLANE('',#1299);
#1110=PLANE('',#1301);
#1111=PLANE('',#1304);
#1112=ADVANCED_FACE('',(#997),#1082,.F.);
#1113=ADVANCED_FACE('',(#998),#104,.T.);
#1114=ADVANCED_FACE('',(#999),#1083,.F.);
#1115=ADVANCED_FACE('',(#1000),#105,.T.);
#1116=ADVANCED_FACE('',(#1001),#1084,.T.);
#1117=ADVANCED_FACE('',(#1002),#106,.T.);
#1118=ADVANCED_FACE('',(#1003),#1085,.T.);
#1119=ADVANCED_FACE('',(#1004,#1005),#107,.F.);
#1120=ADVANCED_FACE('',(#1006),#1086,.F.);
#1121=ADVANCED_FACE('',(#1007,#1008),#108,.F.);
#1122=ADVANCED_FACE('',(#1009,#1010,#1011),#1087,.T.);
#1123=ADVANCED_FACE('',(#1012,#1013,#1014),#1088,.F.);
#1124=ADVANCED_FACE('',(#1015,#1016),#24,.F.);
#1125=ADVANCED_FACE('',(#1017,#1018),#25,.F.);
#1126=ADVANCED_FACE('',(#1019),#1089,.T.);
#1127=ADVANCED_FACE('',(#1020),#1090,.T.);
#1128=ADVANCED_FACE('',(#1021),#1091,.T.);
#1129=ADVANCED_FACE('',(#1022,#1023),#1092,.T.);
#1130=ADVANCED_FACE('',(#1024),#1093,.T.);
#1131=ADVANCED_FACE('',(#1025,#1026),#1094,.T.);
#1132=ADVANCED_FACE('',(#1027,#1028),#109,.F.);
#1133=ADVANCED_FACE('',(#1029,#1030),#110,.F.);
#1134=ADVANCED_FACE('',(#1031),#1095,.T.);
#1135=ADVANCED_FACE('',(#1032),#111,.T.);
#1136=ADVANCED_FACE('',(#1033),#1096,.T.);
#1137=ADVANCED_FACE('',(#1034),#112,.T.);
#1138=ADVANCED_FACE('',(#1035),#113,.T.);
#1139=ADVANCED_FACE('',(#1036),#1097,.T.);
#1140=ADVANCED_FACE('',(#1037),#114,.T.);
#1141=ADVANCED_FACE('',(#1038),#1098,.T.);
#1142=ADVANCED_FACE('',(#1039,#1040),#1099,.F.);
#1143=ADVANCED_FACE('',(#1041),#115,.F.);
#1144=ADVANCED_FACE('',(#1042),#1100,.T.);
#1145=ADVANCED_FACE('',(#1043),#1101,.T.);
#1146=ADVANCED_FACE('',(#1044),#1102,.F.);
#1147=ADVANCED_FACE('',(#1045),#116,.F.);
#1148=ADVANCED_FACE('',(#1046),#1103,.T.);
#1149=ADVANCED_FACE('',(#1047),#1104,.F.);
#1150=ADVANCED_FACE('',(#1048),#1105,.F.);
#1151=ADVANCED_FACE('',(#1049),#1106,.T.);
#1152=ADVANCED_FACE('',(#1050,#1051),#1107,.F.);
#1153=ADVANCED_FACE('',(#1052,#1053),#1108,.F.);
#1154=ADVANCED_FACE('',(#1054,#1055),#117,.F.);
#1155=ADVANCED_FACE('',(#1056),#118,.T.);
#1156=ADVANCED_FACE('',(#1057),#119,.F.);
#1157=ADVANCED_FACE('',(#1058),#120,.F.);
#1158=ADVANCED_FACE('',(#1059),#1109,.T.);
#1159=ADVANCED_FACE('',(#1060),#1110,.T.);
#1160=ADVANCED_FACE('',(#1061),#121,.T.);
#1161=ADVANCED_FACE('',(#1062),#1111,.T.);
#1162=ADVANCED_FACE('',(#1063),#12,.T.);
#1163=ADVANCED_FACE('',(#1064),#122,.T.);
#1164=ADVANCED_FACE('',(#1065),#13,.T.);
#1165=ADVANCED_FACE('',(#1066),#123,.T.);
#1166=ADVANCED_FACE('',(#1067),#14,.T.);
#1167=ADVANCED_FACE('',(#1068),#124,.T.);
#1168=ADVANCED_FACE('',(#1069),#125,.T.);
#1169=ADVANCED_FACE('',(#1070),#15,.T.);
#1170=ADVANCED_FACE('',(#1071),#126,.T.);
#1171=ADVANCED_FACE('',(#1072),#16,.T.);
#1172=ADVANCED_FACE('',(#1073),#17,.T.);
#1173=ADVANCED_FACE('',(#1074),#18,.T.);
#1174=ADVANCED_FACE('',(#1075),#127,.T.);
#1175=ADVANCED_FACE('',(#1076),#128,.T.);
#1176=ADVANCED_FACE('',(#1077),#19,.T.);
#1177=ADVANCED_FACE('',(#1078),#129,.T.);
#1178=ADVANCED_FACE('',(#1079),#20,.T.);
#1179=ADVANCED_FACE('',(#1080),#130,.T.);
#1180=ADVANCED_FACE('',(#1081),#21,.T.);
#1181=CLOSED_SHELL('',(#1112,#1113,#1114,#1115,#1116,#1117,#1118,#1119,
#1120,#1121,#1122,#1123,#1124,#1125,#1126,#1127,#1128,#1129,#1130,#1131,
#1132,#1133,#1134,#1135,#1136,#1137,#1138,#1139,#1140,#1141,#1142,#1143,
#1144,#1145,#1146,#1147,#1148,#1149,#1150,#1151,#1152,#1153,#1154,#1155,
#1156,#1157,#1158,#1159,#1160,#1161,#1162,#1163,#1164,#1165,#1166,#1167,
#1168,#1169,#1170,#1171,#1172,#1173,#1174,#1175,#1176,#1177,#1178,#1179,
#1180));
#1182=STYLED_ITEM('',(#1183),#1190);
#1183=PRESENTATION_STYLE_ASSIGNMENT((#1184));
#1184=SURFACE_STYLE_USAGE(.BOTH.,#1185);
#1185=SURFACE_SIDE_STYLE('',(#1186));
#1186=SURFACE_STYLE_FILL_AREA(#1187);
#1187=FILL_AREA_STYLE('',(#1188));
#1188=FILL_AREA_STYLE_COLOUR('',#1189);
#1189=COLOUR_RGB('',0.980392156862745,0.713725490196078,0.00392156862745098);
#1190=MANIFOLD_SOLID_BREP('BLTouch-holder',#1181);
#1191=SHAPE_DEFINITION_REPRESENTATION(#2084,#1192);
#1192=SHAPE_REPRESENTATION('BLTouch-holder',(#1193),#2079);
#1193=AXIS2_PLACEMENT_3D('',#1724,#1341,#1342);
#1194=AXIS2_PLACEMENT_3D('',#1725,#1343,#1344);
#1195=AXIS2_PLACEMENT_3D('',#1734,#1349,#1350);
#1196=AXIS2_PLACEMENT_3D('',#1735,#1351,#1352);
#1197=AXIS2_PLACEMENT_3D('',#1739,#1354,#1355);
#1198=AXIS2_PLACEMENT_3D('',#1740,#1356,#1357);
#1199=AXIS2_PLACEMENT_3D('',#1746,#1361,#1362);
#1200=AXIS2_PLACEMENT_3D('',#1747,#1363,#1364);
#1201=AXIS2_PLACEMENT_3D('',#1751,#1366,#1367);
#1202=AXIS2_PLACEMENT_3D('',#1752,#1368,#1369);
#1203=AXIS2_PLACEMENT_3D('',#1758,#1373,#1374);
#1204=AXIS2_PLACEMENT_3D('',#1759,#1375,#1376);
#1205=AXIS2_PLACEMENT_3D('',#1763,#1378,#1379);
#1206=AXIS2_PLACEMENT_3D('',#1764,#1380,#1381);
#1207=AXIS2_PLACEMENT_3D('',#1772,#1386,#1387);
#1208=AXIS2_PLACEMENT_3D('',#1773,#1388,#1389);
#1209=AXIS2_PLACEMENT_3D('',#1775,#1390,#1391);
#1210=AXIS2_PLACEMENT_3D('',#1777,#1392,#1393);
#1211=AXIS2_PLACEMENT_3D('',#1783,#1397,#1398);
#1212=AXIS2_PLACEMENT_3D('',#1784,#1399,#1400);
#1213=AXIS2_PLACEMENT_3D('',#1786,#1401,#1402);
#1214=AXIS2_PLACEMENT_3D('',#1788,#1403,#1404);
#1215=AXIS2_PLACEMENT_3D('',#1789,#1405,#1406);
#1216=AXIS2_PLACEMENT_3D('',#1791,#1407,#1408);
#1217=AXIS2_PLACEMENT_3D('',#1794,#1410,#1411);
#1218=AXIS2_PLACEMENT_3D('',#1796,#1413,#1414);
#1219=AXIS2_PLACEMENT_3D('',#1797,#1415,#1416);
#1220=AXIS2_PLACEMENT_3D('',#1798,#1417,#1418);
#1221=AXIS2_PLACEMENT_3D('',#1804,#1422,#1423);
#1222=AXIS2_PLACEMENT_3D('',#1805,#1424,#1425);
#1223=AXIS2_PLACEMENT_3D('',#1808,#1426,#1427);
#1224=AXIS2_PLACEMENT_3D('',#1810,#1428,#1429);
#1225=AXIS2_PLACEMENT_3D('',#1812,#1430,#1431);
#1226=AXIS2_PLACEMENT_3D('',#1816,#1433,#1434);
#1227=AXIS2_PLACEMENT_3D('',#1822,#1437,#1438);
#1228=AXIS2_PLACEMENT_3D('',#1827,#1441,#1442);
#1229=AXIS2_PLACEMENT_3D('',#1828,#1443,#1444);
#1230=AXIS2_PLACEMENT_3D('',#1831,#1445,#1446);
#1231=AXIS2_PLACEMENT_3D('',#1832,#1447,#1448);
#1232=AXIS2_PLACEMENT_3D('',#1833,#1449,#1450);
#1233=AXIS2_PLACEMENT_3D('',#1835,#1451,#1452);
#1234=AXIS2_PLACEMENT_3D('',#1837,#1453,#1454);
#1235=AXIS2_PLACEMENT_3D('',#1838,#1455,#1456);
#1236=AXIS2_PLACEMENT_3D('',#1839,#1457,#1458);
#1237=AXIS2_PLACEMENT_3D('',#1844,#1460,#1461);
#1238=AXIS2_PLACEMENT_3D('',#1848,#1463,#1464);
#1239=AXIS2_PLACEMENT_3D('',#1852,#1466,#1467);
#1240=AXIS2_PLACEMENT_3D('',#1854,#1468,#1469);
#1241=AXIS2_PLACEMENT_3D('',#1856,#1470,#1471);
#1242=AXIS2_PLACEMENT_3D('',#1860,#1473,#1474);
#1243=AXIS2_PLACEMENT_3D('',#1861,#1475,#1476);
#1244=AXIS2_PLACEMENT_3D('',#1865,#1479,#1480);
#1245=AXIS2_PLACEMENT_3D('',#1866,#1481,#1482);
#1246=AXIS2_PLACEMENT_3D('',#1872,#1485,#1486);
#1247=AXIS2_PLACEMENT_3D('',#1876,#1488,#1489);
#1248=AXIS2_PLACEMENT_3D('',#1878,#1490,#1491);
#1249=AXIS2_PLACEMENT_3D('',#1880,#1492,#1493);
#1250=AXIS2_PLACEMENT_3D('',#1882,#1494,#1495);
#1251=AXIS2_PLACEMENT_3D('',#1883,#1496,#1497);
#1252=AXIS2_PLACEMENT_3D('',#1885,#1498,#1499);
#1253=AXIS2_PLACEMENT_3D('',#1886,#1500,#1501);
#1254=AXIS2_PLACEMENT_3D('',#1888,#1502,#1503);
#1255=AXIS2_PLACEMENT_3D('',#1889,#1504,#1505);
#1256=AXIS2_PLACEMENT_3D('',#1891,#1506,#1507);
#1257=AXIS2_PLACEMENT_3D('',#1900,#1512,#1513);
#1258=AXIS2_PLACEMENT_3D('',#1904,#1515,#1516);
#1259=AXIS2_PLACEMENT_3D('',#1905,#1517,#1518);
#1260=AXIS2_PLACEMENT_3D('',#1906,#1519,#1520);
#1261=AXIS2_PLACEMENT_3D('',#1907,#1521,#1522);
#1262=AXIS2_PLACEMENT_3D('',#1913,#1526,#1527);
#1263=AXIS2_PLACEMENT_3D('',#1914,#1528,#1529);
#1264=AXIS2_PLACEMENT_3D('',#1915,#1530,#1531);
#1265=AXIS2_PLACEMENT_3D('',#1919,#1533,#1534);
#1266=AXIS2_PLACEMENT_3D('',#1920,#1535,#1536);
#1267=AXIS2_PLACEMENT_3D('',#1921,#1537,#1538);
#1268=AXIS2_PLACEMENT_3D('',#1927,#1542,#1543);
#1269=AXIS2_PLACEMENT_3D('',#1928,#1544,#1545);
#1270=AXIS2_PLACEMENT_3D('',#1929,#1546,#1547);
#1271=AXIS2_PLACEMENT_3D('',#1930,#1548,#1549);
#1272=AXIS2_PLACEMENT_3D('',#1934,#1551,#1552);
#1273=AXIS2_PLACEMENT_3D('',#1935,#1553,#1554);
#1274=AXIS2_PLACEMENT_3D('',#1939,#1556,#1557);
#1275=AXIS2_PLACEMENT_3D('',#1947,#1561,#1562);
#1276=AXIS2_PLACEMENT_3D('',#1952,#1565,#1566);
#1277=AXIS2_PLACEMENT_3D('',#1953,#1567,#1568);
#1278=AXIS2_PLACEMENT_3D('',#1958,#1571,#1572);
#1279=AXIS2_PLACEMENT_3D('',#1962,#1575,#1576);
#1280=AXIS2_PLACEMENT_3D('',#1970,#1581,#1582);
#1281=AXIS2_PLACEMENT_3D('',#1974,#1585,#1586);
#1282=AXIS2_PLACEMENT_3D('',#1975,#1587,#1588);
#1283=AXIS2_PLACEMENT_3D('',#1978,#1590,#1591);
#1284=AXIS2_PLACEMENT_3D('',#1982,#1594,#1595);
#1285=AXIS2_PLACEMENT_3D('',#1987,#1599,#1600);
#1286=AXIS2_PLACEMENT_3D('',#1989,#1602,#1603);
#1287=AXIS2_PLACEMENT_3D('',#1990,#1604,#1605);
#1288=AXIS2_PLACEMENT_3D('',#1991,#1606,#1607);
#1289=AXIS2_PLACEMENT_3D('',#1992,#1608,#1609);
#1290=AXIS2_PLACEMENT_3D('',#1993,#1610,#1611);
#1291=AXIS2_PLACEMENT_3D('',#1994,#1612,#1613);
#1292=AXIS2_PLACEMENT_3D('',#1995,#1614,#1615);
#1293=AXIS2_PLACEMENT_3D('',#1996,#1616,#1617);
#1294=AXIS2_PLACEMENT_3D('',#1997,#1618,#1619);
#1295=AXIS2_PLACEMENT_3D('',#2011,#1622,#1623);
#1296=AXIS2_PLACEMENT_3D('',#2012,#1624,#1625);
#1297=AXIS2_PLACEMENT_3D('',#2017,#1628,#1629);
#1298=AXIS2_PLACEMENT_3D('',#2020,#1631,#1632);
#1299=AXIS2_PLACEMENT_3D('',#2023,#1634,#1635);
#1300=AXIS2_PLACEMENT_3D('',#2027,#1638,#1639);
#1301=AXIS2_PLACEMENT_3D('',#2028,#1640,#1641);
#1302=AXIS2_PLACEMENT_3D('',#2032,#1644,#1645);
#1303=AXIS2_PLACEMENT_3D('',#2033,#1646,#1647);
#1304=AXIS2_PLACEMENT_3D('',#2034,#1648,#1649);
#1305=AXIS2_PLACEMENT_3D('',#2038,#1652,#1653);
#1306=AXIS2_PLACEMENT_3D('',#2039,#1654,#1655);
#1307=AXIS2_PLACEMENT_3D('',#2040,#1656,#1657);
#1308=AXIS2_PLACEMENT_3D('',#2041,#1658,#1659);
#1309=AXIS2_PLACEMENT_3D('',#2042,#1660,#1661);
#1310=AXIS2_PLACEMENT_3D('',#2043,#1662,#1663);
#1311=AXIS2_PLACEMENT_3D('',#2044,#1664,#1665);
#1312=AXIS2_PLACEMENT_3D('',#2045,#1666,#1667);
#1313=AXIS2_PLACEMENT_3D('',#2046,#1668,#1669);
#1314=AXIS2_PLACEMENT_3D('',#2047,#1670,#1671);
#1315=AXIS2_PLACEMENT_3D('',#2048,#1672,#1673);
#1316=AXIS2_PLACEMENT_3D('',#2049,#1674,#1675);
#1317=AXIS2_PLACEMENT_3D('',#2050,#1676,#1677);
#1318=AXIS2_PLACEMENT_3D('',#2051,#1678,#1679);
#1319=AXIS2_PLACEMENT_3D('',#2052,#1680,#1681);
#1320=AXIS2_PLACEMENT_3D('',#2053,#1682,#1683);
#1321=AXIS2_PLACEMENT_3D('',#2054,#1684,#1685);
#1322=AXIS2_PLACEMENT_3D('',#2055,#1686,#1687);
#1323=AXIS2_PLACEMENT_3D('',#2056,#1688,#1689);
#1324=AXIS2_PLACEMENT_3D('',#2057,#1690,#1691);
#1325=AXIS2_PLACEMENT_3D('',#2058,#1692,#1693);
#1326=AXIS2_PLACEMENT_3D('',#2059,#1694,#1695);
#1327=AXIS2_PLACEMENT_3D('',#2060,#1696,#1697);
#1328=AXIS2_PLACEMENT_3D('',#2061,#1698,#1699);
#1329=AXIS2_PLACEMENT_3D('',#2062,#1700,#1701);
#1330=AXIS2_PLACEMENT_3D('',#2063,#1702,#1703);
#1331=AXIS2_PLACEMENT_3D('',#2068,#1704,#1705);
#1332=AXIS2_PLACEMENT_3D('',#2069,#1706,#1707);
#1333=AXIS2_PLACEMENT_3D('',#2070,#1708,#1709);
#1334=AXIS2_PLACEMENT_3D('',#2071,#1710,#1711);
#1335=AXIS2_PLACEMENT_3D('',#2072,#1712,#1713);
#1336=AXIS2_PLACEMENT_3D('',#2073,#1714,#1715);
#1337=AXIS2_PLACEMENT_3D('',#2074,#1716,#1717);
#1338=AXIS2_PLACEMENT_3D('',#2075,#1718,#1719);
#1339=AXIS2_PLACEMENT_3D('',#2076,#1720,#1721);
#1340=AXIS2_PLACEMENT_3D('',#2077,#1722,#1723);
#1341=DIRECTION('',(0.,0.,1.));
#1342=DIRECTION('',(1.,0.,0.));
#1343=DIRECTION('',(-1.,0.,0.));
#1344=DIRECTION('',(0.,1.,0.));
#1345=DIRECTION('',(7.49879891330929E-33,1.,6.12323399573677E-17));
#1346=DIRECTION('',(0.,0.,-1.));
#1347=DIRECTION('',(0.,-1.,0.));
#1348=DIRECTION('',(0.,0.,-1.));
#1349=DIRECTION('',(0.,-1.,0.));
#1350=DIRECTION('',(-1.,0.,0.));
#1351=DIRECTION('',(0.,1.,0.));
#1352=DIRECTION('',(1.,0.,0.));
#1353=DIRECTION('',(0.,-1.,0.));
#1354=DIRECTION('',(0.,1.,0.));
#1355=DIRECTION('',(1.,0.,0.));
#1356=DIRECTION('',(0.,0.,1.));
#1357=DIRECTION('',(0.,-1.,0.));
#1358=DIRECTION('',(-1.,0.,0.));
#1359=DIRECTION('',(0.,-1.,0.));
#1360=DIRECTION('',(-1.,0.,0.));
#1361=DIRECTION('',(0.,-1.,0.));
#1362=DIRECTION('',(-1.,0.,0.));
#1363=DIRECTION('',(0.,1.,0.));
#1364=DIRECTION('',(0.,2.7755575615629E-15,-1.));
#1365=DIRECTION('',(0.,-1.,0.));
#1366=DIRECTION('',(0.,1.,0.));
#1367=DIRECTION('',(0.,2.7755575615629E-15,-1.));
#1368=DIRECTION('',(-1.,0.,3.1540426835942E-16));
#1369=DIRECTION('',(3.1540426835942E-16,0.,1.));
#1370=DIRECTION('',(-3.1540426835942E-16,0.,-1.));
#1371=DIRECTION('',(0.,-1.,0.));
#1372=DIRECTION('',(-3.1540426835942E-16,0.,-1.));
#1373=DIRECTION('',(0.,-1.,0.));
#1374=DIRECTION('',(-1.,0.,0.));
#1375=DIRECTION('',(0.,1.,0.));
#1376=DIRECTION('',(-1.,0.,1.38777878078145E-15));
#1377=DIRECTION('',(0.,-1.,0.));
#1378=DIRECTION('',(0.,1.,0.));
#1379=DIRECTION('',(-1.,0.,1.38777878078145E-15));
#1380=DIRECTION('',(0.,0.,1.));
#1381=DIRECTION('',(0.,-1.,0.));
#1382=DIRECTION('',(-1.,0.,0.));
#1383=DIRECTION('',(0.,-1.,0.));
#1384=DIRECTION('',(0.,-1.,0.));
#1385=DIRECTION('',(-1.,0.,0.));
#1386=DIRECTION('',(0.,-1.,0.));
#1387=DIRECTION('',(-1.,0.,0.));
#1388=DIRECTION('',(0.,1.,0.));
#1389=DIRECTION('',(1.,0.,0.));
#1390=DIRECTION('',(0.,1.,0.));
#1391=DIRECTION('',(1.,0.,0.));
#1392=DIRECTION('',(-1.,0.,0.));
#1393=DIRECTION('',(0.,1.,0.));
#1394=DIRECTION('',(7.49879891330929E-33,1.,6.12323399573677E-17));
#1395=DIRECTION('',(1.22464679914735E-16,-6.12323399573677E-17,1.));
#1396=DIRECTION('',(0.,0.,-1.));
#1397=DIRECTION('',(0.,-1.,0.));
#1398=DIRECTION('',(-1.,0.,0.));
#1399=DIRECTION('',(0.,1.,0.));
#1400=DIRECTION('',(1.,0.,0.));
#1401=DIRECTION('',(0.,1.,0.));
#1402=DIRECTION('',(1.,0.,0.));
#1403=DIRECTION('',(0.,1.,0.));
#1404=DIRECTION('',(1.,0.,0.));
#1405=DIRECTION('',(0.,1.,0.));
#1406=DIRECTION('',(1.,0.,0.));
#1407=DIRECTION('',(0.,1.,0.));
#1408=DIRECTION('',(1.,0.,0.));
#1409=DIRECTION('',(0.,0.,-1.));
#1410=DIRECTION('',(0.,1.,0.));
#1411=DIRECTION('',(1.,0.,0.));
#1412=DIRECTION('',(0.,0.,-1.));
#1413=DIRECTION('',(0.,1.,0.));
#1414=DIRECTION('',(1.,0.,0.));
#1415=DIRECTION('',(0.,1.,0.));
#1416=DIRECTION('',(1.,0.,0.));
#1417=DIRECTION('',(-1.,0.,1.22464679914735E-16));
#1418=DIRECTION('',(0.,-1.,0.));
#1419=DIRECTION('',(7.49879891330929E-33,1.,6.12323399573677E-17));
#1420=DIRECTION('',(7.49879891330929E-33,1.,6.12323399573677E-17));
#1421=DIRECTION('',(-1.22464679914735E-16,6.12323399573677E-17,-1.));
#1422=DIRECTION('',(1.22464679914735E-16,-6.12323399573677E-17,1.));
#1423=DIRECTION('',(1.,0.,-1.22464679914735E-16));
#1424=DIRECTION('',(1.22464679914735E-16,-6.12323399573677E-17,1.));
#1425=DIRECTION('',(7.49879891330929E-33,1.,6.12323399573677E-17));
#1426=DIRECTION('',(1.22464679914735E-16,-6.12323399573677E-17,1.));
#1427=DIRECTION('',(7.49879891330929E-33,1.,6.12323399573677E-17));
#1428=DIRECTION('',(1.22464679914735E-16,-6.12323399573677E-17,1.));
#1429=DIRECTION('',(-0.370358518328884,0.928888888888889,4.53558374008424E-17));
#1430=DIRECTION('',(1.22464679914735E-16,-6.12323399573677E-17,1.));
#1431=DIRECTION('',(7.49879891330929E-33,1.,6.12323399573677E-17));
#1432=DIRECTION('',(-1.,0.,1.22464679914735E-16));
#1433=DIRECTION('',(1.22464679914735E-16,-6.12323399573677E-17,1.));
#1434=DIRECTION('',(7.49879891330929E-33,1.,6.12323399573677E-17));
#1435=DIRECTION('',(-7.49879891330929E-33,-1.,-6.12323399573677E-17));
#1436=DIRECTION('',(1.,0.,-1.22464679914735E-16));
#1437=DIRECTION('',(1.22464679914735E-16,-6.12323399573677E-17,1.));
#1438=DIRECTION('',(0.,1.,0.));
#1439=DIRECTION('',(7.49879891330929E-33,1.,6.12323399573677E-17));
#1440=DIRECTION('',(1.,0.,-1.22464679914735E-16));
#1441=DIRECTION('',(1.22464679914735E-16,-6.12323399573677E-17,1.));
#1442=DIRECTION('',(1.,0.,-1.22464679914735E-16));
#1443=DIRECTION('',(1.22464679914735E-16,-6.12323399573677E-17,1.));
#1444=DIRECTION('',(7.49879891330929E-33,1.,6.12323399573677E-17));
#1445=DIRECTION('',(1.22464679914735E-16,-6.12323399573677E-17,1.));
#1446=DIRECTION('',(7.49879891330929E-33,1.,6.12323399573677E-17));
#1447=DIRECTION('',(1.22464679914735E-16,-6.12323399573677E-17,1.));
#1448=DIRECTION('',(-0.370358518328884,0.928888888888889,4.53558374008424E-17));
#1449=DIRECTION('',(1.22464679914735E-16,-6.12323399573677E-17,1.));
#1450=DIRECTION('',(7.49879891330929E-33,1.,6.12323399573677E-17));
#1451=DIRECTION('',(1.22464679914735E-16,-6.12323399573677E-17,1.));
#1452=DIRECTION('',(7.49879891330929E-33,1.,6.12323399573677E-17));
#1453=DIRECTION('',(1.22464679914735E-16,-6.12323399573677E-17,1.));
#1454=DIRECTION('',(7.49879891330929E-33,1.,6.12323399573677E-17));
#1455=DIRECTION('',(1.22464679914735E-16,-6.12323399573677E-17,1.));
#1456=DIRECTION('',(1.,0.,-1.22464679914735E-16));
#1457=DIRECTION('',(1.22464679914735E-16,-6.12323399573677E-17,1.));
#1458=DIRECTION('',(1.,0.,-1.22464679914735E-16));
#1459=DIRECTION('',(-7.49879891330929E-33,-1.,-6.12323399573677E-17));
#1460=DIRECTION('',(1.22464679914735E-16,-6.12323399573677E-17,1.));
#1461=DIRECTION('',(7.49879891330929E-33,1.,6.12323399573677E-17));
#1462=DIRECTION('',(-7.49879891330929E-33,-1.,-6.12323399573677E-17));
#1463=DIRECTION('',(1.22464679914735E-16,-6.12323399573677E-17,1.));
#1464=DIRECTION('',(-7.30409884621822E-15,-1.,8.94494127267702E-31));
#1465=DIRECTION('',(-1.,0.,1.22464679914735E-16));
#1466=DIRECTION('',(1.22464679914735E-16,-6.12323399573677E-17,1.));
#1467=DIRECTION('',(7.49879891330929E-33,1.,6.12323399573677E-17));
#1468=DIRECTION('',(1.22464679914735E-16,-6.12323399573677E-17,1.));
#1469=DIRECTION('',(7.49879891330929E-33,1.,6.12323399573677E-17));
#1470=DIRECTION('',(1.22464679914735E-16,-6.12323399573677E-17,1.));
#1471=DIRECTION('',(7.49879891330929E-33,1.,6.12323399573677E-17));
#1472=DIRECTION('',(-1.,0.,1.22464679914735E-16));
#1473=DIRECTION('',(1.22464679914735E-16,-6.12323399573677E-17,1.));
#1474=DIRECTION('',(7.49879891330929E-33,1.,6.12323399573677E-17));
#1475=DIRECTION('',(-1.,0.,1.22464679914735E-16));
#1476=DIRECTION('',(0.,-1.,0.));
#1477=DIRECTION('',(-1.22464679914735E-16,6.12323399573677E-17,-1.));
#1478=DIRECTION('',(1.22464679914735E-16,-6.12323399573677E-17,1.));
#1479=DIRECTION('',(-1.,0.,1.22464679914735E-16));
#1480=DIRECTION('',(0.,-1.,0.));
#1481=DIRECTION('',(1.22464679914735E-16,-6.12323399573677E-17,1.));
#1482=DIRECTION('',(1.,0.,-1.22464679914735E-16));
#1483=DIRECTION('',(1.,0.,-1.22464679914735E-16));
#1484=DIRECTION('',(7.49879891330929E-33,1.,6.12323399573677E-17));
#1485=DIRECTION('',(1.22464679914735E-16,-6.12323399573677E-17,1.));
#1486=DIRECTION('',(7.49879891330929E-33,1.,6.12323399573677E-17));
#1487=DIRECTION('',(-1.,0.,1.22464679914735E-16));
#1488=DIRECTION('',(1.22464679914735E-16,-6.12323399573677E-17,1.));
#1489=DIRECTION('',(7.49879891330929E-33,1.,6.12323399573677E-17));
#1490=DIRECTION('',(1.22464679914735E-16,-6.12323399573677E-17,1.));
#1491=DIRECTION('',(7.49879891330929E-33,1.,6.12323399573677E-17));
#1492=DIRECTION('',(1.22464679914735E-16,-6.12323399573677E-17,1.));
#1493=DIRECTION('',(7.49879891330929E-33,1.,6.12323399573677E-17));
#1494=DIRECTION('',(1.22464679914735E-16,-6.12323399573677E-17,1.));
#1495=DIRECTION('',(7.49879891330929E-33,1.,6.12323399573677E-17));
#1496=DIRECTION('',(1.22464679914735E-16,-6.12323399573677E-17,1.));
#1497=DIRECTION('',(1.,0.,-1.22464679914735E-16));
#1498=DIRECTION('',(-1.22464679914735E-16,6.12323399573677E-17,-1.));
#1499=DIRECTION('',(-7.49879891330929E-33,-1.,-6.12323399573677E-17));
#1500=DIRECTION('',(1.22464679914735E-16,-6.12323399573677E-17,1.));
#1501=DIRECTION('',(1.,0.,-1.22464679914735E-16));
#1502=DIRECTION('',(-1.22464679914735E-16,6.12323399573677E-17,-1.));
#1503=DIRECTION('',(-7.49879891330929E-33,-1.,-6.12323399573677E-17));
#1504=DIRECTION('',(1.22464679914735E-16,-6.12323399573677E-17,1.));
#1505=DIRECTION('',(1.,0.,-1.22464679914735E-16));
#1506=DIRECTION('',(1.,0.,-1.22464679914735E-16));
#1507=DIRECTION('',(0.,1.,0.));
#1508=DIRECTION('',(-1.22464679914735E-16,6.12323399573677E-17,-1.));
#1509=DIRECTION('',(-7.49879891330929E-33,-1.,-6.12323399573677E-17));
#1510=DIRECTION('',(-1.22464679914735E-16,6.12323399573677E-17,-1.));
#1511=DIRECTION('',(-7.49879891330929E-33,-1.,-6.12323399573677E-17));
#1512=DIRECTION('',(-1.22464679914735E-16,6.12323399573677E-17,-1.));
#1513=DIRECTION('',(-7.49879891330929E-33,-1.,-6.12323399573677E-17));
#1514=DIRECTION('',(-1.22464679914735E-16,6.12323399573677E-17,-1.));
#1515=DIRECTION('',(1.22464679914735E-16,-6.12323399573677E-17,1.));
#1516=DIRECTION('',(7.49879891330929E-33,1.,6.12323399573677E-17));
#1517=DIRECTION('',(1.22464679914735E-16,-6.12323399573677E-17,1.));
#1518=DIRECTION('',(1.,0.,-1.22464679914735E-16));
#1519=DIRECTION('',(7.49879891330929E-33,1.,6.12323399573677E-17));
#1520=DIRECTION('',(-1.22464679914735E-16,6.12323399573677E-17,-1.));
#1521=DIRECTION('',(7.49879891330929E-33,1.,6.12323399573677E-17));
#1522=DIRECTION('',(-1.22464679914735E-16,6.12323399573677E-17,-1.));
#1523=DIRECTION('',(-1.22464679914735E-16,6.12323399573677E-17,-1.));
#1524=DIRECTION('',(1.,0.,-1.22464679914735E-16));
#1525=DIRECTION('',(-1.22464679914735E-16,6.12323399573677E-17,-1.));
#1526=DIRECTION('',(-1.22464679914735E-16,6.12323399573677E-17,-1.));
#1527=DIRECTION('',(-7.49879891330929E-33,-1.,-6.12323399573677E-17));
#1528=DIRECTION('',(1.22464679914735E-16,-6.12323399573677E-17,1.));
#1529=DIRECTION('',(0.,1.,0.));
#1530=DIRECTION('',(-1.22464679914735E-16,6.12323399573677E-17,-1.));
#1531=DIRECTION('',(-7.49879891330929E-33,-1.,-6.12323399573677E-17));
#1532=DIRECTION('',(-1.22464679914735E-16,6.12323399573677E-17,-1.));
#1533=DIRECTION('',(1.22464679914735E-16,-6.12323399573677E-17,1.));
#1534=DIRECTION('',(7.49879891330929E-33,1.,6.12323399573677E-17));
#1535=DIRECTION('',(1.22464679914735E-16,-6.12323399573677E-17,1.));
#1536=DIRECTION('',(-1.,0.,1.22464679914735E-16));
#1537=DIRECTION('',(-7.49879891330929E-33,-1.,-6.12323399573677E-17));
#1538=DIRECTION('',(1.22464679914735E-16,-6.12323399573677E-17,1.));
#1539=DIRECTION('',(-1.22464679914735E-16,6.12323399573677E-17,-1.));
#1540=DIRECTION('',(-1.,0.,1.22464679914735E-16));
#1541=DIRECTION('',(-1.,0.,1.22464679914735E-16));
#1542=DIRECTION('',(-1.22464679914735E-16,6.12323399573677E-17,-1.));
#1543=DIRECTION('',(-7.49879891330929E-33,-1.,-6.12323399573677E-17));
#1544=DIRECTION('',(1.22464679914735E-16,-6.12323399573677E-17,1.));
#1545=DIRECTION('',(7.49879891330929E-33,1.,6.12323399573677E-17));
#1546=DIRECTION('',(1.22464679914735E-16,-6.12323399573677E-17,1.));
#1547=DIRECTION('',(2.7755575615629E-15,-1.,-3.39907768361723E-31));
#1548=DIRECTION('',(1.22464679914735E-16,-6.12323399573677E-17,1.));
#1549=DIRECTION('',(1.,0.,-1.22464679914735E-16));
#1550=DIRECTION('',(1.,0.,-1.22464679914735E-16));
#1551=DIRECTION('',(1.22464679914735E-16,-6.12323399573677E-17,1.));
#1552=DIRECTION('',(0.370358518328881,0.92888888888889,-5.18527724770245E-15));
#1553=DIRECTION('',(1.22464679914735E-16,-6.12323399573677E-17,1.));
#1554=DIRECTION('',(1.,0.,-1.22464679914735E-16));
#1555=DIRECTION('',(0.969470723531656,0.245207088427329,-1.03711318045472E-16));
#1556=DIRECTION('',(-1.22464679914735E-16,6.12323399573677E-17,-1.));
#1557=DIRECTION('',(0.245207088427327,0.969470723531656,-3.00292075970768E-17));
#1558=DIRECTION('',(0.969470723531656,-0.245207088427329,-1.3374052564255E-16));
#1559=DIRECTION('',(1.,0.,-1.22464679914735E-16));
#1560=DIRECTION('',(-0.969470723531656,-0.245207088427329,1.03711318045473E-16));
#1561=DIRECTION('',(1.22464679914735E-16,-6.12323399573677E-17,1.));
#1562=DIRECTION('',(-0.24520708842733,0.969470723531656,3.00292075970771E-17));
#1563=DIRECTION('',(-0.969470723531656,0.245207088427328,1.3374052564255E-16));
#1564=DIRECTION('',(1.,0.,-1.22464679914735E-16));
#1565=DIRECTION('',(1.22464679914735E-16,-6.12323399573677E-17,1.));
#1566=DIRECTION('',(7.49879891330929E-33,1.,6.12323399573677E-17));
#1567=DIRECTION('',(-1.22464679914735E-16,6.12323399573677E-17,-1.));
#1568=DIRECTION('',(0.245207088427327,0.969470723531656,-3.00292075970768E-17));
#1569=DIRECTION('',(1.22464679914735E-16,-6.12323399573677E-17,1.));
#1570=DIRECTION('',(1.22464679914735E-16,-6.12323399573677E-17,1.));
#1571=DIRECTION('',(-0.245207088427329,-0.969470723531656,-2.93337533249284E-17));
#1572=DIRECTION('',(0.969470723531656,-0.245207088427329,-1.18725921844011E-16));
#1573=DIRECTION('',(0.969470723531656,-0.245207088427329,-1.3374052564255E-16));
#1574=DIRECTION('',(1.22464679914735E-16,-6.12323399573677E-17,1.));
#1575=DIRECTION('',(-7.49879891330929E-33,-1.,-6.12323399573677E-17));
#1576=DIRECTION('',(1.22464679914735E-16,-6.12323399573677E-17,1.));
#1577=DIRECTION('',(1.,0.,-1.22464679914735E-16));
#1578=DIRECTION('',(1.22464679914735E-16,-6.12323399573677E-17,1.));
#1579=DIRECTION('',(1.,0.,-1.22464679914735E-16));
#1580=DIRECTION('',(1.,0.,-1.22464679914735E-16));
#1581=DIRECTION('',(-0.245207088427329,0.969470723531656,8.93921685190826E-17));
#1582=DIRECTION('',(-0.969470723531656,-0.245207088427329,1.18725921844011E-16));
#1583=DIRECTION('',(-0.969470723531656,-0.245207088427329,1.03711318045473E-16));
#1584=DIRECTION('',(1.22464679914735E-16,-6.12323399573677E-17,1.));
#1585=DIRECTION('',(1.22464679914735E-16,-6.12323399573677E-17,1.));
#1586=DIRECTION('',(7.49879891330929E-33,1.,6.12323399573677E-17));
#1587=DIRECTION('',(1.22464679914735E-16,-6.12323399573677E-17,1.));
#1588=DIRECTION('',(-0.24520708842733,0.969470723531656,3.00292075970771E-17));
#1589=DIRECTION('',(1.22464679914735E-16,-6.12323399573677E-17,1.));
#1590=DIRECTION('',(0.245207088427328,0.969470723531656,2.93337533249287E-17));
#1591=DIRECTION('',(-0.969470723531656,0.245207088427328,1.18725921844011E-16));
#1592=DIRECTION('',(-0.969470723531656,0.245207088427328,1.3374052564255E-16));
#1593=DIRECTION('',(1.22464679914735E-16,-6.12323399573677E-17,1.));
#1594=DIRECTION('',(-7.49879891330929E-33,-1.,-6.12323399573677E-17));
#1595=DIRECTION('',(1.22464679914735E-16,-6.12323399573677E-17,1.));
#1596=DIRECTION('',(1.,0.,-1.22464679914735E-16));
#1597=DIRECTION('',(1.,0.,-1.22464679914735E-16));
#1598=DIRECTION('',(1.22464679914735E-16,-6.12323399573677E-17,1.));
#1599=DIRECTION('',(0.245207088427329,-0.969470723531656,-8.93921685190826E-17));
#1600=DIRECTION('',(0.969470723531656,0.245207088427329,-1.18725921844011E-16));
#1601=DIRECTION('',(0.969470723531656,0.245207088427329,-1.03711318045472E-16));
#1602=DIRECTION('',(1.22464679914735E-16,-6.12323399573677E-17,1.));
#1603=DIRECTION('',(1.,0.,-1.22464679914735E-16));
#1604=DIRECTION('',(1.22464679914735E-16,-6.12323399573677E-17,1.));
#1605=DIRECTION('',(0.370358518328881,0.92888888888889,-5.18527724770245E-15));
#1606=DIRECTION('',(1.22464679914735E-16,-6.12323399573677E-17,1.));
#1607=DIRECTION('',(1.,0.,-1.22464679914735E-16));
#1608=DIRECTION('',(1.22464679914735E-16,-6.12323399573677E-17,1.));
#1609=DIRECTION('',(0.370358518328881,0.92888888888889,-5.18527724770245E-15));
#1610=DIRECTION('',(1.22464679914735E-16,-6.12323399573677E-17,1.));
#1611=DIRECTION('',(1.,0.,-1.22464679914735E-16));
#1612=DIRECTION('',(1.22464679914735E-16,-6.12323399573677E-17,1.));
#1613=DIRECTION('',(0.370358518328881,0.92888888888889,-5.18527724770245E-15));
#1614=DIRECTION('',(-1.22464679914735E-16,6.12323399573677E-17,-1.));
#1615=DIRECTION('',(-7.49879891330929E-33,-1.,-6.12323399573677E-17));
#1616=DIRECTION('',(-1.22464679914735E-16,6.12323399573677E-17,-1.));
#1617=DIRECTION('',(-7.49879891330929E-33,-1.,-6.12323399573677E-17));
#1618=DIRECTION('',(1.22464679914735E-16,-6.12323399573677E-17,1.));
#1619=DIRECTION('',(7.49879891330929E-33,1.,6.12323399573677E-17));
#1620=DIRECTION('',(-1.22464679914735E-16,6.12323399573677E-17,-1.));
#1621=DIRECTION('',(-1.22464679914735E-16,6.12323399573677E-17,-1.));
#1622=DIRECTION('',(-1.22464679914735E-16,6.12323399573677E-17,-1.));
#1623=DIRECTION('',(-7.49879891330929E-33,-1.,-6.12323399573677E-17));
#1624=DIRECTION('',(1.22464679914735E-16,-6.12323399573677E-17,1.));
#1625=DIRECTION('',(7.49879891330929E-33,1.,6.12323399573677E-17));
#1626=DIRECTION('',(-1.22464679914735E-16,6.12323399573677E-17,-1.));
#1627=DIRECTION('',(-1.22464679914735E-16,6.12323399573677E-17,-1.));
#1628=DIRECTION('',(-1.22464679914735E-16,6.12323399573677E-17,-1.));
#1629=DIRECTION('',(-7.49879891330929E-33,-1.,-6.12323399573677E-17));
#1630=DIRECTION('',(-1.22464679914735E-16,6.12323399573677E-17,-1.));
#1631=DIRECTION('',(1.22464679914735E-16,-6.12323399573677E-17,1.));
#1632=DIRECTION('',(7.49879891330929E-33,1.,6.12323399573677E-17));
#1633=DIRECTION('',(-1.22464679914735E-16,6.12323399573677E-17,-1.));
#1634=DIRECTION('',(1.,0.,-1.22464679914735E-16));
#1635=DIRECTION('',(0.,1.,0.));
#1636=DIRECTION('',(-7.49879891330929E-33,-1.,-6.12323399573677E-17));
#1637=DIRECTION('',(-1.22464679914735E-16,6.12323399573677E-17,-1.));
#1638=DIRECTION('',(1.,0.,-1.22464679914735E-16));
#1639=DIRECTION('',(0.,1.,0.));
#1640=DIRECTION('',(-7.49879891330929E-33,-1.,-6.12323399573677E-17));
#1641=DIRECTION('',(1.22464679914735E-16,-6.12323399573677E-17,1.));
#1642=DIRECTION('',(-1.22464679914735E-16,6.12323399573677E-17,-1.));
#1643=DIRECTION('',(-1.,0.,1.22464679914735E-16));
#1644=DIRECTION('',(-1.22464679914735E-16,6.12323399573677E-17,-1.));
#1645=DIRECTION('',(-7.49879891330929E-33,-1.,-6.12323399573677E-17));
#1646=DIRECTION('',(1.22464679914735E-16,-6.12323399573677E-17,1.));
#1647=DIRECTION('',(7.49879891330929E-33,1.,6.12323399573677E-17));
#1648=DIRECTION('',(-7.49879891330929E-33,-1.,-6.12323399573677E-17));
#1649=DIRECTION('',(1.22464679914735E-16,-6.12323399573677E-17,1.));
#1650=DIRECTION('',(-1.22464679914735E-16,6.12323399573677E-17,-1.));
#1651=DIRECTION('',(1.,0.,-1.22464679914735E-16));
#1652=DIRECTION('',(-7.49879891330929E-33,-1.,-6.12323399573677E-17));
#1653=DIRECTION('',(1.22464679914735E-16,-6.12323399573677E-17,1.));
#1654=DIRECTION('',(1.22464679914735E-16,-6.12323399573677E-17,1.));
#1655=DIRECTION('',(7.49879891330929E-33,1.,6.12323399573677E-17));
#1656=DIRECTION('',(0.,-1.,0.));
#1657=DIRECTION('',(1.,0.,-1.22464679914735E-16));
#1658=DIRECTION('',(-7.49879891330929E-33,-1.,-6.12323399573677E-17));
#1659=DIRECTION('',(1.22464679914735E-16,-6.12323399573677E-17,1.));
#1660=DIRECTION('',(0.,-1.,0.));
#1661=DIRECTION('',(1.,0.,-1.22464679914735E-16));
#1662=DIRECTION('',(1.22464679914735E-16,-6.12323399573677E-17,1.));
#1663=DIRECTION('',(7.49879891330929E-33,1.,6.12323399573677E-17));
#1664=DIRECTION('',(-1.,0.,-5.42865044321105E-15));
#1665=DIRECTION('',(-5.42865044321105E-15,0.,1.));
#1666=DIRECTION('',(-1.,0.,1.22464679914735E-16));
#1667=DIRECTION('',(0.,-1.,0.));
#1668=DIRECTION('',(-1.,0.,1.22464679914735E-16));
#1669=DIRECTION('',(0.,-1.,0.));
#1670=DIRECTION('',(1.22464679914735E-16,-6.12323399573677E-17,1.));
#1671=DIRECTION('',(7.49879891330929E-33,1.,6.12323399573677E-17));
#1672=DIRECTION('',(0.,1.,0.));
#1673=DIRECTION('',(-1.,0.,1.22464679914735E-16));
#1674=DIRECTION('',(7.49879891330929E-33,1.,6.12323399573677E-17));
#1675=DIRECTION('',(-1.22464679914735E-16,6.12323399573677E-17,-1.));
#1676=DIRECTION('',(1.,0.,-1.22464679914735E-16));
#1677=DIRECTION('',(0.,1.,0.));
#1678=DIRECTION('',(-1.,0.,1.22464679914735E-16));
#1679=DIRECTION('',(0.,-1.,0.));
#1680=DIRECTION('',(1.22464679914735E-16,-6.12323399573677E-17,1.));
#1681=DIRECTION('',(7.49879891330929E-33,1.,6.12323399573677E-17));
#1682=DIRECTION('',(0.620364392923788,0.784313725490189,-7.59727268099108E-17));
#1683=DIRECTION('',(-0.784313725490189,0.620364392923788,9.60507293448896E-17));
#1684=DIRECTION('',(0.705882352941171,0.70832909287014,-8.64456564104008E-17));
#1685=DIRECTION('',(-0.70832909287014,0.705882352941172,8.67452956326365E-17));
#1686=DIRECTION('',(-7.49879891330929E-33,-1.,-6.12323399573677E-17));
#1687=DIRECTION('',(1.22464679914735E-16,-6.12323399573677E-17,1.));
#1688=DIRECTION('',(0.,-1.,0.));
#1689=DIRECTION('',(1.,0.,-1.22464679914735E-16));
#1690=DIRECTION('',(1.22464679914735E-16,-6.12323399573677E-17,1.));
#1691=DIRECTION('',(7.49879891330929E-33,1.,6.12323399573677E-17));
#1692=DIRECTION('',(-0.421847787188149,-0.906666666666677,5.16614542307361E-17));
#1693=DIRECTION('',(0.906666666666677,-0.421847787188149,-1.11034643122695E-16));
#1694=DIRECTION('',(0.421847787188165,-0.906666666666669,-5.16614542307381E-17));
#1695=DIRECTION('',(0.906666666666669,0.421847787188166,-1.11034643122694E-16));
#1696=DIRECTION('',(1.22464679914735E-16,-6.12323399573677E-17,1.));
#1697=DIRECTION('',(7.49879891330929E-33,1.,6.12323399573677E-17));
#1698=DIRECTION('',(-1.,1.38777878078144E-14,-1.37553231278995E-14));
#1699=DIRECTION('',(-1.38777878078144E-14,-1.,1.69953884180861E-30));
#1700=DIRECTION('',(1.22464679914735E-16,-6.12323399573677E-17,1.));
#1701=DIRECTION('',(7.49879891330929E-33,1.,6.12323399573677E-17));
#1702=DIRECTION('',(-0.620364392923749,0.78431372549022,7.5972726809906E-17));
#1703=DIRECTION('',(-0.78431372549022,-0.620364392923749,9.60507293448934E-17));
#1704=DIRECTION('',(-1.,0.,1.22464679914735E-16));
#1705=DIRECTION('',(0.,-1.,0.));
#1706=DIRECTION('',(1.22464679914735E-16,-6.12323399573677E-17,1.));
#1707=DIRECTION('',(7.49879891330929E-33,1.,6.12323399573677E-17));
#1708=DIRECTION('',(1.22464679914735E-16,-6.12323399573677E-17,1.));
#1709=DIRECTION('',(7.49879891330929E-33,1.,6.12323399573677E-17));
#1710=DIRECTION('',(1.22464679914735E-16,-6.12323399573677E-17,1.));
#1711=DIRECTION('',(7.49879891330929E-33,1.,6.12323399573677E-17));
#1712=DIRECTION('',(-1.22464679914735E-16,6.12323399573677E-17,-1.));
#1713=DIRECTION('',(-7.49879891330929E-33,-1.,-6.12323399573677E-17));
#1714=DIRECTION('',(1.22464679914735E-16,-6.12323399573677E-17,1.));
#1715=DIRECTION('',(7.49879891330929E-33,1.,6.12323399573677E-17));
#1716=DIRECTION('',(1.22464679914735E-16,-6.12323399573677E-17,1.));
#1717=DIRECTION('',(7.49879891330929E-33,1.,6.12323399573677E-17));
#1718=DIRECTION('',(1.22464679914735E-16,-6.12323399573677E-17,1.));
#1719=DIRECTION('',(7.49879891330929E-33,1.,6.12323399573677E-17));
#1720=DIRECTION('',(1.22464679914735E-16,-6.12323399573677E-17,1.));
#1721=DIRECTION('',(7.49879891330929E-33,1.,6.12323399573677E-17));
#1722=DIRECTION('',(1.22464679914735E-16,-6.12323399573677E-17,1.));
#1723=DIRECTION('',(7.49879891330929E-33,1.,6.12323399573677E-17));
#1724=CARTESIAN_POINT('',(0.,0.,0.));
#1725=CARTESIAN_POINT('',(0.0381,0.05985,0.01595));
#1726=CARTESIAN_POINT('',(0.0381,0.0556,0.00655));
#1727=CARTESIAN_POINT('',(0.0381,0.0556,0.00655));
#1728=CARTESIAN_POINT('',(0.0381,0.05985,0.00655));
#1729=CARTESIAN_POINT('',(0.0381,0.0556,0.01595));
#1730=CARTESIAN_POINT('',(0.0381,0.0556,0.00245));
#1731=CARTESIAN_POINT('',(0.0381,0.05985,0.00245));
#1732=CARTESIAN_POINT('',(0.0381,0.05985,0.00245));
#1733=CARTESIAN_POINT('',(0.0381,0.05985,0.01595));
#1734=CARTESIAN_POINT('',(0.0331,0.05985,0.00245));
#1735=CARTESIAN_POINT('',(0.0331,0.0556,0.00245));
#1736=CARTESIAN_POINT('',(0.0331,0.0556,-0.00255));
#1737=CARTESIAN_POINT('',(0.0331,0.05985,-0.00255));
#1738=CARTESIAN_POINT('',(0.0331,0.05985,-0.00255));
#1739=CARTESIAN_POINT('',(0.0331,0.05985,0.00245));
#1740=CARTESIAN_POINT('',(0.0328,0.05985,-0.00255));
#1741=CARTESIAN_POINT('',(0.0328,0.0556,-0.00255));
#1742=CARTESIAN_POINT('',(0.0325,0.0556,-0.00255));
#1743=CARTESIAN_POINT('',(0.0325,0.05985,-0.00255));
#1744=CARTESIAN_POINT('',(0.0325,0.05985,-0.00255));
#1745=CARTESIAN_POINT('',(0.0328,0.05985,-0.00255));
#1746=CARTESIAN_POINT('',(0.0325,0.05985,0.00245));
#1747=CARTESIAN_POINT('',(0.0325,0.0556,0.00245));
#1748=CARTESIAN_POINT('',(0.0275,0.0556,0.00245));
#1749=CARTESIAN_POINT('',(0.0275,0.05985,0.00245));
#1750=CARTESIAN_POINT('',(0.0275,0.05985,0.00245));
#1751=CARTESIAN_POINT('',(0.0325,0.05985,0.00245));
#1752=CARTESIAN_POINT('',(0.0275,0.05985,0.01345));
#1753=CARTESIAN_POINT('',(0.0275,0.0556,0.01345));
#1754=CARTESIAN_POINT('',(0.0275,0.0556,0.02445));
#1755=CARTESIAN_POINT('',(0.0275,0.05985,0.02445));
#1756=CARTESIAN_POINT('',(0.0275,0.05985,0.02445));
#1757=CARTESIAN_POINT('',(0.0275,0.05985,0.01345));
#1758=CARTESIAN_POINT('',(0.0325,0.05985,0.02445));
#1759=CARTESIAN_POINT('',(0.0325,0.0556,0.02445));
#1760=CARTESIAN_POINT('',(0.0325,0.0556,0.02945));
#1761=CARTESIAN_POINT('',(0.0325,0.05985,0.02945));
#1762=CARTESIAN_POINT('',(0.0325,0.05985,0.02945));
#1763=CARTESIAN_POINT('',(0.0325,0.05985,0.02445));
#1764=CARTESIAN_POINT('',(0.0353,0.05985,0.02945));
#1765=CARTESIAN_POINT('',(0.0353,0.0556,0.02945));
#1766=CARTESIAN_POINT('',(0.0381,0.0556,0.02945));
#1767=CARTESIAN_POINT('',(0.0381,0.05985,0.02945));
#1768=CARTESIAN_POINT('',(0.0381,0.0561,0.02945));
#1769=CARTESIAN_POINT('',(0.0381,0.05985,0.02945));
#1770=CARTESIAN_POINT('',(0.0381,0.05985,0.02945));
#1771=CARTESIAN_POINT('',(0.0353,0.05985,0.02945));
#1772=CARTESIAN_POINT('',(0.03255,0.05985,0.0032));
#1773=CARTESIAN_POINT('',(0.03255,0.05845,0.0032));
#1774=CARTESIAN_POINT('',(0.0349,0.05845,0.0032));
#1775=CARTESIAN_POINT('',(0.03255,0.0556,0.0032));
#1776=CARTESIAN_POINT('',(0.0349,0.0556,0.0032));
#1777=CARTESIAN_POINT('',(0.0381,0.05985,0.01595));
#1778=CARTESIAN_POINT('',(0.0381,0.0556,0.01355));
#1779=CARTESIAN_POINT('',(0.0381,0.0556,0.01355));
#1780=CARTESIAN_POINT('',(0.0381,0.0561,0.01355));
#1781=CARTESIAN_POINT('',(0.0381,0.0561,0.01605));
#1782=CARTESIAN_POINT('',(0.0381,0.0556,0.01595));
#1783=CARTESIAN_POINT('',(0.03255,0.05985,0.01945));
#1784=CARTESIAN_POINT('',(0.03255,0.05845,0.01945));
#1785=CARTESIAN_POINT('',(0.0349,0.05845,0.01945));
#1786=CARTESIAN_POINT('',(0.03255,0.0556,0.01945));
#1787=CARTESIAN_POINT('',(0.0349,0.0556,0.01945));
#1788=CARTESIAN_POINT('',(0.03255,0.05985,-0.00555));
#1789=CARTESIAN_POINT('',(0.03255,0.05985,0.01945));
#1790=CARTESIAN_POINT('',(0.0363,0.05985,0.01945));
#1791=CARTESIAN_POINT('',(0.03255,0.05985,0.0032));
#1792=CARTESIAN_POINT('',(0.0363,0.05985,0.0032));
#1793=CARTESIAN_POINT('',(0.0381,0.05985,0.01595));
#1794=CARTESIAN_POINT('',(0.03255,0.0556,-0.00555));
#1795=CARTESIAN_POINT('',(0.0381,0.0556,0.01595));
#1796=CARTESIAN_POINT('',(0.03255,0.05845,0.01945));
#1797=CARTESIAN_POINT('',(0.03255,0.05845,0.0032));
#1798=CARTESIAN_POINT('',(0.0381,0.0556,0.01605));
#1799=CARTESIAN_POINT('',(0.0381,0.0556,0.01355));
#1800=CARTESIAN_POINT('',(0.0381,0.05135,0.01355));
#1801=CARTESIAN_POINT('',(0.0381,0.0556,0.00655));
#1802=CARTESIAN_POINT('',(0.0381,0.05135,0.00655));
#1803=CARTESIAN_POINT('',(0.0381,0.05135,0.01605));
#1804=CARTESIAN_POINT('',(0.0536,0.0604317772865295,0.03955));
#1805=CARTESIAN_POINT('',(0.041589601355302,0.0586,0.03955));
#1806=CARTESIAN_POINT('',(0.0430062595410422,0.0571882352941176,0.03955));
#1807=CARTESIAN_POINT('',(0.041589601355302,0.0566,0.03955));
#1808=CARTESIAN_POINT('',(0.0446,0.0556,0.03955));
#1809=CARTESIAN_POINT('',(0.04685,0.0556,0.03955));
#1810=CARTESIAN_POINT('',(0.0536,0.0556,0.03955));
#1811=CARTESIAN_POINT('',(0.06035,0.0556,0.03955));
#1812=CARTESIAN_POINT('',(0.0626,0.0556,0.03955));
#1813=CARTESIAN_POINT('',(0.0621267791848262,0.0577996731711975,0.03955));
#1814=CARTESIAN_POINT('',(0.0536,0.0577996731711975,0.03955));
#1815=CARTESIAN_POINT('',(0.0622,0.0577996731711975,0.03955));
#1816=CARTESIAN_POINT('',(0.0622,0.0591996731711975,0.03955));
#1817=CARTESIAN_POINT('',(0.0636,0.0591996731711975,0.03955));
#1818=CARTESIAN_POINT('',(0.0636,0.0604317772865295,0.03955));
#1819=CARTESIAN_POINT('',(0.0636,0.06485,0.03955));
#1820=CARTESIAN_POINT('',(0.0536,0.06485,0.03955));
#1821=CARTESIAN_POINT('',(0.0431,0.06485,0.03955));
#1822=CARTESIAN_POINT('',(0.0431,0.05985,0.03955));
#1823=CARTESIAN_POINT('',(0.0381,0.05985,0.03955));
#1824=CARTESIAN_POINT('',(0.0381,0.0556,0.03955));
#1825=CARTESIAN_POINT('',(0.0381,0.0566,0.03955));
#1826=CARTESIAN_POINT('',(0.0536,0.0566,0.03955));
#1827=CARTESIAN_POINT('',(0.0536,0.0604317772865295,0.03955));
#1828=CARTESIAN_POINT('',(0.0592666666666666,0.0529634513300741,0.03955));
#1829=CARTESIAN_POINT('',(0.060835294117647,0.0542041801159216,0.03955));
#1830=CARTESIAN_POINT('',(0.06108,0.0521197557556978,0.03955));
#1831=CARTESIAN_POINT('',(0.0626,0.0556,0.03955));
#1832=CARTESIAN_POINT('',(0.0536,0.0556,0.03955));
#1833=CARTESIAN_POINT('',(0.0446,0.0556,0.03955));
#1834=CARTESIAN_POINT('',(0.046364705882353,0.0542041801159215,0.03955));
#1835=CARTESIAN_POINT('',(0.0479333333333333,0.0529634513300739,0.03955));
#1836=CARTESIAN_POINT('',(0.04612,0.0521197557556976,0.03955));
#1837=CARTESIAN_POINT('',(0.0536,0.0556,0.03955));
#1838=CARTESIAN_POINT('',(0.0536,0.0556,0.01605));
#1839=CARTESIAN_POINT('',(0.0626,0.0556,0.01605));
#1840=CARTESIAN_POINT('',(0.0641,0.0556,0.01605));
#1841=CARTESIAN_POINT('',(0.0666,0.0556,0.01605));
#1842=CARTESIAN_POINT('',(0.0666,0.05135,0.01605));
#1843=CARTESIAN_POINT('',(0.0666,0.05985,0.01605));
#1844=CARTESIAN_POINT('',(0.0641,0.05985,0.01605));
#1845=CARTESIAN_POINT('',(0.0641,0.06235,0.01605));
#1846=CARTESIAN_POINT('',(0.0641,0.0620248365855988,0.01605));
#1847=CARTESIAN_POINT('',(0.0641,0.0591996731711975,0.01605));
#1848=CARTESIAN_POINT('',(0.0622,0.0591996731711975,0.01605));
#1849=CARTESIAN_POINT('',(0.0622,0.0572996731711975,0.01605));
#1850=CARTESIAN_POINT('',(0.0621916666666666,0.0572996731711975,0.01605));
#1851=CARTESIAN_POINT('',(0.0621833333333332,0.0572996731711975,0.01605));
#1852=CARTESIAN_POINT('',(0.0626,0.0556,0.01605));
#1853=CARTESIAN_POINT('',(0.0612274509803921,0.0545143623123834,0.01605));
#1854=CARTESIAN_POINT('',(0.0592666666666666,0.0529634513300741,0.01605));
#1855=CARTESIAN_POINT('',(0.0615333333333333,0.0519088318621037,0.01605));
#1856=CARTESIAN_POINT('',(0.0536,0.0556,0.01605));
#1857=CARTESIAN_POINT('',(0.0591677643628298,0.04885,0.01605));
#1858=CARTESIAN_POINT('',(0.0536,0.04885,0.01605));
#1859=CARTESIAN_POINT('',(0.0641,0.04885,0.01605));
#1860=CARTESIAN_POINT('',(0.0641,0.05135,0.01605));
#1861=CARTESIAN_POINT('',(0.0381,0.0556,0.01605));
#1862=CARTESIAN_POINT('',(0.0381,0.05985,0.01605));
#1863=CARTESIAN_POINT('',(0.0381,0.0561,0.01605));
#1864=CARTESIAN_POINT('',(0.0381,0.0561,0.03905));
#1865=CARTESIAN_POINT('',(0.0381,0.0566,0.03905));
#1866=CARTESIAN_POINT('',(0.0536,0.0556,0.01605));
#1867=CARTESIAN_POINT('',(0.0405114745084376,0.0561,0.01605));
#1868=CARTESIAN_POINT('',(0.0406,0.0561,0.01605));
#1869=CARTESIAN_POINT('',(0.041589601355302,0.0561,0.01605));
#1870=CARTESIAN_POINT('',(0.0406,0.0556,0.01605));
#1871=CARTESIAN_POINT('',(0.0406,0.05135,0.01605));
#1872=CARTESIAN_POINT('',(0.0431,0.05135,0.01605));
#1873=CARTESIAN_POINT('',(0.0431,0.04885,0.01605));
#1874=CARTESIAN_POINT('',(0.0536,0.04885,0.01605));
#1875=CARTESIAN_POINT('',(0.04803223563717,0.04885,0.01605));
#1876=CARTESIAN_POINT('',(0.0536,0.0556,0.01605));
#1877=CARTESIAN_POINT('',(0.0456666666666667,0.0519088318621035,0.01605));
#1878=CARTESIAN_POINT('',(0.0479333333333333,0.0529634513300739,0.01605));
#1879=CARTESIAN_POINT('',(0.0459725490196079,0.0545143623123834,0.01605));
#1880=CARTESIAN_POINT('',(0.0446,0.0556,0.01605));
#1881=CARTESIAN_POINT('',(0.0433604240874772,0.0568352941176471,0.01605));
#1882=CARTESIAN_POINT('',(0.041589601355302,0.0586,0.01605));
#1883=CARTESIAN_POINT('',(0.0446,0.0556,0.01605));
#1884=CARTESIAN_POINT('',(0.0461,0.0556,0.01605));
#1885=CARTESIAN_POINT('',(0.0626,0.0556,0.01605));
#1886=CARTESIAN_POINT('',(0.0626,0.0556,0.00905));
#1887=CARTESIAN_POINT('',(0.0641,0.0556,0.00905));
#1888=CARTESIAN_POINT('',(0.0446,0.0556,0.01605));
#1889=CARTESIAN_POINT('',(0.0446,0.0556,0.00905));
#1890=CARTESIAN_POINT('',(0.0461,0.0556,0.00905));
#1891=CARTESIAN_POINT('',(0.0691,0.0556,0.01605));
#1892=CARTESIAN_POINT('',(0.0691,0.05985,0.01605));
#1893=CARTESIAN_POINT('',(0.0691,0.05985,0.01355));
#1894=CARTESIAN_POINT('',(0.0691,0.05985,0.00655));
#1895=CARTESIAN_POINT('',(0.0691,0.0556,0.01355));
#1896=CARTESIAN_POINT('',(0.0691,0.05135,0.01355));
#1897=CARTESIAN_POINT('',(0.0691,0.05135,0.01605));
#1898=CARTESIAN_POINT('',(0.0691,0.05135,0.00655));
#1899=CARTESIAN_POINT('',(0.0691,0.0556,0.00655));
#1900=CARTESIAN_POINT('',(0.0641,0.05985,0.01605));
#1901=CARTESIAN_POINT('',(0.0641,0.06485,0.01605));
#1902=CARTESIAN_POINT('',(0.0641,0.06485,0.01355));
#1903=CARTESIAN_POINT('',(0.0641,0.06485,0.00655));
#1904=CARTESIAN_POINT('',(0.0641,0.05985,0.01355));
#1905=CARTESIAN_POINT('',(0.0641,0.05985,0.00655));
#1906=CARTESIAN_POINT('',(0.0536,0.06485,0.01605));
#1907=CARTESIAN_POINT('',(0.0636,0.06485,0.03905));
#1908=CARTESIAN_POINT('',(0.0641,0.06485,0.03905));
#1909=CARTESIAN_POINT('',(0.0641,0.06485,0.03955));
#1910=CARTESIAN_POINT('',(0.0536,0.06485,0.00655));
#1911=CARTESIAN_POINT('',(0.0431,0.06485,0.00655));
#1912=CARTESIAN_POINT('',(0.0431,0.06485,0.01605));
#1913=CARTESIAN_POINT('',(0.0431,0.05985,0.01605));
#1914=CARTESIAN_POINT('',(0.0431,0.05985,0.00655));
#1915=CARTESIAN_POINT('',(0.0431,0.05135,0.01605));
#1916=CARTESIAN_POINT('',(0.0431,0.04635,0.01605));
#1917=CARTESIAN_POINT('',(0.0431,0.04635,0.01355));
#1918=CARTESIAN_POINT('',(0.0431,0.04635,0.00655));
#1919=CARTESIAN_POINT('',(0.0431,0.05135,0.01355));
#1920=CARTESIAN_POINT('',(0.0431,0.05135,0.00655));
#1921=CARTESIAN_POINT('',(0.04835,0.04635,0.01605));
#1922=CARTESIAN_POINT('',(0.0641,0.04635,0.01605));
#1923=CARTESIAN_POINT('',(0.0641,0.04635,0.01355));
#1924=CARTESIAN_POINT('',(0.0641,0.04635,0.00655));
#1925=CARTESIAN_POINT('',(0.04835,0.04635,0.01355));
#1926=CARTESIAN_POINT('',(0.04835,0.04635,0.00655));
#1927=CARTESIAN_POINT('',(0.0641,0.05135,0.01605));
#1928=CARTESIAN_POINT('',(0.0641,0.05135,0.01355));
#1929=CARTESIAN_POINT('',(0.0641,0.05135,0.00655));
#1930=CARTESIAN_POINT('',(0.0536,0.0604317772865295,0.00905));
#1931=CARTESIAN_POINT('',(0.0510689139872526,0.04933,0.00905));
#1932=CARTESIAN_POINT('',(0.0511000800012798,0.04933,0.00905));
#1933=CARTESIAN_POINT('',(0.0560999199987202,0.04933,0.00905));
#1934=CARTESIAN_POINT('',(0.0536,0.0556,0.00905));
#1935=CARTESIAN_POINT('',(0.0536,0.0604317772865295,0.00655));
#1936=CARTESIAN_POINT('',(0.0621980448099317,0.0508566259607274,0.00655));
#1937=CARTESIAN_POINT('',(0.0561622520267749,0.04933,0.00655));
#1938=CARTESIAN_POINT('',(0.063703431897923,0.0512373817441075,0.00655));
#1939=CARTESIAN_POINT('',(0.0626,0.0556,0.00655));
#1940=CARTESIAN_POINT('',(0.063703431897923,0.0599626182558924,0.00655));
#1941=CARTESIAN_POINT('',(0.0621980448099317,0.0603433740392726,0.00655));
#1942=CARTESIAN_POINT('',(0.0561622520267749,0.06187,0.00655));
#1943=CARTESIAN_POINT('',(0.0561310860127474,0.06187,0.00655));
#1944=CARTESIAN_POINT('',(0.0510377479732251,0.06187,0.00655));
#1945=CARTESIAN_POINT('',(0.0450019551900684,0.0603433740392726,0.00655));
#1946=CARTESIAN_POINT('',(0.043496568102077,0.0599626182558924,0.00655));
#1947=CARTESIAN_POINT('',(0.0446,0.0556,0.00655));
#1948=CARTESIAN_POINT('',(0.043496568102077,0.0512373817441075,0.00655));
#1949=CARTESIAN_POINT('',(0.0450019551900684,0.0508566259607274,0.00655));
#1950=CARTESIAN_POINT('',(0.0510377479732251,0.04933,0.00655));
#1951=CARTESIAN_POINT('',(0.0510689139872526,0.04933,0.00655));
#1952=CARTESIAN_POINT('',(0.0626,0.0556,0.00655));
#1953=CARTESIAN_POINT('',(0.0626,0.0556,0.00905));
#1954=CARTESIAN_POINT('',(0.063703431897923,0.0599626182558924,0.00905));
#1955=CARTESIAN_POINT('',(0.063703431897923,0.0512373817441075,0.00905));
#1956=CARTESIAN_POINT('',(0.063703431897923,0.0599626182558924,0.00655));
#1957=CARTESIAN_POINT('',(0.063703431897923,0.0512373817441075,0.00655));
#1958=CARTESIAN_POINT('',(0.0621980448099317,0.0603433740392726,0.00655));
#1959=CARTESIAN_POINT('',(0.0621980448099317,0.0603433740392726,0.00905));
#1960=CARTESIAN_POINT('',(0.0561622520267749,0.06187,0.00905));
#1961=CARTESIAN_POINT('',(0.0561622520267749,0.06187,0.00655));
#1962=CARTESIAN_POINT('',(0.0561310860127474,0.06187,0.00655));
#1963=CARTESIAN_POINT('',(0.0561310860127474,0.06187,0.00905));
#1964=CARTESIAN_POINT('',(0.0510377479732251,0.06187,0.00905));
#1965=CARTESIAN_POINT('',(0.05110008000128,0.06187,0.00905));
#1966=CARTESIAN_POINT('',(0.0510377479732251,0.06187,0.00655));
#1967=CARTESIAN_POINT('',(0.0561310860127474,0.06187,0.00905));
#1968=CARTESIAN_POINT('',(0.05609991999872,0.06187,0.00905));
#1969=CARTESIAN_POINT('',(0.0561310860127474,0.06187,0.00905));
#1970=CARTESIAN_POINT('',(0.0450019551900684,0.0603433740392726,0.00655));
#1971=CARTESIAN_POINT('',(0.0450019551900684,0.0603433740392726,0.00905));
#1972=CARTESIAN_POINT('',(0.043496568102077,0.0599626182558924,0.00905));
#1973=CARTESIAN_POINT('',(0.043496568102077,0.0599626182558924,0.00655));
#1974=CARTESIAN_POINT('',(0.0446,0.0556,0.00655));
#1975=CARTESIAN_POINT('',(0.0446,0.0556,0.00905));
#1976=CARTESIAN_POINT('',(0.043496568102077,0.0512373817441075,0.00905));
#1977=CARTESIAN_POINT('',(0.043496568102077,0.0512373817441075,0.00655));
#1978=CARTESIAN_POINT('',(0.0450019551900684,0.0508566259607274,0.00655));
#1979=CARTESIAN_POINT('',(0.0450019551900684,0.0508566259607274,0.00905));
#1980=CARTESIAN_POINT('',(0.0510377479732251,0.04933,0.00905));
#1981=CARTESIAN_POINT('',(0.0510377479732251,0.04933,0.00655));
#1982=CARTESIAN_POINT('',(0.0510689139872526,0.04933,0.00655));
#1983=CARTESIAN_POINT('',(0.0510689139872526,0.04933,0.00905));
#1984=CARTESIAN_POINT('',(0.0510689139872526,0.04933,0.00905));
#1985=CARTESIAN_POINT('',(0.0561622520267749,0.04933,0.00905));
#1986=CARTESIAN_POINT('',(0.0561622520267749,0.04933,0.00655));
#1987=CARTESIAN_POINT('',(0.0621980448099317,0.0508566259607274,0.00655));
#1988=CARTESIAN_POINT('',(0.0621980448099317,0.0508566259607274,0.00905));
#1989=CARTESIAN_POINT('',(0.0536,0.0604317772865295,0.00905));
#1990=CARTESIAN_POINT('',(0.0536,0.0556,0.00905));
#1991=CARTESIAN_POINT('',(0.0536,0.0556,0.00905));
#1992=CARTESIAN_POINT('',(0.0536,0.0556,0.00905));
#1993=CARTESIAN_POINT('',(0.0536,0.0556,0.00905));
#1994=CARTESIAN_POINT('',(0.0536,0.0556,0.00905));
#1995=CARTESIAN_POINT('',(0.0536,0.0556,0.01605));
#1996=CARTESIAN_POINT('',(0.0536,0.0556,0.03955));
#1997=CARTESIAN_POINT('',(0.0536,0.0556,0.03905));
#1998=CARTESIAN_POINT('',(0.0615333333333333,0.0519088318621037,0.03905));
#1999=CARTESIAN_POINT('',(0.0456666666666667,0.0519088318621035,0.03905));
#2000=CARTESIAN_POINT('',(0.0456666666666667,0.0519088318621035,0.03955));
#2001=CARTESIAN_POINT('',(0.04803223563717,0.04885,0.01605));
#2002=CARTESIAN_POINT('',(0.0488301677056642,0.0481918225577895,0.01605));
#2003=CARTESIAN_POINT('',(0.0501604715054881,0.0474501836947088,0.0156886860176993));
#2004=CARTESIAN_POINT('',(0.0520644197888424,0.0469421573349947,0.015181788632588));
#2005=CARTESIAN_POINT('',(0.0535991413975808,0.0468040579858038,0.0149842155455251));
#2006=CARTESIAN_POINT('',(0.0551340410530273,0.0469416109573745,0.0151813494994283));
#2007=CARTESIAN_POINT('',(0.0570450867394345,0.0474523195671292,0.0156900955869576));
#2008=CARTESIAN_POINT('',(0.0583682683058292,0.0481905324956458,0.0160500000000004));
#2009=CARTESIAN_POINT('',(0.0591677643628298,0.04885,0.0160500000000004));
#2010=CARTESIAN_POINT('',(0.0615333333333333,0.0519088318621037,0.03955));
#2011=CARTESIAN_POINT('',(0.0626,0.0556,0.03955));
#2012=CARTESIAN_POINT('',(0.0626,0.0556,0.03905));
#2013=CARTESIAN_POINT('',(0.0621833333333333,0.0572996731711976,0.03905));
#2014=CARTESIAN_POINT('',(0.0612274509803921,0.0545143623123834,0.03905));
#2015=CARTESIAN_POINT('',(0.0612274509803921,0.0545143623123834,0.03955));
#2016=CARTESIAN_POINT('',(0.0621833333333333,0.0572996731711976,0.03955));
#2017=CARTESIAN_POINT('',(0.0446,0.0556,0.03955));
#2018=CARTESIAN_POINT('',(0.0459725490196079,0.0545143623123834,0.03955));
#2019=CARTESIAN_POINT('',(0.0459725490196079,0.0545143623123834,0.03905));
#2020=CARTESIAN_POINT('',(0.0446,0.0556,0.03905));
#2021=CARTESIAN_POINT('',(0.0433604240874772,0.0568352941176471,0.03905));
#2022=CARTESIAN_POINT('',(0.0433604240874772,0.0568352941176471,0.03955));
#2023=CARTESIAN_POINT('',(0.0641,0.0620248365855988,0.03955));
#2024=CARTESIAN_POINT('',(0.0641,0.0620248365855988,0.03905));
#2025=CARTESIAN_POINT('',(0.0641,0.0591996731711975,0.03905));
#2026=CARTESIAN_POINT('',(0.0641,0.0591996731711975,0.03955));
#2027=CARTESIAN_POINT('',(0.0641,0.06235,0.01355));
#2028=CARTESIAN_POINT('',(0.0621916666666666,0.0572996731711975,0.03955));
#2029=CARTESIAN_POINT('',(0.0622,0.0572996731711975,0.03955));
#2030=CARTESIAN_POINT('',(0.0622,0.0572996731711975,0.03905));
#2031=CARTESIAN_POINT('',(0.0621916666666666,0.0572996731711975,0.03905));
#2032=CARTESIAN_POINT('',(0.0622,0.0591996731711975,0.03955));
#2033=CARTESIAN_POINT('',(0.0622,0.0591996731711975,0.03905));
#2034=CARTESIAN_POINT('',(0.0405114745084376,0.0561,0.01605));
#2035=CARTESIAN_POINT('',(0.041589601355302,0.0561,0.01605));
#2036=CARTESIAN_POINT('',(0.041589601355302,0.0561,0.03905));
#2037=CARTESIAN_POINT('',(0.0405114745084376,0.0561,0.03905));
#2038=CARTESIAN_POINT('',(0.0406,0.0561,0.01355));
#2039=CARTESIAN_POINT('',(0.0641,0.05985,0.01355));
#2040=CARTESIAN_POINT('',(0.0666,0.05985,0.01355));
#2041=CARTESIAN_POINT('',(0.0666,0.0556,0.01355));
#2042=CARTESIAN_POINT('',(0.0666,0.05135,0.01355));
#2043=CARTESIAN_POINT('',(0.0641,0.05135,0.01355));
#2044=CARTESIAN_POINT('',(0.0641,0.04885,0.01355));
#2045=CARTESIAN_POINT('',(0.04835,0.04885,0.01355));
#2046=CARTESIAN_POINT('',(0.0431,0.04885,0.01355));
#2047=CARTESIAN_POINT('',(0.0431,0.05135,0.01355));
#2048=CARTESIAN_POINT('',(0.0406,0.05135,0.01355));
#2049=CARTESIAN_POINT('',(0.0406,0.0556,0.01355));
#2050=CARTESIAN_POINT('',(0.0536,0.0566,0.03905));
#2051=CARTESIAN_POINT('',(0.041589601355302,0.0566,0.03905));
#2052=CARTESIAN_POINT('',(0.0446,0.0556,0.03905));
#2053=CARTESIAN_POINT('',(0.046364705882353,0.0542041801159215,0.03905));
#2054=CARTESIAN_POINT('',(0.0430062595410422,0.0571882352941176,0.03905));
#2055=CARTESIAN_POINT('',(0.0636,0.0620248365855988,0.03905));
#2056=CARTESIAN_POINT('',(0.0636,0.0591996731711975,0.03905));
#2057=CARTESIAN_POINT('',(0.0536,0.0556,0.03905));
#2058=CARTESIAN_POINT('',(0.06108,0.0521197557556978,0.03905));
#2059=CARTESIAN_POINT('',(0.04612,0.0521197557556976,0.03905));
#2060=CARTESIAN_POINT('',(0.0622,0.0591996731711975,0.03905));
#2061=CARTESIAN_POINT('',(0.0622,0.0577996731711975,0.03905));
#2062=CARTESIAN_POINT('',(0.0626,0.0556,0.03905));
#2063=CARTESIAN_POINT('',(0.060835294117647,0.0542041801159216,0.03905));
#2064=CARTESIAN_POINT('',(0.0621833333333333,0.0572996731711976,0.03905));
#2065=CARTESIAN_POINT('',(0.0621833333333333,0.0572996731711976,0.0393149552176579));
#2066=CARTESIAN_POINT('',(0.0621544311670524,0.0575399464945016,0.03955));
#2067=CARTESIAN_POINT('',(0.0621267791848262,0.0577996731711975,0.03955));
#2068=CARTESIAN_POINT('',(0.0621916666666666,0.0577996731711975,0.03905));
#2069=CARTESIAN_POINT('',(0.0592666666666666,0.0529634513300741,0.03955));
#2070=CARTESIAN_POINT('',(0.0592666666666666,0.0529634513300741,0.03905));
#2071=CARTESIAN_POINT('',(0.0592666666666666,0.0529634513300741,0.03905));
#2072=CARTESIAN_POINT('',(0.041589601355302,0.0586,0.03955));
#2073=CARTESIAN_POINT('',(0.041589601355302,0.0586,0.03905));
#2074=CARTESIAN_POINT('',(0.041589601355302,0.0586,0.03905));
#2075=CARTESIAN_POINT('',(0.0479333333333333,0.0529634513300739,0.03955));
#2076=CARTESIAN_POINT('',(0.0479333333333333,0.0529634513300739,0.03905));
#2077=CARTESIAN_POINT('',(0.0479333333333333,0.0529634513300739,0.03905));
#2078=MECHANICAL_DESIGN_GEOMETRIC_PRESENTATION_REPRESENTATION('',(#1182),
#2079);
#2079=(
GEOMETRIC_REPRESENTATION_CONTEXT(3)
GLOBAL_UNCERTAINTY_ASSIGNED_CONTEXT((#2080))
GLOBAL_UNIT_ASSIGNED_CONTEXT((#2083,#2082,#2081))
REPRESENTATION_CONTEXT('BLTouch-holder','TOP_LEVEL_ASSEMBLY_PART')
);
#2080=UNCERTAINTY_MEASURE_WITH_UNIT(LENGTH_MEASURE(2.E-5),#2083,
'DISTANCE_ACCURACY_VALUE','Maximum Tolerance applied to model');
#2081=(
NAMED_UNIT(*)
SI_UNIT($,.STERADIAN.)
SOLID_ANGLE_UNIT()
);
#2082=(
NAMED_UNIT(*)
PLANE_ANGLE_UNIT()
SI_UNIT($,.RADIAN.)
);
#2083=(
LENGTH_UNIT()
NAMED_UNIT(*)
SI_UNIT($,.METRE.)
);
#2084=PRODUCT_DEFINITION_SHAPE('','',#2085);
#2085=PRODUCT_DEFINITION('','',#2087,#2086);
#2086=PRODUCT_DEFINITION_CONTEXT('',#2093,'design');
#2087=PRODUCT_DEFINITION_FORMATION_WITH_SPECIFIED_SOURCE('','',#2089,
 .NOT_KNOWN.);
#2088=PRODUCT_RELATED_PRODUCT_CATEGORY('','',(#2089));
#2089=PRODUCT('BLTouch-holder','BLTouch-holder','BLTouch-holder',(#2091));
#2090=PRODUCT_CATEGORY('','');
#2091=PRODUCT_CONTEXT('',#2093,'mechanical');
#2092=APPLICATION_PROTOCOL_DEFINITION('international standard',
'ap242_managed_model_based_3d_engineering',2020,#2093);
#2093=APPLICATION_CONTEXT('managed model based 3d engineering');
ENDSEC;
END-ISO-10303-21;
