ISO-10303-21;
HEADER;
/* Generated by software containing ST-Developer
 * from STEP Tools, Inc. (www.steptools.com) 
 */
/* OPTION: using custom renumber hook */

FILE_DESCRIPTION(
/* description */ ('STEP AP242 Edition 2',
'CAx-IF Rec.Pracs.---Representation and Presentation of Product Manufa
cturing Information (PMI)---4.0---2014-10-13',
'CAx-IF Rec.Pracs.---3D Tessellated Geometry---0.4---2014-09-14','2;1',
'CAx-IF Rec.Pracs.---User Defined Attributes---1.5---2016-08-15'),
/* implementation_level */ '2;1');

FILE_NAME(
/* name */ 'Assembly - interface-v2',
/* time_stamp */ '2026-09-18T14:33:54Z',
/* author */ (''),
/* organization */ (''),
/* preprocessor_version */ 'ST-DEVELOPER v20',
/* originating_system */ 'ONSHAPE BY PTC INC, 1.220',
/* authorisation */ '  ');

FILE_SCHEMA (('AP242_MANAGED_MODEL_BASED_3D_ENGINEERING_MIM_LF { 1 0 10303 442 3 1 4 }'));
ENDSEC;

DATA;
#10=SHAPE_REPRESENTATION_RELATIONSHIP('','',#579,#11);
#11=ADVANCED_BREP_SHAPE_REPRESENTATION('',(#577),#997);
#12=CONICAL_SURFACE('',#646,0.00185,0.380506377112364);
#13=CONICAL_SURFACE('',#647,0.00215,0.380506377112364);
#14=CONICAL_SURFACE('',#648,0.00215,0.380506377112364);
#15=CONICAL_SURFACE('',#649,0.00185,0.380506377112364);
#16=CONICAL_SURFACE('',#650,0.00175,0.785398163397449);
#17=CONICAL_SURFACE('',#651,0.00175,0.785398163397448);
#18=CONICAL_SURFACE('',#652,0.00175,0.785398163397449);
#19=CONICAL_SURFACE('',#653,0.00175,0.785398163397449);
#20=CONICAL_SURFACE('',#655,0.008,0.577901936962245);
#21=CONICAL_SURFACE('',#657,0.008,0.577901936962245);
#22=CONICAL_SURFACE('',#658,0.008,0.577901936962245);
#23=CYLINDRICAL_SURFACE('',#613,0.006);
#24=CYLINDRICAL_SURFACE('',#614,0.006);
#25=CYLINDRICAL_SURFACE('',#615,0.00175);
#26=CYLINDRICAL_SURFACE('',#617,0.00175);
#27=CYLINDRICAL_SURFACE('',#619,0.00175);
#28=CYLINDRICAL_SURFACE('',#622,0.00175);
#29=CYLINDRICAL_SURFACE('',#624,0.0029);
#30=CYLINDRICAL_SURFACE('',#625,0.0029);
#31=CYLINDRICAL_SURFACE('',#630,0.00185);
#32=CYLINDRICAL_SURFACE('',#634,0.00185);
#33=CYLINDRICAL_SURFACE('',#638,0.00185);
#34=CYLINDRICAL_SURFACE('',#642,0.00185);
#35=CIRCLE('',#583,0.005);
#36=CIRCLE('',#585,0.008);
#37=CIRCLE('',#586,0.008);
#38=CIRCLE('',#587,0.008);
#39=CIRCLE('',#588,0.006);
#40=CIRCLE('',#589,0.006);
#41=CIRCLE('',#590,0.00175);
#42=CIRCLE('',#591,0.00175);
#43=CIRCLE('',#592,0.0029);
#44=CIRCLE('',#593,0.0029);
#45=CIRCLE('',#596,0.006);
#46=CIRCLE('',#597,0.006);
#47=CIRCLE('',#598,0.00325);
#48=CIRCLE('',#599,0.00325);
#49=CIRCLE('',#600,0.00325);
#50=CIRCLE('',#601,0.00325);
#51=CIRCLE('',#602,0.00215);
#52=CIRCLE('',#603,0.00215);
#53=CIRCLE('',#604,0.00215);
#54=CIRCLE('',#605,0.00215);
#55=CIRCLE('',#608,0.00175);
#56=CIRCLE('',#609,0.0029);
#57=CIRCLE('',#611,0.00175);
#58=CIRCLE('',#612,0.0029);
#59=CIRCLE('',#616,0.00175);
#60=CIRCLE('',#618,0.00175);
#61=CIRCLE('',#620,0.00175);
#62=CIRCLE('',#623,0.00175);
#63=CIRCLE('',#627,0.005);
#64=CIRCLE('',#629,0.005);
#65=CIRCLE('',#631,0.00185);
#66=CIRCLE('',#632,0.00185);
#67=CIRCLE('',#635,0.00185);
#68=CIRCLE('',#636,0.00185);
#69=CIRCLE('',#639,0.00185);
#70=CIRCLE('',#640,0.00185);
#71=CIRCLE('',#643,0.00185);
#72=CIRCLE('',#644,0.00185);
#73=ORIENTED_EDGE('',*,*,#197,.T.);
#74=ORIENTED_EDGE('',*,*,#198,.T.);
#75=ORIENTED_EDGE('',*,*,#199,.F.);
#76=ORIENTED_EDGE('',*,*,#200,.F.);
#77=ORIENTED_EDGE('',*,*,#201,.T.);
#78=ORIENTED_EDGE('',*,*,#202,.F.);
#79=ORIENTED_EDGE('',*,*,#203,.F.);
#80=ORIENTED_EDGE('',*,*,#204,.F.);
#81=ORIENTED_EDGE('',*,*,#205,.T.);
#82=ORIENTED_EDGE('',*,*,#206,.T.);
#83=ORIENTED_EDGE('',*,*,#207,.T.);
#84=ORIENTED_EDGE('',*,*,#208,.T.);
#85=ORIENTED_EDGE('',*,*,#209,.F.);
#86=ORIENTED_EDGE('',*,*,#199,.T.);
#87=ORIENTED_EDGE('',*,*,#210,.F.);
#88=ORIENTED_EDGE('',*,*,#211,.T.);
#89=ORIENTED_EDGE('',*,*,#212,.F.);
#90=ORIENTED_EDGE('',*,*,#213,.F.);
#91=ORIENTED_EDGE('',*,*,#214,.F.);
#92=ORIENTED_EDGE('',*,*,#215,.T.);
#93=ORIENTED_EDGE('',*,*,#216,.T.);
#94=ORIENTED_EDGE('',*,*,#217,.T.);
#95=ORIENTED_EDGE('',*,*,#218,.T.);
#96=ORIENTED_EDGE('',*,*,#219,.T.);
#97=ORIENTED_EDGE('',*,*,#213,.T.);
#98=ORIENTED_EDGE('',*,*,#220,.F.);
#99=ORIENTED_EDGE('',*,*,#221,.F.);
#100=ORIENTED_EDGE('',*,*,#222,.T.);
#101=ORIENTED_EDGE('',*,*,#221,.T.);
#102=ORIENTED_EDGE('',*,*,#223,.T.);
#103=ORIENTED_EDGE('',*,*,#224,.F.);
#104=ORIENTED_EDGE('',*,*,#225,.T.);
#105=ORIENTED_EDGE('',*,*,#197,.F.);
#106=ORIENTED_EDGE('',*,*,#226,.T.);
#107=ORIENTED_EDGE('',*,*,#227,.T.);
#108=ORIENTED_EDGE('',*,*,#228,.T.);
#109=ORIENTED_EDGE('',*,*,#229,.T.);
#110=ORIENTED_EDGE('',*,*,#230,.T.);
#111=ORIENTED_EDGE('',*,*,#231,.T.);
#112=ORIENTED_EDGE('',*,*,#232,.T.);
#113=ORIENTED_EDGE('',*,*,#233,.T.);
#114=ORIENTED_EDGE('',*,*,#234,.T.);
#115=ORIENTED_EDGE('',*,*,#209,.T.);
#116=ORIENTED_EDGE('',*,*,#235,.T.);
#117=ORIENTED_EDGE('',*,*,#204,.T.);
#118=ORIENTED_EDGE('',*,*,#236,.T.);
#119=ORIENTED_EDGE('',*,*,#214,.T.);
#120=ORIENTED_EDGE('',*,*,#222,.F.);
#121=ORIENTED_EDGE('',*,*,#226,.F.);
#122=ORIENTED_EDGE('',*,*,#200,.T.);
#123=ORIENTED_EDGE('',*,*,#237,.T.);
#124=ORIENTED_EDGE('',*,*,#238,.F.);
#125=ORIENTED_EDGE('',*,*,#239,.T.);
#126=ORIENTED_EDGE('',*,*,#240,.F.);
#127=ORIENTED_EDGE('',*,*,#241,.T.);
#128=ORIENTED_EDGE('',*,*,#210,.T.);
#129=ORIENTED_EDGE('',*,*,#198,.F.);
#130=ORIENTED_EDGE('',*,*,#225,.F.);
#131=ORIENTED_EDGE('',*,*,#220,.T.);
#132=ORIENTED_EDGE('',*,*,#212,.T.);
#133=ORIENTED_EDGE('',*,*,#242,.F.);
#134=ORIENTED_EDGE('',*,*,#223,.F.);
#135=ORIENTED_EDGE('',*,*,#243,.T.);
#136=ORIENTED_EDGE('',*,*,#239,.F.);
#137=ORIENTED_EDGE('',*,*,#244,.T.);
#138=ORIENTED_EDGE('',*,*,#217,.F.);
#139=ORIENTED_EDGE('',*,*,#245,.T.);
#140=ORIENTED_EDGE('',*,*,#216,.F.);
#141=ORIENTED_EDGE('',*,*,#242,.T.);
#142=ORIENTED_EDGE('',*,*,#211,.F.);
#143=ORIENTED_EDGE('',*,*,#241,.F.);
#144=ORIENTED_EDGE('',*,*,#224,.T.);
#145=ORIENTED_EDGE('',*,*,#246,.T.);
#146=ORIENTED_EDGE('',*,*,#237,.F.);
#147=ORIENTED_EDGE('',*,*,#240,.T.);
#148=ORIENTED_EDGE('',*,*,#219,.F.);
#149=ORIENTED_EDGE('',*,*,#238,.T.);
#150=ORIENTED_EDGE('',*,*,#218,.F.);
#151=ORIENTED_EDGE('',*,*,#247,.F.);
#152=ORIENTED_EDGE('',*,*,#248,.F.);
#153=ORIENTED_EDGE('',*,*,#249,.T.);
#154=ORIENTED_EDGE('',*,*,#250,.F.);
#155=ORIENTED_EDGE('',*,*,#250,.T.);
#156=ORIENTED_EDGE('',*,*,#251,.T.);
#157=ORIENTED_EDGE('',*,*,#252,.F.);
#158=ORIENTED_EDGE('',*,*,#252,.T.);
#159=ORIENTED_EDGE('',*,*,#253,.T.);
#160=ORIENTED_EDGE('',*,*,#254,.T.);
#161=ORIENTED_EDGE('',*,*,#254,.F.);
#162=ORIENTED_EDGE('',*,*,#255,.T.);
#163=ORIENTED_EDGE('',*,*,#256,.T.);
#164=ORIENTED_EDGE('',*,*,#256,.F.);
#165=ORIENTED_EDGE('',*,*,#231,.F.);
#166=ORIENTED_EDGE('',*,*,#251,.F.);
#167=ORIENTED_EDGE('',*,*,#253,.F.);
#168=ORIENTED_EDGE('',*,*,#232,.F.);
#169=ORIENTED_EDGE('',*,*,#255,.F.);
#170=ORIENTED_EDGE('',*,*,#233,.F.);
#171=ORIENTED_EDGE('',*,*,#234,.F.);
#172=ORIENTED_EDGE('',*,*,#249,.F.);
#173=ORIENTED_EDGE('',*,*,#227,.F.);
#174=ORIENTED_EDGE('',*,*,#243,.F.);
#175=ORIENTED_EDGE('',*,*,#228,.F.);
#176=ORIENTED_EDGE('',*,*,#246,.F.);
#177=ORIENTED_EDGE('',*,*,#229,.F.);
#178=ORIENTED_EDGE('',*,*,#244,.F.);
#179=ORIENTED_EDGE('',*,*,#230,.F.);
#180=ORIENTED_EDGE('',*,*,#245,.F.);
#181=ORIENTED_EDGE('',*,*,#236,.F.);
#182=ORIENTED_EDGE('',*,*,#203,.T.);
#183=ORIENTED_EDGE('',*,*,#257,.F.);
#184=ORIENTED_EDGE('',*,*,#215,.F.);
#185=ORIENTED_EDGE('',*,*,#257,.T.);
#186=ORIENTED_EDGE('',*,*,#202,.T.);
#187=ORIENTED_EDGE('',*,*,#258,.F.);
#188=ORIENTED_EDGE('',*,*,#207,.F.);
#189=ORIENTED_EDGE('',*,*,#235,.F.);
#190=ORIENTED_EDGE('',*,*,#208,.F.);
#191=ORIENTED_EDGE('',*,*,#258,.T.);
#192=ORIENTED_EDGE('',*,*,#201,.F.);
#193=ORIENTED_EDGE('',*,*,#247,.T.);
#194=ORIENTED_EDGE('',*,*,#205,.F.);
#195=ORIENTED_EDGE('',*,*,#248,.T.);
#196=ORIENTED_EDGE('',*,*,#206,.F.);
#197=EDGE_CURVE('',#259,#260,#311,.T.);
#198=EDGE_CURVE('',#260,#261,#312,.T.);
#199=EDGE_CURVE('',#262,#261,#313,.T.);
#200=EDGE_CURVE('',#259,#262,#314,.T.);
#201=EDGE_CURVE('',#263,#264,#315,.T.);
#202=EDGE_CURVE('',#265,#264,#35,.T.);
#203=EDGE_CURVE('',#266,#265,#316,.T.);
#204=EDGE_CURVE('',#263,#266,#317,.T.);
#205=EDGE_CURVE('',#267,#267,#36,.T.);
#206=EDGE_CURVE('',#268,#268,#37,.T.);
#207=EDGE_CURVE('',#269,#270,#38,.T.);
#208=EDGE_CURVE('',#270,#271,#318,.T.);
#209=EDGE_CURVE('',#262,#271,#319,.T.);
#210=EDGE_CURVE('',#272,#261,#39,.T.);
#211=EDGE_CURVE('',#272,#273,#320,.T.);
#212=EDGE_CURVE('',#274,#273,#40,.T.);
#213=EDGE_CURVE('',#275,#274,#321,.T.);
#214=EDGE_CURVE('',#276,#275,#322,.T.);
#215=EDGE_CURVE('',#276,#269,#323,.T.);
#216=EDGE_CURVE('',#277,#277,#41,.T.);
#217=EDGE_CURVE('',#278,#278,#42,.T.);
#218=EDGE_CURVE('',#279,#279,#43,.T.);
#219=EDGE_CURVE('',#280,#280,#44,.T.);
#220=EDGE_CURVE('',#281,#274,#324,.T.);
#221=EDGE_CURVE('',#282,#281,#325,.T.);
#222=EDGE_CURVE('',#282,#275,#326,.T.);
#223=EDGE_CURVE('',#281,#283,#45,.T.);
#224=EDGE_CURVE('',#284,#283,#327,.T.);
#225=EDGE_CURVE('',#284,#260,#46,.T.);
#226=EDGE_CURVE('',#259,#282,#328,.T.);
#227=EDGE_CURVE('',#285,#285,#47,.F.);
#228=EDGE_CURVE('',#286,#286,#48,.F.);
#229=EDGE_CURVE('',#287,#287,#49,.F.);
#230=EDGE_CURVE('',#288,#288,#50,.F.);
#231=EDGE_CURVE('',#289,#289,#51,.F.);
#232=EDGE_CURVE('',#290,#290,#52,.F.);
#233=EDGE_CURVE('',#291,#291,#53,.F.);
#234=EDGE_CURVE('',#292,#292,#54,.F.);
#235=EDGE_CURVE('',#271,#263,#329,.T.);
#236=EDGE_CURVE('',#266,#276,#330,.F.);
#237=EDGE_CURVE('',#293,#293,#55,.T.);
#238=EDGE_CURVE('',#294,#294,#56,.T.);
#239=EDGE_CURVE('',#295,#295,#57,.T.);
#240=EDGE_CURVE('',#296,#296,#58,.T.);
#241=EDGE_CURVE('',#284,#272,#331,.T.);
#242=EDGE_CURVE('',#283,#273,#332,.T.);
#243=EDGE_CURVE('',#297,#297,#59,.T.);
#244=EDGE_CURVE('',#298,#298,#60,.T.);
#245=EDGE_CURVE('',#299,#299,#61,.T.);
#246=EDGE_CURVE('',#300,#300,#62,.T.);
#247=EDGE_CURVE('',#301,#301,#63,.T.);
#248=EDGE_CURVE('',#302,#302,#64,.T.);
#249=EDGE_CURVE('',#303,#303,#65,.T.);
#250=EDGE_CURVE('',#304,#304,#66,.T.);
#251=EDGE_CURVE('',#305,#305,#67,.T.);
#252=EDGE_CURVE('',#306,#306,#68,.T.);
#253=EDGE_CURVE('',#307,#307,#69,.T.);
#254=EDGE_CURVE('',#308,#308,#70,.T.);
#255=EDGE_CURVE('',#309,#309,#71,.T.);
#256=EDGE_CURVE('',#310,#310,#72,.T.);
#257=EDGE_CURVE('',#269,#265,#333,.T.);
#258=EDGE_CURVE('',#270,#264,#334,.T.);
#259=VERTEX_POINT('',#844);
#260=VERTEX_POINT('',#845);
#261=VERTEX_POINT('',#847);
#262=VERTEX_POINT('',#849);
#263=VERTEX_POINT('',#853);
#264=VERTEX_POINT('',#854);
#265=VERTEX_POINT('',#856);
#266=VERTEX_POINT('',#858);
#267=VERTEX_POINT('',#862);
#268=VERTEX_POINT('',#864);
#269=VERTEX_POINT('',#866);
#270=VERTEX_POINT('',#867);
#271=VERTEX_POINT('',#869);
#272=VERTEX_POINT('',#872);
#273=VERTEX_POINT('',#874);
#274=VERTEX_POINT('',#876);
#275=VERTEX_POINT('',#878);
#276=VERTEX_POINT('',#880);
#277=VERTEX_POINT('',#883);
#278=VERTEX_POINT('',#885);
#279=VERTEX_POINT('',#887);
#280=VERTEX_POINT('',#889);
#281=VERTEX_POINT('',#892);
#282=VERTEX_POINT('',#894);
#283=VERTEX_POINT('',#898);
#284=VERTEX_POINT('',#900);
#285=VERTEX_POINT('',#904);
#286=VERTEX_POINT('',#906);
#287=VERTEX_POINT('',#908);
#288=VERTEX_POINT('',#910);
#289=VERTEX_POINT('',#912);
#290=VERTEX_POINT('',#914);
#291=VERTEX_POINT('',#916);
#292=VERTEX_POINT('',#918);
#293=VERTEX_POINT('',#924);
#294=VERTEX_POINT('',#926);
#295=VERTEX_POINT('',#929);
#296=VERTEX_POINT('',#931);
#297=VERTEX_POINT('',#938);
#298=VERTEX_POINT('',#941);
#299=VERTEX_POINT('',#944);
#300=VERTEX_POINT('',#948);
#301=VERTEX_POINT('',#953);
#302=VERTEX_POINT('',#956);
#303=VERTEX_POINT('',#959);
#304=VERTEX_POINT('',#961);
#305=VERTEX_POINT('',#965);
#306=VERTEX_POINT('',#967);
#307=VERTEX_POINT('',#971);
#308=VERTEX_POINT('',#973);
#309=VERTEX_POINT('',#977);
#310=VERTEX_POINT('',#979);
#311=LINE('',#843,#335);
#312=LINE('',#846,#336);
#313=LINE('',#848,#337);
#314=LINE('',#850,#338);
#315=LINE('',#852,#339);
#316=LINE('',#857,#340);
#317=LINE('',#859,#341);
#318=LINE('',#868,#342);
#319=LINE('',#870,#343);
#320=LINE('',#873,#344);
#321=LINE('',#877,#345);
#322=LINE('',#879,#346);
#323=LINE('',#881,#347);
#324=LINE('',#891,#348);
#325=LINE('',#893,#349);
#326=LINE('',#895,#350);
#327=LINE('',#899,#351);
#328=LINE('',#902,#352);
#329=LINE('',#920,#353);
#330=LINE('',#921,#354);
#331=LINE('',#933,#355);
#332=LINE('',#935,#356);
#333=LINE('',#990,#357);
#334=LINE('',#992,#358);
#335=VECTOR('',#663,1.);
#336=VECTOR('',#664,1.);
#337=VECTOR('',#665,1.);
#338=VECTOR('',#666,1.);
#339=VECTOR('',#669,1.);
#340=VECTOR('',#672,1.);
#341=VECTOR('',#673,1.);
#342=VECTOR('',#682,1.);
#343=VECTOR('',#683,1.);
#344=VECTOR('',#686,1.);
#345=VECTOR('',#689,1.);
#346=VECTOR('',#690,1.);
#347=VECTOR('',#691,1.);
#348=VECTOR('',#702,1.);
#349=VECTOR('',#703,1.);
#350=VECTOR('',#704,1.);
#351=VECTOR('',#709,1.);
#352=VECTOR('',#712,1.);
#353=VECTOR('',#731,1.);
#354=VECTOR('',#732,1.);
#355=VECTOR('',#747,1.);
#356=VECTOR('',#750,1.);
#357=VECTOR('',#831,1.);
#358=VECTOR('',#834,1.);
#359=EDGE_LOOP('',(#73,#74,#75,#76));
#360=EDGE_LOOP('',(#77,#78,#79,#80));
#361=EDGE_LOOP('',(#81));
#362=EDGE_LOOP('',(#82));
#363=EDGE_LOOP('',(#83,#84,#85,#86,#87,#88,#89,#90,#91,#92));
#364=EDGE_LOOP('',(#93));
#365=EDGE_LOOP('',(#94));
#366=EDGE_LOOP('',(#95));
#367=EDGE_LOOP('',(#96));
#368=EDGE_LOOP('',(#97,#98,#99,#100));
#369=EDGE_LOOP('',(#101,#102,#103,#104,#105,#106));
#370=EDGE_LOOP('',(#107));
#371=EDGE_LOOP('',(#108));
#372=EDGE_LOOP('',(#109));
#373=EDGE_LOOP('',(#110));
#374=EDGE_LOOP('',(#111));
#375=EDGE_LOOP('',(#112));
#376=EDGE_LOOP('',(#113));
#377=EDGE_LOOP('',(#114));
#378=EDGE_LOOP('',(#115,#116,#117,#118,#119,#120,#121,#122));
#379=EDGE_LOOP('',(#123));
#380=EDGE_LOOP('',(#124));
#381=EDGE_LOOP('',(#125));
#382=EDGE_LOOP('',(#126));
#383=EDGE_LOOP('',(#127,#128,#129,#130));
#384=EDGE_LOOP('',(#131,#132,#133,#134));
#385=EDGE_LOOP('',(#135));
#386=EDGE_LOOP('',(#136));
#387=EDGE_LOOP('',(#137));
#388=EDGE_LOOP('',(#138));
#389=EDGE_LOOP('',(#139));
#390=EDGE_LOOP('',(#140));
#391=EDGE_LOOP('',(#141,#142,#143,#144));
#392=EDGE_LOOP('',(#145));
#393=EDGE_LOOP('',(#146));
#394=EDGE_LOOP('',(#147));
#395=EDGE_LOOP('',(#148));
#396=EDGE_LOOP('',(#149));
#397=EDGE_LOOP('',(#150));
#398=EDGE_LOOP('',(#151));
#399=EDGE_LOOP('',(#152));
#400=EDGE_LOOP('',(#153));
#401=EDGE_LOOP('',(#154));
#402=EDGE_LOOP('',(#155));
#403=EDGE_LOOP('',(#156));
#404=EDGE_LOOP('',(#157));
#405=EDGE_LOOP('',(#158));
#406=EDGE_LOOP('',(#159));
#407=EDGE_LOOP('',(#160));
#408=EDGE_LOOP('',(#161));
#409=EDGE_LOOP('',(#162));
#410=EDGE_LOOP('',(#163));
#411=EDGE_LOOP('',(#164));
#412=EDGE_LOOP('',(#165));
#413=EDGE_LOOP('',(#166));
#414=EDGE_LOOP('',(#167));
#415=EDGE_LOOP('',(#168));
#416=EDGE_LOOP('',(#169));
#417=EDGE_LOOP('',(#170));
#418=EDGE_LOOP('',(#171));
#419=EDGE_LOOP('',(#172));
#420=EDGE_LOOP('',(#173));
#421=EDGE_LOOP('',(#174));
#422=EDGE_LOOP('',(#175));
#423=EDGE_LOOP('',(#176));
#424=EDGE_LOOP('',(#177));
#425=EDGE_LOOP('',(#178));
#426=EDGE_LOOP('',(#179));
#427=EDGE_LOOP('',(#180));
#428=EDGE_LOOP('',(#181,#182,#183,#184));
#429=EDGE_LOOP('',(#185,#186,#187,#188));
#430=EDGE_LOOP('',(#189,#190,#191,#192));
#431=EDGE_LOOP('',(#193));
#432=EDGE_LOOP('',(#194));
#433=EDGE_LOOP('',(#195));
#434=EDGE_LOOP('',(#196));
#435=FACE_BOUND('',#359,.T.);
#436=FACE_BOUND('',#360,.T.);
#437=FACE_BOUND('',#361,.T.);
#438=FACE_BOUND('',#362,.T.);
#439=FACE_BOUND('',#363,.T.);
#440=FACE_BOUND('',#364,.T.);
#441=FACE_BOUND('',#365,.T.);
#442=FACE_BOUND('',#366,.T.);
#443=FACE_BOUND('',#367,.T.);
#444=FACE_BOUND('',#368,.T.);
#445=FACE_BOUND('',#369,.T.);
#446=FACE_BOUND('',#370,.T.);
#447=FACE_BOUND('',#371,.T.);
#448=FACE_BOUND('',#372,.T.);
#449=FACE_BOUND('',#373,.T.);
#450=FACE_BOUND('',#374,.T.);
#451=FACE_BOUND('',#375,.T.);
#452=FACE_BOUND('',#376,.T.);
#453=FACE_BOUND('',#377,.T.);
#454=FACE_BOUND('',#378,.T.);
#455=FACE_BOUND('',#379,.T.);
#456=FACE_BOUND('',#380,.T.);
#457=FACE_BOUND('',#381,.T.);
#458=FACE_BOUND('',#382,.T.);
#459=FACE_BOUND('',#383,.T.);
#460=FACE_BOUND('',#384,.T.);
#461=FACE_BOUND('',#385,.T.);
#462=FACE_BOUND('',#386,.T.);
#463=FACE_BOUND('',#387,.T.);
#464=FACE_BOUND('',#388,.T.);
#465=FACE_BOUND('',#389,.T.);
#466=FACE_BOUND('',#390,.T.);
#467=FACE_BOUND('',#391,.T.);
#468=FACE_BOUND('',#392,.T.);
#469=FACE_BOUND('',#393,.T.);
#470=FACE_BOUND('',#394,.T.);
#471=FACE_BOUND('',#395,.T.);
#472=FACE_BOUND('',#396,.T.);
#473=FACE_BOUND('',#397,.T.);
#474=FACE_BOUND('',#398,.T.);
#475=FACE_BOUND('',#399,.T.);
#476=FACE_BOUND('',#400,.T.);
#477=FACE_BOUND('',#401,.T.);
#478=FACE_BOUND('',#402,.T.);
#479=FACE_BOUND('',#403,.T.);
#480=FACE_BOUND('',#404,.T.);
#481=FACE_BOUND('',#405,.T.);
#482=FACE_BOUND('',#406,.T.);
#483=FACE_BOUND('',#407,.T.);
#484=FACE_BOUND('',#408,.T.);
#485=FACE_BOUND('',#409,.T.);
#486=FACE_BOUND('',#410,.T.);
#487=FACE_BOUND('',#411,.T.);
#488=FACE_BOUND('',#412,.T.);
#489=FACE_BOUND('',#413,.T.);
#490=FACE_BOUND('',#414,.T.);
#491=FACE_BOUND('',#415,.T.);
#492=FACE_BOUND('',#416,.T.);
#493=FACE_BOUND('',#417,.T.);
#494=FACE_BOUND('',#418,.T.);
#495=FACE_BOUND('',#419,.T.);
#496=FACE_BOUND('',#420,.T.);
#497=FACE_BOUND('',#421,.T.);
#498=FACE_BOUND('',#422,.T.);
#499=FACE_BOUND('',#423,.T.);
#500=FACE_BOUND('',#424,.T.);
#501=FACE_BOUND('',#425,.T.);
#502=FACE_BOUND('',#426,.T.);
#503=FACE_BOUND('',#427,.T.);
#504=FACE_BOUND('',#428,.T.);
#505=FACE_BOUND('',#429,.T.);
#506=FACE_BOUND('',#430,.T.);
#507=FACE_BOUND('',#431,.T.);
#508=FACE_BOUND('',#432,.T.);
#509=FACE_BOUND('',#433,.T.);
#510=FACE_BOUND('',#434,.T.);
#511=PLANE('',#581);
#512=PLANE('',#582);
#513=PLANE('',#584);
#514=PLANE('',#594);
#515=PLANE('',#595);
#516=PLANE('',#606);
#517=PLANE('',#607);
#518=PLANE('',#610);
#519=PLANE('',#621);
#520=PLANE('',#626);
#521=PLANE('',#628);
#522=PLANE('',#633);
#523=PLANE('',#637);
#524=PLANE('',#641);
#525=PLANE('',#645);
#526=PLANE('',#654);
#527=PLANE('',#656);
#528=ADVANCED_FACE('',(#435),#511,.F.);
#529=ADVANCED_FACE('',(#436),#512,.F.);
#530=ADVANCED_FACE('',(#437,#438,#439,#440,#441,#442,#443),#513,.F.);
#531=ADVANCED_FACE('',(#444),#514,.T.);
#532=ADVANCED_FACE('',(#445,#446,#447,#448,#449,#450,#451,#452,#453),#515,
 .T.);
#533=ADVANCED_FACE('',(#454),#516,.F.);
#534=ADVANCED_FACE('',(#455,#456),#517,.F.);
#535=ADVANCED_FACE('',(#457,#458),#518,.F.);
#536=ADVANCED_FACE('',(#459),#23,.T.);
#537=ADVANCED_FACE('',(#460),#24,.T.);
#538=ADVANCED_FACE('',(#461,#462),#25,.F.);
#539=ADVANCED_FACE('',(#463,#464),#26,.F.);
#540=ADVANCED_FACE('',(#465,#466),#27,.F.);
#541=ADVANCED_FACE('',(#467),#519,.T.);
#542=ADVANCED_FACE('',(#468,#469),#28,.F.);
#543=ADVANCED_FACE('',(#470,#471),#29,.F.);
#544=ADVANCED_FACE('',(#472,#473),#30,.F.);
#545=ADVANCED_FACE('',(#474),#520,.F.);
#546=ADVANCED_FACE('',(#475),#521,.F.);
#547=ADVANCED_FACE('',(#476,#477),#31,.F.);
#548=ADVANCED_FACE('',(#478),#522,.T.);
#549=ADVANCED_FACE('',(#479,#480),#32,.F.);
#550=ADVANCED_FACE('',(#481),#523,.T.);
#551=ADVANCED_FACE('',(#482,#483),#33,.F.);
#552=ADVANCED_FACE('',(#484),#524,.T.);
#553=ADVANCED_FACE('',(#485,#486),#34,.F.);
#554=ADVANCED_FACE('',(#487),#525,.T.);
#555=ADVANCED_FACE('',(#488,#489),#12,.F.);
#556=ADVANCED_FACE('',(#490,#491),#13,.F.);
#557=ADVANCED_FACE('',(#492,#493),#14,.F.);
#558=ADVANCED_FACE('',(#494,#495),#15,.F.);
#559=ADVANCED_FACE('',(#496,#497),#16,.F.);
#560=ADVANCED_FACE('',(#498,#499),#17,.F.);
#561=ADVANCED_FACE('',(#500,#501),#18,.F.);
#562=ADVANCED_FACE('',(#502,#503),#19,.F.);
#563=ADVANCED_FACE('',(#504),#526,.F.);
#564=ADVANCED_FACE('',(#505),#20,.F.);
#565=ADVANCED_FACE('',(#506),#527,.T.);
#566=ADVANCED_FACE('',(#507,#508),#21,.F.);
#567=ADVANCED_FACE('',(#509,#510),#22,.F.);
#568=CLOSED_SHELL('',(#528,#529,#530,#531,#532,#533,#534,#535,#536,#537,
#538,#539,#540,#541,#542,#543,#544,#545,#546,#547,#548,#549,#550,#551,#552,
#553,#554,#555,#556,#557,#558,#559,#560,#561,#562,#563,#564,#565,#566,#567));
#569=STYLED_ITEM('',(#570),#577);
#570=PRESENTATION_STYLE_ASSIGNMENT((#571));
#571=SURFACE_STYLE_USAGE(.BOTH.,#572);
#572=SURFACE_SIDE_STYLE('',(#573));
#573=SURFACE_STYLE_FILL_AREA(#574);
#574=FILL_AREA_STYLE('',(#575));
#575=FILL_AREA_STYLE_COLOUR('',#576);
#576=COLOUR_RGB('',0.768627450980392,0.886274509803922,0.952941176470588);
#577=MANIFOLD_SOLID_BREP('interface-v2',#568);
#578=SHAPE_DEFINITION_REPRESENTATION(#1002,#579);
#579=SHAPE_REPRESENTATION('interface-v2',(#580),#997);
#580=AXIS2_PLACEMENT_3D('',#841,#659,#660);
#581=AXIS2_PLACEMENT_3D('',#842,#661,#662);
#582=AXIS2_PLACEMENT_3D('',#851,#667,#668);
#583=AXIS2_PLACEMENT_3D('',#855,#670,#671);
#584=AXIS2_PLACEMENT_3D('',#860,#674,#675);
#585=AXIS2_PLACEMENT_3D('',#861,#676,#677);
#586=AXIS2_PLACEMENT_3D('',#863,#678,#679);
#587=AXIS2_PLACEMENT_3D('',#865,#680,#681);
#588=AXIS2_PLACEMENT_3D('',#871,#684,#685);
#589=AXIS2_PLACEMENT_3D('',#875,#687,#688);
#590=AXIS2_PLACEMENT_3D('',#882,#692,#693);
#591=AXIS2_PLACEMENT_3D('',#884,#694,#695);
#592=AXIS2_PLACEMENT_3D('',#886,#696,#697);
#593=AXIS2_PLACEMENT_3D('',#888,#698,#699);
#594=AXIS2_PLACEMENT_3D('',#890,#700,#701);
#595=AXIS2_PLACEMENT_3D('',#896,#705,#706);
#596=AXIS2_PLACEMENT_3D('',#897,#707,#708);
#597=AXIS2_PLACEMENT_3D('',#901,#710,#711);
#598=AXIS2_PLACEMENT_3D('',#903,#713,#714);
#599=AXIS2_PLACEMENT_3D('',#905,#715,#716);
#600=AXIS2_PLACEMENT_3D('',#907,#717,#718);
#601=AXIS2_PLACEMENT_3D('',#909,#719,#720);
#602=AXIS2_PLACEMENT_3D('',#911,#721,#722);
#603=AXIS2_PLACEMENT_3D('',#913,#723,#724);
#604=AXIS2_PLACEMENT_3D('',#915,#725,#726);
#605=AXIS2_PLACEMENT_3D('',#917,#727,#728);
#606=AXIS2_PLACEMENT_3D('',#919,#729,#730);
#607=AXIS2_PLACEMENT_3D('',#922,#733,#734);
#608=AXIS2_PLACEMENT_3D('',#923,#735,#736);
#609=AXIS2_PLACEMENT_3D('',#925,#737,#738);
#610=AXIS2_PLACEMENT_3D('',#927,#739,#740);
#611=AXIS2_PLACEMENT_3D('',#928,#741,#742);
#612=AXIS2_PLACEMENT_3D('',#930,#743,#744);
#613=AXIS2_PLACEMENT_3D('',#932,#745,#746);
#614=AXIS2_PLACEMENT_3D('',#934,#748,#749);
#615=AXIS2_PLACEMENT_3D('',#936,#751,#752);
#616=AXIS2_PLACEMENT_3D('',#937,#753,#754);
#617=AXIS2_PLACEMENT_3D('',#939,#755,#756);
#618=AXIS2_PLACEMENT_3D('',#940,#757,#758);
#619=AXIS2_PLACEMENT_3D('',#942,#759,#760);
#620=AXIS2_PLACEMENT_3D('',#943,#761,#762);
#621=AXIS2_PLACEMENT_3D('',#945,#763,#764);
#622=AXIS2_PLACEMENT_3D('',#946,#765,#766);
#623=AXIS2_PLACEMENT_3D('',#947,#767,#768);
#624=AXIS2_PLACEMENT_3D('',#949,#769,#770);
#625=AXIS2_PLACEMENT_3D('',#950,#771,#772);
#626=AXIS2_PLACEMENT_3D('',#951,#773,#774);
#627=AXIS2_PLACEMENT_3D('',#952,#775,#776);
#628=AXIS2_PLACEMENT_3D('',#954,#777,#778);
#629=AXIS2_PLACEMENT_3D('',#955,#779,#780);
#630=AXIS2_PLACEMENT_3D('',#957,#781,#782);
#631=AXIS2_PLACEMENT_3D('',#958,#783,#784);
#632=AXIS2_PLACEMENT_3D('',#960,#785,#786);
#633=AXIS2_PLACEMENT_3D('',#962,#787,#788);
#634=AXIS2_PLACEMENT_3D('',#963,#789,#790);
#635=AXIS2_PLACEMENT_3D('',#964,#791,#792);
#636=AXIS2_PLACEMENT_3D('',#966,#793,#794);
#637=AXIS2_PLACEMENT_3D('',#968,#795,#796);
#638=AXIS2_PLACEMENT_3D('',#969,#797,#798);
#639=AXIS2_PLACEMENT_3D('',#970,#799,#800);
#640=AXIS2_PLACEMENT_3D('',#972,#801,#802);
#641=AXIS2_PLACEMENT_3D('',#974,#803,#804);
#642=AXIS2_PLACEMENT_3D('',#975,#805,#806);
#643=AXIS2_PLACEMENT_3D('',#976,#807,#808);
#644=AXIS2_PLACEMENT_3D('',#978,#809,#810);
#645=AXIS2_PLACEMENT_3D('',#980,#811,#812);
#646=AXIS2_PLACEMENT_3D('',#981,#813,#814);
#647=AXIS2_PLACEMENT_3D('',#982,#815,#816);
#648=AXIS2_PLACEMENT_3D('',#983,#817,#818);
#649=AXIS2_PLACEMENT_3D('',#984,#819,#820);
#650=AXIS2_PLACEMENT_3D('',#985,#821,#822);
#651=AXIS2_PLACEMENT_3D('',#986,#823,#824);
#652=AXIS2_PLACEMENT_3D('',#987,#825,#826);
#653=AXIS2_PLACEMENT_3D('',#988,#827,#828);
#654=AXIS2_PLACEMENT_3D('',#989,#829,#830);
#655=AXIS2_PLACEMENT_3D('',#991,#832,#833);
#656=AXIS2_PLACEMENT_3D('',#993,#835,#836);
#657=AXIS2_PLACEMENT_3D('',#994,#837,#838);
#658=AXIS2_PLACEMENT_3D('',#995,#839,#840);
#659=DIRECTION('',(0.,0.,1.));
#660=DIRECTION('',(1.,0.,0.));
#661=DIRECTION('',(1.,0.,0.));
#662=DIRECTION('',(0.,0.,-1.));
#663=DIRECTION('',(0.,1.,0.));
#664=DIRECTION('',(0.,0.,-1.));
#665=DIRECTION('',(0.,1.,0.));
#666=DIRECTION('',(0.,0.,-1.));
#667=DIRECTION('',(0.,0.,1.));
#668=DIRECTION('',(1.,0.,0.));
#669=DIRECTION('',(0.,1.,0.));
#670=DIRECTION('',(0.,0.,1.));
#671=DIRECTION('',(1.,0.,0.));
#672=DIRECTION('',(0.,1.,0.));
#673=DIRECTION('',(1.,0.,0.));
#674=DIRECTION('',(0.,0.,1.));
#675=DIRECTION('',(1.,0.,0.));
#676=DIRECTION('',(0.,0.,1.));
#677=DIRECTION('',(1.,0.,0.));
#678=DIRECTION('',(0.,0.,1.));
#679=DIRECTION('',(1.,0.,0.));
#680=DIRECTION('',(0.,0.,1.));
#681=DIRECTION('',(1.,0.,0.));
#682=DIRECTION('',(0.,-1.,0.));
#683=DIRECTION('',(1.,0.,0.));
#684=DIRECTION('',(0.,0.,1.));
#685=DIRECTION('',(1.,0.,0.));
#686=DIRECTION('',(1.,0.,0.));
#687=DIRECTION('',(0.,0.,1.));
#688=DIRECTION('',(1.,0.,0.));
#689=DIRECTION('',(0.,1.,0.));
#690=DIRECTION('',(1.,0.,0.));
#691=DIRECTION('',(0.,1.,0.));
#692=DIRECTION('',(0.,0.,1.));
#693=DIRECTION('',(1.,0.,0.));
#694=DIRECTION('',(0.,0.,1.));
#695=DIRECTION('',(1.,0.,0.));
#696=DIRECTION('',(0.,0.,1.));
#697=DIRECTION('',(1.,0.,0.));
#698=DIRECTION('',(0.,0.,1.));
#699=DIRECTION('',(1.,0.,0.));
#700=DIRECTION('',(1.,0.,0.));
#701=DIRECTION('',(0.,0.,-1.));
#702=DIRECTION('',(0.,0.,-1.));
#703=DIRECTION('',(0.,1.,0.));
#704=DIRECTION('',(0.,0.,-1.));
#705=DIRECTION('',(0.,0.,1.));
#706=DIRECTION('',(1.,0.,0.));
#707=DIRECTION('',(0.,0.,1.));
#708=DIRECTION('',(1.,0.,0.));
#709=DIRECTION('',(1.,0.,0.));
#710=DIRECTION('',(0.,0.,1.));
#711=DIRECTION('',(1.,0.,0.));
#712=DIRECTION('',(1.,0.,0.));
#713=DIRECTION('',(0.,0.,1.));
#714=DIRECTION('',(1.,0.,0.));
#715=DIRECTION('',(0.,0.,1.));
#716=DIRECTION('',(1.,0.,0.));
#717=DIRECTION('',(0.,0.,1.));
#718=DIRECTION('',(1.,0.,0.));
#719=DIRECTION('',(0.,0.,1.));
#720=DIRECTION('',(1.,0.,0.));
#721=DIRECTION('',(0.,0.,1.));
#722=DIRECTION('',(1.,0.,0.));
#723=DIRECTION('',(0.,0.,1.));
#724=DIRECTION('',(1.,0.,0.));
#725=DIRECTION('',(0.,0.,1.));
#726=DIRECTION('',(1.,0.,0.));
#727=DIRECTION('',(0.,0.,1.));
#728=DIRECTION('',(1.,0.,0.));
#729=DIRECTION('',(0.,1.,0.));
#730=DIRECTION('',(0.,0.,1.));
#731=DIRECTION('',(0.546267780546922,0.,0.837610596838614));
#732=DIRECTION('',(-0.546267780546922,0.,0.837610596838614));
#733=DIRECTION('',(0.,0.,1.));
#734=DIRECTION('',(1.,0.,0.));
#735=DIRECTION('',(0.,0.,1.));
#736=DIRECTION('',(1.,0.,0.));
#737=DIRECTION('',(0.,0.,1.));
#738=DIRECTION('',(1.,0.,0.));
#739=DIRECTION('',(0.,0.,1.));
#740=DIRECTION('',(1.,0.,0.));
#741=DIRECTION('',(0.,0.,1.));
#742=DIRECTION('',(1.,0.,0.));
#743=DIRECTION('',(0.,0.,1.));
#744=DIRECTION('',(1.,0.,0.));
#745=DIRECTION('',(0.,0.,-1.));
#746=DIRECTION('',(-1.,0.,0.));
#747=DIRECTION('',(0.,0.,-1.));
#748=DIRECTION('',(0.,0.,-1.));
#749=DIRECTION('',(-1.,0.,0.));
#750=DIRECTION('',(0.,0.,-1.));
#751=DIRECTION('',(0.,0.,-1.));
#752=DIRECTION('',(-1.,0.,0.));
#753=DIRECTION('',(0.,0.,1.));
#754=DIRECTION('',(1.,0.,0.));
#755=DIRECTION('',(0.,0.,-1.));
#756=DIRECTION('',(-1.,0.,0.));
#757=DIRECTION('',(0.,0.,1.));
#758=DIRECTION('',(1.,0.,0.));
#759=DIRECTION('',(0.,0.,-1.));
#760=DIRECTION('',(-1.,0.,0.));
#761=DIRECTION('',(0.,0.,1.));
#762=DIRECTION('',(1.,0.,0.));
#763=DIRECTION('',(0.,1.,0.));
#764=DIRECTION('',(0.,0.,1.));
#765=DIRECTION('',(0.,0.,-1.));
#766=DIRECTION('',(-1.,0.,0.));
#767=DIRECTION('',(0.,0.,1.));
#768=DIRECTION('',(1.,0.,0.));
#769=DIRECTION('',(0.,0.,-1.));
#770=DIRECTION('',(-1.,0.,0.));
#771=DIRECTION('',(0.,0.,-1.));
#772=DIRECTION('',(-1.,0.,0.));
#773=DIRECTION('',(0.,0.,1.));
#774=DIRECTION('',(1.,0.,0.));
#775=DIRECTION('',(0.,0.,1.));
#776=DIRECTION('',(1.,0.,0.));
#777=DIRECTION('',(0.,0.,1.));
#778=DIRECTION('',(1.,0.,0.));
#779=DIRECTION('',(0.,0.,1.));
#780=DIRECTION('',(1.,0.,0.));
#781=DIRECTION('',(0.,0.,1.));
#782=DIRECTION('',(1.,0.,0.));
#783=DIRECTION('',(0.,0.,1.));
#784=DIRECTION('',(1.,0.,0.));
#785=DIRECTION('',(0.,0.,1.));
#786=DIRECTION('',(1.,0.,0.));
#787=DIRECTION('',(0.,0.,1.));
#788=DIRECTION('',(1.,0.,0.));
#789=DIRECTION('',(0.,0.,1.));
#790=DIRECTION('',(1.,0.,0.));
#791=DIRECTION('',(0.,0.,1.));
#792=DIRECTION('',(1.,0.,0.));
#793=DIRECTION('',(0.,0.,1.));
#794=DIRECTION('',(1.,0.,0.));
#795=DIRECTION('',(0.,0.,1.));
#796=DIRECTION('',(1.,0.,0.));
#797=DIRECTION('',(0.,0.,1.));
#798=DIRECTION('',(1.,0.,0.));
#799=DIRECTION('',(0.,0.,1.));
#800=DIRECTION('',(1.,0.,0.));
#801=DIRECTION('',(0.,0.,-1.));
#802=DIRECTION('',(1.,0.,0.));
#803=DIRECTION('',(0.,0.,1.));
#804=DIRECTION('',(1.,0.,0.));
#805=DIRECTION('',(0.,0.,1.));
#806=DIRECTION('',(1.,0.,0.));
#807=DIRECTION('',(0.,0.,1.));
#808=DIRECTION('',(1.,0.,0.));
#809=DIRECTION('',(0.,0.,-1.));
#810=DIRECTION('',(1.,0.,0.));
#811=DIRECTION('',(0.,0.,1.));
#812=DIRECTION('',(1.,0.,0.));
#813=DIRECTION('',(0.,0.,1.));
#814=DIRECTION('',(1.,0.,0.));
#815=DIRECTION('',(0.,0.,1.));
#816=DIRECTION('',(1.,0.,0.));
#817=DIRECTION('',(0.,0.,1.));
#818=DIRECTION('',(1.,0.,0.));
#819=DIRECTION('',(0.,0.,1.));
#820=DIRECTION('',(1.,0.,0.));
#821=DIRECTION('',(0.,0.,1.));
#822=DIRECTION('',(1.,0.,0.));
#823=DIRECTION('',(0.,0.,1.));
#824=DIRECTION('',(1.,0.,0.));
#825=DIRECTION('',(0.,0.,1.));
#826=DIRECTION('',(1.,0.,0.));
#827=DIRECTION('',(0.,0.,1.));
#828=DIRECTION('',(1.,0.,0.));
#829=DIRECTION('',(0.837610596838614,0.,0.546267780546922));
#830=DIRECTION('',(0.,1.,0.));
#831=DIRECTION('',(-0.546267780546923,-6.31749028722995E-16,0.837610596838614));
#832=DIRECTION('',(0.,0.,-1.));
#833=DIRECTION('',(-1.,0.,0.));
#834=DIRECTION('',(0.546267780546923,0.,0.837610596838614));
#835=DIRECTION('',(0.837610596838614,0.,-0.546267780546922));
#836=DIRECTION('',(0.,-1.,0.));
#837=DIRECTION('',(0.,0.,-1.));
#838=DIRECTION('',(-1.,0.,0.));
#839=DIRECTION('',(0.,0.,-1.));
#840=DIRECTION('',(-1.,0.,0.));
#841=CARTESIAN_POINT('',(0.,0.,0.));
#842=CARTESIAN_POINT('',(-0.0321,-0.02945,0.0246));
#843=CARTESIAN_POINT('',(-0.0321,-0.02945,0.0246));
#844=CARTESIAN_POINT('',(-0.0321,-0.02945,0.0246));
#845=CARTESIAN_POINT('',(-0.0321,0.0356,0.0246));
#846=CARTESIAN_POINT('',(-0.0321,0.0356,0.0246));
#847=CARTESIAN_POINT('',(-0.0321,0.0356,0.0136));
#848=CARTESIAN_POINT('',(-0.0321,-0.02945,0.0136));
#849=CARTESIAN_POINT('',(-0.0321,-0.02945,0.0136));
#850=CARTESIAN_POINT('',(-0.0321,-0.02945,0.0246));
#851=CARTESIAN_POINT('',(-0.01855,-0.02945,0.0182));
#852=CARTESIAN_POINT('',(-0.005,-0.02945,0.0182));
#853=CARTESIAN_POINT('',(-0.005,-0.02945,0.0182));
#854=CARTESIAN_POINT('',(-0.005,-0.02505,0.0182));
#855=CARTESIAN_POINT('',(5.20417042793042E-18,-0.02505,0.0182));
#856=CARTESIAN_POINT('',(0.005,-0.02505,0.0182));
#857=CARTESIAN_POINT('',(0.005,-0.02945,0.0182));
#858=CARTESIAN_POINT('',(0.005,-0.02945,0.0182));
#859=CARTESIAN_POINT('',(-0.01855,-0.02945,0.0182));
#860=CARTESIAN_POINT('',(0.01855,-0.02945,0.0136));
#861=CARTESIAN_POINT('',(0.0201,0.01105,0.0136));
#862=CARTESIAN_POINT('',(0.0281,0.01105,0.0136));
#863=CARTESIAN_POINT('',(-0.0201,0.01105,0.0136));
#864=CARTESIAN_POINT('',(-0.0121,0.01105,0.0136));
#865=CARTESIAN_POINT('',(5.20417042793042E-18,-0.02505,0.0136));
#866=CARTESIAN_POINT('',(0.008,-0.02505,0.0136));
#867=CARTESIAN_POINT('',(-0.008,-0.02505,0.0136));
#868=CARTESIAN_POINT('',(-0.008,-0.02945,0.0136));
#869=CARTESIAN_POINT('',(-0.008,-0.02945,0.0136));
#870=CARTESIAN_POINT('',(-0.01855,-0.02945,0.0136));
#871=CARTESIAN_POINT('',(-0.0261,0.0356,0.0136));
#872=CARTESIAN_POINT('',(-0.0261,0.0416,0.0136));
#873=CARTESIAN_POINT('',(3.46944695195361E-18,0.0416,0.0136));
#874=CARTESIAN_POINT('',(0.0261,0.0416,0.0136));
#875=CARTESIAN_POINT('',(0.0261,0.0356,0.0136));
#876=CARTESIAN_POINT('',(0.0321,0.0356,0.0136));
#877=CARTESIAN_POINT('',(0.0321,-0.02945,0.0136));
#878=CARTESIAN_POINT('',(0.0321,-0.02945,0.0136));
#879=CARTESIAN_POINT('',(0.01855,-0.02945,0.0136));
#880=CARTESIAN_POINT('',(0.008,-0.02945,0.0136));
#881=CARTESIAN_POINT('',(0.008,-0.02945,0.0136));
#882=CARTESIAN_POINT('',(-0.00235,0.00875,0.0136));
#883=CARTESIAN_POINT('',(-0.0006,0.00875,0.0136));
#884=CARTESIAN_POINT('',(-0.0201,-0.01025,0.0136));
#885=CARTESIAN_POINT('',(-0.01835,-0.01025,0.0136));
#886=CARTESIAN_POINT('',(0.00855,-0.0018,0.0136));
#887=CARTESIAN_POINT('',(0.01145,-0.0018,0.0136));
#888=CARTESIAN_POINT('',(0.02255,-0.0018,0.0136));
#889=CARTESIAN_POINT('',(0.02545,-0.0018,0.0136));
#890=CARTESIAN_POINT('',(0.0321,-0.02945,0.0246));
#891=CARTESIAN_POINT('',(0.0321,0.0356,0.0246));
#892=CARTESIAN_POINT('',(0.0321,0.0356,0.0246));
#893=CARTESIAN_POINT('',(0.0321,-0.02945,0.0246));
#894=CARTESIAN_POINT('',(0.0321,-0.02945,0.0246));
#895=CARTESIAN_POINT('',(0.0321,-0.02945,0.0246));
#896=CARTESIAN_POINT('',(-0.01855,-0.02945,0.0246));
#897=CARTESIAN_POINT('',(0.0261,0.0356,0.0246));
#898=CARTESIAN_POINT('',(0.0261,0.0416,0.0246));
#899=CARTESIAN_POINT('',(3.46944695195361E-18,0.0416,0.0246));
#900=CARTESIAN_POINT('',(-0.0261,0.0416,0.0246));
#901=CARTESIAN_POINT('',(-0.0261,0.0356,0.0246));
#902=CARTESIAN_POINT('',(-0.01855,-0.02945,0.0246));
#903=CARTESIAN_POINT('',(0.02255,-0.0018,0.0246));
#904=CARTESIAN_POINT('',(0.0258,-0.0018,0.0246));
#905=CARTESIAN_POINT('',(0.00855,-0.0018,0.0246));
#906=CARTESIAN_POINT('',(0.0118,-0.0018,0.0246));
#907=CARTESIAN_POINT('',(-0.0201,-0.01025,0.0246));
#908=CARTESIAN_POINT('',(-0.01685,-0.01025,0.0246));
#909=CARTESIAN_POINT('',(-0.00235,0.00875,0.0246));
#910=CARTESIAN_POINT('',(0.0009,0.00875,0.0246));
#911=CARTESIAN_POINT('',(0.0116224139928818,-0.00743275877311828,0.0246));
#912=CARTESIAN_POINT('',(0.0137724139928818,-0.00743275877311828,0.0246));
#913=CARTESIAN_POINT('',(-0.0116224139928818,-0.00743275877311827,0.0246));
#914=CARTESIAN_POINT('',(-0.00947241399288176,-0.00743275877311827,0.0246));
#915=CARTESIAN_POINT('',(0.0116224139928818,0.0246327587731183,0.0246));
#916=CARTESIAN_POINT('',(0.0137724139928818,0.0246327587731183,0.0246));
#917=CARTESIAN_POINT('',(-0.0116224139928818,0.0246327587731183,0.0246));
#918=CARTESIAN_POINT('',(-0.00947241399288176,0.0246327587731183,0.0246));
#919=CARTESIAN_POINT('',(-0.01855,-0.02945,0.0246));
#920=CARTESIAN_POINT('',(-0.005,-0.02945,0.0182));
#921=CARTESIAN_POINT('',(0.008,-0.02945,0.0136));
#922=CARTESIAN_POINT('',(-6.93889390390723E-18,-0.0026,0.0182));
#923=CARTESIAN_POINT('',(0.00855,-0.0018,0.0182));
#924=CARTESIAN_POINT('',(0.0103,-0.0018,0.0182));
#925=CARTESIAN_POINT('',(0.00855,-0.0018,0.0182));
#926=CARTESIAN_POINT('',(0.01145,-0.0018,0.0182));
#927=CARTESIAN_POINT('',(-6.93889390390723E-18,-0.0026,0.0182));
#928=CARTESIAN_POINT('',(0.02255,-0.0018,0.0182));
#929=CARTESIAN_POINT('',(0.0243,-0.0018,0.0182));
#930=CARTESIAN_POINT('',(0.02255,-0.0018,0.0182));
#931=CARTESIAN_POINT('',(0.02545,-0.0018,0.0182));
#932=CARTESIAN_POINT('',(-0.0261,0.0356,0.0246));
#933=CARTESIAN_POINT('',(-0.0261,0.0416,0.0246));
#934=CARTESIAN_POINT('',(0.0261,0.0356,0.0246));
#935=CARTESIAN_POINT('',(0.0261,0.0416,0.0246));
#936=CARTESIAN_POINT('',(0.02255,-0.0018,0.0246));
#937=CARTESIAN_POINT('',(0.02255,-0.0018,0.0231));
#938=CARTESIAN_POINT('',(0.0243,-0.0018,0.0231));
#939=CARTESIAN_POINT('',(-0.0201,-0.01025,0.0246));
#940=CARTESIAN_POINT('',(-0.0201,-0.01025,0.0231));
#941=CARTESIAN_POINT('',(-0.01835,-0.01025,0.0231));
#942=CARTESIAN_POINT('',(-0.00235,0.00875,0.0246));
#943=CARTESIAN_POINT('',(-0.00235,0.00875,0.0231));
#944=CARTESIAN_POINT('',(-0.0006,0.00875,0.0231));
#945=CARTESIAN_POINT('',(3.46944695195361E-18,0.0416,0.0246));
#946=CARTESIAN_POINT('',(0.00855,-0.0018,0.0246));
#947=CARTESIAN_POINT('',(0.00855,-0.0018,0.0231));
#948=CARTESIAN_POINT('',(0.0103,-0.0018,0.0231));
#949=CARTESIAN_POINT('',(0.02255,-0.0018,0.0182));
#950=CARTESIAN_POINT('',(0.00855,-0.0018,0.0182));
#951=CARTESIAN_POINT('',(-6.93889390390723E-18,-0.0026,0.0182));
#952=CARTESIAN_POINT('',(0.0201,0.01105,0.0182));
#953=CARTESIAN_POINT('',(0.0251,0.01105,0.0182));
#954=CARTESIAN_POINT('',(-6.93889390390723E-18,-0.0026,0.0182));
#955=CARTESIAN_POINT('',(-0.0201,0.01105,0.0182));
#956=CARTESIAN_POINT('',(-0.0151,0.01105,0.0182));
#957=CARTESIAN_POINT('',(-0.0116224139928818,0.0246327587731183,0.0206));
#958=CARTESIAN_POINT('',(-0.0116224139928818,0.0246327587731183,0.02385));
#959=CARTESIAN_POINT('',(-0.00977241399288176,0.0246327587731183,0.02385));
#960=CARTESIAN_POINT('',(-0.0116224139928818,0.0246327587731183,0.0206));
#961=CARTESIAN_POINT('',(-0.00977241399288176,0.0246327587731183,0.0206));
#962=CARTESIAN_POINT('',(1.38777878078145E-17,0.008275,0.0206));
#963=CARTESIAN_POINT('',(0.0116224139928818,-0.00743275877311828,0.0206));
#964=CARTESIAN_POINT('',(0.0116224139928818,-0.00743275877311828,0.02385));
#965=CARTESIAN_POINT('',(0.0134724139928818,-0.00743275877311828,0.02385));
#966=CARTESIAN_POINT('',(0.0116224139928818,-0.00743275877311828,0.0206));
#967=CARTESIAN_POINT('',(0.0134724139928818,-0.00743275877311828,0.0206));
#968=CARTESIAN_POINT('',(1.38777878078145E-17,0.008275,0.0206));
#969=CARTESIAN_POINT('',(-0.0116224139928818,-0.00743275877311827,0.0206));
#970=CARTESIAN_POINT('',(-0.0116224139928818,-0.00743275877311827,0.02385));
#971=CARTESIAN_POINT('',(-0.00977241399288176,-0.00743275877311827,0.02385));
#972=CARTESIAN_POINT('',(-0.0116224139928818,-0.00743275877311827,0.0206));
#973=CARTESIAN_POINT('',(-0.00977241399288176,-0.00743275877311827,0.0206));
#974=CARTESIAN_POINT('',(1.38777878078145E-17,0.008275,0.0206));
#975=CARTESIAN_POINT('',(0.0116224139928818,0.0246327587731183,0.0206));
#976=CARTESIAN_POINT('',(0.0116224139928818,0.0246327587731183,0.02385));
#977=CARTESIAN_POINT('',(0.0134724139928818,0.0246327587731183,0.02385));
#978=CARTESIAN_POINT('',(0.0116224139928818,0.0246327587731183,0.0206));
#979=CARTESIAN_POINT('',(0.0134724139928818,0.0246327587731183,0.0206));
#980=CARTESIAN_POINT('',(1.38777878078145E-17,0.008275,0.0206));
#981=CARTESIAN_POINT('',(0.0116224139928818,-0.00743275877311828,0.02385));
#982=CARTESIAN_POINT('',(-0.0116224139928818,-0.00743275877311827,0.0246));
#983=CARTESIAN_POINT('',(0.0116224139928818,0.0246327587731183,0.0246));
#984=CARTESIAN_POINT('',(-0.0116224139928818,0.0246327587731183,0.02385));
#985=CARTESIAN_POINT('',(0.02255,-0.0018,0.0231));
#986=CARTESIAN_POINT('',(0.00855,-0.0018,0.0231));
#987=CARTESIAN_POINT('',(-0.0201,-0.01025,0.0231));
#988=CARTESIAN_POINT('',(-0.00235,0.00875,0.0231));
#989=CARTESIAN_POINT('',(0.008,-0.02945,0.0136));
#990=CARTESIAN_POINT('',(0.008,-0.02505,0.0136));
#991=CARTESIAN_POINT('',(5.20417042793042E-18,-0.02505,0.0136));
#992=CARTESIAN_POINT('',(-0.008,-0.02505,0.0136));
#993=CARTESIAN_POINT('',(-0.005,-0.02945,0.0182));
#994=CARTESIAN_POINT('',(0.0201,0.01105,0.0136));
#995=CARTESIAN_POINT('',(-0.0201,0.01105,0.0136));
#996=MECHANICAL_DESIGN_GEOMETRIC_PRESENTATION_REPRESENTATION('',(#569),
#997);
#997=(
GEOMETRIC_REPRESENTATION_CONTEXT(3)
GLOBAL_UNCERTAINTY_ASSIGNED_CONTEXT((#998))
GLOBAL_UNIT_ASSIGNED_CONTEXT((#1001,#1000,#999))
REPRESENTATION_CONTEXT('interface-v2','TOP_LEVEL_ASSEMBLY_PART')
);
#998=UNCERTAINTY_MEASURE_WITH_UNIT(LENGTH_MEASURE(1.E-8),#1001,
'DISTANCE_ACCURACY_VALUE','Maximum Tolerance applied to model');
#999=(
NAMED_UNIT(*)
SI_UNIT($,.STERADIAN.)
SOLID_ANGLE_UNIT()
);
#1000=(
NAMED_UNIT(*)
PLANE_ANGLE_UNIT()
SI_UNIT($,.RADIAN.)
);
#1001=(
LENGTH_UNIT()
NAMED_UNIT(*)
SI_UNIT($,.METRE.)
);
#1002=PRODUCT_DEFINITION_SHAPE('','',#1003);
#1003=PRODUCT_DEFINITION('','',#1005,#1004);
#1004=PRODUCT_DEFINITION_CONTEXT('',#1011,'design');
#1005=PRODUCT_DEFINITION_FORMATION_WITH_SPECIFIED_SOURCE('','',#1007,
 .NOT_KNOWN.);
#1006=PRODUCT_RELATED_PRODUCT_CATEGORY('','',(#1007));
#1007=PRODUCT('interface-v2','interface-v2','interface-v2',(#1009));
#1008=PRODUCT_CATEGORY('','');
#1009=PRODUCT_CONTEXT('',#1011,'mechanical');
#1010=APPLICATION_PROTOCOL_DEFINITION('international standard',
'ap242_managed_model_based_3d_engineering',2020,#1011);
#1011=APPLICATION_CONTEXT('managed model based 3d engineering');
ENDSEC;
END-ISO-10303-21;
