ISO-10303-21;
HEADER;
/* Generated by software containing ST-Developer
 * from STEP Tools, Inc. (www.steptools.com) 
 */
/* OPTION: using custom renumber hook */

FILE_DESCRIPTION(
/* description */ ('STEP AP242 Edition 2',
'CAx-IF Rec.Pracs.---Representation and Presentation of Product Manufa
cturing Information (PMI)---4.0---2014-10-13',
'CAx-IF Rec.Pracs.---3D Tessellated Geometry---0.4---2014-09-14','2;1',
'CAx-IF Rec.Pracs.---User Defined Attributes---1.5---2016-08-15'),
/* implementation_level */ '2;1');

FILE_NAME(
/* name */ 'accesorys - drawer-stopper-outside',
/* time_stamp */ '2026-10-03T16:56:23Z',
/* author */ (''),
/* organization */ (''),
/* preprocessor_version */ 'ST-DEVELOPER v20',
/* originating_system */ 'ONSHAPE BY PTC INC, 1.221',
/* authorisation */ '  ');

FILE_SCHEMA (('AP242_MANAGED_MODEL_BASED_3D_ENGINEERING_MIM_LF { 1 0 10303 442 3 1 4 }'));
ENDSEC;

DATA;
#10=SHAPE_REPRESENTATION_RELATIONSHIP('','',#203,#11);
#11=ADVANCED_BREP_SHAPE_REPRESENTATION('',(#201),#355);
#12=TOROIDAL_SURFACE('',#222,0.0025,0.001);
#13=TOROIDAL_SURFACE('',#229,0.0025,0.001);
#14=B_SPLINE_CURVE_WITH_KNOTS('',3,(#336,#337,#338,#339,#340),
 .UNSPECIFIED.,.F.,.F.,(4,1,4),(0.,0.00108442855577395,0.0021688571115479),
 .UNSPECIFIED.);
#15=B_SPLINE_CURVE_WITH_KNOTS('',3,(#341,#342,#343,#344,#345),
 .UNSPECIFIED.,.F.,.F.,(4,1,4),(0.,0.00109447119476643,0.00218894238953285),
 .UNSPECIFIED.);
#16=CONICAL_SURFACE('',#220,0.00175,0.938047491792715);
#17=CIRCLE('',#207,0.0035);
#18=CIRCLE('',#208,0.0035);
#19=CIRCLE('',#211,0.0035);
#20=CIRCLE('',#212,0.0035);
#21=CIRCLE('',#214,0.00175);
#22=CIRCLE('',#215,0.00175);
#23=CIRCLE('',#217,0.00325);
#24=CIRCLE('',#218,0.0025);
#25=CIRCLE('',#221,0.00303684102651718);
#26=CIRCLE('',#223,0.001);
#27=CIRCLE('',#224,0.001);
#28=CIRCLE('',#226,0.001);
#29=CIRCLE('',#228,0.001);
#30=CYLINDRICAL_SURFACE('',#206,0.0035);
#31=CYLINDRICAL_SURFACE('',#210,0.0035);
#32=CYLINDRICAL_SURFACE('',#213,0.00175);
#33=CYLINDRICAL_SURFACE('',#225,0.001);
#34=CYLINDRICAL_SURFACE('',#227,0.001);
#35=ORIENTED_EDGE('',*,*,#85,.F.);
#36=ORIENTED_EDGE('',*,*,#86,.T.);
#37=ORIENTED_EDGE('',*,*,#87,.T.);
#38=ORIENTED_EDGE('',*,*,#88,.T.);
#39=ORIENTED_EDGE('',*,*,#89,.F.);
#40=ORIENTED_EDGE('',*,*,#90,.T.);
#41=ORIENTED_EDGE('',*,*,#85,.T.);
#42=ORIENTED_EDGE('',*,*,#91,.T.);
#43=ORIENTED_EDGE('',*,*,#92,.F.);
#44=ORIENTED_EDGE('',*,*,#93,.T.);
#45=ORIENTED_EDGE('',*,*,#89,.T.);
#46=ORIENTED_EDGE('',*,*,#94,.T.);
#47=ORIENTED_EDGE('',*,*,#87,.F.);
#48=ORIENTED_EDGE('',*,*,#95,.T.);
#49=ORIENTED_EDGE('',*,*,#92,.T.);
#50=ORIENTED_EDGE('',*,*,#96,.T.);
#51=ORIENTED_EDGE('',*,*,#97,.T.);
#52=ORIENTED_EDGE('',*,*,#98,.F.);
#53=ORIENTED_EDGE('',*,*,#99,.T.);
#54=ORIENTED_EDGE('',*,*,#100,.T.);
#55=ORIENTED_EDGE('',*,*,#101,.T.);
#56=ORIENTED_EDGE('',*,*,#102,.T.);
#57=ORIENTED_EDGE('',*,*,#88,.F.);
#58=ORIENTED_EDGE('',*,*,#96,.F.);
#59=ORIENTED_EDGE('',*,*,#94,.F.);
#60=ORIENTED_EDGE('',*,*,#91,.F.);
#61=ORIENTED_EDGE('',*,*,#98,.T.);
#62=ORIENTED_EDGE('',*,*,#103,.T.);
#63=ORIENTED_EDGE('',*,*,#104,.T.);
#64=ORIENTED_EDGE('',*,*,#99,.F.);
#65=ORIENTED_EDGE('',*,*,#105,.T.);
#66=ORIENTED_EDGE('',*,*,#97,.F.);
#67=ORIENTED_EDGE('',*,*,#106,.F.);
#68=ORIENTED_EDGE('',*,*,#95,.F.);
#69=ORIENTED_EDGE('',*,*,#107,.F.);
#70=ORIENTED_EDGE('',*,*,#101,.F.);
#71=ORIENTED_EDGE('',*,*,#107,.T.);
#72=ORIENTED_EDGE('',*,*,#86,.F.);
#73=ORIENTED_EDGE('',*,*,#108,.F.);
#74=ORIENTED_EDGE('',*,*,#105,.F.);
#75=ORIENTED_EDGE('',*,*,#102,.F.);
#76=ORIENTED_EDGE('',*,*,#100,.F.);
#77=ORIENTED_EDGE('',*,*,#104,.F.);
#78=ORIENTED_EDGE('',*,*,#109,.F.);
#79=ORIENTED_EDGE('',*,*,#93,.F.);
#80=ORIENTED_EDGE('',*,*,#106,.T.);
#81=ORIENTED_EDGE('',*,*,#108,.T.);
#82=ORIENTED_EDGE('',*,*,#90,.F.);
#83=ORIENTED_EDGE('',*,*,#109,.T.);
#84=ORIENTED_EDGE('',*,*,#103,.F.);
#85=EDGE_CURVE('',#110,#111,#126,.T.);
#86=EDGE_CURVE('',#110,#112,#127,.F.);
#87=EDGE_CURVE('',#112,#113,#128,.T.);
#88=EDGE_CURVE('',#113,#111,#129,.T.);
#89=EDGE_CURVE('',#114,#115,#130,.T.);
#90=EDGE_CURVE('',#114,#110,#17,.F.);
#91=EDGE_CURVE('',#111,#115,#18,.T.);
#92=EDGE_CURVE('',#116,#117,#131,.T.);
#93=EDGE_CURVE('',#116,#114,#132,.F.);
#94=EDGE_CURVE('',#115,#117,#133,.T.);
#95=EDGE_CURVE('',#112,#116,#19,.F.);
#96=EDGE_CURVE('',#117,#113,#20,.T.);
#97=EDGE_CURVE('',#118,#118,#21,.T.);
#98=EDGE_CURVE('',#119,#119,#22,.T.);
#99=EDGE_CURVE('',#120,#121,#23,.F.);
#100=EDGE_CURVE('',#121,#122,#134,.T.);
#101=EDGE_CURVE('',#122,#123,#24,.T.);
#102=EDGE_CURVE('',#123,#120,#135,.T.);
#103=EDGE_CURVE('',#124,#125,#25,.F.);
#104=EDGE_CURVE('',#125,#121,#14,.T.);
#105=EDGE_CURVE('',#120,#124,#15,.T.);
#106=EDGE_CURVE('',#116,#122,#26,.T.);
#107=EDGE_CURVE('',#123,#112,#27,.T.);
#108=EDGE_CURVE('',#124,#110,#28,.T.);
#109=EDGE_CURVE('',#114,#125,#29,.T.);
#110=VERTEX_POINT('',#295);
#111=VERTEX_POINT('',#296);
#112=VERTEX_POINT('',#298);
#113=VERTEX_POINT('',#300);
#114=VERTEX_POINT('',#304);
#115=VERTEX_POINT('',#305);
#116=VERTEX_POINT('',#310);
#117=VERTEX_POINT('',#311);
#118=VERTEX_POINT('',#319);
#119=VERTEX_POINT('',#321);
#120=VERTEX_POINT('',#324);
#121=VERTEX_POINT('',#325);
#122=VERTEX_POINT('',#327);
#123=VERTEX_POINT('',#329);
#124=VERTEX_POINT('',#334);
#125=VERTEX_POINT('',#335);
#126=LINE('',#294,#136);
#127=LINE('',#297,#137);
#128=LINE('',#299,#138);
#129=LINE('',#301,#139);
#130=LINE('',#303,#140);
#131=LINE('',#309,#141);
#132=LINE('',#312,#142);
#133=LINE('',#313,#143);
#134=LINE('',#326,#144);
#135=LINE('',#330,#145);
#136=VECTOR('',#234,1.);
#137=VECTOR('',#235,1.);
#138=VECTOR('',#236,1.);
#139=VECTOR('',#237,1.);
#140=VECTOR('',#240,1.);
#141=VECTOR('',#247,1.);
#142=VECTOR('',#248,1.);
#143=VECTOR('',#249,1.);
#144=VECTOR('',#266,1.);
#145=VECTOR('',#269,1.);
#146=EDGE_LOOP('',(#35,#36,#37,#38));
#147=EDGE_LOOP('',(#39,#40,#41,#42));
#148=EDGE_LOOP('',(#43,#44,#45,#46));
#149=EDGE_LOOP('',(#47,#48,#49,#50));
#150=EDGE_LOOP('',(#51));
#151=EDGE_LOOP('',(#52));
#152=EDGE_LOOP('',(#53,#54,#55,#56));
#153=EDGE_LOOP('',(#57,#58,#59,#60));
#154=EDGE_LOOP('',(#61));
#155=EDGE_LOOP('',(#62,#63,#64,#65));
#156=EDGE_LOOP('',(#66));
#157=EDGE_LOOP('',(#67,#68,#69,#70));
#158=EDGE_LOOP('',(#71,#72,#73,#74,#75));
#159=EDGE_LOOP('',(#76,#77,#78,#79,#80));
#160=EDGE_LOOP('',(#81,#82,#83,#84));
#161=FACE_BOUND('',#146,.T.);
#162=FACE_BOUND('',#147,.T.);
#163=FACE_BOUND('',#148,.T.);
#164=FACE_BOUND('',#149,.T.);
#165=FACE_BOUND('',#150,.T.);
#166=FACE_BOUND('',#151,.T.);
#167=FACE_BOUND('',#152,.T.);
#168=FACE_BOUND('',#153,.T.);
#169=FACE_BOUND('',#154,.T.);
#170=FACE_BOUND('',#155,.T.);
#171=FACE_BOUND('',#156,.T.);
#172=FACE_BOUND('',#157,.T.);
#173=FACE_BOUND('',#158,.T.);
#174=FACE_BOUND('',#159,.T.);
#175=FACE_BOUND('',#160,.T.);
#176=PLANE('',#205);
#177=PLANE('',#209);
#178=PLANE('',#216);
#179=PLANE('',#219);
#180=ADVANCED_FACE('',(#161),#176,.F.);
#181=ADVANCED_FACE('',(#162),#30,.T.);
#182=ADVANCED_FACE('',(#163),#177,.F.);
#183=ADVANCED_FACE('',(#164),#31,.T.);
#184=ADVANCED_FACE('',(#165,#166),#32,.F.);
#185=ADVANCED_FACE('',(#167),#178,.T.);
#186=ADVANCED_FACE('',(#168,#169),#179,.F.);
#187=ADVANCED_FACE('',(#170,#171),#16,.F.);
#188=ADVANCED_FACE('',(#172),#12,.T.);
#189=ADVANCED_FACE('',(#173),#33,.T.);
#190=ADVANCED_FACE('',(#174),#34,.T.);
#191=ADVANCED_FACE('',(#175),#13,.T.);
#192=CLOSED_SHELL('',(#180,#181,#182,#183,#184,#185,#186,#187,#188,#189,
#190,#191));
#193=STYLED_ITEM('',(#194),#201);
#194=PRESENTATION_STYLE_ASSIGNMENT((#195));
#195=SURFACE_STYLE_USAGE(.BOTH.,#196);
#196=SURFACE_SIDE_STYLE('',(#197));
#197=SURFACE_STYLE_FILL_AREA(#198);
#198=FILL_AREA_STYLE('',(#199));
#199=FILL_AREA_STYLE_COLOUR('',#200);
#200=COLOUR_RGB('',0.498039215686275,0.498039215686275,0.498039215686275);
#201=MANIFOLD_SOLID_BREP('drawer-stopper-outside',#192);
#202=SHAPE_DEFINITION_REPRESENTATION(#360,#203);
#203=SHAPE_REPRESENTATION('drawer-stopper-outside',(#204),#355);
#204=AXIS2_PLACEMENT_3D('',#292,#230,#231);
#205=AXIS2_PLACEMENT_3D('',#293,#232,#233);
#206=AXIS2_PLACEMENT_3D('',#302,#238,#239);
#207=AXIS2_PLACEMENT_3D('',#306,#241,#242);
#208=AXIS2_PLACEMENT_3D('',#307,#243,#244);
#209=AXIS2_PLACEMENT_3D('',#308,#245,#246);
#210=AXIS2_PLACEMENT_3D('',#314,#250,#251);
#211=AXIS2_PLACEMENT_3D('',#315,#252,#253);
#212=AXIS2_PLACEMENT_3D('',#316,#254,#255);
#213=AXIS2_PLACEMENT_3D('',#317,#256,#257);
#214=AXIS2_PLACEMENT_3D('',#318,#258,#259);
#215=AXIS2_PLACEMENT_3D('',#320,#260,#261);
#216=AXIS2_PLACEMENT_3D('',#322,#262,#263);
#217=AXIS2_PLACEMENT_3D('',#323,#264,#265);
#218=AXIS2_PLACEMENT_3D('',#328,#267,#268);
#219=AXIS2_PLACEMENT_3D('',#331,#270,#271);
#220=AXIS2_PLACEMENT_3D('',#332,#272,#273);
#221=AXIS2_PLACEMENT_3D('',#333,#274,#275);
#222=AXIS2_PLACEMENT_3D('',#346,#276,#277);
#223=AXIS2_PLACEMENT_3D('',#347,#278,#279);
#224=AXIS2_PLACEMENT_3D('',#348,#280,#281);
#225=AXIS2_PLACEMENT_3D('',#349,#282,#283);
#226=AXIS2_PLACEMENT_3D('',#350,#284,#285);
#227=AXIS2_PLACEMENT_3D('',#351,#286,#287);
#228=AXIS2_PLACEMENT_3D('',#352,#288,#289);
#229=AXIS2_PLACEMENT_3D('',#353,#290,#291);
#230=DIRECTION('',(0.,0.,1.));
#231=DIRECTION('',(1.,0.,0.));
#232=DIRECTION('',(0.,1.,0.));
#233=DIRECTION('',(1.,0.,0.));
#234=DIRECTION('',(0.,0.,-1.));
#235=DIRECTION('',(1.,0.,0.));
#236=DIRECTION('',(0.,0.,-1.));
#237=DIRECTION('',(1.,0.,0.));
#238=DIRECTION('',(0.,0.,-1.));
#239=DIRECTION('',(0.,1.,0.));
#240=DIRECTION('',(0.,0.,-1.));
#241=DIRECTION('',(0.,0.,1.));
#242=DIRECTION('',(0.,-1.,0.));
#243=DIRECTION('',(0.,0.,1.));
#244=DIRECTION('',(0.,-1.,0.));
#245=DIRECTION('',(0.,-1.,0.));
#246=DIRECTION('',(-1.,0.,0.));
#247=DIRECTION('',(0.,0.,-1.));
#248=DIRECTION('',(-1.,0.,0.));
#249=DIRECTION('',(-1.,0.,0.));
#250=DIRECTION('',(0.,0.,-1.));
#251=DIRECTION('',(0.,1.,0.));
#252=DIRECTION('',(0.,0.,1.));
#253=DIRECTION('',(0.,-1.,0.));
#254=DIRECTION('',(0.,0.,1.));
#255=DIRECTION('',(0.,1.,0.));
#256=DIRECTION('',(0.,0.,-1.));
#257=DIRECTION('',(0.,1.,0.));
#258=DIRECTION('',(0.,0.,1.));
#259=DIRECTION('',(0.,-1.,0.));
#260=DIRECTION('',(0.,0.,1.));
#261=DIRECTION('',(1.,0.,0.));
#262=DIRECTION('',(0.,0.,1.));
#263=DIRECTION('',(1.,0.,0.));
#264=DIRECTION('',(0.,0.,1.));
#265=DIRECTION('',(0.,-1.,0.));
#266=DIRECTION('',(-1.,0.,0.));
#267=DIRECTION('',(0.,0.,1.));
#268=DIRECTION('',(0.,-1.,0.));
#269=DIRECTION('',(1.,0.,0.));
#270=DIRECTION('',(0.,0.,1.));
#271=DIRECTION('',(1.,0.,0.));
#272=DIRECTION('',(0.,0.,1.));
#273=DIRECTION('',(0.,-1.,0.));
#274=DIRECTION('',(0.,0.,-1.));
#275=DIRECTION('',(0.,1.,0.));
#276=DIRECTION('',(0.,0.,1.));
#277=DIRECTION('',(0.,-1.,0.));
#278=DIRECTION('',(1.,0.,0.));
#279=DIRECTION('',(0.,-1.,0.));
#280=DIRECTION('',(1.,0.,0.));
#281=DIRECTION('',(0.,-1.,0.));
#282=DIRECTION('',(-1.,0.,0.));
#283=DIRECTION('',(0.,1.,0.));
#284=DIRECTION('',(1.,0.,0.));
#285=DIRECTION('',(0.,-1.,0.));
#286=DIRECTION('',(1.,0.,0.));
#287=DIRECTION('',(0.,-1.,0.));
#288=DIRECTION('',(1.,0.,0.));
#289=DIRECTION('',(0.,-1.,0.));
#290=DIRECTION('',(0.,0.,1.));
#291=DIRECTION('',(0.,-1.,0.));
#292=CARTESIAN_POINT('',(0.,0.,0.));
#293=CARTESIAN_POINT('',(-0.03225,0.017,0.0475));
#294=CARTESIAN_POINT('',(-0.0265,0.017,0.0475));
#295=CARTESIAN_POINT('',(-0.0265,0.017,0.0465));
#296=CARTESIAN_POINT('',(-0.0265,0.017,0.0425));
#297=CARTESIAN_POINT('',(-0.038,0.017,0.0465));
#298=CARTESIAN_POINT('',(-0.038,0.017,0.0465));
#299=CARTESIAN_POINT('',(-0.038,0.017,0.0475));
#300=CARTESIAN_POINT('',(-0.038,0.017,0.0425));
#301=CARTESIAN_POINT('',(-0.03225,0.017,0.0425));
#302=CARTESIAN_POINT('',(-0.0265,0.0205,0.0475));
#303=CARTESIAN_POINT('',(-0.0265,0.024,0.0475));
#304=CARTESIAN_POINT('',(-0.0265,0.024,0.0465));
#305=CARTESIAN_POINT('',(-0.0265,0.024,0.0425));
#306=CARTESIAN_POINT('',(-0.0265,0.0205,0.0465));
#307=CARTESIAN_POINT('',(-0.0265,0.0205,0.0425));
#308=CARTESIAN_POINT('',(-0.03225,0.024,0.0475));
#309=CARTESIAN_POINT('',(-0.038,0.024,0.0475));
#310=CARTESIAN_POINT('',(-0.038,0.024,0.0465));
#311=CARTESIAN_POINT('',(-0.038,0.024,0.0425));
#312=CARTESIAN_POINT('',(-0.0265,0.024,0.0465));
#313=CARTESIAN_POINT('',(-0.03225,0.024,0.0425));
#314=CARTESIAN_POINT('',(-0.038,0.0205,0.0475));
#315=CARTESIAN_POINT('',(-0.038,0.0205,0.0465));
#316=CARTESIAN_POINT('',(-0.038,0.0205,0.0425));
#317=CARTESIAN_POINT('',(-0.0265,0.0205,0.0475));
#318=CARTESIAN_POINT('',(-0.0265,0.0205,0.0464));
#319=CARTESIAN_POINT('',(-0.0265,0.01875,0.0464));
#320=CARTESIAN_POINT('',(-0.0265,0.0205,0.0425));
#321=CARTESIAN_POINT('',(-0.02475,0.0205,0.0425));
#322=CARTESIAN_POINT('',(0.008,0.0165,0.0475));
#323=CARTESIAN_POINT('',(-0.0265,0.0205,0.0475));
#324=CARTESIAN_POINT('',(-0.0285766559657295,0.018,0.0475));
#325=CARTESIAN_POINT('',(-0.0285766559657295,0.023,0.0475));
#326=CARTESIAN_POINT('',(-0.038,0.023,0.0475));
#327=CARTESIAN_POINT('',(-0.038,0.023,0.0475));
#328=CARTESIAN_POINT('',(-0.038,0.0205,0.0475));
#329=CARTESIAN_POINT('',(-0.038,0.018,0.0475));
#330=CARTESIAN_POINT('',(-0.0265,0.018,0.0475));
#331=CARTESIAN_POINT('',(0.008,0.0165,0.0425));
#332=CARTESIAN_POINT('',(-0.0265,0.0205,0.0464));
#333=CARTESIAN_POINT('',(-0.0265,0.0205,0.0473436834194459));
#334=CARTESIAN_POINT('',(-0.0265,0.0174631589734828,0.0473436834194459));
#335=CARTESIAN_POINT('',(-0.0265,0.0235368410265172,0.0473436834194459));
#336=CARTESIAN_POINT('',(-0.0265,0.0235368410265172,0.0473436834194459));
#337=CARTESIAN_POINT('',(-0.026866817442726,0.0235368410265172,0.0473436834194459));
#338=CARTESIAN_POINT('',(-0.0275774998473723,0.0234679395652364,0.0473866986253875));
#339=CARTESIAN_POINT('',(-0.0282936014267134,0.0232351227588299,0.0475));
#340=CARTESIAN_POINT('',(-0.0285766559657295,0.023,0.0475));
#341=CARTESIAN_POINT('',(-0.0285766559657295,0.018,0.0475));
#342=CARTESIAN_POINT('',(-0.0282914681061369,0.0177631051720093,0.0475));
#343=CARTESIAN_POINT('',(-0.0275878138954329,0.017534398916118,0.0473873837005156));
#344=CARTESIAN_POINT('',(-0.0268615851217388,0.0174631589734828,0.0473436834194459));
#345=CARTESIAN_POINT('',(-0.0265,0.0174631589734828,0.0473436834194459));
#346=CARTESIAN_POINT('',(-0.038,0.0205,0.0465));
#347=CARTESIAN_POINT('',(-0.038,0.023,0.0465));
#348=CARTESIAN_POINT('',(-0.038,0.018,0.0465));
#349=CARTESIAN_POINT('',(0.008,0.018,0.0465));
#350=CARTESIAN_POINT('',(-0.0265,0.018,0.0465));
#351=CARTESIAN_POINT('',(0.008,0.023,0.0465));
#352=CARTESIAN_POINT('',(-0.0265,0.023,0.0465));
#353=CARTESIAN_POINT('',(-0.0265,0.0205,0.0465));
#354=MECHANICAL_DESIGN_GEOMETRIC_PRESENTATION_REPRESENTATION('',(#193),
#355);
#355=(
GEOMETRIC_REPRESENTATION_CONTEXT(3)
GLOBAL_UNCERTAINTY_ASSIGNED_CONTEXT((#356))
GLOBAL_UNIT_ASSIGNED_CONTEXT((#359,#358,#357))
REPRESENTATION_CONTEXT('drawer-stopper-outside',
'TOP_LEVEL_ASSEMBLY_PART')
);
#356=UNCERTAINTY_MEASURE_WITH_UNIT(LENGTH_MEASURE(2.E-5),#359,
'DISTANCE_ACCURACY_VALUE','Maximum Tolerance applied to model');
#357=(
NAMED_UNIT(*)
SI_UNIT($,.STERADIAN.)
SOLID_ANGLE_UNIT()
);
#358=(
NAMED_UNIT(*)
PLANE_ANGLE_UNIT()
SI_UNIT($,.RADIAN.)
);
#359=(
LENGTH_UNIT()
NAMED_UNIT(*)
SI_UNIT($,.METRE.)
);
#360=PRODUCT_DEFINITION_SHAPE('','',#361);
#361=PRODUCT_DEFINITION('','',#363,#362);
#362=PRODUCT_DEFINITION_CONTEXT('',#369,'design');
#363=PRODUCT_DEFINITION_FORMATION_WITH_SPECIFIED_SOURCE('','',#365,
 .NOT_KNOWN.);
#364=PRODUCT_RELATED_PRODUCT_CATEGORY('','',(#365));
#365=PRODUCT('drawer-stopper-outside','drawer-stopper-outside',
'drawer-stopper-outside',(#367));
#366=PRODUCT_CATEGORY('','');
#367=PRODUCT_CONTEXT('',#369,'mechanical');
#368=APPLICATION_PROTOCOL_DEFINITION('international standard',
'ap242_managed_model_based_3d_engineering',2020,#369);
#369=APPLICATION_CONTEXT('managed model based 3d engineering');
ENDSEC;
END-ISO-10303-21;
