ISO-10303-21;
HEADER;
/* Generated by software containing ST-Developer
 * from STEP Tools, Inc. (www.steptools.com) 
 */
/* OPTION: using custom renumber hook */

FILE_DESCRIPTION(
/* description */ ('STEP AP242 Edition 2',
'CAx-IF Rec.Pracs.---Representation and Presentation of Product Manufa
cturing Information (PMI)---4.0---2014-10-13',
'CAx-IF Rec.Pracs.---3D Tessellated Geometry---0.4---2014-09-14','2;1',
'CAx-IF Rec.Pracs.---User Defined Attributes---1.5---2016-08-15'),
/* implementation_level */ '2;1');

FILE_NAME(
/* name */ 'accesorys - drawer-rpi',
/* time_stamp */ '2026-10-03T16:56:06Z',
/* author */ (''),
/* organization */ (''),
/* preprocessor_version */ 'ST-DEVELOPER v20',
/* originating_system */ 'ONSHAPE BY PTC INC, 1.221',
/* authorisation */ '  ');

FILE_SCHEMA (('AP242_MANAGED_MODEL_BASED_3D_ENGINEERING_MIM_LF { 1 0 10303 442 3 1 4 }'));
ENDSEC;

DATA;
#10=SHAPE_REPRESENTATION_RELATIONSHIP('','',#327,#11);
#11=ADVANCED_BREP_SHAPE_REPRESENTATION('',(#325),#537);
#12=PLANE('',#332);
#13=PLANE('',#333);
#14=PLANE('',#334);
#15=PLANE('',#339);
#16=PLANE('',#340);
#17=PLANE('',#341);
#18=PLANE('',#342);
#19=PLANE('',#343);
#20=PLANE('',#344);
#21=PLANE('',#345);
#22=PLANE('',#350);
#23=PLANE('',#351);
#24=PLANE('',#352);
#25=LINE('',#452,#57);
#26=LINE('',#456,#58);
#27=LINE('',#458,#59);
#28=LINE('',#460,#60);
#29=LINE('',#462,#61);
#30=LINE('',#465,#62);
#31=LINE('',#467,#63);
#32=LINE('',#469,#64);
#33=LINE('',#470,#65);
#34=LINE('',#475,#66);
#35=LINE('',#479,#67);
#36=LINE('',#483,#68);
#37=LINE('',#487,#69);
#38=LINE('',#489,#70);
#39=LINE('',#491,#71);
#40=LINE('',#493,#72);
#41=LINE('',#495,#73);
#42=LINE('',#497,#74);
#43=LINE('',#499,#75);
#44=LINE('',#500,#76);
#45=LINE('',#504,#77);
#46=LINE('',#506,#78);
#47=LINE('',#508,#79);
#48=LINE('',#510,#80);
#49=LINE('',#515,#81);
#50=LINE('',#519,#82);
#51=LINE('',#524,#83);
#52=LINE('',#525,#84);
#53=LINE('',#527,#85);
#54=LINE('',#528,#86);
#55=LINE('',#530,#87);
#56=LINE('',#531,#88);
#57=VECTOR('',#363,1.);
#58=VECTOR('',#366,1.);
#59=VECTOR('',#369,1.);
#60=VECTOR('',#372,1.);
#61=VECTOR('',#375,1.);
#62=VECTOR('',#376,1.);
#63=VECTOR('',#377,1.);
#64=VECTOR('',#378,1.);
#65=VECTOR('',#379,1.);
#66=VECTOR('',#382,1.);
#67=VECTOR('',#385,1.);
#68=VECTOR('',#388,1.);
#69=VECTOR('',#393,1.);
#70=VECTOR('',#394,1.);
#71=VECTOR('',#395,1.);
#72=VECTOR('',#398,1.);
#73=VECTOR('',#399,1.);
#74=VECTOR('',#400,1.);
#75=VECTOR('',#403,1.);
#76=VECTOR('',#404,1.);
#77=VECTOR('',#411,1.);
#78=VECTOR('',#412,1.);
#79=VECTOR('',#413,1.);
#80=VECTOR('',#416,1.);
#81=VECTOR('',#419,1.);
#82=VECTOR('',#422,1.);
#83=VECTOR('',#429,1.);
#84=VECTOR('',#430,1.);
#85=VECTOR('',#433,1.);
#86=VECTOR('',#434,1.);
#87=VECTOR('',#437,1.);
#88=VECTOR('',#438,1.);
#89=ORIENTED_EDGE('',*,*,#173,.T.);
#90=ORIENTED_EDGE('',*,*,#174,.F.);
#91=ORIENTED_EDGE('',*,*,#175,.F.);
#92=ORIENTED_EDGE('',*,*,#176,.T.);
#93=ORIENTED_EDGE('',*,*,#177,.F.);
#94=ORIENTED_EDGE('',*,*,#175,.T.);
#95=ORIENTED_EDGE('',*,*,#178,.T.);
#96=ORIENTED_EDGE('',*,*,#173,.F.);
#97=ORIENTED_EDGE('',*,*,#179,.F.);
#98=ORIENTED_EDGE('',*,*,#180,.F.);
#99=ORIENTED_EDGE('',*,*,#181,.T.);
#100=ORIENTED_EDGE('',*,*,#182,.T.);
#101=ORIENTED_EDGE('',*,*,#183,.F.);
#102=ORIENTED_EDGE('',*,*,#184,.T.);
#103=ORIENTED_EDGE('',*,*,#185,.T.);
#104=ORIENTED_EDGE('',*,*,#186,.T.);
#105=ORIENTED_EDGE('',*,*,#187,.T.);
#106=ORIENTED_EDGE('',*,*,#188,.T.);
#107=ORIENTED_EDGE('',*,*,#189,.F.);
#108=ORIENTED_EDGE('',*,*,#190,.T.);
#109=ORIENTED_EDGE('',*,*,#191,.T.);
#110=ORIENTED_EDGE('',*,*,#182,.F.);
#111=ORIENTED_EDGE('',*,*,#192,.F.);
#112=ORIENTED_EDGE('',*,*,#193,.T.);
#113=ORIENTED_EDGE('',*,*,#194,.T.);
#114=ORIENTED_EDGE('',*,*,#193,.F.);
#115=ORIENTED_EDGE('',*,*,#195,.F.);
#116=ORIENTED_EDGE('',*,*,#196,.T.);
#117=ORIENTED_EDGE('',*,*,#197,.F.);
#118=ORIENTED_EDGE('',*,*,#196,.F.);
#119=ORIENTED_EDGE('',*,*,#198,.T.);
#120=ORIENTED_EDGE('',*,*,#180,.T.);
#121=ORIENTED_EDGE('',*,*,#192,.T.);
#122=ORIENTED_EDGE('',*,*,#181,.F.);
#123=ORIENTED_EDGE('',*,*,#198,.F.);
#124=ORIENTED_EDGE('',*,*,#195,.T.);
#125=ORIENTED_EDGE('',*,*,#176,.F.);
#126=ORIENTED_EDGE('',*,*,#177,.T.);
#127=ORIENTED_EDGE('',*,*,#174,.T.);
#128=ORIENTED_EDGE('',*,*,#178,.F.);
#129=ORIENTED_EDGE('',*,*,#191,.F.);
#130=ORIENTED_EDGE('',*,*,#194,.F.);
#131=ORIENTED_EDGE('',*,*,#197,.T.);
#132=ORIENTED_EDGE('',*,*,#179,.T.);
#133=ORIENTED_EDGE('',*,*,#189,.T.);
#134=ORIENTED_EDGE('',*,*,#199,.T.);
#135=ORIENTED_EDGE('',*,*,#200,.F.);
#136=ORIENTED_EDGE('',*,*,#201,.T.);
#137=ORIENTED_EDGE('',*,*,#202,.F.);
#138=ORIENTED_EDGE('',*,*,#203,.T.);
#139=ORIENTED_EDGE('',*,*,#204,.F.);
#140=ORIENTED_EDGE('',*,*,#205,.T.);
#141=ORIENTED_EDGE('',*,*,#206,.T.);
#142=ORIENTED_EDGE('',*,*,#207,.T.);
#143=ORIENTED_EDGE('',*,*,#200,.T.);
#144=ORIENTED_EDGE('',*,*,#208,.T.);
#145=ORIENTED_EDGE('',*,*,#204,.T.);
#146=ORIENTED_EDGE('',*,*,#209,.T.);
#147=ORIENTED_EDGE('',*,*,#185,.F.);
#148=ORIENTED_EDGE('',*,*,#210,.T.);
#149=ORIENTED_EDGE('',*,*,#206,.F.);
#150=ORIENTED_EDGE('',*,*,#211,.T.);
#151=ORIENTED_EDGE('',*,*,#183,.T.);
#152=ORIENTED_EDGE('',*,*,#212,.T.);
#153=ORIENTED_EDGE('',*,*,#187,.F.);
#154=ORIENTED_EDGE('',*,*,#213,.T.);
#155=ORIENTED_EDGE('',*,*,#202,.T.);
#156=ORIENTED_EDGE('',*,*,#214,.T.);
#157=ORIENTED_EDGE('',*,*,#203,.F.);
#158=ORIENTED_EDGE('',*,*,#213,.F.);
#159=ORIENTED_EDGE('',*,*,#186,.F.);
#160=ORIENTED_EDGE('',*,*,#209,.F.);
#161=ORIENTED_EDGE('',*,*,#208,.F.);
#162=ORIENTED_EDGE('',*,*,#199,.F.);
#163=ORIENTED_EDGE('',*,*,#188,.F.);
#164=ORIENTED_EDGE('',*,*,#214,.F.);
#165=ORIENTED_EDGE('',*,*,#205,.F.);
#166=ORIENTED_EDGE('',*,*,#210,.F.);
#167=ORIENTED_EDGE('',*,*,#184,.F.);
#168=ORIENTED_EDGE('',*,*,#211,.F.);
#169=ORIENTED_EDGE('',*,*,#207,.F.);
#170=ORIENTED_EDGE('',*,*,#212,.F.);
#171=ORIENTED_EDGE('',*,*,#190,.F.);
#172=ORIENTED_EDGE('',*,*,#201,.F.);
#173=EDGE_CURVE('',#215,#216,#243,.T.);
#174=EDGE_CURVE('',#217,#216,#25,.T.);
#175=EDGE_CURVE('',#218,#217,#244,.T.);
#176=EDGE_CURVE('',#218,#215,#26,.T.);
#177=EDGE_CURVE('',#218,#217,#27,.T.);
#178=EDGE_CURVE('',#215,#216,#28,.T.);
#179=EDGE_CURVE('',#219,#220,#29,.T.);
#180=EDGE_CURVE('',#221,#219,#30,.T.);
#181=EDGE_CURVE('',#221,#222,#31,.T.);
#182=EDGE_CURVE('',#222,#220,#32,.T.);
#183=EDGE_CURVE('',#223,#224,#33,.T.);
#184=EDGE_CURVE('',#223,#225,#245,.F.);
#185=EDGE_CURVE('',#225,#226,#34,.T.);
#186=EDGE_CURVE('',#226,#227,#246,.F.);
#187=EDGE_CURVE('',#227,#228,#35,.T.);
#188=EDGE_CURVE('',#228,#229,#247,.F.);
#189=EDGE_CURVE('',#230,#229,#36,.T.);
#190=EDGE_CURVE('',#230,#224,#248,.F.);
#191=EDGE_CURVE('',#231,#220,#37,.T.);
#192=EDGE_CURVE('',#232,#222,#38,.T.);
#193=EDGE_CURVE('',#232,#231,#39,.T.);
#194=EDGE_CURVE('',#233,#231,#40,.T.);
#195=EDGE_CURVE('',#234,#232,#41,.T.);
#196=EDGE_CURVE('',#234,#233,#42,.T.);
#197=EDGE_CURVE('',#233,#219,#43,.T.);
#198=EDGE_CURVE('',#234,#221,#44,.T.);
#199=EDGE_CURVE('',#229,#235,#45,.F.);
#200=EDGE_CURVE('',#236,#235,#46,.T.);
#201=EDGE_CURVE('',#236,#230,#47,.T.);
#202=EDGE_CURVE('',#237,#238,#48,.T.);
#203=EDGE_CURVE('',#237,#239,#249,.T.);
#204=EDGE_CURVE('',#240,#239,#49,.T.);
#205=EDGE_CURVE('',#240,#241,#250,.T.);
#206=EDGE_CURVE('',#241,#242,#50,.T.);
#207=EDGE_CURVE('',#242,#236,#251,.T.);
#208=EDGE_CURVE('',#235,#238,#252,.T.);
#209=EDGE_CURVE('',#239,#226,#51,.T.);
#210=EDGE_CURVE('',#225,#240,#52,.F.);
#211=EDGE_CURVE('',#241,#223,#53,.T.);
#212=EDGE_CURVE('',#224,#242,#54,.F.);
#213=EDGE_CURVE('',#227,#237,#55,.F.);
#214=EDGE_CURVE('',#238,#228,#56,.T.);
#215=VERTEX_POINT('',#450);
#216=VERTEX_POINT('',#451);
#217=VERTEX_POINT('',#453);
#218=VERTEX_POINT('',#455);
#219=VERTEX_POINT('',#463);
#220=VERTEX_POINT('',#464);
#221=VERTEX_POINT('',#466);
#222=VERTEX_POINT('',#468);
#223=VERTEX_POINT('',#471);
#224=VERTEX_POINT('',#472);
#225=VERTEX_POINT('',#474);
#226=VERTEX_POINT('',#476);
#227=VERTEX_POINT('',#478);
#228=VERTEX_POINT('',#480);
#229=VERTEX_POINT('',#482);
#230=VERTEX_POINT('',#484);
#231=VERTEX_POINT('',#488);
#232=VERTEX_POINT('',#490);
#233=VERTEX_POINT('',#494);
#234=VERTEX_POINT('',#496);
#235=VERTEX_POINT('',#505);
#236=VERTEX_POINT('',#507);
#237=VERTEX_POINT('',#511);
#238=VERTEX_POINT('',#512);
#239=VERTEX_POINT('',#514);
#240=VERTEX_POINT('',#516);
#241=VERTEX_POINT('',#518);
#242=VERTEX_POINT('',#520);
#243=CIRCLE('',#330,0.01);
#244=CIRCLE('',#331,0.01);
#245=CIRCLE('',#335,0.005);
#246=CIRCLE('',#336,0.005);
#247=CIRCLE('',#337,0.005);
#248=CIRCLE('',#338,0.005);
#249=CIRCLE('',#346,0.005);
#250=CIRCLE('',#347,0.005);
#251=CIRCLE('',#348,0.005);
#252=CIRCLE('',#349,0.005);
#253=EDGE_LOOP('',(#89,#90,#91,#92));
#254=EDGE_LOOP('',(#93,#94));
#255=EDGE_LOOP('',(#95,#96));
#256=EDGE_LOOP('',(#97,#98,#99,#100));
#257=EDGE_LOOP('',(#101,#102,#103,#104,#105,#106,#107,#108));
#258=EDGE_LOOP('',(#109,#110,#111,#112));
#259=EDGE_LOOP('',(#113,#114,#115,#116));
#260=EDGE_LOOP('',(#117,#118,#119,#120));
#261=EDGE_LOOP('',(#121,#122,#123,#124));
#262=EDGE_LOOP('',(#125,#126,#127,#128));
#263=EDGE_LOOP('',(#129,#130,#131,#132));
#264=EDGE_LOOP('',(#133,#134,#135,#136));
#265=EDGE_LOOP('',(#137,#138,#139,#140,#141,#142,#143,#144));
#266=EDGE_LOOP('',(#145,#146,#147,#148));
#267=EDGE_LOOP('',(#149,#150,#151,#152));
#268=EDGE_LOOP('',(#153,#154,#155,#156));
#269=EDGE_LOOP('',(#157,#158,#159,#160));
#270=EDGE_LOOP('',(#161,#162,#163,#164));
#271=EDGE_LOOP('',(#165,#166,#167,#168));
#272=EDGE_LOOP('',(#169,#170,#171,#172));
#273=FACE_BOUND('',#253,.T.);
#274=FACE_BOUND('',#254,.T.);
#275=FACE_BOUND('',#255,.T.);
#276=FACE_BOUND('',#256,.T.);
#277=FACE_BOUND('',#257,.T.);
#278=FACE_BOUND('',#258,.T.);
#279=FACE_BOUND('',#259,.T.);
#280=FACE_BOUND('',#260,.T.);
#281=FACE_BOUND('',#261,.T.);
#282=FACE_BOUND('',#262,.T.);
#283=FACE_BOUND('',#263,.T.);
#284=FACE_BOUND('',#264,.T.);
#285=FACE_BOUND('',#265,.T.);
#286=FACE_BOUND('',#266,.T.);
#287=FACE_BOUND('',#267,.T.);
#288=FACE_BOUND('',#268,.T.);
#289=FACE_BOUND('',#269,.T.);
#290=FACE_BOUND('',#270,.T.);
#291=FACE_BOUND('',#271,.T.);
#292=FACE_BOUND('',#272,.T.);
#293=CYLINDRICAL_SURFACE('',#329,0.01);
#294=CYLINDRICAL_SURFACE('',#353,0.005);
#295=CYLINDRICAL_SURFACE('',#354,0.005);
#296=CYLINDRICAL_SURFACE('',#355,0.005);
#297=CYLINDRICAL_SURFACE('',#356,0.005);
#298=ADVANCED_FACE('',(#273),#293,.T.);
#299=ADVANCED_FACE('',(#274),#12,.T.);
#300=ADVANCED_FACE('',(#275),#13,.F.);
#301=ADVANCED_FACE('',(#276,#277),#14,.T.);
#302=ADVANCED_FACE('',(#278),#15,.F.);
#303=ADVANCED_FACE('',(#279),#16,.F.);
#304=ADVANCED_FACE('',(#280),#17,.T.);
#305=ADVANCED_FACE('',(#281),#18,.F.);
#306=ADVANCED_FACE('',(#282,#283),#19,.T.);
#307=ADVANCED_FACE('',(#284),#20,.T.);
#308=ADVANCED_FACE('',(#285),#21,.T.);
#309=ADVANCED_FACE('',(#286),#22,.F.);
#310=ADVANCED_FACE('',(#287),#23,.T.);
#311=ADVANCED_FACE('',(#288),#24,.F.);
#312=ADVANCED_FACE('',(#289),#294,.F.);
#313=ADVANCED_FACE('',(#290),#295,.F.);
#314=ADVANCED_FACE('',(#291),#296,.F.);
#315=ADVANCED_FACE('',(#292),#297,.F.);
#316=CLOSED_SHELL('',(#298,#299,#300,#301,#302,#303,#304,#305,#306,#307,
#308,#309,#310,#311,#312,#313,#314,#315));
#317=STYLED_ITEM('',(#318),#325);
#318=PRESENTATION_STYLE_ASSIGNMENT((#319));
#319=SURFACE_STYLE_USAGE(.BOTH.,#320);
#320=SURFACE_SIDE_STYLE('',(#321));
#321=SURFACE_STYLE_FILL_AREA(#322);
#322=FILL_AREA_STYLE('',(#323));
#323=FILL_AREA_STYLE_COLOUR('',#324);
#324=COLOUR_RGB('',0.231372549019608,0.380392156862745,0.705882352941177);
#325=MANIFOLD_SOLID_BREP('drawer-rpi',#316);
#326=SHAPE_DEFINITION_REPRESENTATION(#542,#327);
#327=SHAPE_REPRESENTATION('drawer-rpi',(#328),#537);
#328=AXIS2_PLACEMENT_3D('',#447,#357,#358);
#329=AXIS2_PLACEMENT_3D('',#448,#359,#360);
#330=AXIS2_PLACEMENT_3D('',#449,#361,#362);
#331=AXIS2_PLACEMENT_3D('',#454,#364,#365);
#332=AXIS2_PLACEMENT_3D('',#457,#367,#368);
#333=AXIS2_PLACEMENT_3D('',#459,#370,#371);
#334=AXIS2_PLACEMENT_3D('',#461,#373,#374);
#335=AXIS2_PLACEMENT_3D('',#473,#380,#381);
#336=AXIS2_PLACEMENT_3D('',#477,#383,#384);
#337=AXIS2_PLACEMENT_3D('',#481,#386,#387);
#338=AXIS2_PLACEMENT_3D('',#485,#389,#390);
#339=AXIS2_PLACEMENT_3D('',#486,#391,#392);
#340=AXIS2_PLACEMENT_3D('',#492,#396,#397);
#341=AXIS2_PLACEMENT_3D('',#498,#401,#402);
#342=AXIS2_PLACEMENT_3D('',#501,#405,#406);
#343=AXIS2_PLACEMENT_3D('',#502,#407,#408);
#344=AXIS2_PLACEMENT_3D('',#503,#409,#410);
#345=AXIS2_PLACEMENT_3D('',#509,#414,#415);
#346=AXIS2_PLACEMENT_3D('',#513,#417,#418);
#347=AXIS2_PLACEMENT_3D('',#517,#420,#421);
#348=AXIS2_PLACEMENT_3D('',#521,#423,#424);
#349=AXIS2_PLACEMENT_3D('',#522,#425,#426);
#350=AXIS2_PLACEMENT_3D('',#523,#427,#428);
#351=AXIS2_PLACEMENT_3D('',#526,#431,#432);
#352=AXIS2_PLACEMENT_3D('',#529,#435,#436);
#353=AXIS2_PLACEMENT_3D('',#532,#439,#440);
#354=AXIS2_PLACEMENT_3D('',#533,#441,#442);
#355=AXIS2_PLACEMENT_3D('',#534,#443,#444);
#356=AXIS2_PLACEMENT_3D('',#535,#445,#446);
#357=DIRECTION('',(0.,0.,1.));
#358=DIRECTION('',(1.,0.,0.));
#359=DIRECTION('',(0.,-1.,0.));
#360=DIRECTION('',(-1.,0.,0.));
#361=DIRECTION('',(0.,1.,0.));
#362=DIRECTION('',(-1.,0.,0.));
#363=DIRECTION('',(0.,-1.,0.));
#364=DIRECTION('',(0.,1.,0.));
#365=DIRECTION('',(-1.,0.,0.));
#366=DIRECTION('',(0.,-1.,0.));
#367=DIRECTION('',(0.,1.,0.));
#368=DIRECTION('',(1.,0.,0.));
#369=DIRECTION('',(1.,0.,0.));
#370=DIRECTION('',(0.,1.,0.));
#371=DIRECTION('',(1.,0.,0.));
#372=DIRECTION('',(1.,0.,0.));
#373=DIRECTION('',(-1.13752359080446E-16,1.,0.));
#374=DIRECTION('',(1.,1.13752359080446E-16,0.));
#375=DIRECTION('',(-1.,-1.13752359080446E-16,0.));
#376=DIRECTION('',(0.,0.,1.));
#377=DIRECTION('',(-1.,-1.13752359080446E-16,0.));
#378=DIRECTION('',(0.,0.,1.));
#379=DIRECTION('',(-1.,-1.13752359080446E-16,0.));
#380=DIRECTION('',(-1.13752359080446E-16,1.,0.));
#381=DIRECTION('',(1.,1.13752359080446E-16,0.));
#382=DIRECTION('',(0.,0.,1.));
#383=DIRECTION('',(-1.13752359080446E-16,1.,0.));
#384=DIRECTION('',(1.,1.13752359080446E-16,0.));
#385=DIRECTION('',(-1.,-1.13752359080446E-16,0.));
#386=DIRECTION('',(-1.13752359080446E-16,1.,0.));
#387=DIRECTION('',(1.,1.13752359080446E-16,0.));
#388=DIRECTION('',(0.,0.,1.));
#389=DIRECTION('',(-1.13752359080446E-16,1.,0.));
#390=DIRECTION('',(1.,1.13752359080446E-16,0.));
#391=DIRECTION('',(1.,0.,0.));
#392=DIRECTION('',(0.,-1.,0.));
#393=DIRECTION('',(0.,1.,0.));
#394=DIRECTION('',(0.,1.,0.));
#395=DIRECTION('',(0.,0.,1.));
#396=DIRECTION('',(-1.27971403965502E-16,1.,0.));
#397=DIRECTION('',(1.,1.27971403965502E-16,0.));
#398=DIRECTION('',(-1.,-1.27971403965502E-16,0.));
#399=DIRECTION('',(-1.,-1.27971403965502E-16,0.));
#400=DIRECTION('',(0.,0.,1.));
#401=DIRECTION('',(1.,0.,0.));
#402=DIRECTION('',(0.,-1.,0.));
#403=DIRECTION('',(0.,1.,0.));
#404=DIRECTION('',(0.,1.,0.));
#405=DIRECTION('',(0.,0.,1.));
#406=DIRECTION('',(1.,0.,0.));
#407=DIRECTION('',(0.,0.,1.));
#408=DIRECTION('',(1.,0.,0.));
#409=DIRECTION('',(1.,0.,0.));
#410=DIRECTION('',(0.,-1.,0.));
#411=DIRECTION('',(0.,1.,0.));
#412=DIRECTION('',(0.,0.,1.));
#413=DIRECTION('',(0.,1.,0.));
#414=DIRECTION('',(-1.27971403965502E-16,1.,0.));
#415=DIRECTION('',(1.,1.27971403965502E-16,0.));
#416=DIRECTION('',(-1.,-1.27971403965502E-16,0.));
#417=DIRECTION('',(-1.27971403965502E-16,1.,0.));
#418=DIRECTION('',(1.,1.27971403965502E-16,0.));
#419=DIRECTION('',(0.,0.,1.));
#420=DIRECTION('',(-1.27971403965502E-16,1.,0.));
#421=DIRECTION('',(1.,1.27971403965502E-16,0.));
#422=DIRECTION('',(-1.,-1.27971403965502E-16,0.));
#423=DIRECTION('',(-1.27971403965502E-16,1.,0.));
#424=DIRECTION('',(1.,1.27971403965502E-16,0.));
#425=DIRECTION('',(-1.27971403965502E-16,1.,0.));
#426=DIRECTION('',(1.,1.27971403965502E-16,0.));
#427=DIRECTION('',(1.,0.,0.));
#428=DIRECTION('',(0.,-1.,0.));
#429=DIRECTION('',(0.,1.,0.));
#430=DIRECTION('',(0.,1.,0.));
#431=DIRECTION('',(0.,0.,1.));
#432=DIRECTION('',(1.,0.,0.));
#433=DIRECTION('',(0.,1.,0.));
#434=DIRECTION('',(0.,1.,0.));
#435=DIRECTION('',(0.,0.,1.));
#436=DIRECTION('',(1.,0.,0.));
#437=DIRECTION('',(0.,1.,0.));
#438=DIRECTION('',(0.,1.,0.));
#439=DIRECTION('',(0.,-1.,0.));
#440=DIRECTION('',(-1.,0.,0.));
#441=DIRECTION('',(0.,1.,0.));
#442=DIRECTION('',(1.,0.,0.));
#443=DIRECTION('',(0.,1.,0.));
#444=DIRECTION('',(1.,0.,0.));
#445=DIRECTION('',(0.,-1.,0.));
#446=DIRECTION('',(-1.,0.,0.));
#447=CARTESIAN_POINT('',(0.,0.,0.));
#448=CARTESIAN_POINT('',(-0.04725,0.01575,0.0425));
#449=CARTESIAN_POINT('',(-0.04725,0.01075,0.0425));
#450=CARTESIAN_POINT('',(-0.05725,0.01075,0.0425));
#451=CARTESIAN_POINT('',(-0.03725,0.01075,0.0425));
#452=CARTESIAN_POINT('',(-0.03725,0.01575,0.0425));
#453=CARTESIAN_POINT('',(-0.03725,0.01575,0.0425));
#454=CARTESIAN_POINT('',(-0.04725,0.01575,0.0425));
#455=CARTESIAN_POINT('',(-0.05725,0.01575,0.0425));
#456=CARTESIAN_POINT('',(-0.05725,0.01575,0.0425));
#457=CARTESIAN_POINT('',(-0.04725,0.01575,0.0475));
#458=CARTESIAN_POINT('',(-0.04725,0.01575,0.0425));
#459=CARTESIAN_POINT('',(-0.04725,0.01075,0.0475));
#460=CARTESIAN_POINT('',(-0.04725,0.01075,0.0425));
#461=CARTESIAN_POINT('',(-0.04725,0.024,-0.0125));
#462=CARTESIAN_POINT('',(-0.04725,0.024,0.0425));
#463=CARTESIAN_POINT('',(-0.032,0.024,0.0425));
#464=CARTESIAN_POINT('',(-0.0625,0.024,0.0425));
#465=CARTESIAN_POINT('',(-0.032,0.024,-0.0125));
#466=CARTESIAN_POINT('',(-0.032,0.024,-0.0125));
#467=CARTESIAN_POINT('',(-0.04725,0.024,-0.0125));
#468=CARTESIAN_POINT('',(-0.0625,0.024,-0.0125));
#469=CARTESIAN_POINT('',(-0.0625,0.024,-0.0125));
#470=CARTESIAN_POINT('',(-0.0125,0.024,-0.0105));
#471=CARTESIAN_POINT('',(-0.039,0.024,-0.0105));
#472=CARTESIAN_POINT('',(-0.0555,0.024,-0.0105));
#473=CARTESIAN_POINT('',(-0.039,0.024,-0.0055));
#474=CARTESIAN_POINT('',(-0.034,0.024,-0.0055));
#475=CARTESIAN_POINT('',(-0.034,0.024,-0.0125));
#476=CARTESIAN_POINT('',(-0.034,0.024,0.0355));
#477=CARTESIAN_POINT('',(-0.039,0.024,0.0355));
#478=CARTESIAN_POINT('',(-0.039,0.024,0.0405));
#479=CARTESIAN_POINT('',(-0.0125,0.024,0.0405));
#480=CARTESIAN_POINT('',(-0.0555,0.024,0.0405));
#481=CARTESIAN_POINT('',(-0.0555,0.024,0.0355));
#482=CARTESIAN_POINT('',(-0.0605,0.024,0.0355));
#483=CARTESIAN_POINT('',(-0.0605,0.024,-0.0125));
#484=CARTESIAN_POINT('',(-0.0605,0.024,-0.0055));
#485=CARTESIAN_POINT('',(-0.0555,0.024,-0.0055));
#486=CARTESIAN_POINT('',(-0.0625,0.01325,-0.0125));
#487=CARTESIAN_POINT('',(-0.0625,0.01325,0.0425));
#488=CARTESIAN_POINT('',(-0.0625,0.0025,0.0425));
#489=CARTESIAN_POINT('',(-0.0625,0.01325,-0.0125));
#490=CARTESIAN_POINT('',(-0.0625,0.0025,-0.0125));
#491=CARTESIAN_POINT('',(-0.0625,0.0025,-0.0125));
#492=CARTESIAN_POINT('',(-0.04725,0.0025,-0.0125));
#493=CARTESIAN_POINT('',(-0.04725,0.0025,0.0425));
#494=CARTESIAN_POINT('',(-0.032,0.0025,0.0425));
#495=CARTESIAN_POINT('',(-0.04725,0.0025,-0.0125));
#496=CARTESIAN_POINT('',(-0.032,0.0025,-0.0125));
#497=CARTESIAN_POINT('',(-0.032,0.0025,-0.0125));
#498=CARTESIAN_POINT('',(-0.032,0.01325,-0.0125));
#499=CARTESIAN_POINT('',(-0.032,0.01325,0.0425));
#500=CARTESIAN_POINT('',(-0.032,0.01325,-0.0125));
#501=CARTESIAN_POINT('',(-0.0125,0.0135,-0.0125));
#502=CARTESIAN_POINT('',(-0.0125,0.0135,0.0425));
#503=CARTESIAN_POINT('',(-0.0605,0.01325,-0.0125));
#504=CARTESIAN_POINT('',(-0.0605,0.01325,0.0355));
#505=CARTESIAN_POINT('',(-0.0605,0.0045,0.0355));
#506=CARTESIAN_POINT('',(-0.0605,0.0045,-0.0125));
#507=CARTESIAN_POINT('',(-0.0605,0.0045,-0.0055));
#508=CARTESIAN_POINT('',(-0.0605,0.024,-0.0055));
#509=CARTESIAN_POINT('',(-0.04725,0.0045,-0.0125));
#510=CARTESIAN_POINT('',(-0.0125,0.0045,0.0405));
#511=CARTESIAN_POINT('',(-0.039,0.0045,0.0405));
#512=CARTESIAN_POINT('',(-0.0555,0.0045,0.0405));
#513=CARTESIAN_POINT('',(-0.039,0.0045,0.0355));
#514=CARTESIAN_POINT('',(-0.034,0.0045,0.0355));
#515=CARTESIAN_POINT('',(-0.034,0.0045,-0.0125));
#516=CARTESIAN_POINT('',(-0.034,0.0045,-0.0055));
#517=CARTESIAN_POINT('',(-0.039,0.0045,-0.0055));
#518=CARTESIAN_POINT('',(-0.039,0.0045,-0.0105));
#519=CARTESIAN_POINT('',(-0.0125,0.0045,-0.0105));
#520=CARTESIAN_POINT('',(-0.0555,0.0045,-0.0105));
#521=CARTESIAN_POINT('',(-0.0555,0.0045,-0.0055));
#522=CARTESIAN_POINT('',(-0.0555,0.0045,0.0355));
#523=CARTESIAN_POINT('',(-0.034,0.01325,-0.0125));
#524=CARTESIAN_POINT('',(-0.034,0.024,0.0355));
#525=CARTESIAN_POINT('',(-0.034,0.01325,-0.0055));
#526=CARTESIAN_POINT('',(-0.0125,0.0135,-0.0105));
#527=CARTESIAN_POINT('',(-0.039,0.0135,-0.0105));
#528=CARTESIAN_POINT('',(-0.0555,0.0045,-0.0105));
#529=CARTESIAN_POINT('',(-0.0125,0.0135,0.0405));
#530=CARTESIAN_POINT('',(-0.039,0.0045,0.0405));
#531=CARTESIAN_POINT('',(-0.0555,0.0135,0.0405));
#532=CARTESIAN_POINT('',(-0.039,0.01325,0.0355));
#533=CARTESIAN_POINT('',(-0.0555,0.0135,0.0355));
#534=CARTESIAN_POINT('',(-0.039,0.0135,-0.0055));
#535=CARTESIAN_POINT('',(-0.0555,0.01325,-0.0055));
#536=MECHANICAL_DESIGN_GEOMETRIC_PRESENTATION_REPRESENTATION('',(#317),
#537);
#537=(
GEOMETRIC_REPRESENTATION_CONTEXT(3)
GLOBAL_UNCERTAINTY_ASSIGNED_CONTEXT((#538))
GLOBAL_UNIT_ASSIGNED_CONTEXT((#541,#540,#539))
REPRESENTATION_CONTEXT('drawer-rpi','TOP_LEVEL_ASSEMBLY_PART')
);
#538=UNCERTAINTY_MEASURE_WITH_UNIT(LENGTH_MEASURE(1.E-8),#541,
'DISTANCE_ACCURACY_VALUE','Maximum Tolerance applied to model');
#539=(
NAMED_UNIT(*)
SI_UNIT($,.STERADIAN.)
SOLID_ANGLE_UNIT()
);
#540=(
NAMED_UNIT(*)
PLANE_ANGLE_UNIT()
SI_UNIT($,.RADIAN.)
);
#541=(
LENGTH_UNIT()
NAMED_UNIT(*)
SI_UNIT($,.METRE.)
);
#542=PRODUCT_DEFINITION_SHAPE('','',#543);
#543=PRODUCT_DEFINITION('','',#545,#544);
#544=PRODUCT_DEFINITION_CONTEXT('',#551,'design');
#545=PRODUCT_DEFINITION_FORMATION_WITH_SPECIFIED_SOURCE('','',#547,
 .NOT_KNOWN.);
#546=PRODUCT_RELATED_PRODUCT_CATEGORY('','',(#547));
#547=PRODUCT('drawer-rpi','drawer-rpi','drawer-rpi',(#549));
#548=PRODUCT_CATEGORY('','');
#549=PRODUCT_CONTEXT('',#551,'mechanical');
#550=APPLICATION_PROTOCOL_DEFINITION('international standard',
'ap242_managed_model_based_3d_engineering',2020,#551);
#551=APPLICATION_CONTEXT('managed model based 3d engineering');
ENDSEC;
END-ISO-10303-21;
